<?xml version="1.0" encoding="UTF-8" standalone="no"?>
<svg width="87px" height="85px" viewBox="0 0 87 85" version="1.1" xmlns="http://www.w3.org/2000/svg" xmlns:xlink="http://www.w3.org/1999/xlink">
    <!-- Generator: Sketch 40.1 (33804) - http://www.bohemiancoding.com/sketch -->
    <title>Page 1</title>
    <desc>Created with Sketch.</desc>
    <defs>
        <polygon id="path-1" points="29.9411665 0.0453235653 0.236824148 0.0453235653 0.236824148 15.7062542 29.9411665 15.7062542 29.9411665 0.0453235653"></polygon>
    </defs>
    <g id="desktop-1024x1024px" stroke="none" stroke-width="1" fill="none" fill-rule="evenodd">
        <g id="9-thanks" transform="translate(-469.000000, -200.000000)">
            <g id="Group-2" transform="translate(342.000000, 200.000000)">
                <g id="Group">
                    <g id="Group-5" transform="translate(127.000000, 0.000000)">
                        <g id="Group-4">
                            <g id="Page-1">
                                <g id="Group-3" transform="translate(49.000000, 0.000000)">
                                    <mask id="mask-2" fill="white">
                                        <use xlink:href="#path-1"></use>
                                    </mask>
                                    <g id="Clip-2"></g>
                                    <path d="M13.6008291,0.6636337 L13.6008291,0.6636337 C9.44485268,1.59749206 3.75080202,4.0497265 0.236824148,10.3926569 C1.76128711,10.066149 4.6060439,9.7830232 7.26931699,10.3195922 C9.65809601,10.812779 12.7977638,12.1439267 14.260976,15.7058315 C14.3267638,15.735514 20.3043828,14.192022 20.3043828,14.192022 C20.118362,10.6072845 21.7970861,8.08198535 23.246687,6.58872527 C25.0002731,4.74612454 27.5002109,3.38986081 29.9411665,2.96973871 C26.8763608,0.58371917 20.2567433,-0.843326007 13.6008291,0.6636337 M12.9973958,9.69625885 C12.9769789,9.66429304 12.856746,9.49989744 12.856746,9.49989744 C12.5278068,9.30353602 12.1217371,9.08205861 12.1217371,8.2920464 L12.1217371,8.24638095 C12.1262741,7.73721123 12.5414181,7.23260806 13.1357772,7.01569719 L13.8367579,6.95633211 C13.8390264,6.9494823 13.8435635,6.93578266 13.8435635,6.92208303 C13.8435635,6.69832234 13.52143,5.61148474 13.52143,5.61148474 L13.8889345,4.32828571 C13.9637965,4.16389011 14.2382905,3.55425641 14.2382905,3.55425641 C14.2473647,3.55197314 14.2881986,3.35332845 14.3018098,3.27341392 C14.3267638,3.36017827 14.4333855,3.4971746 14.4333855,3.4971746 L14.9574197,3.96067888 L16.0372476,5.11144811 L16.2368796,6.49511111 C16.3253529,6.54990965 17.1329553,6.2736337 17.1329553,6.2736337 C17.7522684,6.23481807 18.2717655,6.48141148 18.4487121,6.89925031 C18.8116794,7.61848107 18.5666765,8.00207082 18.4214895,8.23496459 C18.3375533,8.36967766 18.3148679,8.66650305 18.3148679,8.66650305 C18.3466275,8.942779 18.3511646,9.05922589 18.2581542,9.10260806 C18.1379213,9.16882295 17.9836601,9.12315751 17.6910177,8.93364591 L17.5140711,8.68020269 C17.3666156,8.37881074 17.239577,8.18244933 16.8743411,8.33999512 C16.8788782,8.33999512 16.6361438,8.5386398 16.6361438,8.5386398 C16.5658188,8.71673504 16.6361438,8.942779 16.72008,9.03639316 C16.9015636,9.16197314 16.9514717,9.19850549 16.9514717,9.19850549 L17.1851319,9.47934799 L17.1193441,9.87663736 L17.0036482,10.066149 L17.0081853,10.687199 C17.0739731,10.7990794 17.4868485,11.0593724 17.4868485,11.0593724 C17.6683322,11.0890549 17.4868485,11.2351844 17.4823114,11.2351844 C17.4868485,11.2260513 16.7382283,11.3424982 16.7382283,11.3424982 C16.6406808,11.4863443 16.4092891,12.1256606 16.4092891,12.1256606 C16.2867877,12.1667595 15.7718277,11.6438901 15.7718277,11.6438901 C15.6311778,11.5616923 14.9120487,11.7557705 14.9120487,11.7557705 C14.9120487,11.7557705 14.7713989,11.7420708 14.7169538,11.7329377 C14.775936,11.7146716 14.850798,11.5890916 14.850798,11.5890916 L15.0753841,10.963475 C15.0753841,10.8515946 14.8848262,10.6095678 14.7827416,10.5387863 C14.6239434,10.4132063 14.3630606,10.041033 14.3630606,10.041033 C14.3721348,10.0433162 14.5263959,9.64831013 14.5263959,9.64831013 L14.6420918,9.44053236 L14.4333855,8.91537973 C14.4243113,8.91537973 14.1157891,8.84916484 14.1157891,8.84916484 C13.9501852,8.87199756 13.8276837,8.90624664 13.7596273,9.01584371 C13.7596273,9.03182662 13.721062,9.46108181 13.721062,9.46108181 C13.721062,9.47249817 13.7119879,9.81042247 13.7119879,9.81042247 C13.6530057,9.89262027 13.5554582,10.0273333 13.4102712,10.0318999 C13.2469359,10.0318999 13.1448513,9.89262027 12.9973958,9.69625885" id="Fill-1" fill="#010202" mask="url(#mask-2)"></path>
                                </g>
                                <path d="M63.0531043,16.5163941 L63,16.5336177 L63.0148692,16.5852887 C63.4099654,17.756497 63.9452571,19.9051475 64.115191,20.9988494 C64.176792,21.0483674 69.9991511,19.483168 69.9991511,19.483168 C70.035262,19.4207323 68.907326,15.0007128 68.907326,15.0007128 C68.8414766,14.9619595 63.0531043,16.5163941 63.0531043,16.5163941" id="Fill-4" fill="#010202"></path>
                                <path d="M48.5051525,16.1699394 C48.291481,16.3478233 48.2437458,16.6235434 48.2437458,16.8458984 C48.2437458,16.96597 48.2573845,17.0660297 48.2664769,17.123842 L48.2778424,17.3862208 L48.3187582,19.1984135 C48.3801319,19.8943844 48.5324297,20.0833861 49.1052512,20.4702837 C49.3166496,20.6170379 49.3666579,20.7526744 49.3666579,20.8594048 C49.3666579,20.8794168 49.3621116,20.9083229 49.3575654,20.9327819 C49.2961917,21.115113 49.0256927,21.2618672 48.6438117,21.3107853 C48.2391996,22.9873415 47.7186595,23.9634796 47.0094519,24.3481536 C46.4366304,24.6505563 45.8956323,24.4682253 45.5387554,24.3481536 C45.0909545,24.6861331 43.9680425,24.8217696 43.3997672,24.6794625 C42.9201428,25.1953259 42.1109188,26.5739265 41.9177052,27.3877455 C41.7608612,28.0903871 41.331245,28.0192335 41.3176064,28.0147864 C41.0652922,27.9925509 40.8561669,27.7346192 40.8561669,27.4411107 L41.1653087,25.584447 L41.2335017,25.2486911 C41.1630356,25.1842082 40.5402058,24.9863123 40.5402058,24.9863123 C40.1151359,25.3932218 39.6787005,25.5799999 39.1945299,25.5466467 C37.848854,25.4577047 36.344061,23.641065 36.1440281,23.2786264 C36.007642,23.009577 35.7507815,23.0273654 35.4961942,23.0762834 C35.4666439,23.0762834 32.5411626,23.7411247 32.5411626,23.7411247 C32.4934275,23.7700308 31,27.0631073 31,27.0631073 C31.0659199,27.1409315 35.3461695,26.1714641 35.3870854,26.1603463 C35.3825392,26.1647934 35.3734467,26.167017 35.3734467,26.1759111 C35.3734467,26.2470647 35.4393667,26.4205016 35.4393667,26.4205016 C35.491648,26.3426773 35.5757528,27.2387677 35.5757528,27.2387677 C37.1851084,28.174882 41.1039349,31.854856 42.0313602,32.9999839 C42.115465,33.004431 44.1953526,32.0861051 44.1953526,32.0861051 L46.0865728,31.4034755 C47.2185772,30.8720472 48.0573515,30.2205473 48.5142449,29.5156822 C48.56198,29.4556463 50.0644999,27.8435731 50.0644999,27.8435731 L51.0351141,26.8162933 C51.5374695,26.2226057 52.0261863,25.6022354 51.9989091,25.268703 L51.839792,24.0390803 L51.5465619,21.4886693 C51.594297,21.0484065 51.5283771,20.3657769 51.1692271,19.896608 C50.6532331,19.2317667 49.6053335,17.0504649 49.4689474,16.063209 C48.9802306,15.9453609 48.673362,15.9987261 48.5051525,16.1699394" id="Fill-6" fill="#010202"></path>
                                <path d="M18.0473934,28.0944182 L18,28.1077244 L18.2843602,29.1056883 L18.3382163,29.3385465 C18.3489875,29.4361252 18.618268,30.9973843 18.618268,30.9973843 C18.6828953,31.0483913 21.524343,30.3365104 21.524343,30.3365104 C21.5652736,30.3076803 23,27.003311 23,27.003311 C22.9396812,26.930127 18.0473934,28.0944182 18.0473934,28.0944182" id="Fill-8" fill="#010202"></path>
                                <path d="M0.32860218,30.4738921 L0.307613492,30.4826678 L0.184013444,30.5857832 C-0.102831952,30.9894691 -0.0212092787,32.1259324 0.202670055,32.9969285 C0.466194687,33.9820097 1.01190056,34.802545 1.3640441,35 C3.74042994,34.7191751 3.74042994,34.7191751 3.74042994,34.6687143 C4.20684521,34.6138657 3.95498096,33.3633172 3.68212803,32.1961387 C3.38595433,30.8139535 2.8845579,30.0416849 2.35750864,30 C2.33418787,30 0.32860218,30.4738921 0.32860218,30.4738921" id="Fill-10" fill="#010202"></path>
                                <path d="M4.05631142,30.8578283 L4,30.872238 L4.38291764,32.2243458 C4.38291764,32.2339523 4.48878311,32.7310861 4.48878311,32.7310861 C4.48878311,32.7358893 4.72529107,33.9991375 4.72529107,33.9991375 C4.79286477,34.0471698 12.9918073,32.0730443 12.9918073,32.0730443 C13.0368564,32.0057991 12.8814369,31.2829137 12.8814369,31.2829137 L12.7282698,30.6248719 C12.7012404,30.5047913 12.6629486,30.3318752 12.6629486,30.3318752 L12.4467128,29.0013818 C12.3813915,28.9413415 4.05631142,30.8578283 4.05631142,30.8578283" id="Fill-12" fill="#010202"></path>
                                <path d="M61.5196171,17.0821462 L61.4883921,17.0927948 L60,20.9928372 C60.0754604,21.0780258 62.9976008,20.3752196 62.9976008,20.3752196 C63.0548467,20.3033416 62.0686568,17.0076061 62.0686568,17.0076061 C61.9931964,16.9703361 61.5196171,17.0821462 61.5196171,17.0821462" id="Fill-14" fill="#010202"></path>
                                <path d="M55.3067553,18.9436973 L55.2801772,18.951943 L54,21.9966861 C54.06866,22.0647135 58.6733112,21.0628549 58.6733112,21.0628549 C58.7109635,21.0360562 60,18.0036818 60,18.0036818 C59.9357697,17.9315315 55.3067553,18.9436973 55.3067553,18.9436973" id="Fill-16" fill="#010202"></path>
                                <path d="M51.0735178,19.6703764 L51,19.686136 L51.1802372,20.0696178 L51.3367589,20.4163274 L51.4079051,20.6973723 C51.429249,20.7499041 51.6118577,21.9765207 51.6118577,21.9765207 C51.6118577,21.9791473 51.6332016,22.3127239 51.6332016,22.3127239 C51.6332016,22.3179771 51.6853755,22.9325987 51.6853755,22.9325987 C51.7683794,23.1138333 52.6102767,22.8721872 52.6102767,22.8721872 C52.6434783,22.8327884 54,19.0058497 54,19.0058497 C53.9312253,18.927052 51.0735178,19.6703764 51.0735178,19.6703764" id="Fill-18" fill="#010202"></path>
                                <path d="M24.4958478,25.4930764 L24.4658452,25.5000515 L23,28.9969059 C23.0642915,29.0782821 29.5127244,27.527483 29.5127244,27.527483 C29.5470131,27.4949325 31,24.0027282 31,24.0027282 C30.9399946,23.926002 24.4958478,25.4930764 24.4958478,25.4930764" id="Fill-20" fill="#010202"></path>
                                <path d="M65.5500336,21.862074 L65.4959704,21.8791974 L65.5265279,22.0504321 C65.8626595,23.3839218 66.3116185,25.2075706 65,26.7700867 C67.2118872,27.5855916 68.8878442,28.9597496 69.5812626,30 C69.8797851,28.8013576 70.6836803,26.919917 72,25.5671634 C70.5261921,24.6938667 69.5812626,23.1805806 69.162861,21.0016199 C69.0899933,20.9566708 65.5500336,21.862074 65.5500336,21.862074" id="Fill-22" fill="#010202"></path>
                                <path d="M70.0473969,15.3438914 L70,15.3574661 L70.7606079,18.2171946 C72.3608185,18.0701357 74.773548,18.2239819 76.4121276,19 C78.4547096,16.959276 82.4337948,14.6312217 85,13.638009 C81.8311766,13.459276 77.529341,13.138009 74.8909118,12 C73.6540776,13.4547511 71.4851038,14.8348416 70.0473969,15.3438914" id="Fill-24" fill="#010202"></path>
                                <path d="M36.6516946,19.0718478 L36.5809077,19.1060839 L36.3311872,19.2087923 C35.9556233,19.3050815 35.6449474,19.6987971 35.5800594,20.0047826 C35.5761268,20.0047826 35,22.3028836 35,22.3028836 C35.110113,22.3114427 35.4365193,21.598903 35.4365193,21.598903 C35.4365193,21.5582476 35.4404519,21.4191632 35.5721942,21.4191632 C35.674442,21.4191632 35.694105,21.4897753 35.7845549,21.909168 C35.8258473,22.0525319 35.998882,22.6324065 35.998882,22.6324065 C36.2741644,23.302151 36.8306282,23.9269606 37.9101286,24.8042617 C38.2208044,25.0396352 38.594402,25.0674521 38.8244595,24.8620352 C39.0623822,24.6288015 39.0584496,24.1773124 38.8126617,23.7172642 L37.7488917,20.8628259 C37.7488917,20.8564067 37.5837222,20.3599826 37.5837222,20.3599826 L37.2455181,19.4035104 C37.0213596,18.9263442 36.9033814,18.9563008 36.6516946,19.0718478" id="Fill-26" fill="#010202"></path>
                                <path d="M40.3204382,18.0445699 L40.2811257,18.0517864 C39.7191879,18.1672509 39.1179376,18.3067705 39,18.6170813 L39.1040626,19.4638208 C39.1688126,19.6442341 41.4720638,25.5762219 41.4720638,25.5762219 C41.680189,26.0044026 42.0895017,26.0549184 42.3970643,25.958698 C42.7809396,25.8215839 43.1162522,25.3958086 42.9613146,24.7872146 C42.8318146,24.1449434 41.3726263,18.7181127 41.1275012,18.1576288 C41.0535011,17.9940542 40.780626,17.960377 40.3204382,18.0445699" id="Fill-28" fill="#010202"></path>
                                <path d="M41.1386689,17.3916839 L41.1386689,17.3916839 C40.8439108,17.5279916 41.0797173,18.0270166 41.286048,18.4636634 C41.3106112,18.5191107 41.5169418,18.9580678 41.5169418,18.9580678 C41.5169418,18.9649987 41.6127382,19.1960288 41.6127382,19.1960288 L41.7552046,19.5749181 C42.2366428,20.8525145 43.2388204,23.5047398 43.1307424,24.4843074 C43.3198788,24.9394366 43.7423655,25.0387796 44.0788809,24.987953 C44.5603192,24.9301954 44.9852621,24.6367872 45,24.343379 L44.9656116,23.590221 C44.9557863,23.5047398 44.9361357,22.807029 44.9361357,22.807029 L44.8206888,21.547915 L43.7030644,17.8791573 L43.290403,17.0590005 C42.4085851,16.8487632 41.4260581,17.2576864 41.1386689,17.3916839" id="Fill-30" fill="#010202"></path>
                                <path d="M44.4030612,17.0479729 L44.3979592,17.0479729 L44.4030612,17.0479729 C44.1377551,17.074358 44,17.2158781 44,17.4317562 C44,18.29287 44.4770408,19.5545575 44.6811224,20.0942528 C44.9668367,20.8906031 45.25,22.4257363 45.2193878,22.9270532 C45.2193878,22.9438437 45.1989796,24.7332333 45.1989796,24.7332333 C45.2295918,24.8915439 45.3596939,24.9467127 45.4693878,24.9754965 C45.7423469,25.0474559 46.1709184,24.9611046 46.369898,24.7140441 C46.7193878,24.3446527 46.9336735,23.5483024 47,23.1021543 C47,23.097357 46.9591837,22.339385 46.9591837,22.339385 C46.9438776,22.2746216 46.9081633,21.6869534 46.9081633,21.6869534 L46.875,20.5380022 L46.8852041,19.2187471 C46.8852041,19.2139499 46.7755102,18.3408429 46.7755102,18.3408429 C46.7755102,18.3360456 46.6045918,17.9018907 46.6045918,17.9018907 C46.5357143,17.7076004 46.4260204,17.3813846 46.4260204,17.3813846 C46.2857143,17.1079391 46.2117347,17.0503716 45.9234694,17 L44.4030612,17.0479729 Z" id="Fill-32" fill="#010202"></path>
                                <path d="M34.0163007,29.0571594 C34.0071859,29.0619196 33.4671337,29.3975198 33.4671337,29.3975198 C33.4238384,29.4308418 33.2552145,29.5498489 33.2552145,29.5498489 C33.0546888,29.6807568 33,29.7688221 33,29.8687881 L33,29.8973498 L33.152673,30.0806208 C34.0185794,30.7065984 38.6397853,35.5192472 38.8266387,35.7572615 C38.8311961,35.7572615 39.4350519,36.9473329 39.4350519,36.9473329 C39.617348,37.0306379 39.7836932,36.9901755 39.7836932,36.9901755 C40.2143677,36.9068705 40.6154191,36.6212533 40.9800113,36.1357042 C41.0073557,36.0928616 41.0643232,35.9928956 40.6815014,35.4597436 C39.5740527,33.7317599 35.9828198,29.9996959 34.7318128,29.1214232 C34.4743196,28.9429125 34.1097274,28.9976558 34.0163007,29.0571594" id="Fill-34" fill="#010202"></path>
                                <path d="M26.9559454,34.4743875 L26.0859276,34.9799555 L25.3997796,35.3786192 C23.9871219,36.1982183 19.6190945,39.2004454 16,41.7305122 C20.6281357,43.7461024 25.081371,46.3073497 27.4514967,48 C29.8305917,46.22049 32.0886017,44.1915367 33.440717,42.8864143 L38.999413,37.3095768 C39.0173515,37.2628062 38.6182196,36.4565702 38.6182196,36.4565702 C38.4343499,36.2427617 33.9676607,31.7728285 32.9518926,31 C32.8891078,31 26.9559454,34.4743875 26.9559454,34.4743875" id="Fill-36" fill="#010202"></path>
                                <path d="M24.0815468,70.5842797 L24,70.6319445 L25.2011621,71.4490544 C25.2959327,71.5307654 25.5824484,71.7645496 25.5824484,71.7645496 C26.2326187,72.2480064 28.8399118,74.8763767 31.1210178,77.522905 C32.0334602,78.5942269 32.6307353,79.1798223 35.0925666,79.6542 C37.3957123,80.0695643 42.6014827,80.2329863 46,79.4363041 C44.12222,77.9496179 41.2857143,74.8695674 39.4057303,72.8290623 C39.4057303,72.8267926 37.3053496,70.6523722 37.3053496,70.6523722 C36.4546183,70.0168423 35.7868163,69.5265763 34.5547986,69.3064106 C28.7826087,68.2623257 24.8132639,70.1893433 24.0815468,70.5842797" id="Fill-38" fill="#010202"></path>
                                <path d="M39.0981053,69.840118 L39,69.8787223 L40.2936217,70.7393701 L42.0230136,72.4697491 L42.4405317,72.9171042 C44.2703105,74.8995463 47.3435175,78.2195122 49.2850908,79.4593901 C51.1627815,80.8082682 57.8179744,81.4350196 62,80.6674762 C60.546672,79.3390356 58.9473267,77.3406977 57.3913302,75.4082141 C56.0771749,73.7618562 54.699137,72.0564564 53.6747346,71.2548504 C52.84198,70.5917656 51.630493,70.0127018 50.4212876,69.699326 C45.0026783,68.3845105 40.6495387,69.2133666 39.0981053,69.840118" id="Fill-40" fill="#010202"></path>
                                <path d="M54.1366837,70.2472388 L54,70.275835 L55.0957106,70.9797395 C56.1331626,71.7760315 57.3453905,73.3796141 58.521767,74.9260044 C59.9827145,76.8353454 61.4795134,78.8062782 62.9852753,79.9589218 C64.6971831,81.329336 70.8277849,83.0495027 75,82.9989096 C73.8617157,81.5163107 72.68758,79.5431782 71.5470551,77.6338371 L71.3924456,77.3720726 C70.4222151,75.6761026 69.3085787,73.7535633 68.3943662,72.7922937 C67.7826504,72.1763772 66.8729193,71.4064816 65.2483995,70.9555428 C61.965749,70.0558648 56.7672855,69.7281092 54.1366837,70.2472388" id="Fill-42" fill="#010202"></path>
                                <path d="M69.5629881,71.6547752 L69.5761439,71.6641292 C70.547485,72.6649999 71.6438068,74.6480334 72.8124858,76.7526681 C73.8803032,78.7099783 74.9722397,80.6532577 76.0554056,82.0984401 C76.7241619,82.9683558 79.6601116,85.1758837 82.3285588,84.9888051 C85.095675,84.8087419 86.6678004,83.2326044 86.9791558,80.3095007 C87.0997512,79.1589671 86.6963048,78.0341568 85.7885503,76.9444237 C83.1376443,73.740702 76.3886874,71.3531109 69.0016713,71 C68.9643964,71.0982163 69.5629881,71.6547752 69.5629881,71.6547752" id="Fill-44" fill="#010202"></path>
                                <path d="M2.9105441,74.8770019 L2.9105441,74.8770019 C0.924151738,75.8976444 -0.411986624,78.5640728 0.115788029,80.4650193 C0.487679873,81.8216233 1.46528777,82.8592764 2.92390549,83.4610302 C4.84349093,84.2286384 9.3574117,84.8452765 18,80.3501971 C17.9955462,80.2566382 15.2809584,78.8830235 15.2809584,78.8830235 L14.8801169,78.6618843 L12.4238492,77.0373618 C11.1166605,76.0932675 9.77829528,75.1640576 7.90102088,74.2582374 C7.38215382,74.0689933 5.50265252,73.5544194 2.9105441,74.8770019" id="Fill-46" fill="#010202"></path>
                                <path d="M19.5314197,70.0423845 L19.5314197,70.0423845 C15.2613614,70.3726227 12.6279269,71.0935349 9.10431739,72.9109245 L9,72.9627265 L9.44508752,73.1418754 C11.5592532,74.0980554 12.5630183,74.8815618 13.5320109,75.6391672 C13.576056,75.6780187 15.7342669,77.1414274 15.7342669,77.1414274 L16.6731233,77.6767155 C16.7032595,77.6961413 19.9510074,79.3430156 19.9510074,79.3430156 C24.0240218,80.748147 30.1486115,79.6581449 32.9999534,78.3285583 C33.0069079,78.2400631 32.2326411,77.7436265 32.2326411,77.7436265 C32.0958694,77.6529729 30.3711553,76.5003767 30.3711553,76.5003767 L27.2346792,73.5131236 L26.4140491,72.6993993 L25.2016492,71.5662289 C23.9544769,70.4934942 22.5102607,69.8200672 19.5314197,70.0423845" id="Fill-48" fill="#010202"></path>
                                <path d="M14.3183219,27.465182 L14.2878231,27.465182 L14.1681739,27.5803906 C13.9288757,27.956449 13.9523363,29.0346278 14.1916346,29.9910767 C14.4989686,31.0649081 15.1980948,32.0778745 15.587541,31.9952721 L17.6896118,31.6757312 C18.196361,31.5583488 17.9945998,30.4040888 17.7060343,29.1628789 C17.4033924,27.8303716 16.9107195,27.0543437 16.3711254,27 C16.3500109,27 14.3183219,27.465182 14.3183219,27.465182" id="Fill-50" fill="#010202"></path>
                                <path d="M12.1618787,43.0886419 C12.1025992,43.1594632 12,43.3033905 12,43.4244723 C12,43.4633098 12.0091199,43.4975782 12.0296398,43.5249929 C12.0547196,43.6003834 12.1801186,43.6666357 12.4081167,43.7054732 C15.2786138,44.1989382 20.75057,46.8741585 23.3885089,48.1649351 L24.6424989,48.7497826 C25.0323757,48.9028482 26.377565,49.3529066 27,48.4642126 C24.1705426,46.325864 19.248062,43.8197012 14.4464204,42.0034757 C13.4751482,41.960069 12.7090743,42.3233141 12.1618787,43.0886419" id="Fill-52" fill="#010202"></path>
                                <path d="M6.43089691,50.1256281 L6.33148229,50.2346347 C5.88743033,50.6984925 5.92277775,50.8051797 6.24090453,51.3873212 C7.08703339,52.9621183 9.72041618,55.3927329 11.8213784,57 C14.7154485,54.7758021 19.8386151,51.5519907 22.8586103,50.0977967 L22.9513973,50.0490916 L23,49.8890607 C22.2621226,49.3950522 15.0821779,45.6563587 11.6004571,45 C10.906764,45.4244298 9.12834689,47.1963664 6.43089691,50.1256281" id="Fill-54" fill="#010202"></path>
                                <path d="M23.8403548,50.1882684 C21.1064302,51.3548836 15.3769401,54.6073983 12.0864745,57.0456898 L12.059867,57.0588225 L12,57.2536231 C12.0266075,57.7482855 12.8824834,58.6653808 13.3170732,58.8776917 C13.7583149,59.0834362 14.1596452,59.0834362 14.8359202,58.4508812 C16.654102,56.7458281 22.8758315,52.7535087 25.9334812,51.3286184 L25.9911308,51.3089194 L26,51.0878535 C25.7028825,50.5297167 25.1929047,49.5994888 23.8403548,50.1882684" id="Fill-56" fill="#010202"></path>
                                <path d="M16.0315367,59.7475155 L16,59.7790095 L16.0315367,59.8217513 C17.0204384,61.0117733 20.8138564,64.3298875 24.0080765,67.0856095 L25.6254601,68.4983388 C28.6980386,67.6097591 31.8156695,67.3735544 34.953574,67.8054716 C35.9424757,67.9314475 36.6745783,68.1676522 37.2422394,68.5163354 C39.2921268,67.5197763 44.5092028,66.7031828 49.8591836,68.0304285 C50.7737487,68.257635 51.8167134,68.5410806 52.5916158,68.9999927 C52.6299104,69.0022423 56.5945278,68.4825919 56.5945278,68.4825919 C56.7612219,68.4645953 57,68.4443492 57,68.4443492 C48.289105,62.4267522 36.2330641,56.4001569 27.4275589,52 C24.6590847,53.320497 18.3584968,57.4034647 16.0315367,59.7475155" id="Fill-58" fill="#010202"></path>
                            </g>
                        </g>
                    </g>
                </g>
            </g>
        </g>
    </g>
</svg>