<?xml version="1.0" encoding="UTF-8" standalone="no"?>
<svg width="66px" height="64px" viewBox="0 0 66 64" version="1.1" xmlns="http://www.w3.org/2000/svg" xmlns:xlink="http://www.w3.org/1999/xlink">
    <!-- Generator: Sketch 40 (33762) - http://www.bohemiancoding.com/sketch -->
    <title>Group 11</title>
    <desc>Created with Sketch.</desc>
    <defs>
        <polygon id="path-1" points="22.5779077 0.266666667 0.418830769 0.266666667 0.418830769 11.6983085 22.5779077 11.6983085 22.5779077 0.266666667"></polygon>
        <rect id="path-3" x="0" y="0" width="98" height="50"></rect>
        <polygon id="path-5" points="22.4820625 0.268620269 0.413063164 0.268620269 0.413063164 11.7840104 22.4820625 11.7840104 22.4820625 0.268620269"></polygon>
    </defs>
    <g id="desktop" stroke="none" stroke-width="1" fill="none" fill-rule="evenodd">
        <g id="3-xo" transform="translate(-482.000000, -1483.000000)">
            <g id="Group-11" transform="translate(463.000000, 1471.000000)">
                <g id="b/w_logo">
                    <g id="Page-1" transform="translate(19.000000, 12.000000)">
                        <g id="Group-3" transform="translate(36.538462, 0.400333)">
                            <mask id="mask-2" fill="white">
                                <use xlink:href="#path-1"></use>
                            </mask>
                            <g id="Clip-2"></g>
                            <path d="M10.3882154,0.718 L10.3882154,0.718 C7.28790769,1.39966667 3.04021538,3.18966667 0.418830769,7.81966667 C1.55606154,7.58133333 3.67821538,7.37466667 5.66498462,7.76633333 C7.44698462,8.12633333 9.78913846,9.098 10.8806769,11.698 C10.9297538,11.7196667 15.3889846,10.593 15.3889846,10.593 C15.2502154,7.97633333 16.5025231,6.133 17.5839077,5.043 C18.8920615,3.698 20.7569846,2.708 22.5779077,2.40133333 C20.2916,0.659666667 15.3534462,-0.382 10.3882154,0.718 M9.93806154,7.31133333 C9.92283077,7.288 9.83313846,7.168 9.83313846,7.168 C9.58775385,7.02466667 9.28483077,6.863 9.28483077,6.28633333 L9.28483077,6.253 C9.28821538,5.88133333 9.59790769,5.513 10.0412923,5.35466667 L10.5642154,5.31133333 C10.5659077,5.30633333 10.5692923,5.29633333 10.5692923,5.28633333 C10.5692923,5.123 10.3289846,4.32966667 10.3289846,4.32966667 L10.6031385,3.393 C10.6589846,3.273 10.8637538,2.828 10.8637538,2.828 C10.8705231,2.82633333 10.9009846,2.68133333 10.9111385,2.623 C10.9297538,2.68633333 11.0092923,2.78633333 11.0092923,2.78633333 L11.4002154,3.12466667 L12.2057538,3.96466667 L12.3546769,4.97466667 C12.4206769,5.01466667 13.0231385,4.813 13.0231385,4.813 C13.4851385,4.78466667 13.8726769,4.96466667 14.0046769,5.26966667 C14.2754462,5.79466667 14.0926769,6.07466667 13.9843692,6.24466667 C13.9217538,6.343 13.9048308,6.55966667 13.9048308,6.55966667 C13.9285231,6.76133333 13.9319077,6.84633333 13.8625231,6.878 C13.7728308,6.92633333 13.6577538,6.893 13.4394462,6.75466667 L13.3074462,6.56966667 C13.1974462,6.34966667 13.1026769,6.20633333 12.8302154,6.32133333 C12.8336,6.32133333 12.6525231,6.46633333 12.6525231,6.46633333 C12.6000615,6.59633333 12.6525231,6.76133333 12.7151385,6.82966667 C12.8505231,6.92133333 12.8877538,6.948 12.8877538,6.948 L13.0620615,7.153 L13.0129846,7.443 L12.9266769,7.58133333 L12.9300615,8.03466667 C12.9791385,8.11633333 13.2871385,8.30633333 13.2871385,8.30633333 C13.4225231,8.328 13.2871385,8.43466667 13.2837538,8.43466667 C13.2871385,8.428 12.7286769,8.513 12.7286769,8.513 C12.6559077,8.618 12.4832923,9.08466667 12.4832923,9.08466667 C12.3919077,9.11466667 12.0077538,8.733 12.0077538,8.733 C11.9028308,8.673 11.3663692,8.81466667 11.3663692,8.81466667 C11.3663692,8.81466667 11.2614462,8.80466667 11.2208308,8.798 C11.2648308,8.78466667 11.3206769,8.693 11.3206769,8.693 L11.4882154,8.23633333 C11.4882154,8.15466667 11.3460615,7.978 11.2699077,7.92633333 C11.1514462,7.83466667 10.9568308,7.563 10.9568308,7.563 C10.9636,7.56466667 11.0786769,7.27633333 11.0786769,7.27633333 L11.1649846,7.12466667 L11.0092923,6.74133333 C11.0025231,6.74133333 10.7723692,6.693 10.7723692,6.693 C10.6488308,6.70966667 10.5574462,6.73466667 10.5066769,6.81466667 C10.5066769,6.82633333 10.4779077,7.13966667 10.4779077,7.13966667 C10.4779077,7.148 10.4711385,7.39466667 10.4711385,7.39466667 C10.4271385,7.45466667 10.3543692,7.553 10.2460615,7.55633333 C10.1242154,7.55633333 10.0480615,7.45466667 9.93806154,7.31133333" id="Fill-1" fill="#FEFEFE" mask="url(#mask-2)"></path>
                        </g>
                        <path d="M47.5083231,12.8776667 L47.4660154,12.891 L47.4778615,12.931 C47.7926308,13.8376667 48.2190923,15.501 48.3544769,16.3476667 C48.4035538,16.386 53.0421692,15.1743333 53.0421692,15.1743333 C53.0709385,15.126 52.1723231,11.7043333 52.1723231,11.7043333 C52.1198615,11.6743333 47.5083231,12.8776667 47.5083231,12.8776667" id="Fill-4" fill="#FEFEFE"></path>
                        <path d="M36.2274,13.1031667 C36.0683231,13.2365 36.0327846,13.4431667 36.0327846,13.6098333 C36.0327846,13.6998333 36.0429385,13.7748333 36.0497077,13.8181667 L36.0581692,14.0148333 L36.0886308,15.3731667 C36.1343231,15.8948333 36.2477077,16.0365 36.6741692,16.3265 C36.8315538,16.4365 36.8687846,16.5381667 36.8687846,16.6181667 C36.8687846,16.6331667 36.8654,16.6548333 36.8620154,16.6731667 C36.8163231,16.8098333 36.6149385,16.9198333 36.3306308,16.9565 C36.0294,18.2131667 35.6418615,18.9448333 35.1138615,19.2331667 C34.6874,19.4598333 34.2846308,19.3231667 34.0189385,19.2331667 C33.6855538,19.4865 32.8495538,19.5881667 32.4264769,19.4815 C32.0694,19.8681667 31.4669385,20.9015 31.3230923,21.5115 C31.2063231,22.0381667 30.8864769,21.9848333 30.8763231,21.9815 C30.6884769,21.9648333 30.5327846,21.7715 30.5327846,21.5515 L30.7629385,20.1598333 L30.8137077,19.9081667 C30.7612462,19.8598333 30.2975538,19.7115 30.2975538,19.7115 C29.9810923,20.0165 29.6561692,20.1565 29.2957077,20.1315 C28.2938615,20.0648333 27.1735538,18.7031667 27.0246308,18.4315 C26.9230923,18.2298333 26.7318615,18.2431667 26.5423231,18.2798333 C26.5203231,18.2798333 24.3423231,18.7781667 24.3423231,18.7781667 C24.3067846,18.7998333 23.1949385,21.2681667 23.1949385,21.2681667 C23.2440154,21.3265 26.4306308,20.5998333 26.4610923,20.5915 C26.4577077,20.5948333 26.4509385,20.5965 26.4509385,20.6031667 C26.4509385,20.6565 26.5000154,20.7865 26.5000154,20.7865 C26.5389385,20.7281667 26.6015538,21.3998333 26.6015538,21.3998333 C27.7997077,22.1015 30.7172462,24.8598333 31.4077077,25.7181667 C31.4703231,25.7215 33.0187846,25.0331667 33.0187846,25.0331667 L34.4267846,24.5215 C35.2695538,24.1231667 35.8940154,23.6348333 36.2341692,23.1065 C36.2697077,23.0615 37.3883231,21.8531667 37.3883231,21.8531667 L38.1109385,21.0831667 C38.4849385,20.6381667 38.8487846,20.1731667 38.8284769,19.9231667 L38.7100154,19.0015 L38.4917077,17.0898333 C38.5272462,16.7598333 38.4781692,16.2481667 38.2107846,15.8965 C37.8266308,15.3981667 37.0464769,13.7631667 36.9449385,13.0231667 C36.5810923,12.9348333 36.3526308,12.9748333 36.2274,13.1031667" id="Fill-6" fill="#FEFEFE"></path>
                        <path d="M13.2216615,21.2485 L13.1844308,21.2585 L13.4078154,22.0085 L13.4501231,22.1835 C13.4585846,22.2568333 13.6701231,23.4301667 13.6701231,23.4301667 C13.7208923,23.4685 15.9530462,22.9335 15.9530462,22.9335 C15.9852,22.9118333 17.1122769,20.4285 17.1122769,20.4285 C17.0648923,20.3735 13.2216615,21.2485 13.2216615,21.2485" id="Fill-8" fill="#FEFEFE"></path>
                        <path d="M0.304615385,23.4441667 L0.289384615,23.4508333 L0.199692308,23.5291667 C-0.00846153846,23.8358333 0.0507692308,24.6991667 0.213230769,25.3608333 C0.404461538,26.1091667 0.800461538,26.7325 1.056,26.8825 C2.78046154,26.6691667 2.78046154,26.6691667 2.78046154,26.6308333 C3.11892308,26.5891667 2.93615385,25.6391667 2.73815385,24.7525 C2.52323077,23.7025 2.15938462,23.1158333 1.77692308,23.0841667 C1.76,23.0841667 0.304615385,23.4441667 0.304615385,23.4441667" id="Fill-10" fill="#FEFEFE"></path>
                        <path d="M3.12738462,23.462 L3.08507692,23.472 L3.37276923,24.4103333 C3.37276923,24.417 3.45230769,24.762 3.45230769,24.762 C3.45230769,24.7653333 3.63,25.642 3.63,25.642 C3.68076923,25.6753333 9.84076923,24.3053333 9.84076923,24.3053333 C9.87461538,24.2586667 9.75784615,23.757 9.75784615,23.757 L9.64276923,23.3003333 C9.62246154,23.217 9.59369231,23.097 9.59369231,23.097 L9.43123077,22.1736667 C9.38215385,22.132 3.12738462,23.462 3.12738462,23.462" id="Fill-12" fill="#FEFEFE"></path>
                        <path d="M46.4274462,13.6085 L46.4071385,13.6151667 L45.4391385,16.0568333 C45.4882154,16.1101667 47.3886769,15.6701667 47.3886769,15.6701667 C47.4259077,15.6251667 46.7845231,13.5618333 46.7845231,13.5618333 C46.7354462,13.5385 46.4274462,13.6085 46.4274462,13.6085" id="Fill-14" fill="#FEFEFE"></path>
                        <path d="M41.8497538,14.6535 L41.8294462,14.6601667 L40.8512923,17.1218333 C40.9037538,17.1768333 44.4220615,16.3668333 44.4220615,16.3668333 C44.4508308,16.3451667 45.4357538,13.8935 45.4357538,13.8935 C45.3866769,13.8351667 41.8497538,14.6535 41.8497538,14.6535" id="Fill-16" fill="#FEFEFE"></path>
                        <path d="M38.6930923,15.3956667 L38.6406308,15.4056667 L38.7692462,15.649 L38.8809385,15.869 L38.9317077,16.0473333 C38.9469385,16.0806667 39.0772462,16.859 39.0772462,16.859 C39.0772462,16.8606667 39.0924769,17.0723333 39.0924769,17.0723333 C39.0924769,17.0756667 39.1297077,17.4656667 39.1297077,17.4656667 C39.1889385,17.5806667 39.7897077,17.4273333 39.7897077,17.4273333 C39.8134,17.4023333 40.7814,14.974 40.7814,14.974 C40.7323231,14.924 38.6930923,15.3956667 38.6930923,15.3956667" id="Fill-18" fill="#FEFEFE"></path>
                        <path d="M18.1730154,20.1401667 L18.1493231,20.1451667 L16.9917846,22.6518333 C17.0425538,22.7101667 22.1347077,21.5985 22.1347077,21.5985 C22.1617846,21.5751667 23.3091692,19.0718333 23.3091692,19.0718333 C23.2617846,19.0168333 18.1730154,20.1401667 18.1730154,20.1401667" id="Fill-20" fill="#FEFEFE"></path>
                        <path d="M49.6005231,16.8116667 L49.5616,16.825 L49.5836,16.9583333 C49.8256,17.9966667 50.1488308,19.4166667 49.2045231,20.6333333 C50.7969846,21.2683333 52.0036,22.3383333 52.5028308,23.1483333 C52.7177538,22.215 53.2965231,20.75 54.2442154,19.6966667 C53.1831385,19.0166667 52.5028308,17.8383333 52.2016,16.1416667 C52.1491385,16.1066667 49.6005231,16.8116667 49.6005231,16.8116667" id="Fill-22" fill="#FEFEFE"></path>
                        <path d="M53.0149231,12.0363333 L52.9793846,12.0463333 L53.5496923,14.153 C54.7495385,14.0446667 56.5586154,14.158 57.7872308,14.7296667 C59.3187692,13.2263333 62.3023077,11.5113333 64.2264615,10.7796667 C61.8504615,10.648 58.6249231,10.4113333 56.6466154,9.573 C55.7192308,10.6446667 54.0929231,11.6613333 53.0149231,12.0363333" id="Fill-24" fill="#FEFEFE"></path>
                        <path d="M27.8658769,14.9041667 L27.8049538,14.9308333 L27.5900308,15.0108333 C27.2668,15.0858333 26.9994154,15.3925 26.9435692,15.6308333 C26.9401846,15.6308333 26.4443385,17.4208333 26.4443385,17.4208333 C26.5391077,17.4275 26.8200308,16.8725 26.8200308,16.8725 C26.8200308,16.8408333 26.8234154,16.7325 26.9368,16.7325 C27.0248,16.7325 27.0417231,16.7875 27.1195692,17.1141667 C27.1551077,17.2258333 27.3040308,17.6775 27.3040308,17.6775 C27.5409538,18.1991667 28.0198769,18.6858333 28.9489538,19.3691667 C29.2163385,19.5525 29.5378769,19.5741667 29.7358769,19.4141667 C29.9406462,19.2325 29.9372615,18.8808333 29.7257231,18.5225 L28.8101846,16.2991667 C28.8101846,16.2941667 28.6680308,15.9075 28.6680308,15.9075 L28.3769538,15.1625 C28.1840308,14.7908333 28.0824923,14.8141667 27.8658769,14.9041667" id="Fill-26" fill="#FEFEFE"></path>
                        <path d="M29.8704154,13.8355 L29.8416462,13.8405 C29.4304154,13.9205 28.9904154,14.0171667 28.9041077,14.2321667 L28.9802615,14.8188333 C29.0276462,14.9438333 30.7131846,19.0538333 30.7131846,19.0538333 C30.8654923,19.3505 31.1650308,19.3855 31.3901077,19.3188333 C31.6710308,19.2238333 31.9164154,18.9288333 31.8030308,18.5071667 C31.7082615,18.0621667 30.6404154,14.3021667 30.4610308,13.9138333 C30.4068769,13.8005 30.2071846,13.7771667 29.8704154,13.8355" id="Fill-28" fill="#FEFEFE"></path>
                        <path d="M31.1149385,13.4555 L31.1149385,13.4555 C30.9118615,13.5538333 31.0743231,13.9138333 31.2164769,14.2288333 C31.2334,14.2688333 31.3755538,14.5855 31.3755538,14.5855 C31.3755538,14.5905 31.4415538,14.7571667 31.4415538,14.7571667 L31.5397077,15.0305 C31.8714,15.9521667 32.5618615,17.8655 32.4874,18.5721667 C32.6177077,18.9005 32.9087846,18.9721667 33.1406308,18.9355 C33.4723231,18.8938333 33.7650923,18.6821667 33.7752462,18.4705 L33.7515538,17.9271667 C33.7447846,17.8655 33.7312462,17.3621667 33.7312462,17.3621667 L33.6517077,16.4538333 L32.8817077,13.8071667 L32.5974,13.2155 C31.9898615,13.0638333 31.3129385,13.3588333 31.1149385,13.4555" id="Fill-30" fill="#FEFEFE"></path>
                        <path d="M33.8211077,13.1675 L33.8177231,13.1675 L33.8211077,13.1675 C33.6451077,13.1858333 33.5537231,13.2841667 33.5537231,13.4341667 C33.5537231,14.0325 33.8701846,14.9091667 34.0055692,15.2841667 C34.1951077,15.8375 34.3829538,16.9041667 34.3626462,17.2525 C34.3626462,17.2641667 34.3491077,18.5075 34.3491077,18.5075 C34.3694154,18.6175 34.4557231,18.6558333 34.5284923,18.6758333 C34.7095692,18.7258333 34.9938769,18.6658333 35.1258769,18.4941667 C35.3577231,18.2375 35.4998769,17.6841667 35.5438769,17.3741667 C35.5438769,17.3708333 35.5168,16.8441667 35.5168,16.8441667 C35.5066462,16.7991667 35.4829538,16.3908333 35.4829538,16.3908333 L35.4609538,15.5925 L35.4677231,14.6758333 C35.4677231,14.6725 35.3949538,14.0658333 35.3949538,14.0658333 C35.3949538,14.0625 35.2815692,13.7608333 35.2815692,13.7608333 C35.2358769,13.6258333 35.1631077,13.3991667 35.1631077,13.3991667 C35.0700308,13.2091667 35.0209538,13.1691667 34.8297231,13.1341667 L33.8211077,13.1675 Z" id="Fill-32" fill="#FEFEFE"></path>
                        <path d="M26.0380154,22.1535 C26.0312462,22.1568333 25.6301692,22.3918333 25.6301692,22.3918333 C25.5980154,22.4151667 25.4727846,22.4985 25.4727846,22.4985 C25.3238615,22.5901667 25.2832462,22.6518333 25.2832462,22.7218333 L25.2832462,22.7418333 L25.3966308,22.8701667 C26.0397077,23.3085 29.4717077,26.6785 29.6104769,26.8451667 C29.6138615,26.8451667 30.0623231,27.6785 30.0623231,27.6785 C30.1977077,27.7368333 30.3212462,27.7085 30.3212462,27.7085 C30.6410923,27.6501667 30.9389385,27.4501667 31.2097077,27.1101667 C31.2300154,27.0801667 31.2723231,27.0101667 30.9880154,26.6368333 C30.1655538,25.4268333 27.4984769,22.8135 26.5694,22.1985 C26.3781692,22.0735 26.1074,22.1118333 26.0380154,22.1535" id="Fill-34" fill="#FEFEFE"></path>
                        <path d="M20.4107538,26.0361667 L19.7541385,26.4145 L19.2362923,26.7128333 C18.1701385,27.3261667 14.8735231,29.5728333 12.1421385,31.4661667 C15.6350615,32.9745 18.9959846,34.8911667 20.7847538,36.1578333 C22.5802923,34.8261667 24.2844462,33.3078333 25.3049077,32.3311667 L29.5001385,28.1578333 C29.5136769,28.1228333 29.2124462,27.5195 29.2124462,27.5195 C29.0736769,27.3595 25.7026,24.0145 24.9359846,23.4361667 C24.8886,23.4361667 20.4107538,26.0361667 20.4107538,26.0361667" id="Fill-36" fill="#FEFEFE"></path>
                        <path d="M18.3300615,52.9761667 L18.2674462,53.0111667 L19.1897538,53.6111667 C19.2625231,53.6711667 19.4825231,53.8428333 19.4825231,53.8428333 C19.9817538,54.1978333 21.9837538,56.1278333 23.7352923,58.0711667 C24.4359077,58.8578333 24.8945231,59.2878333 26.7848308,59.6361667 C28.5532923,59.9411667 32.5505231,60.0611667 35.1600615,59.4761667 C33.7182154,58.3845 31.5402154,56.1228333 30.0966769,54.6245 C30.0966769,54.6228333 28.4839077,53.0261667 28.4839077,53.0261667 C27.8306769,52.5595 27.3179077,52.1995 26.3719077,52.0378333 C21.9397538,51.2711667 18.8919077,52.6861667 18.3300615,52.9761667" id="Fill-38" fill="#FEFEFE"></path>
                        <path d="M29.15,52.3065 L29.0772308,52.3348333 L30.0367692,52.9665 L31.3195385,54.2365 L31.6292308,54.5648333 C32.9864615,56.0198333 35.266,58.4565 36.7061538,59.3665 C38.0989231,60.3565 43.0353846,60.8165 46.1373846,60.2531667 C45.0593846,59.2781667 43.8730769,57.8115 42.7189231,56.3931667 C41.7441538,55.1848333 40.722,53.9331667 39.9621538,53.3448333 C39.3444615,52.8581667 38.4458462,52.4331667 37.5489231,52.2031667 C33.5296923,51.2381667 30.3007692,51.8465 29.15,52.3065" id="Fill-40" fill="#FEFEFE"></path>
                        <path d="M40.6267231,52.6743333 L40.5234923,52.696 L41.3510308,53.2293333 C42.1345692,53.8326667 43.0501077,55.0476667 43.9385692,56.2193333 C45.0419538,57.666 46.1724154,59.1593333 47.3096462,60.0326667 C48.6025692,61.071 53.2327231,62.3743333 56.3838,62.336 C55.5241077,61.2126667 54.6373385,59.7176667 53.7759538,58.271 L53.6591846,58.0726667 C52.9264154,56.7876667 52.0853385,55.331 51.3948769,54.6026667 C50.9328769,54.136 50.2458,53.5526667 49.0188769,53.211 C46.5396462,52.5293333 42.6134923,52.281 40.6267231,52.6743333" id="Fill-42" fill="#FEFEFE"></path>
                        <path d="M52.2283385,54.2221667 L52.2384923,54.2288333 C52.9881846,54.9421667 53.8343385,56.3555 54.7363385,57.8555 C55.5604923,59.2505 56.4032615,60.6355 57.2392615,61.6655 C57.7554154,62.2855 60.0214154,63.8588333 62.0809538,63.7255 C64.2166462,63.5971667 65.4300308,62.4738333 65.6703385,60.3905 C65.7634154,59.5705 65.4520308,58.7688333 64.7514154,57.9921667 C62.7054154,55.7088333 57.4964923,54.0071667 51.7951077,53.7555 C51.7663385,53.8255 52.2283385,54.2221667 52.2283385,54.2221667" id="Fill-44" fill="#FEFEFE"></path>
                        <path d="M2.21184615,56.4185 L2.21184615,56.4185 C0.702307692,57.2185 -0.313076923,59.3085 0.088,60.7985 C0.370615385,61.8618333 1.11353846,62.6751667 2.222,63.1468333 C3.68076923,63.7485 7.11107692,64.2318333 13.6789231,60.7085 C13.6755385,60.6351667 11.6126154,59.5585 11.6126154,59.5585 L11.308,59.3851667 L9.44138462,58.1118333 C8.448,57.3718333 7.43092308,56.6435 6.00430769,55.9335 C5.61,55.7851667 4.18169231,55.3818333 2.21184615,56.4185" id="Fill-46" fill="#FEFEFE"></path>
                        <path d="M14.4529846,53.1048333 L14.4529846,53.1048333 C11.3357538,53.3598333 9.41329231,53.9165 6.84098462,55.3198333 L6.76483077,55.3598333 L7.08975385,55.4981667 C8.63313846,56.2365 9.36590769,56.8415 10.0732923,57.4265 C10.1054462,57.4565 11.6809846,58.5865 11.6809846,58.5865 L12.3663692,58.9998333 C12.3883692,59.0148333 14.7592923,60.2865 14.7592923,60.2865 C17.7326769,61.3715 22.2037538,60.5298333 24.2852923,59.5031667 C24.2903692,59.4348333 23.7251385,59.0515 23.7251385,59.0515 C23.6252923,58.9815 22.3662154,58.0915 22.3662154,58.0915 L20.0765231,55.7848333 L19.4774462,55.1565 L18.5923692,54.2815 C17.6819077,53.4531667 16.6276,52.9331667 14.4529846,53.1048333" id="Fill-48" fill="#FEFEFE"></path>
                        <path d="M10.4205538,21.198 L10.3985538,21.198 L10.3122462,21.2863333 C10.1396308,21.5746667 10.1565538,22.4013333 10.3291692,23.1346667 C10.5508615,23.958 11.0551692,24.7346667 11.3360923,24.6713333 L12.8524,24.4263333 C13.2179385,24.3363333 13.0724,23.4513333 12.8642462,22.4996667 C12.6459385,21.478 12.2905538,20.883 11.9013231,20.8413333 C11.8860923,20.8413333 10.4205538,21.198 10.4205538,21.198" id="Fill-50" fill="#FEFEFE"></path>
                        <path d="M9.23729231,32.7858333 C9.19329231,32.8375 9.11713846,32.9425 9.11713846,33.0308333 C9.11713846,33.0591667 9.12390769,33.0841667 9.13913846,33.1041667 C9.15775385,33.1591667 9.25083077,33.2075 9.42006154,33.2358333 C11.5506769,33.5958333 15.6122154,35.5475 17.5702154,36.4891667 L18.5009846,36.9158333 C18.7903692,37.0275 19.7888308,37.3558333 20.2508308,36.7075 C18.1506769,35.1475 14.4969846,33.3191667 10.9329846,31.9941667 C10.2120615,31.9625 9.64344615,32.2275 9.23729231,32.7858333" id="Fill-52" fill="#FEFEFE"></path>
                        <path d="M4.86098462,37.4928333 L4.78483077,37.5711667 C4.44467692,37.9045 4.47175385,37.9811667 4.71544615,38.3995 C5.3636,39.5311667 7.38083077,41.2778333 8.99021538,42.4328333 C11.2071385,40.8345 15.1316,38.5178333 17.4449846,37.4728333 L17.5160615,37.4378333 L17.5532923,37.3228333 C16.9880615,36.9678333 11.4880615,34.2811667 8.82098462,33.8095 C8.2896,34.1145 6.92729231,35.3878333 4.86098462,37.4928333" id="Fill-54" fill="#FEFEFE"></path>
                        <path d="M18.4788154,37.9151667 C16.3922,38.8035 12.0192769,41.2801667 9.50789231,43.1368333 L9.48758462,43.1468333 L9.44189231,43.2951667 C9.4622,43.6718333 10.1154308,44.3701667 10.4471231,44.5318333 C10.7838923,44.6885 11.0902,44.6885 11.6063538,44.2068333 C12.9940462,42.9085 17.7426615,39.8685 20.0763538,38.7835 L20.1203538,38.7685 L20.1271231,38.6001667 C19.9003538,38.1751667 19.5111231,37.4668333 18.4788154,37.9151667" id="Fill-56" fill="#FEFEFE"></path>
                        <path d="M12.1426462,45.1148333 L12.1189538,45.1381667 L12.1426462,45.1698333 C12.8855692,46.0515 15.7354154,48.5098333 18.1351077,50.5515 L19.3501846,51.5981667 C21.6584923,50.9398333 24.0006462,50.7648333 26.3580308,51.0848333 C27.1009538,51.1781667 27.6509538,51.3531667 28.0774154,51.6115 C29.6174154,50.8731667 33.5368,50.2681667 37.5560308,51.2515 C38.2431077,51.4198333 39.0266462,51.6298333 39.6088,51.9698333 C39.6375692,51.9715 42.6160308,51.5865 42.6160308,51.5865 C42.7412615,51.5731667 42.9206462,51.5581667 42.9206462,51.5581667 C36.3764923,47.0998333 27.3192615,42.6348333 20.7040308,39.3748333 C18.6241846,40.3531667 13.8908,43.3781667 12.1426462,45.1148333" id="Fill-58" fill="#FEFEFE"></path>
                    </g>
                    <g id="Page-1">
                        <mask id="mask-4" fill="white">
                            <use xlink:href="#path-3"></use>
                        </mask>
                        <g id="Mask"></g>
                        <g mask="url(#mask-4)">
                            <g transform="translate(19.121951, 11.714286)">
                                <g id="Group-3" stroke-width="1" fill="none" transform="translate(36.393996, 0.410592)">
                                    <mask id="mask-6" fill="white">
                                        <use xlink:href="#path-5"></use>
                                    </mask>
                                    <g id="Clip-2"></g>
                                    <path d="M10.3419218,0.723260073 L10.3419218,0.723260073 C7.25421701,1.40992063 3.02379174,3.21303419 0.413063164,7.8769536 C1.54567104,7.63687424 3.65919825,7.42869353 5.63789118,7.82322955 C7.41264728,8.18586691 9.74528018,9.16465201 10.8323815,11.7836996 C10.8812589,11.805525 15.3223627,10.6706044 15.3223627,10.6706044 C15.1841576,8.03476801 16.4313746,6.1779304 17.5083634,5.07994505 C18.8111995,3.72509158 20.6685416,2.72783883 22.4820625,2.41892552 C20.2050488,0.664499389 15.2869687,-0.384798535 10.3419218,0.723260073 M9.89359787,7.36489621 C9.87842902,7.34139194 9.78910131,7.22051282 9.78910131,7.22051282 C9.5447142,7.07612943 9.24302251,6.91327839 9.24302251,6.33238706 L9.24302251,6.29880952 C9.24639337,5.92442002 9.55482677,5.55338828 9.99640901,5.39389499 L10.5172064,5.3502442 C10.5188918,5.34520757 10.5222627,5.33513431 10.5222627,5.32506105 C10.5222627,5.16053114 10.2829318,4.36138584 10.2829318,4.36138584 L10.5559712,3.41785714 C10.6115904,3.29697802 10.8155272,2.84871795 10.8155272,2.84871795 C10.8222689,2.84703907 10.8526066,2.7009768 10.8627192,2.64221612 C10.8812589,2.70601343 10.960474,2.80674603 10.960474,2.80674603 L11.349808,3.147558 L12.1520719,3.99371184 L12.3003896,5.01111111 C12.3661213,5.05140415 12.9661338,4.84826007 12.9661338,4.84826007 C13.4262558,4.81971917 13.8122189,5.00103785 13.9436823,5.30827228 C14.2133508,5.83711844 14.0313246,6.11916972 13.9234572,6.29041514 C13.8610963,6.38946886 13.844242,6.60772283 13.844242,6.60772283 C13.867838,6.81086691 13.8712089,6.89648962 13.8021063,6.92838828 C13.7127786,6.9770757 13.5981695,6.94349817 13.3807492,6.8041514 L13.2492858,6.61779609 C13.139733,6.39618437 13.045349,6.25180098 12.773995,6.36764347 C12.7773659,6.36764347 12.597025,6.51370574 12.597025,6.51370574 C12.5447767,6.64465812 12.597025,6.81086691 12.6593859,6.87970085 C12.7942201,6.97203907 12.8312996,6.9989011 12.8312996,6.9989011 L13.0048987,7.20540293 L12.9560213,7.49752747 L12.8700644,7.63687424 L12.8734353,8.09352869 C12.9223127,8.17579365 13.2290607,8.36718559 13.2290607,8.36718559 C13.3638949,8.38901099 13.2290607,8.4964591 13.2256898,8.4964591 C13.2290607,8.48974359 12.6728693,8.5753663 12.6728693,8.5753663 C12.6003959,8.68113553 12.4284822,9.151221 12.4284822,9.151221 C12.337469,9.18144078 11.9548768,8.79697802 11.9548768,8.79697802 C11.8503802,8.73653846 11.3160994,8.87924298 11.3160994,8.87924298 C11.3160994,8.87924298 11.2116029,8.86916972 11.1711526,8.86245421 C11.2149737,8.8490232 11.2705929,8.75668498 11.2705929,8.75668498 L11.4374503,8.29667277 C11.4374503,8.21440781 11.2958743,8.03644689 11.22003,7.98440171 C11.10205,7.89206349 10.9082258,7.61840659 10.9082258,7.61840659 C10.9149675,7.62008547 11.0295766,7.3296398 11.0295766,7.3296398 L11.1155335,7.17686203 L10.960474,6.79072039 C10.9537323,6.79072039 10.7245141,6.74203297 10.7245141,6.74203297 C10.6014778,6.75882173 10.5104647,6.78400488 10.4599018,6.86459096 C10.4599018,6.8763431 10.4312495,7.19197192 10.4312495,7.19197192 C10.4312495,7.2003663 10.4245078,7.44884005 10.4245078,7.44884005 C10.3806867,7.50927961 10.3082133,7.60833333 10.2003458,7.61169109 C10.078995,7.61169109 10.0031507,7.50927961 9.89359787,7.36489621" id="Fill-1" fill="#010202" mask="url(#mask-6)"></path>
                                </g>
                                <path d="M47.3151998,12.9793346 L47.2730641,12.9927656 L47.2848621,13.0330586 C47.5983518,13.9463675 48.0230797,15.6218864 48.157914,16.4747558 C48.2067914,16.51337 52.8265507,15.2928266 52.8265507,15.2928266 C52.8552029,15.2441392 51.9602405,11.7974054 51.9602405,11.7974054 C51.9079922,11.7671856 47.3151998,12.9793346 47.3151998,12.9793346" id="Fill-4" fill="#010202"></path>
                                <path d="M36.0801341,13.2064866 C35.9217039,13.3407967 35.8863099,13.5489774 35.8863099,13.7168651 C35.8863099,13.8075244 35.8964225,13.8830739 35.9031642,13.9267247 L35.9115913,14.1248321 L35.941929,15.4931166 C35.9874356,16.018605 36.1003593,16.1613095 36.5250872,16.4534341 C36.6818321,16.5642399 36.7189115,16.6666514 36.7189115,16.7472375 C36.7189115,16.7623474 36.7155407,16.7841728 36.7121698,16.8026404 C36.6666632,16.9403083 36.4660972,17.0511142 36.1829453,17.0880495 C35.882939,18.3539225 35.4969759,19.0909493 34.9711223,19.381395 C34.5463943,19.6097222 34.1452624,19.4720543 33.8806501,19.381395 C33.5486207,19.6365842 32.7160191,19.7389957 32.294662,19.6315476 C31.9390366,20.021047 31.3390241,21.0619505 31.1957627,21.6764194 C31.0794681,22.2069444 30.7609221,22.1532204 30.7508096,22.1498626 C30.563727,22.1330739 30.4086676,21.9383242 30.4086676,21.7167125 L30.6378859,20.3148504 L30.6884487,20.06134 C30.6362004,20.0126526 30.1743931,19.8632326 30.1743931,19.8632326 C29.8592179,20.170467 29.5356157,20.3114927 29.1766194,20.2863095 C28.1788458,20.2191545 27.0630922,18.8475122 26.9147745,18.5738553 C26.8136488,18.3707112 26.6231954,18.3841422 26.4344275,18.4210775 C26.4125169,18.4210775 24.2433705,18.9230617 24.2433705,18.9230617 C24.2079765,18.9448871 23.1006501,21.4313034 23.1006501,21.4313034 C23.1495275,21.4900641 26.3231892,20.7580739 26.3535269,20.7496795 C26.350156,20.7530372 26.3434143,20.7547161 26.3434143,20.7614316 C26.3434143,20.8151557 26.3922917,20.9461081 26.3922917,20.9461081 C26.4310566,20.8873474 26.4934174,21.5639347 26.4934174,21.5639347 C27.6867008,22.2707418 30.5923793,25.0492827 31.2800341,25.9139042 C31.3423949,25.9172619 32.8845619,25.2238858 32.8845619,25.2238858 L34.2868383,24.7084707 C35.1261817,24.3072192 35.7481048,23.8153083 36.0868759,23.2831044 C36.1222699,23.2377747 37.236338,22.0205891 37.236338,22.0205891 L37.9560159,21.2449481 C38.3284956,20.796688 38.6908627,20.3282814 38.6706376,20.0764499 L38.5526576,19.1480311 L38.3352373,17.2223596 C38.3706313,16.889942 38.3217539,16.3745269 38.0554562,16.0202839 C37.672864,15.5182998 36.8958815,13.8713217 36.7947558,13.1259005 C36.4323887,13.03692 36.2048558,13.0772131 36.0801341,13.2064866" id="Fill-6" fill="#010202"></path>
                                <path d="M13.1679149,21.4114927 L13.1308355,21.4215659 L13.3533121,22.1770604 L13.3954478,22.3533425 C13.4038749,22.4272131 13.6145535,23.6091422 13.6145535,23.6091422 C13.6651163,23.6477564 15.8881964,23.108837 15.8881964,23.108837 C15.9202195,23.0870116 17.0427148,20.5854853 17.0427148,20.5854853 C16.9955228,20.5300824 13.1679149,21.4114927 13.1679149,21.4114927" id="Fill-8" fill="#010202"></path>
                                <path d="M0.303377111,23.6232448 L0.288208255,23.6299603 L0.19888055,23.7088675 C-0.00842714196,24.0177808 0.0505628518,24.8874389 0.212363977,25.553953 C0.402817386,26.3077686 0.79720763,26.9356685 1.05170732,27.0867674 C2.76915885,26.8718712 2.76915885,26.8718712 2.76915885,26.833257 C3.10624453,26.7912851 2.92421826,25.8343254 2.72702314,24.941163 C2.51297373,23.8834707 2.15060663,23.2925061 1.76969981,23.2606074 C1.75284553,23.2606074 0.303377111,23.6232448 0.303377111,23.6232448" id="Fill-10" fill="#010202"></path>
                                <path d="M3.11467167,23.6412088 L3.07253596,23.6512821 L3.35905879,24.5964896 C3.35905879,24.6032051 3.43827392,24.9507326 3.43827392,24.9507326 C3.43827392,24.9540904 3.6152439,25.8371795 3.6152439,25.8371795 C3.66580675,25.870757 9.8007661,24.4907204 9.8007661,24.4907204 C9.83447467,24.4437118 9.71818011,23.93837 9.71818011,23.93837 L9.60357098,23.4783578 C9.58334584,23.3944139 9.55469356,23.2735348 9.55469356,23.2735348 L9.39289243,22.3434371 C9.34401501,22.3014652 3.11467167,23.6412088 3.11467167,23.6412088" id="Fill-12" fill="#010202"></path>
                                <path d="M46.2387167,13.715522 L46.2184916,13.7222375 L45.2544265,16.1817918 C45.3033039,16.2355159 47.19604,15.7922924 47.19604,15.7922924 C47.2331194,15.7469628 46.5943421,13.6685134 46.5943421,13.6685134 C46.5454647,13.6450092 46.2387167,13.715522 46.2387167,13.715522" id="Fill-14" fill="#010202"></path>
                                <path d="M41.6796329,14.7681777 L41.6594078,14.7748932 L40.6852301,17.254594 C40.7374784,17.3099969 44.2414841,16.4940629 44.2414841,16.4940629 C44.2701363,16.4722375 45.2510557,14.0026099 45.2510557,14.0026099 C45.2021782,13.9438492 41.6796329,14.7681777 41.6796329,14.7681777" id="Fill-16" fill="#010202"></path>
                                <path d="M38.5358033,15.5157814 L38.483555,15.5258547 L38.6116476,15.7709707 L38.7228859,15.9925824 L38.7734487,16.1722222 C38.7886176,16.2057998 38.9183956,16.9898352 38.9183956,16.9898352 C38.9183956,16.991514 38.9335644,17.2047314 38.9335644,17.2047314 C38.9335644,17.2080891 38.9706438,17.6009463 38.9706438,17.6009463 C39.0296338,17.7167888 39.6279609,17.5623321 39.6279609,17.5623321 C39.6515569,17.537149 40.615622,15.0910256 40.615622,15.0910256 C40.5667445,15.0406593 38.5358033,15.5157814 38.5358033,15.5157814" id="Fill-18" fill="#010202"></path>
                                <path d="M18.0991413,20.2950397 L18.0755453,20.3000763 L16.9227123,22.8251068 C16.9732752,22.8838675 22.0447292,21.7640568 22.0447292,21.7640568 C22.0716961,21.7405525 23.2144165,19.2188797 23.2144165,19.2188797 C23.1672245,19.1634768 18.0991413,20.2950397 18.0991413,20.2950397" id="Fill-20" fill="#010202"></path>
                                <path d="M49.3988949,16.9421551 L49.3601301,16.9555861 L49.3820407,17.0898962 C49.6230569,18.1358364 49.9449737,19.5662393 49.0045047,20.7918193 C50.5904928,21.4314713 51.7922033,22.5093101 52.2894046,23.3252442 C52.503454,22.3850733 53.0798705,20.9093407 54.0237104,19.8482906 C52.9669468,19.1633089 52.2894046,17.9763431 51.9893984,16.2672466 C51.9371501,16.2319902 49.3988949,16.9421551 49.3988949,16.9421551" id="Fill-22" fill="#010202"></path>
                                <path d="M52.7994153,12.1318376 L52.7640213,12.1419109 L53.3320106,14.264011 C54.5269794,14.154884 56.3287023,14.2690476 57.5523233,14.8449023 C59.077636,13.3305556 62.0490463,11.6029915 63.9653784,10.8659646 C61.5990369,10.7333333 58.3866104,10.4949328 56.4163446,9.65045788 C55.4927298,10.7299756 53.8730331,11.7540904 52.7994153,12.1318376" id="Fill-24" fill="#010202"></path>
                                <path d="M27.752601,15.0206807 L27.6919256,15.0475427 L27.4778762,15.1281288 C27.1559593,15.2036783 26.8896617,15.5125916 26.8340425,15.7526709 C26.8306717,15.7526709 26.3368412,17.5557845 26.3368412,17.5557845 C26.4312251,17.5625 26.7110063,17.0034341 26.7110063,17.0034341 C26.7110063,16.9715354 26.7143771,16.8624084 26.8273008,16.8624084 C26.9149431,16.8624084 26.9317974,16.9178114 27.0093271,17.2468712 C27.0447211,17.3593559 27.1930388,17.8143315 27.1930388,17.8143315 C27.4289987,18.3398199 27.905975,18.8300519 28.8312752,19.5183913 C29.0975729,19.7030678 29.4178043,19.7248932 29.6149994,19.563721 C29.8189362,19.3807234 29.8155654,19.0264805 29.6048868,18.665522 L28.69307,16.4259005 C28.69307,16.4208639 28.5514941,16.0313645 28.5514941,16.0313645 L28.2616004,15.2809066 C28.0694615,14.9065171 27.9683358,14.9300214 27.752601,15.0206807" id="Fill-26" fill="#010202"></path>
                                <path d="M29.7489909,13.944185 L29.7203386,13.9492216 C29.3107795,14.0298077 28.8725682,14.1271825 28.7866113,14.3437576 L28.8624556,14.9347222 C28.9096476,15.060638 30.5883343,19.2007479 30.5883343,19.2007479 C30.7400228,19.4995879 31.0383437,19.5348443 31.2625056,19.4676893 C31.5422867,19.3719933 31.7866739,19.0748321 31.6737502,18.6500763 C31.5793662,18.2018162 30.5158609,14.4142705 30.3372054,14.0230922 C30.2832717,13.9089286 30.0843912,13.8854243 29.7489909,13.944185" id="Fill-28" fill="#010202"></path>
                                <path d="M30.988455,13.5614011 L30.988455,13.5614011 C30.7862036,13.6604548 30.9480047,14.0230922 31.0895807,14.3403999 C31.106435,14.3806929 31.2480109,14.6996795 31.2480109,14.6996795 C31.2480109,14.7047161 31.3137427,14.8726038 31.3137427,14.8726038 L31.4114975,15.1479396 C31.7418415,16.0763584 32.4294962,18.0037088 32.3553374,18.7155525 C32.4851154,19.0462912 32.7750091,19.1184829 33.0059128,19.0815476 C33.3362567,19.0395757 33.6278358,18.8263584 33.6379484,18.613141 L33.6143524,18.0658272 C33.6076107,18.0037088 33.5941273,17.496688 33.5941273,17.496688 L33.5149121,16.5817002 L32.7480422,13.9156441 L32.4648902,13.3196429 C31.8598215,13.1668651 31.1856501,13.4640263 30.988455,13.5614011" id="Fill-30" fill="#010202"></path>
                                <path d="M33.6836235,13.2712912 L33.6802527,13.2712912 L33.6836235,13.2712912 C33.508339,13.2897589 33.4173258,13.3888126 33.4173258,13.5399115 C33.4173258,14.1426282 33.7325009,15.0257173 33.8673352,15.4034646 C34.0561032,15.9608516 34.2431857,17.0353327 34.2229606,17.3862179 C34.2229606,17.3979701 34.2094772,18.6504121 34.2094772,18.6504121 C34.2297023,18.7612179 34.3156592,18.7998321 34.3881326,18.8199786 C34.5684734,18.8703449 34.8516254,18.8099054 34.9830888,18.6369811 C35.2139925,18.3784341 35.3555685,17.821047 35.3993896,17.5087759 C35.3993896,17.5054182 35.3724228,16.9748932 35.3724228,16.9748932 C35.3623102,16.9295635 35.3387142,16.5182387 35.3387142,16.5182387 L35.3168036,15.7140568 L35.3235453,14.7906746 C35.3235453,14.7873168 35.2510719,14.1762057 35.2510719,14.1762057 C35.2510719,14.172848 35.1381482,13.8689713 35.1381482,13.8689713 C35.0926417,13.7329823 35.0201682,13.5046551 35.0201682,13.5046551 C34.9274697,13.3132631 34.8785922,13.2729701 34.6881388,13.2377137 L33.6836235,13.2712912 Z" id="Fill-32" fill="#010202"></path>
                                <path d="M25.9321698,22.3231227 C25.9254281,22.3264805 25.5259816,22.5632021 25.5259816,22.5632021 C25.4939584,22.5867063 25.3692367,22.6706502 25.3692367,22.6706502 C25.220919,22.7629884 25.1804687,22.8251068 25.1804687,22.8956197 L25.1804687,22.9157662 L25.2933924,23.0450397 C25.9338552,23.4865842 29.351904,26.8812729 29.4901091,27.0491606 C29.49348,27.0491606 29.9401185,27.8885989 29.9401185,27.8885989 C30.0749528,27.9473596 30.1979891,27.9188187 30.1979891,27.9188187 C30.516535,27.860058 30.8131704,27.6585928 31.082839,27.316102 C31.1030641,27.2858822 31.1451998,27.2153694 30.8620478,26.839301 C30.0429296,25.6204365 27.3866945,22.9879579 26.4613943,22.3684524 C26.2709409,22.2425366 26.0012724,22.2811508 25.9321698,22.3231227" id="Fill-34" fill="#010202"></path>
                                <path d="M20.3277833,26.2342338 L19.6738371,26.6153388 L19.158096,26.9158578 C18.0962761,27.5336844 14.8130616,29.7968101 12.0927802,31.704014 C15.5715044,33.2233974 18.9187652,35.1541056 20.700263,36.4300519 C22.4885025,35.0886294 24.1857289,33.5591728 25.2020422,32.575351 L29.3802192,28.3714438 C29.3937026,28.3361874 29.0936964,27.7284341 29.0936964,27.7284341 C28.9554912,27.5672619 25.5981179,24.1977564 24.8346188,23.6151862 C24.7874268,23.6151862 20.3277833,26.2342338 20.3277833,26.2342338" id="Fill-36" fill="#010202"></path>
                                <path d="M18.2555491,53.3715965 L18.1931882,53.4068529 L19.1117467,54.0112485 C19.1842201,54.071688 19.4033258,54.2446123 19.4033258,54.2446123 C19.9005272,54.6022131 21.894389,56.5463523 23.6388074,58.5039225 C24.3365747,59.2963523 24.7933258,59.7295024 26.6759493,60.0803877 C28.437222,60.3876221 32.4182039,60.5085012 35.0171345,59.9192155 C33.5811495,58.8195513 31.4120031,56.5413156 29.9743327,55.0320055 C29.9743327,55.0303266 28.3681194,53.4219628 28.3681194,53.4219628 C27.7175441,52.9518773 27.2068593,52.5892399 26.2647048,52.4263889 C21.8505679,51.6541056 18.8151113,53.0794719 18.2555491,53.3715965" id="Fill-38" fill="#010202"></path>
                                <path d="M29.0315041,52.6970238 L28.9590306,52.7255647 L29.9146685,53.361859 L31.1922233,54.641163 L31.5006567,54.9719017 C32.8523702,56.4375611 35.1226423,58.8920788 36.5569418,59.8087454 C37.9440494,60.8059982 42.860444,61.2693681 45.9498343,60.7019078 C44.8762164,59.719765 43.6947311,58.2423535 42.5452689,56.8136294 C41.5744622,55.5964438 40.5564634,54.3356074 39.7997061,53.742964 C39.1845247,53.252732 38.2895622,52.8246184 37.3962852,52.5929335 C33.3933927,51.6208639 30.1775954,52.2336538 29.0315041,52.6970238" id="Fill-40" fill="#010202"></path>
                                <path d="M40.4615738,53.0675519 L40.3587627,53.0893773 L41.1829371,53.6266178 C41.9632905,54.2343712 42.8751073,55.4582723 43.7599572,56.6385226 C44.8588565,58.0957875 45.9847226,59.6000611 47.1173305,60.4797924 C48.4049978,61.5257326 53.0163299,62.8386142 56.1545976,62.8 C55.2983999,61.6684371 54.4152355,60.1624847 53.5573524,58.7052198 L53.4410578,58.5054335 C52.7112674,57.2110195 51.8736094,55.7436813 51.1859547,55.0100122 C50.7258327,54.5399267 50.0415488,53.9523199 48.8196132,53.6081502 C46.3504606,52.9214896 42.4402667,52.671337 40.4615738,53.0675519" id="Fill-42" fill="#010202"></path>
                                <path d="M52.0160281,54.6267247 L52.0261407,54.6334402 C52.7727855,55.3519994 53.6154997,56.7756868 54.513833,58.2866758 C55.3346366,59.6918956 56.17398,61.0870421 57.0065816,62.1245879 C57.5206373,62.74913 59.7774259,64.3339896 61.8285922,64.1996795 C63.9556029,64.070406 65.164055,62.9388431 65.4033859,60.8402473 C65.4960844,60.0142399 65.1859656,59.2067002 64.4881982,58.4243437 C62.4505153,56.1242827 57.2627667,54.4101496 51.5845585,54.1566392 C51.5559062,54.227152 52.0160281,54.6267247 52.0160281,54.6267247" id="Fill-44" fill="#010202"></path>
                                <path d="M2.20285491,56.8391484 L2.20285491,56.8391484 C0.699452783,57.6450092 -0.311804253,59.7503205 0.0876422764,61.2512363 C0.369108818,62.3223596 1.10901188,63.1416514 2.21296748,63.6167735 C3.66580675,64.222848 7.08217011,64.7097222 13.6233177,61.1605769 C13.6199468,61.0867063 11.5654096,60.002152 11.5654096,60.002152 L11.2620325,59.8275488 L9.403005,58.5448871 C8.41365854,57.7994658 7.40071607,57.0657967 5.97989994,56.3505952 C5.58719512,56.2011752 4.16469356,55.7948871 2.20285491,56.8391484" id="Fill-46" fill="#010202"></path>
                                <path d="M14.3942326,53.5012057 L14.3942326,53.5012057 C11.2896735,53.7580739 9.37502689,54.3188187 6.81317573,55.7324328 L6.73733146,55.7727259 L7.06093371,55.9120726 C8.5980444,56.655815 9.3278349,57.2652473 10.032344,57.854533 C10.0643671,57.8847527 11.6335009,59.0230311 11.6335009,59.0230311 L12.3160994,59.4393926 C12.33801,59.4545024 14.6992952,60.7354853 14.6992952,60.7354853 C17.6605929,61.8284341 22.1134947,60.9806013 24.1865716,59.9464133 C24.1916279,59.8775794 23.6286948,59.4914377 23.6286948,59.4914377 C23.5292545,59.4209249 22.2752958,58.5244048 22.2752958,58.5244048 L19.9949112,56.2008394 L19.3982695,55.5679029 L18.5167905,54.6864927 C17.61003,53.852091 16.5600081,53.3282814 14.3942326,53.5012057" id="Fill-48" fill="#010202"></path>
                                <path d="M10.3781939,21.3606227 L10.3562833,21.3606227 L10.2703265,21.4496032 C10.0984128,21.7400488 10.115267,22.5727717 10.2871807,23.3114774 C10.5079719,24.1408425 11.0102295,24.923199 11.2900106,24.8594017 L12.8001545,24.6126068 C13.164207,24.5219475 13.0192602,23.630464 12.8119525,22.6718254 C12.5945322,21.642674 12.2405922,21.043315 11.8529437,21.0013431 C11.8377749,21.0013431 10.3781939,21.3606227 10.3781939,21.3606227" id="Fill-50" fill="#010202"></path>
                                <path d="M9.19974234,33.0333486 C9.1559212,33.0853938 9.08007692,33.191163 9.08007692,33.2801435 C9.08007692,33.3086844 9.08681864,33.3338675 9.10198749,33.354014 C9.1205272,33.409417 9.21322577,33.4581044 9.38176861,33.4866453 C11.503723,33.8492827 15.5487511,35.8152473 17.4987917,36.7638126 L18.4257774,37.193605 C18.7139856,37.3060897 19.7083884,37.6368284 20.1685103,36.9837454 C18.0768937,35.4123168 14.4380538,33.5705891 10.8885416,32.2358822 C10.1705491,32.2039835 9.60424515,32.4709249 9.19974234,33.0333486" id="Fill-52" fill="#010202"></path>
                                <path d="M4.84122452,37.7748321 L4.76538024,37.8537393 C4.42660913,38.1895147 4.45357598,38.266743 4.69627767,38.688141 C5.34179675,39.8280983 7.35082739,41.5875611 8.95366979,42.7510226 C11.161581,41.1409799 15.0700894,38.8073413 17.37407,37.7546856 L17.444858,37.7194292 L17.4819375,37.6035867 C16.9190044,37.245986 11.4413621,34.5396368 8.78512695,34.0645147 C8.25590244,34.3717491 6.89913258,35.6544109 4.84122452,37.7748321" id="Fill-54" fill="#010202"></path>
                                <path d="M18.4036982,38.2002595 C16.325565,39.0951007 11.9704181,41.5899115 9.46924234,43.4601801 L9.4490172,43.4702534 L9.40351063,43.6196734 C9.42373577,43.9990995 10.0743111,44.7025488 10.4046551,44.8653999 C10.7400553,45.0232143 11.0451179,45.0232143 11.5591735,44.5380189 C12.9412248,43.230174 17.6705369,40.1679029 19.9947427,39.0749542 L20.0385638,39.0598443 L20.0453055,38.8902778 C19.8194581,38.4621642 19.4318096,37.7486416 18.4036982,38.2002595" id="Fill-56" fill="#010202"></path>
                                <path d="M12.0932858,45.4526709 L12.0696898,45.4761752 L12.0932858,45.5080739 C12.8331889,46.3961996 15.6714503,48.8725427 18.0613877,50.9291667 L19.2715253,51.9835012 C21.5704497,51.3203449 23.9030826,51.1440629 26.2508843,51.4664072 C26.9907874,51.5604243 27.5385516,51.7367063 27.9632795,51.9969322 C29.4970194,51.2531899 33.4004715,50.6437576 37.403364,51.6342949 C38.0876479,51.8038614 38.8680013,52.0153999 39.4477886,52.3578907 C39.4764409,52.3595696 42.4427949,51.9717491 42.4427949,51.9717491 C42.5675166,51.9583181 42.746172,51.9432082 42.746172,51.9432082 C36.2286204,47.4522131 27.2082076,42.9545024 20.619868,39.6706197 C18.5484765,40.6561203 13.8343333,43.7032814 12.0932858,45.4526709" id="Fill-58" fill="#010202"></path>
                            </g>
                        </g>
                    </g>
                </g>
            </g>
        </g>
    </g>
</svg>