<?xml version="1.0" standalone="no"?>
<!DOCTYPE svg PUBLIC "-//W3C//DTD SVG 1.1//EN" "http://www.w3.org/Graphics/SVG/1.1/DTD/svg11.dtd" >
<svg xmlns="http://www.w3.org/2000/svg" xmlns:xlink="http://www.w3.org/1999/xlink" version="1.1">
<metadata>
Created by FontForge 20160407 at Fri Sep 23 14:26:38 2016
 By Jimmy Warting
Copyright (c) 2015, Christian Thalmann and the Cormorant Project Authors (github.com/CatharsisFonts/Cormorant)
</metadata>
<defs>
<font id="Cormorant-Light" horiz-adv-x="620" >
  <font-face 
    font-family="Cormorant Light"
    font-weight="300"
    font-stretch="normal"
    units-per-em="1000"
    panose-1="0 0 4 0 0 0 0 0 0 0"
    ascent="725"
    descent="-275"
    x-height="386"
    cap-height="625"
    bbox="-348.8 -282.154 1451.8 922.533"
    underline-thickness="50"
    underline-position="-100"
    unicode-range="U+0020-A729"
  />
<missing-glyph horiz-adv-x="501" 
d="M94 725h317v-1000h-317v1000zM233 626v-38h-66v-32h166v32h-66v38h66v32h-165v-32h65zM333 426v34h-66v69h-100v-103h166zM200 495h33v-35h-33v35zM233 365v-36h-66v-34h100v70h66v33h-166v-33h66zM167 273v-34h166v99h-32v-65h-134zM267 160v24h34v-48h-101v80h-33v-113
h166v113h-100v-56h34zM333 -70v113h-166v-113h166zM200 11h101v-48h-101v48zM237 -126l-70 -47v-33h166v33h-101l69 47h32v34h-166v-34h70z" />
    <glyph glyph-name="T_T.liga" unicode="TT" horiz-adv-x="1146" 
d="M1106 654q5 0 5 -4q-3 -26 -6 -84.5t-3 -94.5q0 -2 -6 -2t-6 2q0 53 -11 82.5t-37.5 42.5t-73.5 13q-52 0 -72.5 -3.5t-28 -17t-7.5 -46.5v-461q0 -31 7 -45t27.5 -19t65.5 -5q3 0 3 -6t-3 -6q-33 0 -52 1l-76 1l-74 -1q-20 -1 -54 -1q-2 0 -2 6t2 6q44 0 65 5t29 19.5
t8 44.5v463q0 32 -7.5 45t-26.5 16.5t-66 3.5q-65 0 -86.5 -6.5t-27.5 -31t-8 -100.5q0 -2 -6 -2t-6 2l1 45q0 48 -9 66t-33 22.5t-89 4.5q-44 0 -63.5 -4.5t-26.5 -18t-7 -44.5v-461q0 -31 6.5 -45t24.5 -19t58 -5q2 0 2 -6t-2 -6q-30 0 -47 1l-70 1l-73 -1q-20 -1 -55 -1
q-2 0 -2 6t2 6q45 0 66 5t28.5 19.5t7.5 44.5v463q0 33 -8 46t-28.5 16t-74.5 3q-63 0 -92 -30t-39 -108q0 -2 -6 -2t-6 2q4 27 9 86.5t5 89.5q0 5 6 5t6 -5q0 -22 53 -22q86 -3 201 -3q56 0 118 2l63 1q42 0 55.5 1t17 6t4.5 19q0 4 6 4t6 -4q-1 -14 1.5 -18.5t12 -5.5
t41.5 -2q81 -3 190 -3q59 0 125 2l68 1q35 0 52 5t22 20q2 4 7 4z" />
    <glyph glyph-name="T_h.liga" unicode="Th" horiz-adv-x="1023" 
d="M1003 6q0 -6 -3 -6q-23 0 -36 1l-53 1l-52 -1q-14 -1 -37 -1q-2 0 -2 6t2 6q29 0 42.5 5t18.5 19.5t5 44.5v163q0 61 -23.5 90t-71.5 29q-32 0 -66 -18.5t-62 -51.5v-212q0 -30 5 -44.5t18.5 -19.5t42.5 -5q3 0 3 -6t-3 -6q-23 0 -36 1l-53 1l-52 -1q-14 -1 -37 -1
q-2 0 -2 6t2 6q29 0 42.5 5t18.5 19.5t5 44.5v517q0 11 -12 11h-153q-52 0 -73 -3.5t-28.5 -17t-7.5 -46.5v-461q0 -31 7 -45t28 -19t66 -5q2 0 2 -6t-2 -6q-33 0 -52 1l-77 1l-73 -1q-20 -1 -55 -1q-2 0 -2 6t2 6q45 0 66 5t28.5 19.5t7.5 44.5v463q0 33 -8 46t-28.5 16
t-74.5 3q-63 0 -92 -30t-39 -108q0 -2 -6 -2t-6 2q4 27 9 86.5t5 89.5q0 5 6 5t6 -5q0 -22 53 -22q57 -2 201 -2q141 0 193 2q126 3 144 100q1 3 6 2t5 -3v-415q40 46 77.5 66.5t77.5 20.5q55 0 85 -30.5t30 -90.5v-194q0 -30 4.5 -44.5t18 -19.5t42.5 -5q3 0 3 -6z" />
    <glyph glyph-name="f_b.liga" unicode="fb" horiz-adv-x="819" 
d="M701 378q36 -21 58 -62.5t22 -101.5q0 -72 -31.5 -123.5t-82.5 -77.5t-107 -26q-77 0 -137 41l-70 -32h-2q-4 0 -4.5 3.5t2.5 6.5q34 24 46.5 42t12.5 55l1 531q-48 77 -126 77q-38 0 -64 -18t-41 -58q-26 -62 -26 -196v-65q47 1 133 10q3 0 5 -6.5t2 -16.5q0 -8 -3 -16
t-7 -7q-55 13 -130 15v-272q0 -31 7 -45t27.5 -19t66.5 -5q2 0 2 -6t-2 -6l-64 1q-20 1 -62 1l-55 -1q-14 -1 -39 -1q-3 0 -3 6t3 6q31 0 45.5 5.5t20 19.5t5.5 44v225q0 27 -4.5 37.5t-19 14t-51.5 3.5q-3 0 -3 6t3 6q43 0 58 9.5t16 35.5q5 148 48 223q26 43 64.5 64
t93.5 21q39 0 72.5 -10t55.5 -27q10 18 10 38q0 3 5.5 3t5.5 -3l-1 -417q37 40 76.5 64.5t88.5 24.5q43 0 79 -21zM690 51.5q35 45.5 35 130.5q0 90 -37 139.5t-96 49.5q-36 0 -69 -20.5t-66 -56.5v-220q32 -36 65 -52t71 -16q62 0 97 45.5z" />
    <glyph glyph-name="f_f.liga" unicode="ff" horiz-adv-x="599" 
d="M696 710.5q33 -15.5 33 -35.5q0 -13 -9 -20.5t-22 -7.5q-10 0 -18 4.5t-18 17.5q-17 21 -36.5 31t-46.5 10q-61 0 -97 -67.5t-36 -203.5v-65q47 1 133 10q3 0 5 -6.5t2 -16.5q0 -8 -3 -16t-7 -7q-55 13 -130 15v-272q0 -31 7 -45t27.5 -19t66.5 -5q2 0 2 -6t-2 -6l-64 1
q-20 1 -62 1l-55 -1q-14 -1 -39 -1q-3 0 -3 6t3 6q31 0 45.5 5.5t20 19.5t5.5 44v225q0 17 -1 23q-2 12 -9 16.5t-27.5 6t-50.5 2.5q-35 2 -158 2v-275q0 -31 7 -45t27.5 -19t66.5 -5q2 0 2 -6t-2 -6l-64 1q-20 1 -62 1l-55 -1q-14 -1 -39 -1q-3 0 -3 6t3 6q31 0 45.5 5.5
t20 19.5t5.5 44v225q0 27 -4.5 37.5t-19 14t-51.5 3.5q-3 0 -3 6t3 6q43 0 58 9.5t16 35.5q6 132 67 202.5t165 70.5q70 0 128 -28q52 63 150 63q50 0 83 -15.5zM322 375q37 2 52.5 7t20.5 20q2 10 2 16q5 125 36 195q-27 29 -61 45.5t-71 16.5q-68 0 -108.5 -61t-40.5 -175
v-65q128 0 170 1z" />
    <glyph glyph-name="f_f_b.liga" unicode="ffb" horiz-adv-x="1112" 
d="M995 378q36 -21 58 -62.5t22 -101.5q0 -72 -31.5 -123.5t-82.5 -77.5t-107 -26q-77 0 -137 41l-70 -32h-2q-4 0 -4.5 3.5t2.5 6.5q34 24 46.5 42t12.5 55l1 531q-48 77 -126 77q-38 0 -64 -18t-41 -58q-26 -62 -26 -196v-65q47 1 133 10q3 0 5 -6.5t2 -16.5q0 -8 -3 -16
t-7 -7q-55 13 -130 15v-272q0 -31 7 -45t27.5 -19t66.5 -5q2 0 2 -6t-2 -6l-64 1q-20 1 -62 1l-55 -1q-14 -1 -39 -1q-3 0 -3 6t3 6q31 0 45.5 5.5t20 19.5t5.5 44v225q0 17 -1 23q-2 12 -9 16.5t-27.5 6t-50.5 2.5q-35 2 -158 2v-275q0 -31 7 -45t27.5 -19t66.5 -5
q2 0 2 -6t-2 -6l-64 1q-20 1 -62 1l-55 -1q-14 -1 -39 -1q-3 0 -3 6t3 6q31 0 45.5 5.5t20 19.5t5.5 44v225q0 27 -4.5 37.5t-19 14t-51.5 3.5q-3 0 -3 6t3 6q43 0 58 9.5t16 35.5q6 132 67 202.5t165 70.5q70 0 126 -27q49 62 142 62q39 0 72.5 -10t55.5 -27q10 18 10 38
q0 3 5.5 3t5.5 -3l-1 -417q37 40 76.5 64.5t88.5 24.5q43 0 79 -21zM322 375q37 2 52.5 7t20.5 20q2 10 2 16q5 126 35 197q-57 60 -131 60q-68 0 -108.5 -61t-40.5 -175v-65q128 0 170 1zM984 51.5q35 45.5 35 130.5q0 90 -37 139.5t-96 49.5q-36 0 -69 -20.5t-66 -56.5
v-220q32 -36 65 -52t71 -16q62 0 97 45.5z" />
    <glyph glyph-name="f_f_f.liga" unicode="fff" horiz-adv-x="894" 
d="M990 710.5q33 -15.5 33 -35.5q0 -13 -9 -20.5t-22 -7.5q-10 0 -18 4.5t-18 17.5q-17 21 -36.5 31t-46.5 10q-61 0 -97 -67.5t-36 -203.5v-65q47 1 133 10q3 0 5 -6.5t2 -16.5q0 -8 -3 -16t-7 -7q-55 13 -130 15v-272q0 -31 7 -45t27.5 -19t66.5 -5q2 0 2 -6t-2 -6l-64 1
q-20 1 -62 1l-55 -1q-14 -1 -39 -1q-3 0 -3 6t3 6q31 0 45.5 5.5t20 19.5t5.5 44v225q-1 27 -5 35t-18.5 10t-64.5 3q-36 2 -158 2v-275q0 -31 6.5 -45t27 -19t66.5 -5q3 0 3 -6t-3 -6l-63 1q-21 1 -62 1l-54 -1q-15 -1 -41 -1q-2 0 -2 6t2 6q31 0 46 5t20.5 19.5t5.5 44.5
v225q0 17 -1 23q-2 12 -9 16.5t-27.5 6t-50.5 2.5q-35 2 -158 2v-275q0 -31 7 -45t27.5 -19t66.5 -5q2 0 2 -6t-2 -6l-64 1q-20 1 -62 1l-55 -1q-14 -1 -39 -1q-3 0 -3 6t3 6q31 0 45.5 5.5t20 19.5t5.5 44v225q0 27 -4.5 37.5t-19 14t-51.5 3.5q-3 0 -3 6t3 6q43 0 58 9.5
t16 35.5q6 132 67 202.5t165 70.5q43 0 79.5 -10t62.5 -26l-1 -2q59 62 152 62q39 0 72 -14t59 -36q52 61 148 61q50 0 83 -15.5zM615 375q45 1 59.5 9.5t16.5 33.5q5 129 38 199q-27 37 -61.5 58t-73.5 21q-68 0 -108 -66.5t-40 -190.5v-65q128 0 169 1zM322 375
q31 1 46.5 4.5t22.5 13.5q5 12 5 25q6 115 45 186q-28 33 -64 52t-76 19q-68 0 -108.5 -61t-40.5 -175v-65q128 0 170 1z" />
    <glyph glyph-name="f_f_h.liga" unicode="ffh" horiz-adv-x="1108" 
d="M1087 6q0 -6 -2 -6q-23 0 -37 1l-52 1l-53 -1q-13 -1 -36 -1q-3 0 -3 6t3 6q29 0 42 5t18 19.5t5 44.5v163q0 61 -23 90t-71 29q-32 0 -66 -18.5t-62 -50.5v-213q0 -30 4.5 -44.5t18 -19.5t43.5 -5q2 0 2 -6t-2 -6q-23 0 -37 1l-52 1l-53 -1q-13 -1 -36 -1q-3 0 -3 6t3 6
q29 0 42 5t18 19.5t5 44.5v552q-48 78 -126 78q-68 0 -99.5 -63.5t-31.5 -208.5v-65q47 1 133 10q3 0 5 -6.5t2 -16.5q0 -8 -3 -16t-7 -7q-55 13 -130 15v-272q0 -31 7 -45t27.5 -19t66.5 -5q2 0 2 -6t-2 -6l-64 1q-20 1 -62 1l-55 -1q-14 -1 -39 -1q-3 0 -3 6t3 6
q31 0 45.5 5.5t20 19.5t5.5 44v225q0 17 -1 23q-2 12 -9 16.5t-27.5 6t-50.5 2.5q-35 2 -158 2v-275q0 -31 7 -45t27.5 -19t66.5 -5q2 0 2 -6t-2 -6l-64 1q-20 1 -62 1l-55 -1q-14 -1 -39 -1q-3 0 -3 6t3 6q31 0 45.5 5.5t20 19.5t5.5 44v225q0 27 -4.5 37.5t-19 14
t-51.5 3.5q-3 0 -3 6t3 6q43 0 58 9.5t16 35.5q6 132 67 202.5t165 70.5q70 0 126 -27q49 62 142 62q38 0 71.5 -9.5t55.5 -26.5q8 18 8 37q0 3 6 3t6 -3v-418q40 46 77.5 66.5t77.5 20.5q55 0 84.5 -30.5t29.5 -90.5v-194q0 -30 5 -44.5t18.5 -19.5t42.5 -5q2 0 2 -6z
M322 375q37 2 52.5 7t20.5 20q2 10 2 16q5 126 35 197q-57 60 -131 60q-68 0 -108.5 -61t-40.5 -175v-65q128 0 170 1z" />
    <glyph glyph-name="f_f_i.liga" unicode="ffi" horiz-adv-x="862" 
d="M486.5 643q-40.5 -67 -40.5 -204v-65q53 0 133 10q3 0 5 -7.5t2 -16.5t-4 -18t-6 -7q-65 22 -130 23v-277q0 -31 7 -45t27.5 -19t66.5 -5q2 0 2 -6t-2 -6l-64 1q-20 1 -62 1l-55 -1q-14 -1 -39 -1q-3 0 -3 6t3 6q31 0 45.5 5.5t20 19.5t5.5 44v225q0 17 -1 23
q-2 12 -9 16.5t-27.5 6t-50.5 2.5q-35 2 -158 2v-275q0 -31 7 -45t27.5 -19t66.5 -5q2 0 2 -6t-2 -6l-64 1q-20 1 -62 1l-55 -1q-14 -1 -39 -1q-3 0 -3 6t3 6q31 0 45.5 5.5t20 19.5t5.5 44v225q0 27 -4.5 37.5t-19 14t-51.5 3.5q-3 0 -3 6t3 6q43 0 58 9.5t16 35.5
q6 132 67 202.5t165 70.5q75 0 135 -32q57 67 161 67q52 0 86.5 -22.5t34.5 -52.5q0 -13 -7 -20.5t-19 -7.5q-13 0 -20 7.5t-17 23.5q-15 26 -33.5 41t-58.5 15q-70 0 -110.5 -67zM322 375q37 2 52.5 7t20.5 20q2 10 2 16q4 118 40 191q-27 31 -62 48.5t-74 17.5
q-68 0 -108.5 -61t-40.5 -175v-65q128 0 170 1zM825 6q0 -6 -2 -6q-23 0 -37 1l-52 1l-53 -1q-13 -1 -36 -1q-3 0 -3 6t3 6q29 0 42 5t18 19.5t5 44.5v189q0 37 -7 53t-25 16q-16 0 -48 -15h-1q-5 0 -6.5 5t2.5 7l125 59q1 1 3 1t4 -2.5t2 -5.5q0 -6 -1 -39.5t-1 -77.5v-190
q0 -30 5 -44.5t18.5 -19.5t42.5 -5q2 0 2 -6z" />
    <glyph glyph-name="f_f_j.liga" unicode="ffj" horiz-adv-x="861" 
d="M488 643q-42 -67 -42 -204v-65q47 1 133 10q3 0 5 -6.5t2 -16.5q0 -8 -3 -16t-7 -7q-55 13 -130 15v-272q0 -31 7 -45t27.5 -19t66.5 -5q2 0 2 -6t-2 -6l-64 1q-20 1 -62 1l-55 -1q-14 -1 -39 -1q-3 0 -3 6t3 6q31 0 45.5 5.5t20 19.5t5.5 44v225q0 17 -1 23
q-2 12 -9 16.5t-27.5 6t-50.5 2.5q-35 2 -158 2v-275q0 -31 7 -45t27.5 -19t66.5 -5q2 0 2 -6t-2 -6l-64 1q-20 1 -62 1l-55 -1q-14 -1 -39 -1q-3 0 -3 6t3 6q31 0 45.5 5.5t20 19.5t5.5 44v225q0 27 -4.5 37.5t-19 14t-51.5 3.5q-3 0 -3 6t3 6q43 0 58 9.5t16 35.5
q6 132 67 202.5t165 70.5q40 0 75 -9t61 -23q61 67 166 67q37 0 66 -10.5t45 -28t16 -36.5q0 -13 -7.5 -20.5t-19.5 -7.5q-13 0 -20.5 7t-18.5 24q-15 26 -34.5 41t-60.5 15q-73 0 -115 -67zM322 375q37 2 52.5 7t20.5 20q2 10 2 16q4 118 41 191q-28 31 -63 48.5t-74 17.5
q-68 0 -108.5 -61t-40.5 -175v-65q128 0 170 1zM760 396q3 0 5 -2.5t2 -5.5q0 -6 -1.5 -39.5t-1.5 -77.5v-319q0 -68 -12 -110t-40 -69t-79 -48q-2 -1 -4.5 4.5t0.5 6.5q49 21 68.5 64t19.5 129v341q0 37 -7 53t-25 16q-16 0 -48 -15h-1q-5 0 -6.5 5t2.5 7l125 59q1 1 3 1z
" />
    <glyph glyph-name="f_f_k.liga" unicode="ffk" horiz-adv-x="1102" 
d="M1093 6q0 -6 -3 -6q-22 0 -36 1l-52 1l-71 -1q-15 -1 -42 -1q-2 0 -2 6t2 6q28 0 40.5 4.5t12.5 14.5q0 9 -9 22l-125 173l-58 -44v-101q0 -30 4.5 -44.5t18 -19.5t43.5 -5q2 0 2 -6t-2 -6q-23 0 -37 1l-52 1l-53 -1q-13 -1 -36 -1q-3 0 -3 6t3 6q29 0 42 5t18 19.5
t5 44.5v552q-48 78 -127 78q-67 0 -98.5 -63.5t-31.5 -208.5v-65q47 1 133 10q3 0 5 -6.5t2 -16.5q0 -8 -3 -16t-7 -7q-55 13 -130 15v-272q0 -31 7 -45t27.5 -19t66.5 -5q2 0 2 -6t-2 -6l-64 1q-20 1 -62 1l-55 -1q-14 -1 -39 -1q-3 0 -3 6t3 6q31 0 45.5 5.5t20 19.5
t5.5 44v225q0 17 -1 23q-2 12 -9 16.5t-27.5 6t-50.5 2.5q-35 2 -158 2v-275q0 -31 7 -45t27.5 -19t66.5 -5q2 0 2 -6t-2 -6l-64 1q-20 1 -62 1l-55 -1q-14 -1 -39 -1q-3 0 -3 6t3 6q31 0 45.5 5.5t20 19.5t5.5 44v225q0 27 -4.5 37.5t-19 14t-51.5 3.5q-3 0 -3 6t3 6
q43 0 58 9.5t16 35.5q6 132 67 202.5t165 70.5q70 0 126 -27q47 62 139 62q41 0 74.5 -9.5t55.5 -26.5q8 18 8 37q0 3 6 3t6 -3v-532l145 113q34 25 34 43q0 23 -63 23q-3 0 -3 6t3 6q27 0 41 -1l71 -1l66 1q12 1 35 1q2 0 2 -6t-2 -6q-75 0 -166 -69l-64 -49l125 -175
q48 -69 116 -69q3 0 3 -6zM322 375q37 2 52.5 7t20.5 20q2 10 2 16q5 126 35 197q-58 60 -131 60q-68 0 -108.5 -61t-40.5 -175v-65q128 0 170 1z" />
    <glyph glyph-name="f_f_l.liga" unicode="ffl" horiz-adv-x="861" 
d="M835 6q0 -6 -3 -6q-22 0 -36 1l-54 1l-54 -1q-13 -1 -36 -1q-3 0 -3 6t3 6q29 0 42 5t18 19.5t5 44.5v549q-28 44 -61 62.5t-74 18.5q-65 0 -100.5 -63.5t-35.5 -208.5v-65q53 0 133 10q3 0 5 -8t2 -17t-4 -17.5t-6 -6.5q-65 22 -130 23v-277q0 -31 7 -45t27.5 -19
t66.5 -5q2 0 2 -6t-2 -6l-64 1q-20 1 -62 1l-55 -1q-14 -1 -39 -1q-3 0 -3 6t3 6q31 0 45.5 5.5t20 19.5t5.5 44v225q0 17 -1 23q-2 12 -9 16.5t-27.5 6t-50.5 2.5q-35 2 -158 2v-275q0 -31 7 -45t27.5 -19t66.5 -5q2 0 2 -6t-2 -6l-64 1q-20 1 -62 1l-55 -1q-14 -1 -39 -1
q-3 0 -3 6t3 6q31 0 45.5 5.5t20 19.5t5.5 44v225q0 27 -4.5 37.5t-19 14t-51.5 3.5q-3 0 -3 6t3 6q43 0 58 9.5t16 35.5q6 132 67 202.5t165 70.5q70 0 128 -28q50 63 144 63q42 0 77.5 -10.5t59.5 -28.5q11 17 11 40q0 3 6 3t6 -3v-646q0 -30 4.5 -44.5t18 -19.5t42.5 -5
q3 0 3 -6zM322 375q37 2 52.5 7t20.5 20q2 10 2 16q4 123 36 195q-26 29 -60 45.5t-72 16.5q-68 0 -108.5 -61t-40.5 -175v-65q128 0 170 1z" />
    <glyph glyph-name="f_f_thorn.liga" unicode="ff&#xfe;" horiz-adv-x="1102" 
d="M988.5 377q34.5 -22 55.5 -64t21 -98q0 -74 -34 -125.5t-84 -77t-96 -25.5q-33 0 -58.5 7t-51.5 24v-212q0 -30 7.5 -44t28 -19.5t64.5 -5.5q3 0 3 -6t-3 -6q-34 0 -53 1l-72 1l-53 -1q-13 -1 -37 -1q-2 0 -2 6t2 6q28 0 42 5.5t19 19.5t5 44v844q-45 61 -116 61
q-67 0 -98.5 -63.5t-31.5 -208.5v-65q47 1 133 10q3 0 5 -6.5t2 -16.5q0 -8 -3 -16t-7 -7q-55 13 -130 15v-272q0 -31 7 -45t27.5 -19t66.5 -5q2 0 2 -6t-2 -6l-64 1q-20 1 -62 1l-55 -1q-14 -1 -39 -1q-3 0 -3 6t3 6q31 0 45.5 5.5t20 19.5t5.5 44v225q0 17 -1 23
q-2 12 -9 16.5t-27.5 6t-50.5 2.5q-35 2 -158 2v-275q0 -31 7 -45t27.5 -19t66.5 -5q2 0 2 -6t-2 -6l-64 1q-20 1 -62 1l-55 -1q-14 -1 -39 -1q-3 0 -3 6t3 6q31 0 45.5 5.5t20 19.5t5.5 44v225q0 27 -4.5 37.5t-19 14t-51.5 3.5q-3 0 -3 6t3 6q43 0 58 9.5t16 35.5
q6 132 67 202.5t165 70.5q70 0 126 -27q47 62 139 62q77 0 123 -31q6 15 6 32q0 3 6 3t6 -3v-419q45 47 86.5 69t85.5 22q41 0 75.5 -22zM322 375q37 2 52.5 7t20.5 20q2 10 2 16q5 126 35 197q-58 60 -131 60q-68 0 -108.5 -61t-40.5 -175v-65q128 0 170 1zM974 55
q36 48 36 129q0 86 -38 134t-96 48q-38 0 -70 -19.5t-65 -54.5v-220q28 -31 61.5 -48t80.5 -17q55 0 91 48z" />
    <glyph glyph-name="f_f_t.liga" unicode="fft" horiz-adv-x="915" 
d="M884 47q3 0 5 -4.5t-1 -6.5q-37 -26 -65 -37t-58 -11q-41 0 -67 18.5t-26 61.5v238q0 29 -8.5 37.5t-47 10.5t-170.5 2v-275q0 -31 7 -45t27.5 -19t66.5 -5q2 0 2 -6t-2 -6l-64 1q-20 1 -62 1l-55 -1q-14 -1 -39 -1q-3 0 -3 6t3 6q31 0 45.5 5.5t20 19.5t5.5 44v225
q0 17 -1 23q-2 12 -9 16.5t-27.5 6t-50.5 2.5q-35 2 -158 2v-275q0 -31 7 -45t27.5 -19t66.5 -5q2 0 2 -6t-2 -6l-64 1q-20 1 -62 1l-55 -1q-14 -1 -39 -1q-3 0 -3 6t3 6q31 0 45.5 5.5t20 19.5t5.5 44v225q0 27 -4.5 37.5t-19 14t-51.5 3.5q-3 0 -3 6t3 6q43 0 58 9.5
t16 35.5q6 132 67 202.5t165 70.5q70 0 128 -28q52 63 150 63q50 0 83 -15.5t33 -35.5q0 -13 -9 -20.5t-22 -7.5q-17 0 -36 22q-17 21 -36.5 31t-46.5 10q-61 0 -97 -67.5t-36 -203.5v-65q90 0 142 3q49 1 73.5 7t34 20.5t9.5 42.5q0 3 8 3q7 0 7 -3v-73q69 1 141 10
q3 0 5 -6.5t2 -16.5q0 -8 -3.5 -16t-6.5 -7q-60 15 -138 15v-251q0 -83 80 -83q47 0 82 27zM322 375q37 2 52.5 7t20.5 20q2 10 2 16q5 125 36 195q-27 29 -61 45.5t-71 16.5q-68 0 -108.5 -61t-40.5 -175v-65q128 0 170 1z" />
    <glyph glyph-name="f_h.liga" unicode="fh" horiz-adv-x="814" 
d="M793 6q0 -6 -2 -6q-23 0 -37 1l-52 1l-53 -1q-13 -1 -36 -1q-3 0 -3 6t3 6q29 0 42 5t18 19.5t5 44.5v163q0 61 -23 90t-71 29q-32 0 -66 -18.5t-62 -50.5v-213q0 -30 4.5 -44.5t18 -19.5t43.5 -5q2 0 2 -6t-2 -6q-23 0 -37 1l-52 1l-53 -1q-13 -1 -36 -1q-3 0 -3 6t3 6
q29 0 42 5t18 19.5t5 44.5v552q-48 78 -126 78q-68 0 -99.5 -63.5t-31.5 -208.5v-65q47 1 133 10q3 0 5 -6.5t2 -16.5q0 -8 -3 -16t-7 -7q-55 13 -130 15v-272q0 -31 7 -45t27.5 -19t66.5 -5q2 0 2 -6t-2 -6l-64 1q-20 1 -62 1l-55 -1q-14 -1 -39 -1q-3 0 -3 6t3 6
q31 0 45.5 5.5t20 19.5t5.5 44v225q0 27 -4.5 37.5t-19 14t-51.5 3.5q-3 0 -3 6t3 6q43 0 58 9.5t16 35.5q5 158 54 233t152 75q38 0 71.5 -9.5t55.5 -26.5q8 18 8 37q0 3 6 3t6 -3v-418q40 46 77.5 66.5t77.5 20.5q55 0 84.5 -30.5t29.5 -90.5v-194q0 -30 5 -44.5
t18.5 -19.5t42.5 -5q2 0 2 -6z" />
    <glyph glyph-name="f_j.liga" unicode="fj" horiz-adv-x="567" 
d="M194 643q-42 -67 -42 -204v-65q47 1 133 10q3 0 5 -6.5t2 -16.5q0 -8 -3 -16t-7 -7q-55 13 -130 15v-272q0 -31 7 -45t27.5 -19t66.5 -5q2 0 2 -6t-2 -6l-64 1q-20 1 -62 1l-55 -1q-14 -1 -39 -1q-3 0 -3 6t3 6q31 0 45.5 5.5t20 19.5t5.5 44v225q0 27 -4.5 37.5t-19 14
t-51.5 3.5q-3 0 -3 6t3 6q43 0 58 9.5t16 35.5q5 159 68 233.5t172 74.5q37 0 66 -10.5t45 -28t16 -36.5q0 -13 -7.5 -20.5t-19.5 -7.5q-13 0 -20.5 7t-18.5 24q-15 26 -34.5 41t-60.5 15q-73 0 -115 -67zM466 396q3 0 5 -2.5t2 -5.5q0 -6 -1.5 -39.5t-1.5 -77.5v-319
q0 -68 -12 -110t-40 -69t-79 -48q-2 -1 -4.5 4.5t0.5 6.5q49 21 68.5 64t19.5 129v341q0 37 -7 53t-25 16q-16 0 -48 -15h-1q-5 0 -6.5 5t2.5 7l125 59q1 1 3 1z" />
    <glyph glyph-name="f_k.liga" unicode="fk" horiz-adv-x="808" 
d="M799 6q0 -6 -3 -6q-22 0 -36 1l-52 1l-71 -1q-15 -1 -42 -1q-2 0 -2 6t2 6q28 0 40.5 4.5t12.5 14.5q0 9 -9 22l-125 173l-58 -44v-101q0 -30 4.5 -44.5t18 -19.5t43.5 -5q2 0 2 -6t-2 -6q-23 0 -37 1l-52 1l-53 -1q-13 -1 -36 -1q-3 0 -3 6t3 6q29 0 42 5t18 19.5
t5 44.5v552q-48 78 -127 78q-67 0 -98.5 -63.5t-31.5 -208.5v-65q47 1 133 10q3 0 5 -6.5t2 -16.5q0 -8 -3 -16t-7 -7q-55 13 -130 15v-272q0 -31 7 -45t27.5 -19t66.5 -5q2 0 2 -6t-2 -6l-64 1q-20 1 -62 1l-55 -1q-14 -1 -39 -1q-3 0 -3 6t3 6q31 0 45.5 5.5t20 19.5
t5.5 44v225q0 27 -4.5 37.5t-19 14t-51.5 3.5q-3 0 -3 6t3 6q43 0 58 9.5t16 35.5q5 158 54 233t149 75q41 0 74.5 -9.5t55.5 -26.5q8 18 8 37q0 3 6 3t6 -3v-532l145 113q34 25 34 43q0 23 -63 23q-3 0 -3 6t3 6q27 0 41 -1l71 -1l66 1q12 1 35 1q2 0 2 -6t-2 -6
q-75 0 -166 -69l-64 -49l125 -175q48 -69 116 -69q3 0 3 -6z" />
    <glyph glyph-name="f_thorn.liga" unicode="f&#xfe;" horiz-adv-x="808" 
d="M694.5 377q34.5 -22 55.5 -64t21 -98q0 -74 -34 -125.5t-84 -77t-96 -25.5q-33 0 -58.5 7t-51.5 24v-212q0 -30 7.5 -44t28 -19.5t64.5 -5.5q3 0 3 -6t-3 -6q-34 0 -53 1l-72 1l-53 -1q-13 -1 -37 -1q-2 0 -2 6t2 6q28 0 42 5.5t19 19.5t5 44v844q-45 61 -116 61
q-67 0 -98.5 -63.5t-31.5 -208.5v-65q47 1 133 10q3 0 5 -6.5t2 -16.5q0 -8 -3 -16t-7 -7q-55 13 -130 15v-272q0 -31 7 -45t27.5 -19t66.5 -5q2 0 2 -6t-2 -6l-64 1q-20 1 -62 1l-55 -1q-14 -1 -39 -1q-3 0 -3 6t3 6q31 0 45.5 5.5t20 19.5t5.5 44v225q0 27 -4.5 37.5
t-19 14t-51.5 3.5q-3 0 -3 6t3 6q43 0 58 9.5t16 35.5q5 158 54 233t149 75q77 0 123 -31q6 15 6 32q0 3 6 3t6 -3v-419q45 47 86.5 69t85.5 22q41 0 75.5 -22zM680 55q36 48 36 129q0 86 -38 134t-96 48q-38 0 -70 -19.5t-65 -54.5v-220q28 -31 61.5 -48t80.5 -17
q55 0 91 48z" />
    <glyph glyph-name="f_t.liga" unicode="ft" horiz-adv-x="621" 
d="M590 47q3 0 5 -4.5t-1 -6.5q-37 -26 -65 -37t-58 -11q-41 0 -67 18.5t-26 61.5v238q0 29 -8.5 37.5t-47 10.5t-170.5 2v-275q0 -31 7 -45t27.5 -19t66.5 -5q2 0 2 -6t-2 -6l-64 1q-20 1 -62 1l-55 -1q-14 -1 -39 -1q-3 0 -3 6t3 6q31 0 45.5 5.5t20 19.5t5.5 44v225
q0 27 -4.5 37.5t-19 14t-51.5 3.5q-3 0 -3 6t3 6q43 0 58 9.5t16 35.5q5 162 58.5 235t157.5 73q50 0 83 -15.5t33 -35.5q0 -13 -9 -20.5t-22 -7.5q-17 0 -36 22q-17 21 -36.5 31t-46.5 10q-61 0 -97 -67.5t-36 -203.5v-65q90 0 142 3q49 1 73.5 7t34 20.5t9.5 42.5q0 3 8 3
q7 0 7 -3v-73q69 1 141 10q3 0 5 -6.5t2 -16.5q0 -8 -3.5 -16t-6.5 -7q-60 15 -138 15v-251q0 -83 80 -83q47 0 82 27z" />
    <glyph glyph-name="fi.liga" unicode="fi" horiz-adv-x="568" 
d="M192.5 643q-40.5 -67 -40.5 -204v-65q53 0 133 10q3 0 5 -7.5t2 -16.5t-4 -18t-6 -7q-65 22 -130 23v-277q0 -31 7 -45t27.5 -19t66.5 -5q2 0 2 -6t-2 -6l-64 1q-20 1 -62 1l-55 -1q-14 -1 -39 -1q-3 0 -3 6t3 6q31 0 45.5 5.5t20 19.5t5.5 44v225q0 27 -4.5 37.5t-19 14
t-51.5 3.5q-3 0 -3 6t3 6q43 0 58 9.5t16 35.5q5 159 66.5 233.5t167.5 74.5q52 0 86.5 -22.5t34.5 -52.5q0 -13 -7 -20.5t-19 -7.5q-13 0 -20 7.5t-17 23.5q-15 26 -33.5 41t-58.5 15q-70 0 -110.5 -67zM531 6q0 -6 -2 -6q-23 0 -37 1l-52 1l-53 -1q-13 -1 -36 -1
q-3 0 -3 6t3 6q29 0 42 5t18 19.5t5 44.5v189q0 37 -7 53t-25 16q-16 0 -48 -15h-1q-5 0 -6.5 5t2.5 7l125 59q1 1 3 1t4 -2.5t2 -5.5q0 -6 -1 -39.5t-1 -77.5v-190q0 -30 5 -44.5t18.5 -19.5t42.5 -5q2 0 2 -6z" />
    <glyph glyph-name="fl.liga" unicode="fl" horiz-adv-x="567" 
d="M541 6q0 -6 -3 -6q-22 0 -36 1l-54 1l-54 -1q-13 -1 -36 -1q-3 0 -3 6t3 6q29 0 42 5t18 19.5t5 44.5v549q-28 44 -61 62.5t-74 18.5q-65 0 -100.5 -63.5t-35.5 -208.5v-65q53 0 133 10q3 0 5 -8t2 -17t-4 -17.5t-6 -6.5q-65 22 -130 23v-277q0 -31 7 -45t27.5 -19
t66.5 -5q2 0 2 -6t-2 -6l-64 1q-20 1 -62 1l-55 -1q-14 -1 -39 -1q-3 0 -3 6t3 6q31 0 45.5 5.5t20 19.5t5.5 44v225q0 27 -4.5 37.5t-19 14t-51.5 3.5q-3 0 -3 6t3 6q43 0 58 9.5t16 35.5q5 161 58 234.5t152 73.5q42 0 77.5 -10.5t59.5 -28.5q11 17 11 40q0 3 6 3t6 -3
v-646q0 -30 4.5 -44.5t18 -19.5t42.5 -5q3 0 3 -6z" />
    <glyph glyph-name="g_g.liga" unicode="gg" horiz-adv-x="856" 
d="M438 387q2 -7 2 -14q0 -11 -3 -22t-7 -9q-22 6 -40.5 10t-46.5 4q-15 0 -29 -3q26 -29 26 -70q0 -33 -17 -62t-50 -46.5t-79 -17.5q-30 0 -51 7q-19 -13 -30 -31.5t-11 -38.5q0 -31 29 -44t82 -21q14 -2 23 -4q55 -8 89 -17.5t57.5 -32.5t23.5 -65q0 -44 -32 -89
t-86.5 -74t-116.5 -29q-70 0 -113 35t-43 87q0 80 116 157q-69 20 -69 67q0 53 70 103q-37 14 -57.5 43.5t-20.5 66.5q0 50 41.5 83t109.5 33q64 0 100 -31q35 16 65 24t64 8q2 0 4 -7zM666 26q61 -9 95.5 -18t59.5 -32.5t25 -65.5q0 -44 -33.5 -89t-90.5 -74t-123 -29
q-68 0 -109 35t-41 87q0 42 28.5 80t82.5 77q-33 9 -51.5 25t-18.5 42q0 53 70 103q-37 14 -57.5 43.5t-20.5 66.5q0 50 41.5 83t109.5 33q64 0 99 -30q29 15 54 23t53 8q2 0 3.5 -7t1.5 -14q0 -12 -2.5 -22.5t-6.5 -8.5q-35 14 -64 14q-15 0 -29 -3q26 -29 26 -70
q0 -33 -17 -62t-50 -46.5t-79 -17.5q-30 0 -51 7q-19 -13 -30 -31.5t-11 -38.5q0 -31 29 -44t82 -21zM266.5 193.5q20.5 22.5 20.5 69.5q0 52 -31.5 84t-73.5 32q-33 0 -53.5 -20t-20.5 -63q0 -59 32 -92t74 -33q32 0 52.5 22.5zM556.5 359q-20.5 -20 -20.5 -63
q0 -59 32 -92t74 -33q32 0 52.5 22.5t20.5 69.5q0 52 -31.5 84t-72.5 32q-34 0 -54.5 -20zM338.5 -58q-24.5 21 -56 28.5t-91.5 15.5q-30 5 -41 7q-41 -25 -63.5 -53.5t-22.5 -70.5q0 -55 38 -88.5t105 -33.5q49 0 84.5 19.5t53.5 50t18 64.5q0 40 -24.5 61zM726 -233.5
q38 19.5 57 50t19 64.5q0 40 -26 61t-59.5 28.5t-97.5 15.5l-39 6q-39 -24 -60.5 -52.5t-21.5 -70.5q0 -55 36.5 -88.5t100.5 -33.5q53 0 91 19.5z" />
    <glyph glyph-name="longs_b.liga" unicode="&#x17f;b" horiz-adv-x="807" 
d="M689.5 378q35.5 -21 57.5 -62.5t23 -101.5q-1 -72 -33 -123.5t-82 -77.5t-106 -26q-76 0 -138 41l-69 -32h-2q-4 0 -5 3.5t2 6.5q34 24 46.5 42t12.5 55l2 530q-43 78 -116 78q-67 0 -98.5 -63.5t-31.5 -208.5v-358q0 -31 7 -45t27.5 -19t66.5 -5q2 0 2 -6t-2 -6l-64 1
q-20 1 -62 1l-55 -1q-14 -1 -39 -1q-3 0 -3 6t3 6q31 0 45 5t19.5 19.5t5.5 44.5v337q0 308 203 308q77 0 120 -37q9 17 9 38q0 3 6 3t6 -3l-1 -416q37 40 76.5 64t88.5 24q43 0 78.5 -21zM677.5 51.5q34.5 45.5 35.5 130.5q-1 90 -37.5 139.5t-95.5 49.5q-35 0 -68 -20.5
t-66 -56.5v-221q32 -36 65 -51.5t70 -15.5q62 0 96.5 45.5z" />
    <glyph glyph-name="longs_h.liga" unicode="&#x17f;h" horiz-adv-x="802" 
d="M781 6q0 -6 -2 -6q-23 0 -36 1l-53 1l-52 -1q-14 -1 -37 -1q-2 0 -2 6t2 6q29 0 42.5 5t18.5 19.5t5 44.5v163q0 61 -23.5 90t-71.5 29q-33 0 -66.5 -18.5t-61.5 -51.5v-212q0 -30 5 -44.5t18.5 -19.5t42.5 -5q2 0 2 -6t-2 -6q-23 0 -36 1l-53 1l-52 -1q-14 -1 -37 -1
q-2 0 -2 6t2 6q29 0 42.5 5t18.5 19.5t5 44.5v552q-43 78 -116 78q-67 0 -98.5 -63.5t-31.5 -208.5v-358q0 -31 7 -45t27.5 -19t66.5 -5q2 0 2 -6t-2 -6l-64 1q-20 1 -62 1l-55 -1q-14 -1 -39 -1q-3 0 -3 6t3 6q31 0 45.5 5.5t20 19.5t5.5 44v337q0 156 50.5 232t151.5 76
q77 0 119 -36q8 18 8 37q0 3 5.5 3t5.5 -3v-418q40 46 77.5 66.5t77.5 20.5q55 0 84.5 -30.5t29.5 -90.5v-194q0 -30 5 -44.5t18.5 -19.5t42.5 -5q2 0 2 -6z" />
    <glyph glyph-name="longs_i.liga" unicode="&#x17f;i" horiz-adv-x="544" 
d="M30 6q0 6 3 6q31 0 45.5 5.5t20 19.5t5.5 44v337q0 160 55 234t154 74q51 0 80.5 -15t29.5 -36q0 -13 -8.5 -20t-21.5 -7t-21.5 6.5t-19.5 20.5q-15 18 -29 27.5t-39 9.5q-61 0 -95.5 -66.5t-34.5 -206.5v-358q0 -31 5.5 -45t23.5 -19t58 -5q2 0 2 -6t-2 -6l-58 1
q-18 1 -56 1l-55 -1q-14 -1 -39 -1q-3 0 -3 6zM318 6q0 6 2 6q29 0 42.5 5t18.5 19.5t5 44.5v189q0 37 -7 53t-25 16q-17 0 -49 -15h-1q-5 0 -6 5t3 7l125 59l2 1q3 0 5 -2.5t2 -5.5q0 -6 -1 -39.5t-1 -77.5v-190q0 -30 4.5 -44.5t18 -19.5t42.5 -5q3 0 3 -6t-3 -6
q-23 0 -36 1l-53 1l-52 -1q-14 -1 -37 -1q-2 0 -2 6z" />
    <glyph glyph-name="longs_j.liga" unicode="&#x17f;j" horiz-adv-x="525" 
d="M30 6q0 6 3 6q31 0 45.5 5.5t20 19.5t5.5 44v337q0 160 55 234t154 74q51 0 80.5 -15t29.5 -36q0 -13 -8.5 -20t-21.5 -7t-21.5 6.5t-19.5 20.5q-15 18 -29 27.5t-39 9.5q-61 0 -95.5 -66.5t-34.5 -206.5v-358q0 -31 5.5 -45t23.5 -19t58 -5q2 0 2 -6t-2 -6l-58 1
q-18 1 -56 1l-55 -1q-14 -1 -39 -1q-3 0 -3 6zM292.5 -270.5q-2.5 5.5 -0.5 6.5q49 21 69 64t20 129v341q0 37 -7 53t-25 16q-16 0 -48 -15h-1q-5 0 -6.5 5t2.5 7l125 59q1 1 3 1t4 -2.5t2 -5.5q0 -6 -1 -39.5t-1 -77.5v-319q0 -67 -12 -109.5t-40 -69.5t-79 -48
q-2 -1 -4.5 4.5z" />
    <glyph glyph-name="longs_k.liga" unicode="&#x17f;k" horiz-adv-x="796" 
d="M787 6q0 -6 -2 -6q-23 0 -37 1l-52 1l-71 -1q-15 -1 -41 -1q-3 0 -3 6t3 6q27 0 39.5 4.5t12.5 14.5q0 9 -9 22l-125 172l-58 -44v-100q0 -30 5 -44.5t18.5 -19.5t42.5 -5q2 0 2 -6t-2 -6q-23 0 -36 1l-53 1l-52 -1q-14 -1 -37 -1q-2 0 -2 6t2 6q29 0 42.5 5t18.5 19.5
t5 44.5v552q-43 78 -116 78q-67 0 -98.5 -63.5t-31.5 -208.5v-358q0 -31 7 -45t27.5 -19t66.5 -5q2 0 2 -6t-2 -6l-64 1q-20 1 -62 1l-55 -1q-14 -1 -39 -1q-3 0 -3 6t3 6q31 0 45.5 5.5t20 19.5t5.5 44v337q0 156 50.5 232t151.5 76q77 0 119 -36q8 18 8 37q0 3 5.5 3
t5.5 -3v-532l145 113q34 25 34 43q0 23 -63 23q-2 0 -2 6t2 6q27 0 42 -1l71 -1l65 1q13 1 35 1q3 0 3 -6t-3 -6q-75 0 -166 -69l-64 -49l125 -175q48 -69 117 -69q2 0 2 -6z" />
    <glyph glyph-name="longs_l.liga" unicode="&#x17f;l" horiz-adv-x="544" 
d="M517 6q0 -6 -2 -6q-23 0 -37 1l-53 1l-54 -1q-13 -1 -36 -1q-3 0 -3 6t3 6q28 0 41.5 5.5t18.5 19.5t5 44v548q-43 82 -118 82q-67 0 -98.5 -63.5t-31.5 -208.5v-358q0 -31 7 -45t27.5 -19t66.5 -5q2 0 2 -6t-2 -6l-64 1q-20 1 -62 1l-55 -1q-14 -1 -39 -1q-3 0 -3 6t3 6
q31 0 45.5 5.5t20 19.5t5.5 44v337q0 156 50.5 232t151.5 76q78 0 121 -38q10 18 10 39q0 3 6 3t6 -3v-646q0 -30 4.5 -44.5t18 -19.5t43.5 -5q2 0 2 -6z" />
    <glyph glyph-name="longs_thorn.liga" unicode="&#x17f;&#xfe;" horiz-adv-x="796" 
d="M683 377q35 -22 55.5 -63.5t20.5 -98.5q0 -74 -34 -125.5t-84 -77t-96 -25.5q-32 0 -58 7t-52 25v-213q0 -30 7.5 -44t28 -19.5t65.5 -5.5q2 0 2 -6t-2 -6q-35 0 -54 1l-71 1l-53 -1q-14 -1 -38 -1q-2 0 -2 6t2 6q28 0 42 5.5t19 19.5t5 44v846q-40 59 -104 59
q-67 0 -98.5 -63.5t-31.5 -208.5v-358q0 -31 7 -45t27.5 -19t66.5 -5q2 0 2 -6t-2 -6l-64 1q-20 1 -62 1l-55 -1q-14 -1 -39 -1q-3 0 -3 6t3 6q31 0 45.5 5.5t20 19.5t5.5 44v337q0 156 50.5 232t151.5 76q68 0 111 -30q6 14 6 31q0 3 6 3t6 -3v-419q45 47 87 69t85 22
q41 0 76 -22zM642 28.5q29 21.5 45.5 61.5t16.5 94q0 86 -37.5 134t-95.5 48q-38 0 -70.5 -19.5t-65.5 -54.5v-219q29 -32 62.5 -49t80.5 -17q35 0 64 21.5z" />
    <glyph glyph-name="longs_longs.liga" unicode="&#x17f;&#x17f;" horiz-adv-x="538" 
d="M663.5 710.5q29.5 -15.5 29.5 -35.5q0 -14 -8.5 -20.5t-22.5 -6.5q-13 0 -21.5 6.5t-19.5 20.5q-14 17 -28 26.5t-38 9.5q-57 0 -88.5 -65.5t-31.5 -206.5v-358q0 -31 5.5 -45t23.5 -19t58 -5q2 0 2 -6t-2 -6l-58 1q-18 1 -56 1l-55 -1q-14 -1 -39 -1q-3 0 -3 6t3 6
q31 0 45.5 5.5t20 19.5t5.5 44v337q0 130 33 202q-52 55 -117 55q-68 0 -108.5 -61t-40.5 -175v-358q0 -31 7 -45t27.5 -19t66.5 -5q2 0 2 -6t-2 -6l-64 1q-20 1 -62 1l-55 -1q-14 -1 -39 -1q-3 0 -3 6t3 6q31 0 45.5 5.5t20 19.5t5.5 44v337q0 131 63 202t168 71
q61 0 111 -25q49 60 143 60q45 0 74.5 -15.5z" />
    <glyph glyph-name="longs_longs_b.liga" unicode="&#x17f;&#x17f;b" horiz-adv-x="1092" 
d="M974.5 378q35.5 -21 57.5 -62.5t23 -101.5q-1 -72 -33 -123.5t-82 -77.5t-106 -26q-76 0 -138 41l-69 -32h-2q-4 0 -5 3.5t2 6.5q34 24 46.5 42t12.5 55l2 530q-43 78 -116 78q-67 0 -98.5 -63.5t-31.5 -208.5v-358q0 -31 7 -45t27.5 -19t66.5 -5q2 0 2 -6t-2 -6l-64 1
q-20 1 -62 1l-55 -1q-14 -1 -39 -1q-3 0 -3 6t3 6q31 0 45 5t19.5 19.5t5.5 44.5v337q0 125 33 198q-52 59 -120 59t-108.5 -61t-40.5 -175v-358q0 -31 7 -45t27.5 -19t66.5 -5q2 0 2 -6t-2 -6l-64 1q-20 1 -62 1l-55 -1q-14 -1 -39 -1q-3 0 -3 6t3 6q31 0 45.5 5.5t20 19.5
t5.5 44v337q0 131 63 202t168 71q64 0 114 -27q50 62 142 62q77 0 120 -37q9 17 9 38q0 3 6 3t6 -3l-1 -416q37 40 76.5 64t88.5 24q43 0 78.5 -21zM962.5 51.5q34.5 45.5 35.5 130.5q-1 90 -37.5 139.5t-95.5 49.5q-35 0 -68 -20.5t-66 -56.5v-221q32 -36 65 -51.5
t70 -15.5q62 0 96.5 45.5z" />
    <glyph glyph-name="longs_longs_h.liga" unicode="&#x17f;&#x17f;h" horiz-adv-x="1089" 
d="M1068 6q0 -6 -2 -6q-23 0 -36 1l-53 1l-52 -1q-14 -1 -37 -1q-2 0 -2 6t2 6q29 0 42.5 5t18.5 19.5t5 44.5v163q0 61 -23.5 90t-71.5 29q-33 0 -66.5 -18.5t-61.5 -51.5v-212q0 -30 5 -44.5t18.5 -19.5t42.5 -5q2 0 2 -6t-2 -6q-23 0 -36 1l-53 1l-52 -1q-14 -1 -37 -1
q-2 0 -2 6t2 6q29 0 42.5 5t18.5 19.5t5 44.5v552q-43 78 -116 78q-67 0 -98.5 -63.5t-31.5 -208.5v-358q0 -31 7 -45t27.5 -19t66.5 -5q2 0 2 -6t-2 -6l-64 1q-20 1 -62 1l-55 -1q-14 -1 -39 -1q-3 0 -3 6t3 6q31 0 45.5 5.5t20 19.5t5.5 44v337q0 120 31 196
q-25 29 -56 45t-65 16q-68 0 -108.5 -61t-40.5 -175v-358q0 -31 7 -45t27.5 -19t66.5 -5q2 0 2 -6t-2 -6l-64 1q-20 1 -62 1l-55 -1q-14 -1 -39 -1q-3 0 -3 6t3 6q31 0 45.5 5.5t20 19.5t5.5 44v337q0 131 63 202t168 71q67 0 116 -28q51 63 142 63q77 0 119 -36q8 18 8 37
q0 3 5.5 3t5.5 -3v-418q40 46 77.5 66.5t77.5 20.5q55 0 84.5 -30.5t29.5 -90.5v-194q0 -30 5 -44.5t18.5 -19.5t42.5 -5q2 0 2 -6z" />
    <glyph glyph-name="longs_longs_i.liga" unicode="&#x17f;&#x17f;i" horiz-adv-x="825" 
d="M469.5 645.5q-34.5 -66.5 -34.5 -206.5v-358q0 -31 5.5 -45t23.5 -19t58 -5q2 0 2 -6t-2 -6l-58 1q-18 1 -56 1l-55 -1q-14 -1 -39 -1q-3 0 -3 6t3 6q31 0 45.5 5.5t20 19.5t5.5 44v337q0 126 35 199q-52 58 -119 58q-68 0 -108.5 -61t-40.5 -175v-358q0 -31 7 -45
t27.5 -19t66.5 -5q2 0 2 -6t-2 -6l-64 1q-20 1 -62 1l-55 -1q-14 -1 -39 -1q-3 0 -3 6t3 6q31 0 45.5 5.5t20 19.5t5.5 44v337q0 131 63 202t168 71q64 0 114 -27q52 62 145 62q51 0 80.5 -15t29.5 -36q0 -13 -8.5 -20t-21.5 -7t-21.5 6.5t-19.5 20.5q-15 18 -29 27.5
t-39 9.5q-61 0 -95.5 -66.5zM782 6q0 -6 -3 -6q-23 0 -36 1l-53 1l-52 -1q-14 -1 -37 -1q-2 0 -2 6t2 6q29 0 42.5 5t18.5 19.5t5 44.5v189q0 37 -7 53t-25 16q-17 0 -49 -15h-1q-5 0 -6 5t3 7l125 59l2 1q3 0 5 -2.5t2 -5.5q0 -6 -1 -39.5t-1 -77.5v-190q0 -30 4.5 -44.5
t18 -19.5t42.5 -5q3 0 3 -6z" />
    <glyph glyph-name="longs_longs_j.liga" unicode="&#x17f;&#x17f;j" horiz-adv-x="806" 
d="M469.5 645.5q-34.5 -66.5 -34.5 -206.5v-358q0 -31 5.5 -45t23.5 -19t58 -5q2 0 2 -6t-2 -6l-58 1q-18 1 -56 1l-55 -1q-14 -1 -39 -1q-3 0 -3 6t3 6q31 0 45.5 5.5t20 19.5t5.5 44v337q0 126 35 199q-52 58 -119 58q-68 0 -108.5 -61t-40.5 -175v-358q0 -31 7 -45
t27.5 -19t66.5 -5q2 0 2 -6t-2 -6l-64 1q-20 1 -62 1l-55 -1q-14 -1 -39 -1q-3 0 -3 6t3 6q31 0 45.5 5.5t20 19.5t5.5 44v337q0 131 63 202t168 71q64 0 114 -27q52 62 145 62q51 0 80.5 -15t29.5 -36q0 -13 -8.5 -20t-21.5 -7t-21.5 6.5t-19.5 20.5q-15 18 -29 27.5
t-39 9.5q-61 0 -95.5 -66.5zM705 396q2 0 4 -2.5t2 -5.5q0 -6 -1 -39.5t-1 -77.5v-319q0 -67 -12 -109.5t-40 -69.5t-79 -48q-2 -1 -4.5 4.5t-0.5 6.5q49 21 69 64t20 129v341q0 37 -7 53t-25 16q-16 0 -48 -15h-1q-5 0 -6.5 5t2.5 7l125 59q1 1 3 1z" />
    <glyph glyph-name="longs_longs_k.liga" unicode="&#x17f;&#x17f;k" horiz-adv-x="1083" 
d="M1074 6q0 -6 -2 -6q-23 0 -37 1l-52 1l-71 -1q-15 -1 -41 -1q-3 0 -3 6t3 6q27 0 39.5 4.5t12.5 14.5q0 9 -9 22l-125 172l-58 -44v-100q0 -30 5 -44.5t18.5 -19.5t42.5 -5q2 0 2 -6t-2 -6q-23 0 -36 1l-53 1l-52 -1q-14 -1 -37 -1q-2 0 -2 6t2 6q29 0 42.5 5t18.5 19.5
t5 44.5v552q-43 78 -116 78q-67 0 -98.5 -63.5t-31.5 -208.5v-358q0 -31 7 -45t27.5 -19t66.5 -5q2 0 2 -6t-2 -6l-64 1q-20 1 -62 1l-55 -1q-14 -1 -39 -1q-3 0 -3 6t3 6q31 0 45.5 5.5t20 19.5t5.5 44v337q0 120 31 196q-25 29 -56 45t-65 16q-68 0 -108.5 -61t-40.5 -175
v-358q0 -31 7 -45t27.5 -19t66.5 -5q2 0 2 -6t-2 -6l-64 1q-20 1 -62 1l-55 -1q-14 -1 -39 -1q-3 0 -3 6t3 6q31 0 45.5 5.5t20 19.5t5.5 44v337q0 131 63 202t168 71q67 0 116 -28q51 63 142 63q77 0 119 -36q8 18 8 37q0 3 5.5 3t5.5 -3v-532l145 113q34 25 34 43
q0 23 -63 23q-2 0 -2 6t2 6q27 0 42 -1l71 -1l65 1q13 1 35 1q3 0 3 -6t-3 -6q-75 0 -166 -69l-64 -49l125 -175q48 -69 117 -69q2 0 2 -6z" />
    <glyph glyph-name="longs_longs_l.liga" unicode="&#x17f;&#x17f;l" horiz-adv-x="830" 
d="M804 6q0 -6 -2 -6q-23 0 -37 1l-53 1l-54 -1q-13 -1 -36 -1q-3 0 -3 6t3 6q28 0 41.5 5.5t18.5 19.5t5 44v548q-43 82 -118 82q-67 0 -98.5 -63.5t-31.5 -208.5v-358q0 -31 7 -45t27.5 -19t66.5 -5q2 0 2 -6t-2 -6l-64 1q-20 1 -62 1l-55 -1q-14 -1 -39 -1q-3 0 -3 6t3 6
q31 0 45.5 5.5t20 19.5t5.5 44v337q0 120 31 196q-25 29 -56 45t-65 16q-68 0 -108.5 -61t-40.5 -175v-358q0 -31 7 -45t27.5 -19t66.5 -5q2 0 2 -6t-2 -6l-64 1q-20 1 -62 1l-55 -1q-14 -1 -39 -1q-3 0 -3 6t3 6q31 0 45.5 5.5t20 19.5t5.5 44v337q0 131 63 202t168 71
q67 0 116 -28q51 63 142 63q78 0 121 -38q10 18 10 39q0 3 6 3t6 -3v-646q0 -30 4.5 -44.5t18 -19.5t43.5 -5q2 0 2 -6z" />
    <glyph glyph-name="longs_longs_thorn.liga" unicode="&#x17f;&#x17f;&#xfe;" horiz-adv-x="1083" 
d="M970 377q35 -22 55.5 -63.5t20.5 -98.5q0 -74 -34 -125.5t-84 -77t-96 -25.5q-32 0 -58 7t-52 25v-213q0 -30 7.5 -44t28 -19.5t65.5 -5.5q2 0 2 -6t-2 -6q-35 0 -54 1l-71 1l-53 -1q-14 -1 -38 -1q-2 0 -2 6t2 6q28 0 42 5.5t19 19.5t5 44v846q-40 59 -104 59
q-67 0 -98.5 -63.5t-31.5 -208.5v-358q0 -31 7 -45t27.5 -19t66.5 -5q2 0 2 -6t-2 -6l-64 1q-20 1 -62 1l-55 -1q-14 -1 -39 -1q-3 0 -3 6t3 6q31 0 45.5 5.5t20 19.5t5.5 44v337q0 120 31 196q-25 29 -56 45t-65 16q-68 0 -108.5 -61t-40.5 -175v-358q0 -31 7 -45t27.5 -19
t66.5 -5q2 0 2 -6t-2 -6l-64 1q-20 1 -62 1l-55 -1q-14 -1 -39 -1q-3 0 -3 6t3 6q31 0 45.5 5.5t20 19.5t5.5 44v337q0 131 63 202t168 71q67 0 116 -28q51 63 142 63q68 0 111 -30q6 14 6 31q0 3 6 3t6 -3v-419q45 47 87 69t85 22q41 0 76 -22zM929 28.5q29 21.5 45.5 61.5
t16.5 94q0 86 -37.5 134t-95.5 48q-38 0 -70.5 -19.5t-65.5 -54.5v-219q29 -32 62.5 -49t80.5 -17q35 0 64 21.5z" />
    <glyph glyph-name="Aogonek_acutecomb.liga" unicode="&#x104;&#x301;" horiz-adv-x="701" 
d="M698 3.5q0 -5.5 -4 -5.5q-20 0 -52 2l-40 1q-35 0 -66 -17t-50 -47.5t-19 -68.5q0 -47 28.5 -81.5t86.5 -34.5q35 0 59 14h1q3 0 5.5 -3t0.5 -5q-45 -33 -104 -33q-58 0 -91.5 29t-33.5 80q0 43 20 72.5t58 66.5q27 25 40 42.5t13 37.5q0 15 -7 29l-121 257h-190
l-89 -216q-14 -34 -14 -56q0 -29 24 -42t75 -13q5 0 5 -6t-5 -6q-18 0 -52 2q-38 2 -66 2q-25 0 -59 -2q-30 -2 -49 -2q-5 0 -5 6t5 6q28 0 47.5 10t37 36t37.5 74l209 503q2 3 6.5 3t5.5 -3l232 -500q33 -74 58 -100t59 -26q4 0 4 -5.5zM413 358l-92 195l-81 -195h173z
M241 678q-4 0 -5 4.5t2 6.5q46 21 122 65l50 28q4 2 20.5 -4t29 -13.5t5.5 -8.5q-62 -15 -113.5 -33.5t-108.5 -43.5z" />
    <glyph glyph-name="Eogonek_acutecomb.liga" unicode="&#x118;&#x301;" horiz-adv-x="533" 
d="M476 148.5q6 -0.5 6 -3.5q-9 -63 -9 -130q0 -8 -3.5 -11.5t-12.5 -3.5h-413q-2 0 -2 6t2 6q39 0 57.5 5t25 19.5t6.5 44.5v463q0 30 -6.5 44t-25 19.5t-57.5 5.5q-2 0 -2 6t2 6h396q9 0 9 -9l2 -121q0 -3 -5.5 -3t-5.5 3q0 51 -27 81t-71 30h-69q-38 0 -56 -5t-24.5 -19
t-6.5 -44v-203h132q46 0 64 15.5t18 53.5q0 2 6 2t6 -2l-1 -79q0 -29 1 -43l1 -47q0 -2 -6 -2t-6 2q0 45 -19 63t-67 18h-129v-231q0 -29 6.5 -42.5t24 -18.5t56.5 -5h92q40 0 68.5 35t36.5 92q0 3 6 2.5zM414 1q-43 -38 -62.5 -74t-19.5 -77q0 -46 23.5 -72t68.5 -26
q24 0 39.5 6.5t31.5 19.5h2q3 0 5.5 -3t-0.5 -5q-51 -45 -107 -45q-54 0 -82.5 25.5t-28.5 70.5q0 90 119 185zM168 678q-4 0 -5 4.5t2 6.5q46 21 122 65l50 28q4 2 20.5 -4t29 -13.5t5.5 -8.5q-62 -15 -113.5 -33.5t-108.5 -43.5z" />
    <glyph glyph-name="IJ_acutecomb.liga" unicode="&#x132;&#x301;" horiz-adv-x="688" 
d="M193.5 305q6.5 -14 24.5 -19t58 -5q3 0 3 -6t-3 -6q-30 0 -47 1l-70 1l-66 -1q-18 -1 -50 -1q-2 0 -2 6t2 6q39 0 57.5 5t25.5 19.5t7 44.5v194q0 30 -7 44t-25.5 19.5t-57.5 5.5q-2 0 -2 6t2 6l50 -1q40 -2 66 -2q29 0 71 2l46 1q3 0 3 -6t-3 -6q-39 0 -57.5 -6
t-25 -20.5t-6.5 -44.5v-192q0 -31 6.5 -45zM655 619q0 -6 -2 -6q-34 0 -50.5 -6t-22 -20.5t-5.5 -44.5v-284q0 -86 -29.5 -147t-82 -92.5t-121.5 -31.5q-61 0 -111 23t-78.5 58t-28.5 68q0 15 7.5 23t19.5 8q20 0 27.5 -13t14.5 -42q8 -33 19 -55.5t40.5 -39t83.5 -16.5
q95 0 140.5 52.5t45.5 146.5v344q0 30 -7.5 44t-29 19.5t-65.5 5.5q-3 0 -3 6t3 6l57 -1q44 -2 70 -2q24 0 64 2l42 1q2 0 2 -6zM442 678q-4 0 -5 4.5t2 6.5q46 21 122 65l50 28q4 2 20.5 -4t29 -13.5t5.5 -8.5q-62 -15 -113.5 -33.5t-108.5 -43.5zM68 678q-4 0 -5 4.5
t2 6.5q46 21 122 65l50 28q4 2 20.5 -4t29 -13.5t5.5 -8.5q-62 -15 -113.5 -33.5t-108.5 -43.5z" />
    <glyph glyph-name="Iogonek_acutecomb.liga" unicode="&#x12e;&#x301;" horiz-adv-x="330" 
d="M283 6q0 -6 -2 -6q-28 0 -44 1l-62 1q-57 -70 -57 -152q0 -46 21.5 -72t61.5 -26q18 0 29 5.5t18.5 12t10.5 8.5h1q3 0 5.5 -3t0.5 -5q-25 -24 -47 -34.5t-47 -10.5q-48 0 -75 26t-27 70t22.5 90t66.5 91l-64 -1q-17 -1 -47 -1q-3 0 -3 6t3 6q39 0 57.5 5t25.5 19.5
t7 44.5v463q0 30 -7 44t-25.5 19.5t-57.5 5.5q-3 0 -3 6t3 6l49 -1q42 -2 67 -2q28 0 70 2l47 1q2 0 2 -6t-2 -6q-39 0 -57.5 -6t-25 -20.5t-6.5 -44.5v-461q0 -31 6.5 -45t24.5 -19t58 -5q2 0 2 -6zM66 678q-4 0 -5 4.5t2 6.5q46 21 122 65l50 28q4 2 20.5 -4t29 -13.5
t5.5 -8.5q-62 -15 -113.5 -33.5t-108.5 -43.5z" />
    <glyph glyph-name="J_acutecomb.liga" unicode="J&#x301;" horiz-adv-x="316" 
d="M183 -55q-12 -46 -40 -74.5t-80 -51.5l-1 -1q-2 0 -4.5 5t-0.5 6q47 25 66 76.5t19 134.5v504q0 30 -7 44t-26 19.5t-58 5.5q-2 0 -2 6t2 6l52 -1q40 -2 64 -2q25 0 63 2l43 1q2 0 2 -6t-2 -6q-34 0 -50.5 -6t-22 -20.5t-5.5 -44.5v-475q0 -76 -12 -122zM63 678
q-4 0 -5.5 4.5t1.5 6.5q40 18 114 60l58 32q4 2 20.5 -3.5t29 -13t5.5 -8.5q-118 -30 -222 -78h-1z" />
    <glyph glyph-name="uni01EA0301.liga" unicode="&#x1ea;&#x301;" horiz-adv-x="766" 
d="M381 -76q-18 -35 -18 -74q0 -46 23.5 -72t68.5 -26q24 0 39.5 6.5t31.5 19.5h2q3 0 5.5 -3t-0.5 -5q-51 -45 -107 -45q-54 0 -82.5 25.5t-28.5 70.5q0 84 101 170q-24 -3 -50 -3q-93 0 -165.5 43.5t-112 118t-39.5 162.5q0 103 52 176.5t133.5 110.5t166.5 37
q95 0 167 -44.5t110.5 -117.5t38.5 -155q0 -79 -36.5 -147.5t-100.5 -115t-142 -61.5q-39 -36 -57 -71zM149.5 175.5q36.5 -77.5 102.5 -122.5t150 -45q71 0 128 33t90 97t33 153q0 94 -36.5 167.5t-103 114.5t-154.5 41q-116 0 -181 -72t-65 -196q0 -93 36.5 -170.5z
M285 678q-4 0 -5 4.5t2 6.5q46 21 122 65l50 28q4 2 20.5 -4t29 -13.5t5.5 -8.5q-62 -15 -113.5 -33.5t-108.5 -43.5z" />
    <glyph glyph-name="aogonek_acutecomb.liga" unicode="&#x105;&#x301;" horiz-adv-x="419" 
d="M414 54q4 0 5 -4.5t-3 -6.5l-103 -49q-1 -1 -2.5 -1t-2.5 -1q-38 -35 -55 -69t-17 -73q0 -46 23.5 -72t68.5 -26q24 0 39.5 6.5t31.5 19.5h2q3 0 5.5 -3t-0.5 -5q-51 -45 -107 -45q-54 0 -82.5 25.5t-28.5 70.5q0 86 107 175q-17 13 -22 63l-66 -36q-33 -17 -51 -23.5
t-36 -6.5q-31 0 -47 16.5t-16 40.5q0 25 20 41.5t70 34.5l126 45v84q0 68 -18.5 94t-49.5 26q-36 0 -56 -26t-25 -58q-2 -14 -8.5 -23.5t-23.5 -9.5q-14 0 -22 7t-8 20q0 22 28.5 48t69.5 44t75 18q38 0 61 -27.5t23 -82.5v-177q0 -37 8.5 -53t29.5 -16q19 0 55 15h2z
M273 71v3v86l-116 -44q-22 -8 -31 -19t-9 -28q0 -21 12 -32.5t32 -11.5q18 0 38 9zM202 472q-3 0 -5.5 1.5t-1.5 2.5l57 240q1 4 14.5 8.5t26 6t10.5 -3.5l-97 -253q0 -2 -4 -2z" />
    <glyph glyph-name="eogonek_acutecomb.liga" unicode="&#x119;&#x301;" horiz-adv-x="405" 
d="M368 -222q3 0 5.5 -3t-0.5 -5q-25 -24 -47.5 -34.5t-48.5 -10.5q-48 0 -73.5 26t-25.5 70q0 87 109 178q-30 -11 -66 -11q-58 0 -100 27t-63 70.5t-21 94.5q0 60 28 109t76.5 77.5t107.5 28.5q52 0 81 -26.5t29 -72.5q0 -12 -2.5 -17t-9.5 -5l-248 -1q-5 -28 -5 -55
q0 -88 42.5 -143t116.5 -55q59 0 104 34h1q3 0 5.5 -3.5t0.5 -6.5q-12 -11 -34 -25q-55 -43 -79.5 -83.5t-24.5 -85.5q0 -46 20.5 -72t59.5 -26q20 0 32.5 6.5t27.5 19.5h2zM142.5 351.5q-28.5 -23.5 -40.5 -67.5l197 5q0 41 -23 63.5t-61 22.5q-44 0 -72.5 -23.5zM196 472
q-3 0 -5.5 1.5t-1.5 2.5l57 240q1 4 14.5 8.5t26 6t10.5 -3.5l-97 -253q0 -2 -4 -2z" />
    <glyph glyph-name="ij_acutecomb.liga" unicode="&#x133;&#x301;" horiz-adv-x="524" 
d="M55 6q0 6 2 6q29 0 42.5 5t18.5 19.5t5 44.5v189q0 37 -7.5 53t-25.5 16q-19 0 -48 -15h-1q-4 0 -6 5t2 7l124 58l4 1q2 0 4.5 -2t2.5 -5q0 -6 -1 -39.5t-1 -77.5v-190q0 -30 4.5 -44.5t18 -19.5t42.5 -5q3 0 3 -6t-3 -6q-23 0 -36 1l-53 1l-52 -1q-14 -1 -37 -1
q-2 0 -2 6zM132 472q-3 0 -5.5 1.5t-1.5 2.5l57 240q1 4 14.5 8.5t26 6t10.5 -3.5l-97 -253q0 -2 -4 -2zM429 348.5q-1 -33.5 -1 -77.5v-319q0 -68 -12 -111.5t-40.5 -72.5t-78.5 -50q-2 -1 -4.5 4.5t-0.5 6.5q49 21 69 67t20 133v341q0 37 -7 53t-25 16q-19 0 -48 -15h-1
q-5 0 -6.5 5t2.5 7l124 58l3 1q7 0 7 -7q0 -6 -1 -39.5zM390 472q-3 0 -5.5 1.5t-1.5 2.5l57 240q1 4 14.5 8.5t26 6t10.5 -3.5l-97 -253q0 -2 -4 -2z" />
    <glyph glyph-name="iogonek_acutecomb.liga" unicode="&#x12f;&#x301;" horiz-adv-x="275" 
d="M132 472q-3 0 -5.5 1.5t-1.5 2.5l57 240q1 4 14.5 8.5t26 6t10.5 -3.5l-97 -253q0 -2 -4 -2zM239 -214q3 0 5.5 -3t0.5 -5q-25 -24 -47 -34.5t-47 -10.5q-48 0 -75 26t-27 70q0 42 20.5 86t60.5 87q-56 -2 -73 -2q-2 0 -2 6t2 6q29 0 42.5 5t18.5 19.5t5 44.5v189
q0 37 -7.5 53t-25.5 16q-19 0 -48 -15h-1q-4 0 -6 5t2 7l124 58l4 1q2 0 4.5 -2t2.5 -5q0 -6 -1 -39.5t-1 -77.5v-190q0 -30 4.5 -44.5t18 -19.5t42.5 -5q3 0 3 -6t-3 -6q-23 0 -36 1l-51 1q-51 -67 -51 -144q0 -46 21.5 -72t61.5 -26q18 0 29 5.5t18.5 12t10.5 8.5h1z" />
    <glyph glyph-name="j_acutecomb.liga" unicode="j&#x301;" horiz-adv-x="255" 
d="M160 348.5q-1 -33.5 -1 -77.5v-319q0 -68 -12 -111.5t-40.5 -72.5t-78.5 -50q-2 -1 -4.5 4.5t-0.5 6.5q49 21 69 67t20 133v341q0 37 -7 53t-25 16q-19 0 -48 -15h-1q-5 0 -6.5 5t2.5 7l124 58l3 1q7 0 7 -7q0 -6 -1 -39.5zM121 472q-3 0 -5.5 1.5t-1.5 2.5l57 240
q1 4 14.5 8.5t26 6t10.5 -3.5l-97 -253q0 -2 -4 -2z" />
    <glyph glyph-name="uni01EB0301.liga" unicode="&#x1eb;&#x301;" horiz-adv-x="477" 
d="M392 57q-48 -54 -122 -67q-34 -34 -49.5 -68t-15.5 -72q0 -46 22 -72t64 -26q23 0 38.5 6.5t33.5 19.5h1q3 0 5.5 -3t0.5 -5q-52 -45 -108 -45q-51 0 -78 26t-27 70q0 82 93 167q-6 -1 -20 -1q-57 0 -101 28.5t-68 77t-24 105.5q0 65 31.5 110.5t80 68t99.5 22.5
q58 0 101.5 -29t67 -76.5t23.5 -100.5q0 -82 -48 -136zM115 116.5q21 -50.5 58 -81t85 -30.5q58 0 91 39t33 123q0 60 -21 108.5t-59 76.5t-87 28q-57 0 -89 -39.5t-32 -113.5q0 -60 21 -110.5zM233 472q-3 0 -5.5 1.5t-1.5 2.5l57 240q1 4 14.5 8.5t26 6t10.5 -3.5
l-97 -253q0 -2 -4 -2z" />
    <glyph glyph-name=".notdef" horiz-adv-x="501" 
d="M94 725h317v-1000h-317v1000zM233 626v-38h-66v-32h166v32h-66v38h66v32h-165v-32h65zM333 426v34h-66v69h-100v-103h166zM200 495h33v-35h-33v35zM233 365v-36h-66v-34h100v70h66v33h-166v-33h66zM167 273v-34h166v99h-32v-65h-134zM267 160v24h34v-48h-101v80h-33v-113
h166v113h-100v-56h34zM333 -70v113h-166v-113h166zM200 11h101v-48h-101v48zM237 -126l-70 -47v-33h166v33h-101l69 47h32v34h-166v-34h70z" />
    <glyph glyph-name="space" unicode=" " horiz-adv-x="234" 
 />
    <glyph glyph-name="A" unicode="A" horiz-adv-x="698" 
d="M698 6q0 -6 -4 -6q-18 0 -58 2q-38 2 -56 2q-21 0 -55 -2q-32 -2 -48 -2q-4 0 -4 6t4 6q41 0 59 7.5t18 25.5q0 14 -11 39l-119 255h-191l-90 -216q-14 -34 -14 -56q0 -29 24 -42t75 -13q5 0 5 -6t-5 -6q-18 0 -52 2q-38 2 -66 2q-25 0 -59 -2q-30 -2 -49 -2q-5 0 -5 6
t5 6q28 0 47.5 10t37 36t37.5 74l209 503q2 3 6.5 3t5.5 -3l232 -498q23 -51 41 -77.5t35.5 -37t40.5 -10.5q4 0 4 -6zM416 358l-93 198l-82 -198h175z" />
    <glyph glyph-name="Aacute" unicode="&#xc1;" horiz-adv-x="698" 
d="M698 6q0 -6 -4 -6q-18 0 -58 2q-38 2 -56 2q-21 0 -55 -2q-32 -2 -48 -2q-4 0 -4 6t4 6q41 0 59 7.5t18 25.5q0 14 -11 39l-119 255h-191l-90 -216q-14 -34 -14 -56q0 -29 24 -42t75 -13q5 0 5 -6t-5 -6q-18 0 -52 2q-38 2 -66 2q-25 0 -59 -2q-30 -2 -49 -2q-5 0 -5 6
t5 6q28 0 47.5 10t37 36t37.5 74l209 503q2 3 6.5 3t5.5 -3l232 -498q23 -51 41 -77.5t35.5 -37t40.5 -10.5q4 0 4 -6zM416 358l-93 198l-82 -198h175zM239 678q-4 0 -5 4.5t2 6.5q46 21 122 65l50 28q4 2 20.5 -4t29 -13.5t5.5 -8.5q-62 -15 -113.5 -33.5t-108.5 -43.5z
" />
    <glyph glyph-name="Abreve" unicode="&#x102;" horiz-adv-x="698" 
d="M698 6q0 -6 -4 -6q-18 0 -58 2q-38 2 -56 2q-21 0 -55 -2q-32 -2 -48 -2q-4 0 -4 6t4 6q41 0 59 7.5t18 25.5q0 14 -11 39l-119 255h-191l-90 -216q-14 -34 -14 -56q0 -29 24 -42t75 -13q5 0 5 -6t-5 -6q-18 0 -52 2q-38 2 -66 2q-25 0 -59 -2q-30 -2 -49 -2q-5 0 -5 6
t5 6q28 0 47.5 10t37 36t37.5 74l209 503q2 3 6.5 3t5.5 -3l232 -498q23 -51 41 -77.5t35.5 -37t40.5 -10.5q4 0 4 -6zM416 358l-93 198l-82 -198h175zM270.5 716.5q-26.5 26.5 -35.5 75.5q-1 4 4 4.5t7 -1.5q8 -30 35 -50.5t57 -20.5t56.5 21t34.5 50q0 2 4 2q3 0 5.5 -1.5
t1.5 -3.5q-9 -49 -35 -75.5t-67 -26.5t-67.5 26.5z" />
    <glyph glyph-name="uni1EAE" unicode="&#x1eae;" horiz-adv-x="698" 
d="M698 6q0 -6 -4 -6q-18 0 -58 2q-38 2 -56 2q-21 0 -55 -2q-32 -2 -48 -2q-4 0 -4 6t4 6q41 0 59 7.5t18 25.5q0 14 -11 39l-119 255h-191l-90 -216q-14 -34 -14 -56q0 -29 24 -42t75 -13q5 0 5 -6t-5 -6q-18 0 -52 2q-38 2 -66 2q-25 0 -59 -2q-30 -2 -49 -2q-5 0 -5 6
t5 6q28 0 47.5 10t37 36t37.5 74l209 503q2 3 6.5 3t5.5 -3l232 -498q23 -51 41 -77.5t35.5 -37t40.5 -10.5q4 0 4 -6zM416 358l-93 198l-82 -198h175zM270.5 681q-26.5 26 -35.5 76q-1 3 4.5 4t6.5 -2q8 -29 34.5 -49.5t57.5 -20.5q30 0 56.5 20.5t34.5 49.5q1 3 6.5 2
t4.5 -4q-9 -50 -35 -76t-67 -26t-67.5 26zM282 743q-3 0 -4.5 3.5t0.5 5.5q39 39 81 95q3 3 19.5 -3t29.5 -14t6 -9q-36 -15 -65.5 -33t-63.5 -44q-1 -1 -3 -1z" />
    <glyph glyph-name="uni1EB6" unicode="&#x1eb6;" horiz-adv-x="698" 
d="M698 6q0 -6 -4 -6q-18 0 -58 2q-38 2 -56 2q-21 0 -55 -2q-32 -2 -48 -2q-4 0 -4 6t4 6q41 0 59 7.5t18 25.5q0 14 -11 39l-119 255h-191l-90 -216q-14 -34 -14 -56q0 -29 24 -42t75 -13q5 0 5 -6t-5 -6q-18 0 -52 2q-38 2 -66 2q-25 0 -59 -2q-30 -2 -49 -2q-5 0 -5 6
t5 6q28 0 47.5 10t37 36t37.5 74l209 503q2 3 6.5 3t5.5 -3l232 -498q23 -51 41 -77.5t35.5 -37t40.5 -10.5q4 0 4 -6zM416 358l-93 198l-82 -198h175zM321.5 -176q-10.5 10 -10.5 28t10.5 28t29.5 10q18 0 28 -10t10 -28t-10 -28t-28 -10q-19 0 -29.5 10zM270.5 716.5
q-26.5 26.5 -35.5 75.5q-1 4 4 4.5t7 -1.5q8 -30 35 -50.5t57 -20.5t56.5 21t34.5 50q0 2 4 2q3 0 5.5 -1.5t1.5 -3.5q-9 -49 -35 -75.5t-67 -26.5t-67.5 26.5z" />
    <glyph glyph-name="uni1EB0" unicode="&#x1eb0;" horiz-adv-x="698" 
d="M698 6q0 -6 -4 -6q-18 0 -58 2q-38 2 -56 2q-21 0 -55 -2q-32 -2 -48 -2q-4 0 -4 6t4 6q41 0 59 7.5t18 25.5q0 14 -11 39l-119 255h-191l-90 -216q-14 -34 -14 -56q0 -29 24 -42t75 -13q5 0 5 -6t-5 -6q-18 0 -52 2q-38 2 -66 2q-25 0 -59 -2q-30 -2 -49 -2q-5 0 -5 6
t5 6q28 0 47.5 10t37 36t37.5 74l209 503q2 3 6.5 3t5.5 -3l232 -498q23 -51 41 -77.5t35.5 -37t40.5 -10.5q4 0 4 -6zM416 358l-93 198l-82 -198h175zM270.5 681q-26.5 26 -35.5 76q-1 3 4.5 4t6.5 -2q8 -29 34.5 -49.5t57.5 -20.5q30 0 56.5 20.5t34.5 49.5q1 3 6.5 2
t4.5 -4q-9 -50 -35 -76t-67 -26t-67.5 26zM325.5 788q-29.5 18 -65.5 33q-7 1 6 9t30 14t19 3q34 -46 81 -94l2 -4q0 -3 -3 -4.5t-6 -0.5q-34 26 -63.5 44z" />
    <glyph glyph-name="uni1EB2" unicode="&#x1eb2;" horiz-adv-x="698" 
d="M698 6q0 -6 -4 -6q-18 0 -58 2q-38 2 -56 2q-21 0 -55 -2q-32 -2 -48 -2q-4 0 -4 6t4 6q41 0 59 7.5t18 25.5q0 14 -11 39l-119 255h-191l-90 -216q-14 -34 -14 -56q0 -29 24 -42t75 -13q5 0 5 -6t-5 -6q-18 0 -52 2q-38 2 -66 2q-25 0 -59 -2q-30 -2 -49 -2q-5 0 -5 6
t5 6q28 0 47.5 10t37 36t37.5 74l209 503q2 3 6.5 3t5.5 -3l232 -498q23 -51 41 -77.5t35.5 -37t40.5 -10.5q4 0 4 -6zM416 358l-93 198l-82 -198h175zM270.5 681q-26.5 26 -35.5 76q-1 3 4.5 4t6.5 -2q8 -29 34.5 -49.5t57.5 -20.5q30 0 56.5 20.5t34.5 49.5q1 3 6.5 2
t4.5 -4q-9 -50 -35 -76t-67 -26t-67.5 26zM322 737q0 15 15 37q8 12 12 20.5t4 18.5q0 15 -11 23t-24 8q-14 0 -25 -6h-1q-3 0 -6 3.5t0 4.5q15 9 31.5 14t28.5 5q21 0 33.5 -13t12.5 -29q0 -14 -8.5 -25.5t-23.5 -26.5t-21.5 -25t-3.5 -22q2 -2 -4 -2.5t-7 2.5q-2 5 -2 13z
" />
    <glyph glyph-name="uni1EB4" unicode="&#x1eb4;" horiz-adv-x="698" 
d="M698 6q0 -6 -4 -6q-18 0 -58 2q-38 2 -56 2q-21 0 -55 -2q-32 -2 -48 -2q-4 0 -4 6t4 6q41 0 59 7.5t18 25.5q0 14 -11 39l-119 255h-191l-90 -216q-14 -34 -14 -56q0 -29 24 -42t75 -13q5 0 5 -6t-5 -6q-18 0 -52 2q-38 2 -66 2q-25 0 -59 -2q-30 -2 -49 -2q-5 0 -5 6
t5 6q28 0 47.5 10t37 36t37.5 74l209 503q2 3 6.5 3t5.5 -3l232 -498q23 -51 41 -77.5t35.5 -37t40.5 -10.5q4 0 4 -6zM416 358l-93 198l-82 -198h175zM273.5 696.5q-26.5 26.5 -35.5 75.5q-1 4 4 4.5t7 -1.5q8 -30 35 -50.5t57 -20.5t56.5 21t34.5 50q0 2 4 2q3 0 5.5 -1.5
t1.5 -3.5q-9 -49 -35 -75.5t-67 -26.5t-67.5 26.5zM442.5 832q10.5 7 21.5 20h1q3 0 5.5 -2.5t0.5 -4.5q-26 -34 -43 -46t-35 -12q-15 0 -31 3.5t-32 8.5t-34 9t-35 4q-16 0 -24.5 -5.5t-15 -12l-9.5 -9.5h-2q-3 0 -5 2.5t0 4.5q16 22 38.5 39.5t45.5 17.5q14 0 31.5 -4.5
t20.5 -5.5q44 -14 74 -14q17 0 27.5 7z" />
    <glyph glyph-name="uni01CD" unicode="&#x1cd;" horiz-adv-x="698" 
d="M698 6q0 -6 -4 -6q-18 0 -58 2q-38 2 -56 2q-21 0 -55 -2q-32 -2 -48 -2q-4 0 -4 6t4 6q41 0 59 7.5t18 25.5q0 14 -11 39l-119 255h-191l-90 -216q-14 -34 -14 -56q0 -29 24 -42t75 -13q5 0 5 -6t-5 -6q-18 0 -52 2q-38 2 -66 2q-25 0 -59 -2q-30 -2 -49 -2q-5 0 -5 6
t5 6q28 0 47.5 10t37 36t37.5 74l209 503q2 3 6.5 3t5.5 -3l232 -498q23 -51 41 -77.5t35.5 -37t40.5 -10.5q4 0 4 -6zM416 358l-93 198l-82 -198h175zM223 779l-1 2q0 2 3 4t4 1l109 -62l108 62l2 1q2 0 3.5 -3.5t-0.5 -4.5l-102 -92q-4 -4 -11 -4q-8 0 -12 4z" />
    <glyph glyph-name="Acircumflex" unicode="&#xc2;" horiz-adv-x="698" 
d="M698 6q0 -6 -4 -6q-18 0 -58 2q-38 2 -56 2q-21 0 -55 -2q-32 -2 -48 -2q-4 0 -4 6t4 6q41 0 59 7.5t18 25.5q0 14 -11 39l-119 255h-191l-90 -216q-14 -34 -14 -56q0 -29 24 -42t75 -13q5 0 5 -6t-5 -6q-18 0 -52 2q-38 2 -66 2q-25 0 -59 -2q-30 -2 -49 -2q-5 0 -5 6
t5 6q28 0 47.5 10t37 36t37.5 74l209 503q2 3 6.5 3t5.5 -3l232 -498q23 -51 41 -77.5t35.5 -37t40.5 -10.5q4 0 4 -6zM416 358l-93 198l-82 -198h175zM326 747q5 5 11 5q7 0 12 -5l102 -92q1 0 1 -2t-2.5 -4t-3.5 -1l-108 62l-109 -62q-2 -1 -5 2.5t-1 4.5z" />
    <glyph glyph-name="uni1EA4" unicode="&#x1ea4;" horiz-adv-x="698" 
d="M698 6q0 -6 -4 -6q-18 0 -58 2q-38 2 -56 2q-21 0 -55 -2q-32 -2 -48 -2q-4 0 -4 6t4 6q41 0 59 7.5t18 25.5q0 14 -11 39l-119 255h-191l-90 -216q-14 -34 -14 -56q0 -29 24 -42t75 -13q5 0 5 -6t-5 -6q-18 0 -52 2q-38 2 -66 2q-25 0 -59 -2q-30 -2 -49 -2q-5 0 -5 6
t5 6q28 0 47.5 10t37 36t37.5 74l209 503q2 3 6.5 3t5.5 -3l232 -498q23 -51 41 -77.5t35.5 -37t40.5 -10.5q4 0 4 -6zM416 358l-93 198l-82 -198h175zM326 747q5 5 11 5q7 0 12 -5l102 -92q1 0 1 -2t-2.5 -4t-3.5 -1l-108 62l-109 -62q-2 -1 -5 2.5t-1 4.5zM401 717
q-3 0 -4.5 3.5t0.5 5.5q39 39 81 95q3 3 19.5 -3t29.5 -14t6 -9q-36 -15 -65.5 -33t-63.5 -44q-1 -1 -3 -1z" />
    <glyph glyph-name="uni1EAC" unicode="&#x1eac;" horiz-adv-x="698" 
d="M698 6q0 -6 -4 -6q-18 0 -58 2q-38 2 -56 2q-21 0 -55 -2q-32 -2 -48 -2q-4 0 -4 6t4 6q41 0 59 7.5t18 25.5q0 14 -11 39l-119 255h-191l-90 -216q-14 -34 -14 -56q0 -29 24 -42t75 -13q5 0 5 -6t-5 -6q-18 0 -52 2q-38 2 -66 2q-25 0 -59 -2q-30 -2 -49 -2q-5 0 -5 6
t5 6q28 0 47.5 10t37 36t37.5 74l209 503q2 3 6.5 3t5.5 -3l232 -498q23 -51 41 -77.5t35.5 -37t40.5 -10.5q4 0 4 -6zM416 358l-93 198l-82 -198h175zM321.5 -176q-10.5 10 -10.5 28t10.5 28t29.5 10q18 0 28 -10t10 -28t-10 -28t-28 -10q-19 0 -29.5 10zM326 747q5 5 11 5
q7 0 12 -5l102 -92q1 0 1 -2t-2.5 -4t-3.5 -1l-108 62l-109 -62q-2 -1 -5 2.5t-1 4.5z" />
    <glyph glyph-name="uni1EA6" unicode="&#x1ea6;" horiz-adv-x="698" 
d="M698 6q0 -6 -4 -6q-18 0 -58 2q-38 2 -56 2q-21 0 -55 -2q-32 -2 -48 -2q-4 0 -4 6t4 6q41 0 59 7.5t18 25.5q0 14 -11 39l-119 255h-191l-90 -216q-14 -34 -14 -56q0 -29 24 -42t75 -13q5 0 5 -6t-5 -6q-18 0 -52 2q-38 2 -66 2q-25 0 -59 -2q-30 -2 -49 -2q-5 0 -5 6
t5 6q28 0 47.5 10t37 36t37.5 74l209 503q2 3 6.5 3t5.5 -3l232 -498q23 -51 41 -77.5t35.5 -37t40.5 -10.5q4 0 4 -6zM416 358l-93 198l-82 -198h175zM326 747q5 5 11 5q7 0 12 -5l102 -92q1 0 1 -2t-2.5 -4t-3.5 -1l-108 62l-109 -62q-2 -1 -5 2.5t-1 4.5zM445.5 739
q-29.5 18 -65.5 33q-7 1 6 9t30 14t19 3q34 -46 81 -94l2 -4q0 -3 -3 -4.5t-6 -0.5q-34 26 -63.5 44z" />
    <glyph glyph-name="uni1EA8" unicode="&#x1ea8;" horiz-adv-x="698" 
d="M698 6q0 -6 -4 -6q-18 0 -58 2q-38 2 -56 2q-21 0 -55 -2q-32 -2 -48 -2q-4 0 -4 6t4 6q41 0 59 7.5t18 25.5q0 14 -11 39l-119 255h-191l-90 -216q-14 -34 -14 -56q0 -29 24 -42t75 -13q5 0 5 -6t-5 -6q-18 0 -52 2q-38 2 -66 2q-25 0 -59 -2q-30 -2 -49 -2q-5 0 -5 6
t5 6q28 0 47.5 10t37 36t37.5 74l209 503q2 3 6.5 3t5.5 -3l232 -498q23 -51 41 -77.5t35.5 -37t40.5 -10.5q4 0 4 -6zM416 358l-93 198l-82 -198h175zM326 747q5 5 11 5q7 0 12 -5l102 -92q1 0 1 -2t-2.5 -4t-3.5 -1l-108 62l-109 -62q-2 -1 -5 2.5t-1 4.5zM414 735
q0 15 15 37q8 12 12 20.5t4 18.5q0 15 -11 23t-24 8q-14 0 -25 -6h-1q-3 0 -6 3.5t0 4.5q15 9 31.5 14t28.5 5q21 0 33.5 -13t12.5 -29q0 -14 -8.5 -25.5t-23.5 -26.5t-21.5 -25t-3.5 -22q2 -2 -4 -2.5t-7 2.5q-2 5 -2 13z" />
    <glyph glyph-name="uni1EAA" unicode="&#x1eaa;" horiz-adv-x="698" 
d="M698 6q0 -6 -4 -6q-18 0 -58 2q-38 2 -56 2q-21 0 -55 -2q-32 -2 -48 -2q-4 0 -4 6t4 6q41 0 59 7.5t18 25.5q0 14 -11 39l-119 255h-191l-90 -216q-14 -34 -14 -56q0 -29 24 -42t75 -13q5 0 5 -6t-5 -6q-18 0 -52 2q-38 2 -66 2q-25 0 -59 -2q-30 -2 -49 -2q-5 0 -5 6
t5 6q28 0 47.5 10t37 36t37.5 74l209 503q2 3 6.5 3t5.5 -3l232 -498q23 -51 41 -77.5t35.5 -37t40.5 -10.5q4 0 4 -6zM416 358l-93 198l-82 -198h175zM326 747q5 5 11 5q7 0 12 -5l102 -92q1 0 1 -2t-2.5 -4t-3.5 -1l-108 62l-109 -62q-2 -1 -5 2.5t-1 4.5zM447.5 807
q10.5 7 21.5 20h1q3 0 5.5 -2.5t0.5 -4.5q-26 -34 -43 -46t-35 -12q-15 0 -31 3.5t-32 8.5t-34 9t-35 4q-16 0 -24.5 -5.5t-15 -12l-9.5 -9.5h-2q-3 0 -5 2.5t0 4.5q16 22 38.5 39.5t45.5 17.5q14 0 31.5 -4.5t20.5 -5.5q44 -14 74 -14q17 0 27.5 7z" />
    <glyph glyph-name="Adieresis" unicode="&#xc4;" horiz-adv-x="698" 
d="M698 6q0 -6 -4 -6q-18 0 -58 2q-38 2 -56 2q-21 0 -55 -2q-32 -2 -48 -2q-4 0 -4 6t4 6q41 0 59 7.5t18 25.5q0 14 -11 39l-119 255h-191l-90 -216q-14 -34 -14 -56q0 -29 24 -42t75 -13q5 0 5 -6t-5 -6q-18 0 -52 2q-38 2 -66 2q-25 0 -59 -2q-30 -2 -49 -2q-5 0 -5 6
t5 6q28 0 47.5 10t37 36t37.5 74l209 503q2 3 6.5 3t5.5 -3l232 -498q23 -51 41 -77.5t35.5 -37t40.5 -10.5q4 0 4 -6zM416 358l-93 198l-82 -198h175zM221.5 730q-10.5 10 -10.5 28t10.5 28t29.5 10q18 0 28 -10t10 -28t-10 -28t-28 -10q-19 0 -29.5 10zM397 730
q-11 10 -11 28t11 28t29 10q19 0 29 -10t10 -28t-10 -28t-29 -10q-18 0 -29 10z" />
    <glyph glyph-name="uni1EA0" unicode="&#x1ea0;" horiz-adv-x="698" 
d="M698 6q0 -6 -4 -6q-18 0 -58 2q-38 2 -56 2q-21 0 -55 -2q-32 -2 -48 -2q-4 0 -4 6t4 6q41 0 59 7.5t18 25.5q0 14 -11 39l-119 255h-191l-90 -216q-14 -34 -14 -56q0 -29 24 -42t75 -13q5 0 5 -6t-5 -6q-18 0 -52 2q-38 2 -66 2q-25 0 -59 -2q-30 -2 -49 -2q-5 0 -5 6
t5 6q28 0 47.5 10t37 36t37.5 74l209 503q2 3 6.5 3t5.5 -3l232 -498q23 -51 41 -77.5t35.5 -37t40.5 -10.5q4 0 4 -6zM416 358l-93 198l-82 -198h175zM321.5 -176q-10.5 10 -10.5 28t10.5 28t29.5 10q18 0 28 -10t10 -28t-10 -28t-28 -10q-19 0 -29.5 10z" />
    <glyph glyph-name="Agrave" unicode="&#xc0;" horiz-adv-x="698" 
d="M698 6q0 -6 -4 -6q-18 0 -58 2q-38 2 -56 2q-21 0 -55 -2q-32 -2 -48 -2q-4 0 -4 6t4 6q41 0 59 7.5t18 25.5q0 14 -11 39l-119 255h-191l-90 -216q-14 -34 -14 -56q0 -29 24 -42t75 -13q5 0 5 -6t-5 -6q-18 0 -52 2q-38 2 -66 2q-25 0 -59 -2q-30 -2 -49 -2q-5 0 -5 6
t5 6q28 0 47.5 10t37 36t37.5 74l209 503q2 3 6.5 3t5.5 -3l232 -498q23 -51 41 -77.5t35.5 -37t40.5 -10.5q4 0 4 -6zM416 358l-93 198l-82 -198h175zM214 756q-7 1 5.5 8.5t29 13.5t20.5 4q40 -23 84.5 -48t87.5 -45q2 -1 2 -4t-2 -5t-4 -1q-113 50 -223 77z" />
    <glyph glyph-name="uni1EA2" unicode="&#x1ea2;" horiz-adv-x="698" 
d="M698 6q0 -6 -4 -6q-18 0 -58 2q-38 2 -56 2q-21 0 -55 -2q-32 -2 -48 -2q-4 0 -4 6t4 6q41 0 59 7.5t18 25.5q0 14 -11 39l-119 255h-191l-90 -216q-14 -34 -14 -56q0 -29 24 -42t75 -13q5 0 5 -6t-5 -6q-18 0 -52 2q-38 2 -66 2q-25 0 -59 -2q-30 -2 -49 -2q-5 0 -5 6
t5 6q28 0 47.5 10t37 36t37.5 74l209 503q2 3 6.5 3t5.5 -3l232 -498q23 -51 41 -77.5t35.5 -37t40.5 -10.5q4 0 4 -6zM416 358l-93 198l-82 -198h175zM336.5 649q-5.5 0 -6.5 2q-3 12 -3 21q0 15 6 27t17 30q11 15 16 26t5 23q0 19 -13.5 30t-32.5 11q-12 0 -26 -6h-1
q-3 0 -6 3.5t0 4.5q31 19 61 19q29 0 45.5 -15t16.5 -37q0 -18 -9 -31t-30 -35q-18 -17 -27.5 -30.5t-9.5 -28.5q0 -4 2 -12q1 -2 -4.5 -2z" />
    <glyph glyph-name="Amacron" unicode="&#x100;" horiz-adv-x="698" 
d="M698 6q0 -6 -4 -6q-18 0 -58 2q-38 2 -56 2q-21 0 -55 -2q-32 -2 -48 -2q-4 0 -4 6t4 6q41 0 59 7.5t18 25.5q0 14 -11 39l-119 255h-191l-90 -216q-14 -34 -14 -56q0 -29 24 -42t75 -13q5 0 5 -6t-5 -6q-18 0 -52 2q-38 2 -66 2q-25 0 -59 -2q-30 -2 -49 -2q-5 0 -5 6
t5 6q28 0 47.5 10t37 36t37.5 74l209 503q2 3 6.5 3t5.5 -3l232 -498q23 -51 41 -77.5t35.5 -37t40.5 -10.5q4 0 4 -6zM416 358l-93 198l-82 -198h175zM208.5 728q-1.5 4 -1.5 9q0 13 5 13h251q5 0 5 -13t-5 -13h-251q-2 0 -3.5 4z" />
    <glyph glyph-name="Aogonek" unicode="&#x104;" horiz-adv-x="701" 
d="M698 3.5q0 -5.5 -4 -5.5q-20 0 -52 2l-40 1q-35 0 -66 -17t-50 -47.5t-19 -68.5q0 -47 28.5 -81.5t86.5 -34.5q35 0 59 14h1q3 0 5.5 -3t0.5 -5q-45 -33 -104 -33q-58 0 -91.5 29t-33.5 80q0 43 20 72.5t58 66.5q27 25 40 42.5t13 37.5q0 15 -7 29l-121 257h-190
l-89 -216q-14 -34 -14 -56q0 -29 24 -42t75 -13q5 0 5 -6t-5 -6q-18 0 -52 2q-38 2 -66 2q-25 0 -59 -2q-30 -2 -49 -2q-5 0 -5 6t5 6q28 0 47.5 10t37 36t37.5 74l209 503q2 3 6.5 3t5.5 -3l232 -500q33 -74 58 -100t59 -26q4 0 4 -5.5zM413 358l-92 195l-81 -195h173z" />
    <glyph glyph-name="Aring" unicode="&#xc5;" horiz-adv-x="698" 
d="M698 6q0 -6 -4 -6q-18 0 -58 2q-38 2 -56 2q-21 0 -55 -2q-32 -2 -48 -2q-4 0 -4 6t4 6q41 0 59 7.5t18 25.5q0 14 -11 39l-119 255h-191l-90 -216q-14 -34 -14 -56q0 -29 24 -42t75 -13q5 0 5 -6t-5 -6q-18 0 -52 2q-38 2 -66 2q-25 0 -59 -2q-30 -2 -49 -2q-5 0 -5 6
t5 6q28 0 47.5 10t37 36t37.5 74l209 503q2 3 6.5 3t5.5 -3l232 -498q23 -51 41 -77.5t35.5 -37t40.5 -10.5q4 0 4 -6zM416 358l-93 198l-82 -198h175zM274 689q-23 24 -23 56q0 36 28.5 56.5t64.5 20.5q34 0 58.5 -23t24.5 -56q0 -35 -28.5 -56.5t-64.5 -21.5q-37 0 -60 24
zM378.5 687q9.5 12 9.5 38q0 36 -18.5 62t-45.5 26q-19 0 -27 -11.5t-8 -36.5q0 -34 16.5 -62t43.5 -28q20 0 29.5 12z" />
    <glyph glyph-name="Aringacute" unicode="&#x1fa;" horiz-adv-x="698" 
d="M698 6q0 -6 -4 -6q-18 0 -58 2q-38 2 -56 2q-21 0 -55 -2q-32 -2 -48 -2q-4 0 -4 6t4 6q41 0 59 7.5t18 25.5q0 14 -11 39l-119 255h-191l-90 -216q-14 -34 -14 -56q0 -29 24 -42t75 -13q5 0 5 -6t-5 -6q-18 0 -52 2q-38 2 -66 2q-25 0 -59 -2q-30 -2 -49 -2q-5 0 -5 6
t5 6q28 0 47.5 10t37 36t37.5 74l209 503q2 3 6.5 3t5.5 -3l232 -498q23 -51 41 -77.5t35.5 -37t40.5 -10.5q4 0 4 -6zM416 358l-93 198l-82 -198h175zM245 811q-3 0 -4.5 4.5t1.5 5.5q17 8 91 45l46 24q4 2 20.5 -3.5t29 -13t5.5 -8.5q-88 -18 -187 -54h-2zM271 695
q-23 20 -23 48q0 30 29 48t64 18q34 0 58.5 -20t24.5 -48q0 -30 -28.5 -48t-64.5 -18q-37 0 -60 20zM376 694q9 9 9 29q0 31 -18.5 53.5t-45.5 22.5q-19 0 -27 -8.5t-8 -27.5q0 -30 17 -54t44 -24q20 0 29 9z" />
    <glyph glyph-name="Atilde" unicode="&#xc3;" horiz-adv-x="698" 
d="M698 6q0 -6 -4 -6q-18 0 -58 2q-38 2 -56 2q-21 0 -55 -2q-32 -2 -48 -2q-4 0 -4 6t4 6q41 0 59 7.5t18 25.5q0 14 -11 39l-119 255h-191l-90 -216q-14 -34 -14 -56q0 -29 24 -42t75 -13q5 0 5 -6t-5 -6q-18 0 -52 2q-38 2 -66 2q-25 0 -59 -2q-30 -2 -49 -2q-5 0 -5 6
t5 6q28 0 47.5 10t37 36t37.5 74l209 503q2 3 6.5 3t5.5 -3l232 -498q23 -51 41 -77.5t35.5 -37t40.5 -10.5q4 0 4 -6zM416 358l-93 198l-82 -198h175zM442.5 744q10.5 7 21.5 20h2q3 0 5 -2.5t0 -4.5q-26 -34 -43 -45.5t-35 -11.5q-15 0 -31 3.5t-32 8.5q-42 12 -69 12
q-16 0 -24.5 -5.5t-15 -12l-9.5 -9.5h-1q-3 0 -5.5 2.5t-0.5 4.5q16 22 38.5 40t45.5 18q17 0 52 -11q44 -14 74 -14q17 0 27.5 7z" />
    <glyph glyph-name="AE" unicode="&#xc6;" horiz-adv-x="871" 
d="M814 148.5q6 -0.5 6 -3.5q-9 -63 -9 -130q0 -8 -3.5 -11.5t-12.5 -3.5h-401q-2 0 -2 6t2 6q39 0 57.5 5t25 19.5t6.5 44.5v235h-178l-134 -193q-31 -45 -31 -70q0 -41 79 -41q5 0 5 -6t-5 -6q-18 0 -52 2q-38 2 -66 2q-23 0 -53 -2q-28 -2 -43 -2q-4 0 -4 6t4 6
q29 0 68 32.5t78 87.5l307 442q13 18 13 25q0 9 -16.5 11.5t-60.5 2.5q-2 0 -2 6t2 6h384q9 0 9 -9l2 -121q0 -3 -5.5 -3t-5.5 3q0 49 -27 80t-71 31h-58q-38 0 -55.5 -5t-24 -17.5t-6.5 -40.5v-208h120q46 0 64 15.5t18 53.5q0 2 6 2t6 -2l-1 -79q0 -29 1 -43l1 -47
q0 -2 -6 -2t-6 2q0 45 -19 63t-67 18h-117v-231q0 -29 6.5 -42.5t24 -18.5t55.5 -5h81q40 0 68.5 35t36.5 92q0 3 6 2.5zM483 335v237l-165 -237h165z" />
    <glyph glyph-name="AEacute" unicode="&#x1fc;" horiz-adv-x="871" 
d="M814 148.5q6 -0.5 6 -3.5q-9 -63 -9 -130q0 -8 -3.5 -11.5t-12.5 -3.5h-401q-2 0 -2 6t2 6q39 0 57.5 5t25 19.5t6.5 44.5v235h-178l-134 -193q-31 -45 -31 -70q0 -41 79 -41q5 0 5 -6t-5 -6q-18 0 -52 2q-38 2 -66 2q-23 0 -53 -2q-28 -2 -43 -2q-4 0 -4 6t4 6
q29 0 68 32.5t78 87.5l307 442q13 18 13 25q0 9 -16.5 11.5t-60.5 2.5q-2 0 -2 6t2 6h384q9 0 9 -9l2 -121q0 -3 -5.5 -3t-5.5 3q0 49 -27 80t-71 31h-58q-38 0 -55.5 -5t-24 -17.5t-6.5 -40.5v-208h120q46 0 64 15.5t18 53.5q0 2 6 2t6 -2l-1 -79q0 -29 1 -43l1 -47
q0 -2 -6 -2t-6 2q0 45 -19 63t-67 18h-117v-231q0 -29 6.5 -42.5t24 -18.5t55.5 -5h81q40 0 68.5 35t36.5 92q0 3 6 2.5zM483 335v237l-165 -237h165zM480 678q-4 0 -5 4.5t2 6.5q46 21 122 65l50 28q4 2 20.5 -4t29 -13.5t5.5 -8.5q-62 -15 -113.5 -33.5t-108.5 -43.5z" />
    <glyph glyph-name="uni01E2" unicode="&#x1e2;" horiz-adv-x="871" 
d="M814 148.5q6 -0.5 6 -3.5q-9 -63 -9 -130q0 -8 -3.5 -11.5t-12.5 -3.5h-401q-2 0 -2 6t2 6q39 0 57.5 5t25 19.5t6.5 44.5v235h-178l-134 -193q-31 -45 -31 -70q0 -41 79 -41q5 0 5 -6t-5 -6q-18 0 -52 2q-38 2 -66 2q-23 0 -53 -2q-28 -2 -43 -2q-4 0 -4 6t4 6
q29 0 68 32.5t78 87.5l307 442q13 18 13 25q0 9 -16.5 11.5t-60.5 2.5q-2 0 -2 6t2 6h384q9 0 9 -9l2 -121q0 -3 -5.5 -3t-5.5 3q0 49 -27 80t-71 31h-58q-38 0 -55.5 -5t-24 -17.5t-6.5 -40.5v-208h120q46 0 64 15.5t18 53.5q0 2 6 2t6 -2l-1 -79q0 -29 1 -43l1 -47
q0 -2 -6 -2t-6 2q0 45 -19 63t-67 18h-117v-231q0 -29 6.5 -42.5t24 -18.5t55.5 -5h81q40 0 68.5 35t36.5 92q0 3 6 2.5zM483 335v237l-165 -237h165zM449.5 728q-1.5 4 -1.5 9q0 13 5 13h251q5 0 5 -13t-5 -13h-251q-2 0 -3.5 4z" />
    <glyph glyph-name="B" unicode="B" horiz-adv-x="549" 
d="M451 301q48 -47 48 -116q0 -54 -25 -97t-69 -67.5t-97 -24.5q-34 0 -72 3q-14 1 -33 2t-43 1l-66 -1q-18 -1 -50 -1q-2 0 -2 6t2 6q40 0 58.5 5t25.5 19.5t7 44.5v463q0 30 -6.5 44t-25 19.5t-57.5 5.5q-3 0 -3 6t3 6l48 -1q40 -2 66 -2q18 0 34 1t28 2q31 3 55 3
q83 0 122.5 -37.5t39.5 -95.5q0 -49 -31 -85.5t-83 -56.5q78 -5 126 -52zM213 611q-13 -4 -19.5 -19t-6.5 -50v-190l47 -1q79 0 115 37.5t36 99.5q0 56 -31.5 91.5t-99.5 35.5q-28 0 -41 -4zM404.5 50.5q36.5 38.5 36.5 109.5q0 76 -46.5 123.5t-125.5 48.5q-37 1 -82 -2
v-249q0 -27 8.5 -41.5t31.5 -21t67 -6.5q74 0 110.5 38.5z" />
    <glyph glyph-name="C" unicode="C" horiz-adv-x="669" 
d="M511.5 626q49.5 -10 79.5 -27q8 -5 10.5 -9.5t3.5 -14.5l11 -105q0 -3 -5 -3.5t-6 2.5q-36 146 -231 146q-78 0 -137.5 -33.5t-92.5 -94.5t-33 -141q0 -94 41 -173.5t109 -126t147 -46.5q74 0 127.5 39t78.5 119q0 3 4 3q3 0 5.5 -1t2.5 -3l-14 -107q-2 -12 -4.5 -15.5
t-11.5 -7.5q-89 -39 -191 -39q-120 0 -200 48.5t-118 124t-38 158.5q0 91 51 163.5t135 113t178 40.5q49 0 98.5 -10z" />
    <glyph glyph-name="Cacute" unicode="&#x106;" horiz-adv-x="669" 
d="M511.5 626q49.5 -10 79.5 -27q8 -5 10.5 -9.5t3.5 -14.5l11 -105q0 -3 -5 -3.5t-6 2.5q-36 146 -231 146q-78 0 -137.5 -33.5t-92.5 -94.5t-33 -141q0 -94 41 -173.5t109 -126t147 -46.5q74 0 127.5 39t78.5 119q0 3 4 3q3 0 5.5 -1t2.5 -3l-14 -107q-2 -12 -4.5 -15.5
t-11.5 -7.5q-89 -39 -191 -39q-120 0 -200 48.5t-118 124t-38 158.5q0 91 51 163.5t135 113t178 40.5q49 0 98.5 -10zM280 678q-4 0 -5 4.5t2 6.5q46 21 122 65l50 28q4 2 20.5 -4t29 -13.5t5.5 -8.5q-62 -15 -113.5 -33.5t-108.5 -43.5z" />
    <glyph glyph-name="Ccaron" unicode="&#x10c;" horiz-adv-x="669" 
d="M511.5 626q49.5 -10 79.5 -27q8 -5 10.5 -9.5t3.5 -14.5l11 -105q0 -3 -5 -3.5t-6 2.5q-36 146 -231 146q-78 0 -137.5 -33.5t-92.5 -94.5t-33 -141q0 -94 41 -173.5t109 -126t147 -46.5q74 0 127.5 39t78.5 119q0 3 4 3q3 0 5.5 -1t2.5 -3l-14 -107q-2 -12 -4.5 -15.5
t-11.5 -7.5q-89 -39 -191 -39q-120 0 -200 48.5t-118 124t-38 158.5q0 91 51 163.5t135 113t178 40.5q49 0 98.5 -10zM264 779l-1 2q0 2 3 4t4 1l109 -62l108 62l2 1q2 0 3.5 -3.5t-0.5 -4.5l-102 -92q-4 -4 -11 -4q-8 0 -12 4z" />
    <glyph glyph-name="Ccedilla" unicode="&#xc7;" horiz-adv-x="669" 
d="M618 161q3 0 5.5 -1t2.5 -3l-14 -107q-2 -12 -4.5 -15.5t-11.5 -7.5q-89 -39 -191 -39h-20q-13 -41 -13 -51q0 -11 6.5 -17t19 -13t19.5 -11q25 -14 39.5 -32t14.5 -45q0 -36 -25.5 -65t-73.5 -29q-26 0 -44 9.5t-18 26.5q0 12 8 19.5t20 7.5q10 0 15.5 -5t10.5 -15
q8 -12 15 -18t22 -6q37 0 37 41q0 26 -18.5 46.5t-67.5 46.5q-8 4 -12 7t-4 7q0 5 6 17q15 36 30 80q-109 7 -181.5 56t-107 122t-34.5 152q0 91 51 163.5t135 113t178 40.5q49 0 98.5 -10t79.5 -27q8 -5 10.5 -9.5t3.5 -14.5l11 -105q0 -3 -5 -3.5t-6 2.5q-36 146 -231 146
q-78 0 -137.5 -33.5t-92.5 -94.5t-33 -141q0 -94 41 -173.5t109 -126t147 -46.5q74 0 127.5 39t78.5 119q0 3 4 3z" />
    <glyph glyph-name="Ccircumflex" unicode="&#x108;" horiz-adv-x="669" 
d="M511.5 626q49.5 -10 79.5 -27q8 -5 10.5 -9.5t3.5 -14.5l11 -105q0 -3 -5 -3.5t-6 2.5q-36 146 -231 146q-78 0 -137.5 -33.5t-92.5 -94.5t-33 -141q0 -94 41 -173.5t109 -126t147 -46.5q74 0 127.5 39t78.5 119q0 3 4 3q3 0 5.5 -1t2.5 -3l-14 -107q-2 -12 -4.5 -15.5
t-11.5 -7.5q-89 -39 -191 -39q-120 0 -200 48.5t-118 124t-38 158.5q0 91 51 163.5t135 113t178 40.5q49 0 98.5 -10zM368 783q5 5 12 5q6 0 11 -5l102 -93q1 0 1 -2t-2.5 -4t-3.5 -1l-108 62l-109 -62q-2 -1 -5 2.5t-1 4.5z" />
    <glyph glyph-name="Cdotaccent" unicode="&#x10a;" horiz-adv-x="669" 
d="M511.5 626q49.5 -10 79.5 -27q8 -5 10.5 -9.5t3.5 -14.5l11 -105q0 -3 -5 -3.5t-6 2.5q-36 146 -231 146q-78 0 -137.5 -33.5t-92.5 -94.5t-33 -141q0 -94 41 -173.5t109 -126t147 -46.5q74 0 127.5 39t78.5 119q0 3 4 3q3 0 5.5 -1t2.5 -3l-14 -107q-2 -12 -4.5 -15.5
t-11.5 -7.5q-89 -39 -191 -39q-120 0 -200 48.5t-118 124t-38 158.5q0 91 51 163.5t135 113t178 40.5q49 0 98.5 -10zM349.5 723q-10.5 10 -10.5 29q0 17 10.5 27t29.5 10q18 0 28 -10t10 -27q0 -19 -10 -29t-28 -10q-19 0 -29.5 10z" />
    <glyph glyph-name="D" unicode="D" horiz-adv-x="688" 
d="M232 -1q-14 1 -34.5 2t-45.5 1l-66 -1q-18 -1 -50 -1q-2 0 -2 6t2 6q39 0 57.5 5t25.5 19.5t7 44.5v463q0 30 -6.5 44t-25 19.5t-57.5 5.5q-2 0 -2 6t2 6l49 -1q42 -2 66 -2q35 0 71 3q44 2 60 2q105 0 186 -40t125.5 -109t44.5 -155q0 -97 -46.5 -171.5t-124.5 -115
t-171 -40.5q-29 0 -65 3zM436 43q65 34 101.5 100t36.5 158q0 88 -34.5 159t-99 112.5t-148.5 41.5q-44 0 -67.5 -5t-34.5 -20.5t-11 -46.5v-450q0 -30 9 -48t32 -26.5t67 -8.5q84 0 149 34z" />
    <glyph glyph-name="Eth" unicode="&#xd0;" horiz-adv-x="688" 
d="M469 587q81 -40 125.5 -109t44.5 -155q0 -97 -46.5 -171.5t-124.5 -115t-171 -40.5q-29 0 -65 3q-14 1 -34.5 2t-45.5 1l-66 -1q-18 -1 -50 -1q-2 0 -2 6t2 6q39 0 57.5 5t25.5 19.5t7 44.5v221h-73q-4 0 -4 9t4 9h73v224q0 30 -6.5 44t-25 19.5t-57.5 5.5q-2 0 -2 6t2 6
l49 -1q42 -2 66 -2q35 0 71 3q44 2 60 2q105 0 186 -40zM436 43q65 34 101.5 100t36.5 158q0 88 -34.5 159t-99 112.5t-148.5 41.5q-44 0 -67.5 -5t-34.5 -20.5t-11 -46.5v-222h136q4 0 4 -9t-4 -9h-136v-210q0 -30 9 -48t32 -26.5t67 -8.5q84 0 149 34z" />
    <glyph glyph-name="Dcaron" unicode="&#x10e;" horiz-adv-x="688" 
d="M232 -1q-14 1 -34.5 2t-45.5 1l-66 -1q-18 -1 -50 -1q-2 0 -2 6t2 6q39 0 57.5 5t25.5 19.5t7 44.5v463q0 30 -6.5 44t-25 19.5t-57.5 5.5q-2 0 -2 6t2 6l49 -1q42 -2 66 -2q35 0 71 3q44 2 60 2q105 0 186 -40t125.5 -109t44.5 -155q0 -97 -46.5 -171.5t-124.5 -115
t-171 -40.5q-29 0 -65 3zM436 43q65 34 101.5 100t36.5 158q0 88 -34.5 159t-99 112.5t-148.5 41.5q-44 0 -67.5 -5t-34.5 -20.5t-11 -46.5v-450q0 -30 9 -48t32 -26.5t67 -8.5q84 0 149 34zM202 779l-1 2q0 2 3 4t4 1l109 -62l108 62l2 1q2 0 3.5 -3.5t-0.5 -4.5l-102 -92
q-4 -4 -11 -4q-8 0 -12 4z" />
    <glyph glyph-name="Dcroat" unicode="&#x110;" horiz-adv-x="688" 
d="M469 587q81 -40 125.5 -109t44.5 -155q0 -97 -46.5 -171.5t-124.5 -115t-171 -40.5q-29 0 -65 3q-14 1 -34.5 2t-45.5 1l-66 -1q-18 -1 -50 -1q-2 0 -2 6t2 6q39 0 57.5 5t25.5 19.5t7 44.5v221h-73q-4 0 -4 9t4 9h73v224q0 30 -6.5 44t-25 19.5t-57.5 5.5q-2 0 -2 6t2 6
l49 -1q42 -2 66 -2q35 0 71 3q44 2 60 2q105 0 186 -40zM436 43q65 34 101.5 100t36.5 158q0 88 -34.5 159t-99 112.5t-148.5 41.5q-44 0 -67.5 -5t-34.5 -20.5t-11 -46.5v-222h136q4 0 4 -9t-4 -9h-136v-210q0 -30 9 -48t32 -26.5t67 -8.5q84 0 149 34z" />
    <glyph glyph-name="uni1E0C" unicode="&#x1e0c;" horiz-adv-x="688" 
d="M232 -1q-14 1 -34.5 2t-45.5 1l-66 -1q-18 -1 -50 -1q-2 0 -2 6t2 6q39 0 57.5 5t25.5 19.5t7 44.5v463q0 30 -6.5 44t-25 19.5t-57.5 5.5q-2 0 -2 6t2 6l49 -1q42 -2 66 -2q35 0 71 3q44 2 60 2q105 0 186 -40t125.5 -109t44.5 -155q0 -97 -46.5 -171.5t-124.5 -115
t-171 -40.5q-29 0 -65 3zM436 43q65 34 101.5 100t36.5 158q0 88 -34.5 159t-99 112.5t-148.5 41.5q-44 0 -67.5 -5t-34.5 -20.5t-11 -46.5v-450q0 -30 9 -48t32 -26.5t67 -8.5q84 0 149 34zM291.5 -176q-10.5 10 -10.5 28t10.5 28t29.5 10q18 0 28 -10t10 -28t-10 -28
t-28 -10q-19 0 -29.5 10z" />
    <glyph glyph-name="uni1E0E" unicode="&#x1e0e;" horiz-adv-x="688" 
d="M232 -1q-14 1 -34.5 2t-45.5 1l-66 -1q-18 -1 -50 -1q-2 0 -2 6t2 6q39 0 57.5 5t25.5 19.5t7 44.5v463q0 30 -6.5 44t-25 19.5t-57.5 5.5q-2 0 -2 6t2 6l49 -1q42 -2 66 -2q35 0 71 3q44 2 60 2q105 0 186 -40t125.5 -109t44.5 -155q0 -97 -46.5 -171.5t-124.5 -115
t-171 -40.5q-29 0 -65 3zM436 43q65 34 101.5 100t36.5 158q0 88 -34.5 159t-99 112.5t-148.5 41.5q-44 0 -67.5 -5t-34.5 -20.5t-11 -46.5v-450q0 -30 9 -48t32 -26.5t67 -8.5q84 0 149 34zM189 -98q0 13 5 13h251q2 0 3.5 -4t1.5 -9q0 -13 -5 -13h-251q-5 0 -5 13z" />
    <glyph glyph-name="E" unicode="E" horiz-adv-x="533" 
d="M476 148.5q6 -0.5 6 -3.5q-9 -63 -9 -130q0 -8 -3.5 -11.5t-12.5 -3.5h-413q-2 0 -2 6t2 6q39 0 57.5 5t25 19.5t6.5 44.5v463q0 30 -6.5 44t-25 19.5t-57.5 5.5q-2 0 -2 6t2 6h396q9 0 9 -9l2 -121q0 -3 -5.5 -3t-5.5 3q0 51 -27 81t-71 30h-69q-38 0 -56 -5t-24.5 -19
t-6.5 -44v-203h132q46 0 64 15.5t18 53.5q0 2 6 2t6 -2l-1 -79q0 -29 1 -43l1 -47q0 -2 -6 -2t-6 2q0 45 -19 63t-67 18h-129v-231q0 -29 6.5 -42.5t24 -18.5t56.5 -5h92q40 0 68.5 35t36.5 92q0 3 6 2.5z" />
    <glyph glyph-name="Eacute" unicode="&#xc9;" horiz-adv-x="533" 
d="M476 148.5q6 -0.5 6 -3.5q-9 -63 -9 -130q0 -8 -3.5 -11.5t-12.5 -3.5h-413q-2 0 -2 6t2 6q39 0 57.5 5t25 19.5t6.5 44.5v463q0 30 -6.5 44t-25 19.5t-57.5 5.5q-2 0 -2 6t2 6h396q9 0 9 -9l2 -121q0 -3 -5.5 -3t-5.5 3q0 51 -27 81t-71 30h-69q-38 0 -56 -5t-24.5 -19
t-6.5 -44v-203h132q46 0 64 15.5t18 53.5q0 2 6 2t6 -2l-1 -79q0 -29 1 -43l1 -47q0 -2 -6 -2t-6 2q0 45 -19 63t-67 18h-129v-231q0 -29 6.5 -42.5t24 -18.5t56.5 -5h92q40 0 68.5 35t36.5 92q0 3 6 2.5zM191 678q-4 0 -5 4.5t2 6.5q46 21 122 65l50 28q4 2 20.5 -4
t29 -13.5t5.5 -8.5q-62 -15 -113.5 -33.5t-108.5 -43.5z" />
    <glyph glyph-name="Ebreve" unicode="&#x114;" horiz-adv-x="533" 
d="M476 148.5q6 -0.5 6 -3.5q-9 -63 -9 -130q0 -8 -3.5 -11.5t-12.5 -3.5h-413q-2 0 -2 6t2 6q39 0 57.5 5t25 19.5t6.5 44.5v463q0 30 -6.5 44t-25 19.5t-57.5 5.5q-2 0 -2 6t2 6h396q9 0 9 -9l2 -121q0 -3 -5.5 -3t-5.5 3q0 51 -27 81t-71 30h-69q-38 0 -56 -5t-24.5 -19
t-6.5 -44v-203h132q46 0 64 15.5t18 53.5q0 2 6 2t6 -2l-1 -79q0 -29 1 -43l1 -47q0 -2 -6 -2t-6 2q0 45 -19 63t-67 18h-129v-231q0 -29 6.5 -42.5t24 -18.5t56.5 -5h92q40 0 68.5 35t36.5 92q0 3 6 2.5zM222.5 716.5q-26.5 26.5 -35.5 75.5q-1 4 4 4.5t7 -1.5
q8 -30 35 -50.5t57 -20.5t56.5 21t34.5 50q0 2 4 2q3 0 5.5 -1.5t1.5 -3.5q-9 -49 -35 -75.5t-67 -26.5t-67.5 26.5z" />
    <glyph glyph-name="Ecaron" unicode="&#x11a;" horiz-adv-x="533" 
d="M476 148.5q6 -0.5 6 -3.5q-9 -63 -9 -130q0 -8 -3.5 -11.5t-12.5 -3.5h-413q-2 0 -2 6t2 6q39 0 57.5 5t25 19.5t6.5 44.5v463q0 30 -6.5 44t-25 19.5t-57.5 5.5q-2 0 -2 6t2 6h396q9 0 9 -9l2 -121q0 -3 -5.5 -3t-5.5 3q0 51 -27 81t-71 30h-69q-38 0 -56 -5t-24.5 -19
t-6.5 -44v-203h132q46 0 64 15.5t18 53.5q0 2 6 2t6 -2l-1 -79q0 -29 1 -43l1 -47q0 -2 -6 -2t-6 2q0 45 -19 63t-67 18h-129v-231q0 -29 6.5 -42.5t24 -18.5t56.5 -5h92q40 0 68.5 35t36.5 92q0 3 6 2.5zM175 779l-1 2q0 2 3 4t4 1l109 -62l108 62l2 1q2 0 3.5 -3.5
t-0.5 -4.5l-102 -92q-4 -4 -11 -4q-8 0 -12 4z" />
    <glyph glyph-name="Ecircumflex" unicode="&#xca;" horiz-adv-x="533" 
d="M476 148.5q6 -0.5 6 -3.5q-9 -63 -9 -130q0 -8 -3.5 -11.5t-12.5 -3.5h-413q-2 0 -2 6t2 6q39 0 57.5 5t25 19.5t6.5 44.5v463q0 30 -6.5 44t-25 19.5t-57.5 5.5q-2 0 -2 6t2 6h396q9 0 9 -9l2 -121q0 -3 -5.5 -3t-5.5 3q0 51 -27 81t-71 30h-69q-38 0 -56 -5t-24.5 -19
t-6.5 -44v-203h132q46 0 64 15.5t18 53.5q0 2 6 2t6 -2l-1 -79q0 -29 1 -43l1 -47q0 -2 -6 -2t-6 2q0 45 -19 63t-67 18h-129v-231q0 -29 6.5 -42.5t24 -18.5t56.5 -5h92q40 0 68.5 35t36.5 92q0 3 6 2.5zM279 783q5 5 12 5q6 0 11 -5l102 -93q1 0 1 -2t-2.5 -4t-3.5 -1
l-108 62l-109 -62q-2 -1 -5 2.5t-1 4.5z" />
    <glyph glyph-name="uni1EBE" unicode="&#x1ebe;" horiz-adv-x="533" 
d="M476 148.5q6 -0.5 6 -3.5q-9 -63 -9 -130q0 -8 -3.5 -11.5t-12.5 -3.5h-413q-2 0 -2 6t2 6q39 0 57.5 5t25 19.5t6.5 44.5v463q0 30 -6.5 44t-25 19.5t-57.5 5.5q-2 0 -2 6t2 6h396q9 0 9 -9l2 -121q0 -3 -5.5 -3t-5.5 3q0 51 -27 81t-71 30h-69q-38 0 -56 -5t-24.5 -19
t-6.5 -44v-203h132q46 0 64 15.5t18 53.5q0 2 6 2t6 -2l-1 -79q0 -29 1 -43l1 -47q0 -2 -6 -2t-6 2q0 45 -19 63t-67 18h-129v-231q0 -29 6.5 -42.5t24 -18.5t56.5 -5h92q40 0 68.5 35t36.5 92q0 3 6 2.5zM278 747q5 5 11 5q7 0 12 -5l102 -92q1 0 1 -2t-2.5 -4t-3.5 -1
l-108 62l-109 -62q-2 -1 -5 2.5t-1 4.5zM353 717q-3 0 -4.5 3.5t0.5 5.5q39 39 81 95q3 3 19.5 -3t29.5 -14t6 -9q-36 -15 -65.5 -33t-63.5 -44q-1 -1 -3 -1z" />
    <glyph glyph-name="uni1EC6" unicode="&#x1ec6;" horiz-adv-x="533" 
d="M476 148.5q6 -0.5 6 -3.5q-9 -63 -9 -130q0 -8 -3.5 -11.5t-12.5 -3.5h-413q-2 0 -2 6t2 6q39 0 57.5 5t25 19.5t6.5 44.5v463q0 30 -6.5 44t-25 19.5t-57.5 5.5q-2 0 -2 6t2 6h396q9 0 9 -9l2 -121q0 -3 -5.5 -3t-5.5 3q0 51 -27 81t-71 30h-69q-38 0 -56 -5t-24.5 -19
t-6.5 -44v-203h132q46 0 64 15.5t18 53.5q0 2 6 2t6 -2l-1 -79q0 -29 1 -43l1 -47q0 -2 -6 -2t-6 2q0 45 -19 63t-67 18h-129v-231q0 -29 6.5 -42.5t24 -18.5t56.5 -5h92q40 0 68.5 35t36.5 92q0 3 6 2.5zM255.5 -176q-10.5 10 -10.5 28t10.5 28t29.5 10q18 0 28 -10t10 -28
t-10 -28t-28 -10q-19 0 -29.5 10zM278 747q5 5 11 5q7 0 12 -5l102 -92q1 0 1 -2t-2.5 -4t-3.5 -1l-108 62l-109 -62q-2 -1 -5 2.5t-1 4.5z" />
    <glyph glyph-name="uni1EC0" unicode="&#x1ec0;" horiz-adv-x="533" 
d="M476 148.5q6 -0.5 6 -3.5q-9 -63 -9 -130q0 -8 -3.5 -11.5t-12.5 -3.5h-413q-2 0 -2 6t2 6q39 0 57.5 5t25 19.5t6.5 44.5v463q0 30 -6.5 44t-25 19.5t-57.5 5.5q-2 0 -2 6t2 6h396q9 0 9 -9l2 -121q0 -3 -5.5 -3t-5.5 3q0 51 -27 81t-71 30h-69q-38 0 -56 -5t-24.5 -19
t-6.5 -44v-203h132q46 0 64 15.5t18 53.5q0 2 6 2t6 -2l-1 -79q0 -29 1 -43l1 -47q0 -2 -6 -2t-6 2q0 45 -19 63t-67 18h-129v-231q0 -29 6.5 -42.5t24 -18.5t56.5 -5h92q40 0 68.5 35t36.5 92q0 3 6 2.5zM278 747q5 5 11 5q7 0 12 -5l102 -92q1 0 1 -2t-2.5 -4t-3.5 -1
l-108 62l-109 -62q-2 -1 -5 2.5t-1 4.5zM397.5 739q-29.5 18 -65.5 33q-7 1 6 9t30 14t19 3q34 -46 81 -94l2 -4q0 -3 -3 -4.5t-6 -0.5q-34 26 -63.5 44z" />
    <glyph glyph-name="uni1EC2" unicode="&#x1ec2;" horiz-adv-x="533" 
d="M476 148.5q6 -0.5 6 -3.5q-9 -63 -9 -130q0 -8 -3.5 -11.5t-12.5 -3.5h-413q-2 0 -2 6t2 6q39 0 57.5 5t25 19.5t6.5 44.5v463q0 30 -6.5 44t-25 19.5t-57.5 5.5q-2 0 -2 6t2 6h396q9 0 9 -9l2 -121q0 -3 -5.5 -3t-5.5 3q0 51 -27 81t-71 30h-69q-38 0 -56 -5t-24.5 -19
t-6.5 -44v-203h132q46 0 64 15.5t18 53.5q0 2 6 2t6 -2l-1 -79q0 -29 1 -43l1 -47q0 -2 -6 -2t-6 2q0 45 -19 63t-67 18h-129v-231q0 -29 6.5 -42.5t24 -18.5t56.5 -5h92q40 0 68.5 35t36.5 92q0 3 6 2.5zM278 747q5 5 11 5q7 0 12 -5l102 -92q1 0 1 -2t-2.5 -4t-3.5 -1
l-108 62l-109 -62q-2 -1 -5 2.5t-1 4.5zM366 735q0 15 15 37q8 12 12 20.5t4 18.5q0 15 -11 23t-24 8q-14 0 -25 -6h-1q-3 0 -6 3.5t0 4.5q15 9 31.5 14t28.5 5q21 0 33.5 -13t12.5 -29q0 -14 -8.5 -25.5t-23.5 -26.5t-21.5 -25t-3.5 -22q2 -2 -4 -2.5t-7 2.5q-2 5 -2 13z
" />
    <glyph glyph-name="uni1EC4" unicode="&#x1ec4;" horiz-adv-x="533" 
d="M476 148.5q6 -0.5 6 -3.5q-9 -63 -9 -130q0 -8 -3.5 -11.5t-12.5 -3.5h-413q-2 0 -2 6t2 6q39 0 57.5 5t25 19.5t6.5 44.5v463q0 30 -6.5 44t-25 19.5t-57.5 5.5q-2 0 -2 6t2 6h396q9 0 9 -9l2 -121q0 -3 -5.5 -3t-5.5 3q0 51 -27 81t-71 30h-69q-38 0 -56 -5t-24.5 -19
t-6.5 -44v-203h132q46 0 64 15.5t18 53.5q0 2 6 2t6 -2l-1 -79q0 -29 1 -43l1 -47q0 -2 -6 -2t-6 2q0 45 -19 63t-67 18h-129v-231q0 -29 6.5 -42.5t24 -18.5t56.5 -5h92q40 0 68.5 35t36.5 92q0 3 6 2.5zM278 747q5 5 11 5q7 0 12 -5l102 -92q1 0 1 -2t-2.5 -4t-3.5 -1
l-108 62l-109 -62q-2 -1 -5 2.5t-1 4.5zM399.5 807q10.5 7 21.5 20h1q3 0 5.5 -2.5t0.5 -4.5q-26 -34 -43 -46t-35 -12q-15 0 -31 3.5t-32 8.5t-34 9t-35 4q-16 0 -24.5 -5.5t-15 -12l-9.5 -9.5h-2q-3 0 -5 2.5t0 4.5q16 22 38.5 39.5t45.5 17.5q14 0 31.5 -4.5t20.5 -5.5
q44 -14 74 -14q17 0 27.5 7z" />
    <glyph glyph-name="Edieresis" unicode="&#xcb;" horiz-adv-x="533" 
d="M476 148.5q6 -0.5 6 -3.5q-9 -63 -9 -130q0 -8 -3.5 -11.5t-12.5 -3.5h-413q-2 0 -2 6t2 6q39 0 57.5 5t25 19.5t6.5 44.5v463q0 30 -6.5 44t-25 19.5t-57.5 5.5q-2 0 -2 6t2 6h396q9 0 9 -9l2 -121q0 -3 -5.5 -3t-5.5 3q0 51 -27 81t-71 30h-69q-38 0 -56 -5t-24.5 -19
t-6.5 -44v-203h132q46 0 64 15.5t18 53.5q0 2 6 2t6 -2l-1 -79q0 -29 1 -43l1 -47q0 -2 -6 -2t-6 2q0 45 -19 63t-67 18h-129v-231q0 -29 6.5 -42.5t24 -18.5t56.5 -5h92q40 0 68.5 35t36.5 92q0 3 6 2.5zM173.5 730q-10.5 10 -10.5 28t10.5 28t29.5 10q18 0 28 -10t10 -28
t-10 -28t-28 -10q-19 0 -29.5 10zM349 730q-11 10 -11 28t11 28t29 10q19 0 29 -10t10 -28t-10 -28t-29 -10q-18 0 -29 10z" />
    <glyph glyph-name="Edotaccent" unicode="&#x116;" horiz-adv-x="533" 
d="M476 148.5q6 -0.5 6 -3.5q-9 -63 -9 -130q0 -8 -3.5 -11.5t-12.5 -3.5h-413q-2 0 -2 6t2 6q39 0 57.5 5t25 19.5t6.5 44.5v463q0 30 -6.5 44t-25 19.5t-57.5 5.5q-2 0 -2 6t2 6h396q9 0 9 -9l2 -121q0 -3 -5.5 -3t-5.5 3q0 51 -27 81t-71 30h-69q-38 0 -56 -5t-24.5 -19
t-6.5 -44v-203h132q46 0 64 15.5t18 53.5q0 2 6 2t6 -2l-1 -79q0 -29 1 -43l1 -47q0 -2 -6 -2t-6 2q0 45 -19 63t-67 18h-129v-231q0 -29 6.5 -42.5t24 -18.5t56.5 -5h92q40 0 68.5 35t36.5 92q0 3 6 2.5zM260.5 723q-10.5 10 -10.5 29q0 17 10.5 27t29.5 10q18 0 28 -10
t10 -27q0 -19 -10 -29t-28 -10q-19 0 -29.5 10z" />
    <glyph glyph-name="uni1EB8" unicode="&#x1eb8;" horiz-adv-x="533" 
d="M476 148.5q6 -0.5 6 -3.5q-9 -63 -9 -130q0 -8 -3.5 -11.5t-12.5 -3.5h-413q-2 0 -2 6t2 6q39 0 57.5 5t25 19.5t6.5 44.5v463q0 30 -6.5 44t-25 19.5t-57.5 5.5q-2 0 -2 6t2 6h396q9 0 9 -9l2 -121q0 -3 -5.5 -3t-5.5 3q0 51 -27 81t-71 30h-69q-38 0 -56 -5t-24.5 -19
t-6.5 -44v-203h132q46 0 64 15.5t18 53.5q0 2 6 2t6 -2l-1 -79q0 -29 1 -43l1 -47q0 -2 -6 -2t-6 2q0 45 -19 63t-67 18h-129v-231q0 -29 6.5 -42.5t24 -18.5t56.5 -5h92q40 0 68.5 35t36.5 92q0 3 6 2.5zM255.5 -176q-10.5 10 -10.5 28t10.5 28t29.5 10q18 0 28 -10t10 -28
t-10 -28t-28 -10q-19 0 -29.5 10z" />
    <glyph glyph-name="Egrave" unicode="&#xc8;" horiz-adv-x="533" 
d="M476 148.5q6 -0.5 6 -3.5q-9 -63 -9 -130q0 -8 -3.5 -11.5t-12.5 -3.5h-413q-2 0 -2 6t2 6q39 0 57.5 5t25 19.5t6.5 44.5v463q0 30 -6.5 44t-25 19.5t-57.5 5.5q-2 0 -2 6t2 6h396q9 0 9 -9l2 -121q0 -3 -5.5 -3t-5.5 3q0 51 -27 81t-71 30h-69q-38 0 -56 -5t-24.5 -19
t-6.5 -44v-203h132q46 0 64 15.5t18 53.5q0 2 6 2t6 -2l-1 -79q0 -29 1 -43l1 -47q0 -2 -6 -2t-6 2q0 45 -19 63t-67 18h-129v-231q0 -29 6.5 -42.5t24 -18.5t56.5 -5h92q40 0 68.5 35t36.5 92q0 3 6 2.5zM166 756q-7 1 5.5 8.5t29 13.5t20.5 4q40 -23 84.5 -48t87.5 -45
q2 -1 2 -4t-2 -5t-4 -1q-113 50 -223 77z" />
    <glyph glyph-name="uni1EBA" unicode="&#x1eba;" horiz-adv-x="533" 
d="M476 148.5q6 -0.5 6 -3.5q-9 -63 -9 -130q0 -8 -3.5 -11.5t-12.5 -3.5h-413q-2 0 -2 6t2 6q39 0 57.5 5t25 19.5t6.5 44.5v463q0 30 -6.5 44t-25 19.5t-57.5 5.5q-2 0 -2 6t2 6h396q9 0 9 -9l2 -121q0 -3 -5.5 -3t-5.5 3q0 51 -27 81t-71 30h-69q-38 0 -56 -5t-24.5 -19
t-6.5 -44v-203h132q46 0 64 15.5t18 53.5q0 2 6 2t6 -2l-1 -79q0 -29 1 -43l1 -47q0 -2 -6 -2t-6 2q0 45 -19 63t-67 18h-129v-231q0 -29 6.5 -42.5t24 -18.5t56.5 -5h92q40 0 68.5 35t36.5 92q0 3 6 2.5zM288.5 649q-5.5 0 -6.5 2q-3 12 -3 21q0 15 6 27t17 30q11 15 16 26
t5 23q0 19 -13.5 30t-32.5 11q-12 0 -26 -6h-1q-3 0 -6 3.5t0 4.5q31 19 61 19q29 0 45.5 -15t16.5 -37q0 -18 -9 -31t-30 -35q-18 -17 -27.5 -30.5t-9.5 -28.5q0 -4 2 -12q1 -2 -4.5 -2z" />
    <glyph glyph-name="Emacron" unicode="&#x112;" horiz-adv-x="533" 
d="M476 148.5q6 -0.5 6 -3.5q-9 -63 -9 -130q0 -8 -3.5 -11.5t-12.5 -3.5h-413q-2 0 -2 6t2 6q39 0 57.5 5t25 19.5t6.5 44.5v463q0 30 -6.5 44t-25 19.5t-57.5 5.5q-2 0 -2 6t2 6h396q9 0 9 -9l2 -121q0 -3 -5.5 -3t-5.5 3q0 51 -27 81t-71 30h-69q-38 0 -56 -5t-24.5 -19
t-6.5 -44v-203h132q46 0 64 15.5t18 53.5q0 2 6 2t6 -2l-1 -79q0 -29 1 -43l1 -47q0 -2 -6 -2t-6 2q0 45 -19 63t-67 18h-129v-231q0 -29 6.5 -42.5t24 -18.5t56.5 -5h92q40 0 68.5 35t36.5 92q0 3 6 2.5zM160.5 728q-1.5 4 -1.5 9q0 13 5 13h251q5 0 5 -13t-5 -13h-251
q-2 0 -3.5 4z" />
    <glyph glyph-name="Eogonek" unicode="&#x118;" horiz-adv-x="533" 
d="M476 148.5q6 -0.5 6 -3.5q-9 -63 -9 -130q0 -8 -3.5 -11.5t-12.5 -3.5h-413q-2 0 -2 6t2 6q39 0 57.5 5t25 19.5t6.5 44.5v463q0 30 -6.5 44t-25 19.5t-57.5 5.5q-2 0 -2 6t2 6h396q9 0 9 -9l2 -121q0 -3 -5.5 -3t-5.5 3q0 51 -27 81t-71 30h-69q-38 0 -56 -5t-24.5 -19
t-6.5 -44v-203h132q46 0 64 15.5t18 53.5q0 2 6 2t6 -2l-1 -79q0 -29 1 -43l1 -47q0 -2 -6 -2t-6 2q0 45 -19 63t-67 18h-129v-231q0 -29 6.5 -42.5t24 -18.5t56.5 -5h92q40 0 68.5 35t36.5 92q0 3 6 2.5zM414 1q-43 -38 -62.5 -74t-19.5 -77q0 -46 23.5 -72t68.5 -26
q24 0 39.5 6.5t31.5 19.5h2q3 0 5.5 -3t-0.5 -5q-51 -45 -107 -45q-54 0 -82.5 25.5t-28.5 70.5q0 90 119 185z" />
    <glyph glyph-name="uni1EBC" unicode="&#x1ebc;" horiz-adv-x="533" 
d="M476 148.5q6 -0.5 6 -3.5q-9 -63 -9 -130q0 -8 -3.5 -11.5t-12.5 -3.5h-413q-2 0 -2 6t2 6q39 0 57.5 5t25 19.5t6.5 44.5v463q0 30 -6.5 44t-25 19.5t-57.5 5.5q-2 0 -2 6t2 6h396q9 0 9 -9l2 -121q0 -3 -5.5 -3t-5.5 3q0 51 -27 81t-71 30h-69q-38 0 -56 -5t-24.5 -19
t-6.5 -44v-203h132q46 0 64 15.5t18 53.5q0 2 6 2t6 -2l-1 -79q0 -29 1 -43l1 -47q0 -2 -6 -2t-6 2q0 45 -19 63t-67 18h-129v-231q0 -29 6.5 -42.5t24 -18.5t56.5 -5h92q40 0 68.5 35t36.5 92q0 3 6 2.5zM394.5 744q10.5 7 21.5 20h2q3 0 5 -2.5t0 -4.5q-26 -34 -43 -45.5
t-35 -11.5q-15 0 -31 3.5t-32 8.5q-42 12 -69 12q-16 0 -24.5 -5.5t-15 -12l-9.5 -9.5h-1q-3 0 -5.5 2.5t-0.5 4.5q16 22 38.5 40t45.5 18q17 0 52 -11q44 -14 74 -14q17 0 27.5 7z" />
    <glyph glyph-name="F" unicode="F" horiz-adv-x="506" 
d="M451 495q0 -3 -5.5 -3t-5.5 3q0 51 -27 81t-71 30h-69q-37 0 -55 -5t-25 -18t-7 -40v-220h109q51 0 72 15.5t21 53.5q0 2 6 2t6 -2l-1 -79q0 -29 1 -43l1 -47q0 -2 -6 -2t-6 2q0 45 -21.5 63t-76.5 18h-105v-219q0 -32 9 -46.5t34.5 -20.5t81.5 -6q3 0 3 -6t-3 -6
q-41 0 -64 1l-87 1l-66 -1q-18 -1 -50 -1q-2 0 -2 6t2 6q39 0 57.5 5t25 19.5t6.5 44.5v463q0 30 -6.5 44t-25 19.5t-57.5 5.5q-2 0 -2 6t2 6h396q9 0 9 -9z" />
    <glyph glyph-name="G" unicode="G" horiz-adv-x="713" 
d="M214.5 30q-80.5 42 -123 114t-42.5 161q0 97 49.5 172t136 117t195.5 42q49 0 92.5 -10t72.5 -28q7 -5 8.5 -8.5t2 -8t0.5 -6.5l12 -105q0 -3 -5.5 -3.5t-6.5 2.5q-19 71 -75 108.5t-142 37.5q-132 0 -205 -73t-73 -202q0 -96 41 -172.5t113.5 -119.5t162.5 -43
q54 0 83.5 9t43 35t13.5 77q0 52 -7 72.5t-30 27.5t-80 7q-6 0 -6 8q0 3 1.5 5.5t3.5 2.5q77 -5 124 -5q45 0 96 3q2 0 3.5 -2.5t1.5 -4.5q0 -7 -5 -7q-26 1 -37 -6.5t-14 -30.5t-3 -80q0 -45 3.5 -64t3.5 -24q0 -6 -2 -8t-9 -4q-117 -28 -208 -28q-109 0 -189.5 42z" />
    <glyph glyph-name="Gbreve" unicode="&#x11e;" horiz-adv-x="713" 
d="M214.5 30q-80.5 42 -123 114t-42.5 161q0 97 49.5 172t136 117t195.5 42q49 0 92.5 -10t72.5 -28q7 -5 8.5 -8.5t2 -8t0.5 -6.5l12 -105q0 -3 -5.5 -3.5t-6.5 2.5q-19 71 -75 108.5t-142 37.5q-132 0 -205 -73t-73 -202q0 -96 41 -172.5t113.5 -119.5t162.5 -43
q54 0 83.5 9t43 35t13.5 77q0 52 -7 72.5t-30 27.5t-80 7q-6 0 -6 8q0 3 1.5 5.5t3.5 2.5q77 -5 124 -5q45 0 96 3q2 0 3.5 -2.5t1.5 -4.5q0 -7 -5 -7q-26 1 -37 -6.5t-14 -30.5t-3 -80q0 -45 3.5 -64t3.5 -24q0 -6 -2 -8t-9 -4q-117 -28 -208 -28q-109 0 -189.5 42z
M326.5 716.5q-26.5 26.5 -35.5 75.5q-1 4 4 4.5t7 -1.5q8 -30 35 -50.5t57 -20.5t56.5 21t34.5 50q0 2 4 2q3 0 5.5 -1.5t1.5 -3.5q-9 -49 -35 -75.5t-67 -26.5t-67.5 26.5z" />
    <glyph glyph-name="Gcaron" unicode="&#x1e6;" horiz-adv-x="713" 
d="M214.5 30q-80.5 42 -123 114t-42.5 161q0 97 49.5 172t136 117t195.5 42q49 0 92.5 -10t72.5 -28q7 -5 8.5 -8.5t2 -8t0.5 -6.5l12 -105q0 -3 -5.5 -3.5t-6.5 2.5q-19 71 -75 108.5t-142 37.5q-132 0 -205 -73t-73 -202q0 -96 41 -172.5t113.5 -119.5t162.5 -43
q54 0 83.5 9t43 35t13.5 77q0 52 -7 72.5t-30 27.5t-80 7q-6 0 -6 8q0 3 1.5 5.5t3.5 2.5q77 -5 124 -5q45 0 96 3q2 0 3.5 -2.5t1.5 -4.5q0 -7 -5 -7q-26 1 -37 -6.5t-14 -30.5t-3 -80q0 -45 3.5 -64t3.5 -24q0 -6 -2 -8t-9 -4q-117 -28 -208 -28q-109 0 -189.5 42z
M279 779l-1 2q0 2 3 4t4 1l109 -62l108 62l2 1q2 0 3.5 -3.5t-0.5 -4.5l-102 -92q-4 -4 -11 -4q-8 0 -12 4z" />
    <glyph glyph-name="Gcircumflex" unicode="&#x11c;" horiz-adv-x="713" 
d="M214.5 30q-80.5 42 -123 114t-42.5 161q0 97 49.5 172t136 117t195.5 42q49 0 92.5 -10t72.5 -28q7 -5 8.5 -8.5t2 -8t0.5 -6.5l12 -105q0 -3 -5.5 -3.5t-6.5 2.5q-19 71 -75 108.5t-142 37.5q-132 0 -205 -73t-73 -202q0 -96 41 -172.5t113.5 -119.5t162.5 -43
q54 0 83.5 9t43 35t13.5 77q0 52 -7 72.5t-30 27.5t-80 7q-6 0 -6 8q0 3 1.5 5.5t3.5 2.5q77 -5 124 -5q45 0 96 3q2 0 3.5 -2.5t1.5 -4.5q0 -7 -5 -7q-26 1 -37 -6.5t-14 -30.5t-3 -80q0 -45 3.5 -64t3.5 -24q0 -6 -2 -8t-9 -4q-117 -28 -208 -28q-109 0 -189.5 42z
M383 783q5 5 12 5q6 0 11 -5l102 -93q1 0 1 -2t-2.5 -4t-3.5 -1l-108 62l-109 -62q-2 -1 -5 2.5t-1 4.5z" />
    <glyph glyph-name="Gcommaaccent" unicode="&#x122;" horiz-adv-x="713" 
d="M214.5 30q-80.5 42 -123 114t-42.5 161q0 97 49.5 172t136 117t195.5 42q49 0 92.5 -10t72.5 -28q7 -5 8.5 -8.5t2 -8t0.5 -6.5l12 -105q0 -3 -5.5 -3.5t-6.5 2.5q-19 71 -75 108.5t-142 37.5q-132 0 -205 -73t-73 -202q0 -96 41 -172.5t113.5 -119.5t162.5 -43
q54 0 83.5 9t43 35t13.5 77q0 52 -7 72.5t-30 27.5t-80 7q-6 0 -6 8q0 3 1.5 5.5t3.5 2.5q77 -5 124 -5q45 0 96 3q2 0 3.5 -2.5t1.5 -4.5q0 -7 -5 -7q-26 1 -37 -6.5t-14 -30.5t-3 -80q0 -45 3.5 -64t3.5 -24q0 -6 -2 -8t-9 -4q-117 -28 -208 -28q-109 0 -189.5 42z
M450.5 -107q13.5 -18 13.5 -53q0 -32 -14.5 -59.5t-42.5 -55.5q-1 -1 -3 -1q-3 0 -5 3.5t0 4.5q43 40 43 95q0 18 -5 28q-6 -14 -28 -14q-17 0 -26.5 9.5t-9.5 25.5q0 35 38 35q26 0 39.5 -18z" />
    <glyph glyph-name="Gdotaccent" unicode="&#x120;" horiz-adv-x="713" 
d="M214.5 30q-80.5 42 -123 114t-42.5 161q0 97 49.5 172t136 117t195.5 42q49 0 92.5 -10t72.5 -28q7 -5 8.5 -8.5t2 -8t0.5 -6.5l12 -105q0 -3 -5.5 -3.5t-6.5 2.5q-19 71 -75 108.5t-142 37.5q-132 0 -205 -73t-73 -202q0 -96 41 -172.5t113.5 -119.5t162.5 -43
q54 0 83.5 9t43 35t13.5 77q0 52 -7 72.5t-30 27.5t-80 7q-6 0 -6 8q0 3 1.5 5.5t3.5 2.5q77 -5 124 -5q45 0 96 3q2 0 3.5 -2.5t1.5 -4.5q0 -7 -5 -7q-26 1 -37 -6.5t-14 -30.5t-3 -80q0 -45 3.5 -64t3.5 -24q0 -6 -2 -8t-9 -4q-117 -28 -208 -28q-109 0 -189.5 42z
M364.5 723q-10.5 10 -10.5 29q0 17 10.5 27t29.5 10q18 0 28 -10t10 -27q0 -19 -10 -29t-28 -10q-19 0 -29.5 10z" />
    <glyph glyph-name="uni1E20" unicode="&#x1e20;" horiz-adv-x="713" 
d="M214.5 30q-80.5 42 -123 114t-42.5 161q0 97 49.5 172t136 117t195.5 42q49 0 92.5 -10t72.5 -28q7 -5 8.5 -8.5t2 -8t0.5 -6.5l12 -105q0 -3 -5.5 -3.5t-6.5 2.5q-19 71 -75 108.5t-142 37.5q-132 0 -205 -73t-73 -202q0 -96 41 -172.5t113.5 -119.5t162.5 -43
q54 0 83.5 9t43 35t13.5 77q0 52 -7 72.5t-30 27.5t-80 7q-6 0 -6 8q0 3 1.5 5.5t3.5 2.5q77 -5 124 -5q45 0 96 3q2 0 3.5 -2.5t1.5 -4.5q0 -7 -5 -7q-26 1 -37 -6.5t-14 -30.5t-3 -80q0 -45 3.5 -64t3.5 -24q0 -6 -2 -8t-9 -4q-117 -28 -208 -28q-109 0 -189.5 42z
M263 737q0 13 5 13h251q5 0 5 -13q0 -5 -1.5 -9t-3.5 -4h-251q-5 0 -5 13z" />
    <glyph glyph-name="H" unicode="H" horiz-adv-x="758" 
d="M723 6q0 -6 -3 -6q-31 0 -48 1l-67 1l-69 -1q-17 -1 -47 -1q-3 0 -3 6t3 6q40 0 58 5t24.5 19t6.5 45v235h-399v-235q0 -31 6.5 -45t24.5 -19t58 -5q2 0 2 -6t-2 -6q-30 0 -48 1l-68 1l-66 -1q-18 -1 -50 -1q-2 0 -2 6t2 6q39 0 57.5 5t25.5 19.5t7 44.5v463
q0 30 -6.5 44t-25 19.5t-57.5 5.5q-2 0 -2 6t2 6l49 -1q42 -2 66 -2q27 0 69 2l47 1q2 0 2 -6t-2 -6q-39 0 -57.5 -6t-25 -20.5t-6.5 -44.5v-207h399v207q0 30 -6.5 44.5t-25 20.5t-57.5 6q-3 0 -3 6t3 6l47 -1q42 -2 69 -2q25 0 67 2l48 1q3 0 3 -6t-3 -6q-39 0 -57.5 -5.5
t-25.5 -19.5t-7 -44v-463q0 -30 7 -44.5t25.5 -19.5t57.5 -5q3 0 3 -6z" />
    <glyph glyph-name="Hbar" unicode="&#x126;" horiz-adv-x="758" 
d="M723 6q0 -6 -3 -6q-31 0 -48 1l-67 1l-69 -1q-17 -1 -47 -1q-3 0 -3 6t3 6q40 0 58 5t24.5 19t6.5 45v141h-399v-141q0 -31 6.5 -45t24.5 -19t58 -5q2 0 2 -6t-2 -6q-30 0 -48 1l-68 1l-66 -1q-18 -1 -50 -1q-2 0 -2 6t2 6q39 0 57.5 5t25.5 19.5t7 44.5v463
q0 30 -6.5 44t-25 19.5t-57.5 5.5q-2 0 -2 6t2 6l49 -1q42 -2 66 -2q27 0 69 2l47 1q2 0 2 -6t-2 -6q-39 0 -57.5 -6t-25 -20.5t-6.5 -44.5v-114h399v114q0 30 -6.5 44.5t-25 20.5t-57.5 6q-3 0 -3 6t3 6l47 -1q42 -2 69 -2q25 0 67 2l48 1q3 0 3 -6t-3 -6q-39 0 -57.5 -5.5
t-25.5 -19.5t-7 -44v-463q0 -30 7 -44.5t25.5 -19.5t57.5 -5q3 0 3 -6zM578 241v168h-399v-168h399z" />
    <glyph glyph-name="uni1E2A" unicode="&#x1e2a;" horiz-adv-x="758" 
d="M723 6q0 -6 -3 -6q-31 0 -48 1l-67 1l-69 -1q-17 -1 -47 -1q-3 0 -3 6t3 6q40 0 58 5t24.5 19t6.5 45v235h-399v-235q0 -31 6.5 -45t24.5 -19t58 -5q2 0 2 -6t-2 -6q-30 0 -48 1l-68 1l-66 -1q-18 -1 -50 -1q-2 0 -2 6t2 6q39 0 57.5 5t25.5 19.5t7 44.5v463
q0 30 -6.5 44t-25 19.5t-57.5 5.5q-2 0 -2 6t2 6l49 -1q42 -2 66 -2q27 0 69 2l47 1q2 0 2 -6t-2 -6q-39 0 -57.5 -6t-25 -20.5t-6.5 -44.5v-207h399v207q0 30 -6.5 44.5t-25 20.5t-57.5 6q-3 0 -3 6t3 6l47 -1q42 -2 69 -2q25 0 67 2l48 1q3 0 3 -6t-3 -6q-39 0 -57.5 -5.5
t-25.5 -19.5t-7 -44v-463q0 -30 7 -44.5t25.5 -19.5t57.5 -5q3 0 3 -6zM281.5 -75q5.5 1 5.5 -1q0 -47 26 -78t66 -31q38 0 64.5 31.5t26.5 77.5q0 2 3 2t5.5 -1.5t2.5 -3.5q0 -73 -26 -110.5t-76 -37.5t-76.5 37.5t-26.5 110.5q0 3 5.5 4z" />
    <glyph glyph-name="Hcircumflex" unicode="&#x124;" horiz-adv-x="758" 
d="M723 6q0 -6 -3 -6q-31 0 -48 1l-67 1l-69 -1q-17 -1 -47 -1q-3 0 -3 6t3 6q40 0 58 5t24.5 19t6.5 45v235h-399v-235q0 -31 6.5 -45t24.5 -19t58 -5q2 0 2 -6t-2 -6q-30 0 -48 1l-68 1l-66 -1q-18 -1 -50 -1q-2 0 -2 6t2 6q39 0 57.5 5t25.5 19.5t7 44.5v463
q0 30 -6.5 44t-25 19.5t-57.5 5.5q-2 0 -2 6t2 6l49 -1q42 -2 66 -2q27 0 69 2l47 1q2 0 2 -6t-2 -6q-39 0 -57.5 -6t-25 -20.5t-6.5 -44.5v-207h399v207q0 30 -6.5 44.5t-25 20.5t-57.5 6q-3 0 -3 6t3 6l47 -1q42 -2 69 -2q25 0 67 2l48 1q3 0 3 -6t-3 -6q-39 0 -57.5 -5.5
t-25.5 -19.5t-7 -44v-463q0 -30 7 -44.5t25.5 -19.5t57.5 -5q3 0 3 -6zM368 783q5 5 12 5q6 0 11 -5l102 -93q1 0 1 -2t-2.5 -4t-3.5 -1l-108 62l-109 -62q-2 -1 -5 2.5t-1 4.5z" />
    <glyph glyph-name="uni1E24" unicode="&#x1e24;" horiz-adv-x="758" 
d="M723 6q0 -6 -3 -6q-31 0 -48 1l-67 1l-69 -1q-17 -1 -47 -1q-3 0 -3 6t3 6q40 0 58 5t24.5 19t6.5 45v235h-399v-235q0 -31 6.5 -45t24.5 -19t58 -5q2 0 2 -6t-2 -6q-30 0 -48 1l-68 1l-66 -1q-18 -1 -50 -1q-2 0 -2 6t2 6q39 0 57.5 5t25.5 19.5t7 44.5v463
q0 30 -6.5 44t-25 19.5t-57.5 5.5q-2 0 -2 6t2 6l49 -1q42 -2 66 -2q27 0 69 2l47 1q2 0 2 -6t-2 -6q-39 0 -57.5 -6t-25 -20.5t-6.5 -44.5v-207h399v207q0 30 -6.5 44.5t-25 20.5t-57.5 6q-3 0 -3 6t3 6l47 -1q42 -2 69 -2q25 0 67 2l48 1q3 0 3 -6t-3 -6q-39 0 -57.5 -5.5
t-25.5 -19.5t-7 -44v-463q0 -30 7 -44.5t25.5 -19.5t57.5 -5q3 0 3 -6zM350.5 -176q-10.5 10 -10.5 28t10.5 28t29.5 10q18 0 28 -10t10 -28t-10 -28t-28 -10q-19 0 -29.5 10z" />
    <glyph glyph-name="I" unicode="I" horiz-adv-x="330" 
d="M198.5 36q6.5 -14 24.5 -19t58 -5q2 0 2 -6t-2 -6q-30 0 -47 1l-70 1l-67 -1q-18 -1 -49 -1q-3 0 -3 6t3 6q39 0 57.5 5t25.5 19.5t7 44.5v463q0 30 -7 44t-25.5 19.5t-57.5 5.5q-3 0 -3 6t3 6l49 -1q42 -2 67 -2q28 0 70 2l47 1q2 0 2 -6t-2 -6q-39 0 -57.5 -6
t-25 -20.5t-6.5 -44.5v-461q0 -31 6.5 -45z" />
    <glyph glyph-name="IJ" unicode="&#x132;" horiz-adv-x="688" 
d="M193.5 305q6.5 -14 24.5 -19t58 -5q3 0 3 -6t-3 -6q-30 0 -47 1l-70 1l-66 -1q-18 -1 -50 -1q-2 0 -2 6t2 6q39 0 57.5 5t25.5 19.5t7 44.5v194q0 30 -7 44t-25.5 19.5t-57.5 5.5q-2 0 -2 6t2 6l50 -1q40 -2 66 -2q29 0 71 2l46 1q3 0 3 -6t-3 -6q-39 0 -57.5 -6
t-25 -20.5t-6.5 -44.5v-192q0 -31 6.5 -45zM655 619q0 -6 -2 -6q-34 0 -50.5 -6t-22 -20.5t-5.5 -44.5v-284q0 -86 -29.5 -147t-82 -92.5t-121.5 -31.5q-61 0 -111 23t-78.5 58t-28.5 68q0 15 7.5 23t19.5 8q20 0 27.5 -13t14.5 -42q8 -33 19 -55.5t40.5 -39t83.5 -16.5
q95 0 140.5 52.5t45.5 146.5v344q0 30 -7.5 44t-29 19.5t-65.5 5.5q-3 0 -3 6t3 6l57 -1q44 -2 70 -2q24 0 64 2l42 1q2 0 2 -6z" />
    <glyph glyph-name="Iacute" unicode="&#xcd;" horiz-adv-x="330" 
d="M198.5 36q6.5 -14 24.5 -19t58 -5q2 0 2 -6t-2 -6q-30 0 -47 1l-70 1l-67 -1q-18 -1 -49 -1q-3 0 -3 6t3 6q39 0 57.5 5t25.5 19.5t7 44.5v463q0 30 -7 44t-25.5 19.5t-57.5 5.5q-3 0 -3 6t3 6l49 -1q42 -2 67 -2q28 0 70 2l47 1q2 0 2 -6t-2 -6q-39 0 -57.5 -6
t-25 -20.5t-6.5 -44.5v-461q0 -31 6.5 -45zM66 678q-4 0 -5 4.5t2 6.5q46 21 122 65l50 28q4 2 20.5 -4t29 -13.5t5.5 -8.5q-62 -15 -113.5 -33.5t-108.5 -43.5z" />
    <glyph glyph-name="Ibreve" unicode="&#x12c;" horiz-adv-x="330" 
d="M198.5 36q6.5 -14 24.5 -19t58 -5q2 0 2 -6t-2 -6q-30 0 -47 1l-70 1l-67 -1q-18 -1 -49 -1q-3 0 -3 6t3 6q39 0 57.5 5t25.5 19.5t7 44.5v463q0 30 -7 44t-25.5 19.5t-57.5 5.5q-3 0 -3 6t3 6l49 -1q42 -2 67 -2q28 0 70 2l47 1q2 0 2 -6t-2 -6q-39 0 -57.5 -6
t-25 -20.5t-6.5 -44.5v-461q0 -31 6.5 -45zM97.5 716.5q-26.5 26.5 -35.5 75.5q-1 4 4 4.5t7 -1.5q8 -30 35 -50.5t57 -20.5t56.5 21t34.5 50q0 2 4 2q3 0 5.5 -1.5t1.5 -3.5q-9 -49 -35 -75.5t-67 -26.5t-67.5 26.5z" />
    <glyph glyph-name="uni01CF" unicode="&#x1cf;" horiz-adv-x="330" 
d="M198.5 36q6.5 -14 24.5 -19t58 -5q2 0 2 -6t-2 -6q-30 0 -47 1l-70 1l-67 -1q-18 -1 -49 -1q-3 0 -3 6t3 6q39 0 57.5 5t25.5 19.5t7 44.5v463q0 30 -7 44t-25.5 19.5t-57.5 5.5q-3 0 -3 6t3 6l49 -1q42 -2 67 -2q28 0 70 2l47 1q2 0 2 -6t-2 -6q-39 0 -57.5 -6
t-25 -20.5t-6.5 -44.5v-461q0 -31 6.5 -45zM50 779l-1 2q0 2 3 4t4 1l109 -62l108 62l2 1q2 0 3.5 -3.5t-0.5 -4.5l-102 -92q-4 -4 -11 -4q-8 0 -12 4z" />
    <glyph glyph-name="Icircumflex" unicode="&#xce;" horiz-adv-x="330" 
d="M198.5 36q6.5 -14 24.5 -19t58 -5q2 0 2 -6t-2 -6q-30 0 -47 1l-70 1l-67 -1q-18 -1 -49 -1q-3 0 -3 6t3 6q39 0 57.5 5t25.5 19.5t7 44.5v463q0 30 -7 44t-25.5 19.5t-57.5 5.5q-3 0 -3 6t3 6l49 -1q42 -2 67 -2q28 0 70 2l47 1q2 0 2 -6t-2 -6q-39 0 -57.5 -6
t-25 -20.5t-6.5 -44.5v-461q0 -31 6.5 -45zM154 783q5 5 12 5q6 0 11 -5l102 -93q1 0 1 -2t-2.5 -4t-3.5 -1l-108 62l-109 -62q-2 -1 -5 2.5t-1 4.5z" />
    <glyph glyph-name="Idieresis" unicode="&#xcf;" horiz-adv-x="330" 
d="M198.5 36q6.5 -14 24.5 -19t58 -5q2 0 2 -6t-2 -6q-30 0 -47 1l-70 1l-67 -1q-18 -1 -49 -1q-3 0 -3 6t3 6q39 0 57.5 5t25.5 19.5t7 44.5v463q0 30 -7 44t-25.5 19.5t-57.5 5.5q-3 0 -3 6t3 6l49 -1q42 -2 67 -2q28 0 70 2l47 1q2 0 2 -6t-2 -6q-39 0 -57.5 -6
t-25 -20.5t-6.5 -44.5v-461q0 -31 6.5 -45zM66 730q-11 10 -11 28t11 28t29 10q19 0 29 -10t10 -28t-10 -28t-29 -10q-18 0 -29 10zM206.5 730q-10.5 10 -10.5 28t10.5 28t29.5 10q18 0 28 -10t10 -28t-10 -28t-28 -10q-19 0 -29.5 10z" />
    <glyph glyph-name="Idotaccent" unicode="&#x130;" horiz-adv-x="330" 
d="M198.5 36q6.5 -14 24.5 -19t58 -5q2 0 2 -6t-2 -6q-30 0 -47 1l-70 1l-67 -1q-18 -1 -49 -1q-3 0 -3 6t3 6q39 0 57.5 5t25.5 19.5t7 44.5v463q0 30 -7 44t-25.5 19.5t-57.5 5.5q-3 0 -3 6t3 6l49 -1q42 -2 67 -2q28 0 70 2l47 1q2 0 2 -6t-2 -6q-39 0 -57.5 -6
t-25 -20.5t-6.5 -44.5v-461q0 -31 6.5 -45zM135.5 723q-10.5 10 -10.5 29q0 17 10.5 27t29.5 10q18 0 28 -10t10 -27q0 -19 -10 -29t-28 -10q-19 0 -29.5 10z" />
    <glyph glyph-name="uni1ECA" unicode="&#x1eca;" horiz-adv-x="330" 
d="M198.5 36q6.5 -14 24.5 -19t58 -5q2 0 2 -6t-2 -6q-30 0 -47 1l-70 1l-67 -1q-18 -1 -49 -1q-3 0 -3 6t3 6q39 0 57.5 5t25.5 19.5t7 44.5v463q0 30 -7 44t-25.5 19.5t-57.5 5.5q-3 0 -3 6t3 6l49 -1q42 -2 67 -2q28 0 70 2l47 1q2 0 2 -6t-2 -6q-39 0 -57.5 -6
t-25 -20.5t-6.5 -44.5v-461q0 -31 6.5 -45zM136.5 -176q-10.5 10 -10.5 28t10.5 28t29.5 10q18 0 28 -10t10 -28t-10 -28t-28 -10q-19 0 -29.5 10z" />
    <glyph glyph-name="Igrave" unicode="&#xcc;" horiz-adv-x="330" 
d="M198.5 36q6.5 -14 24.5 -19t58 -5q2 0 2 -6t-2 -6q-30 0 -47 1l-70 1l-67 -1q-18 -1 -49 -1q-3 0 -3 6t3 6q39 0 57.5 5t25.5 19.5t7 44.5v463q0 30 -7 44t-25.5 19.5t-57.5 5.5q-3 0 -3 6t3 6l49 -1q42 -2 67 -2q28 0 70 2l47 1q2 0 2 -6t-2 -6q-39 0 -57.5 -6
t-25 -20.5t-6.5 -44.5v-461q0 -31 6.5 -45zM41 756q-7 1 5.5 8.5t29 13.5t20.5 4q40 -23 84.5 -48t87.5 -45q2 -1 2 -4t-2 -5t-4 -1q-113 50 -223 77z" />
    <glyph glyph-name="uni1EC8" unicode="&#x1ec8;" horiz-adv-x="330" 
d="M198.5 36q6.5 -14 24.5 -19t58 -5q2 0 2 -6t-2 -6q-30 0 -47 1l-70 1l-67 -1q-18 -1 -49 -1q-3 0 -3 6t3 6q39 0 57.5 5t25.5 19.5t7 44.5v463q0 30 -7 44t-25.5 19.5t-57.5 5.5q-3 0 -3 6t3 6l49 -1q42 -2 67 -2q28 0 70 2l47 1q2 0 2 -6t-2 -6q-39 0 -57.5 -6
t-25 -20.5t-6.5 -44.5v-461q0 -31 6.5 -45zM163.5 649q-5.5 0 -6.5 2q-3 12 -3 21q0 15 6 27t17 30q11 15 16 26t5 23q0 19 -13.5 30t-32.5 11q-12 0 -26 -6h-1q-3 0 -6 3.5t0 4.5q31 19 61 19q29 0 45.5 -15t16.5 -37q0 -18 -9 -31t-30 -35q-18 -17 -27.5 -30.5t-9.5 -28.5
q0 -4 2 -12q1 -2 -4.5 -2z" />
    <glyph glyph-name="Imacron" unicode="&#x12a;" horiz-adv-x="330" 
d="M198.5 36q6.5 -14 24.5 -19t58 -5q2 0 2 -6t-2 -6q-30 0 -47 1l-70 1l-67 -1q-18 -1 -49 -1q-3 0 -3 6t3 6q39 0 57.5 5t25.5 19.5t7 44.5v463q0 30 -7 44t-25.5 19.5t-57.5 5.5q-3 0 -3 6t3 6l49 -1q42 -2 67 -2q28 0 70 2l47 1q2 0 2 -6t-2 -6q-39 0 -57.5 -6
t-25 -20.5t-6.5 -44.5v-461q0 -31 6.5 -45zM35.5 728q-1.5 4 -1.5 9q0 13 5 13h251q5 0 5 -13t-5 -13h-251q-2 0 -3.5 4z" />
    <glyph glyph-name="Iogonek" unicode="&#x12e;" horiz-adv-x="330" 
d="M283 6q0 -6 -2 -6q-28 0 -44 1l-62 1q-57 -70 -57 -152q0 -46 21.5 -72t61.5 -26q18 0 29 5.5t18.5 12t10.5 8.5h1q3 0 5.5 -3t0.5 -5q-25 -24 -47 -34.5t-47 -10.5q-48 0 -75 26t-27 70t22.5 90t66.5 91l-64 -1q-17 -1 -47 -1q-3 0 -3 6t3 6q39 0 57.5 5t25.5 19.5
t7 44.5v463q0 30 -7 44t-25.5 19.5t-57.5 5.5q-3 0 -3 6t3 6l49 -1q42 -2 67 -2q28 0 70 2l47 1q2 0 2 -6t-2 -6q-39 0 -57.5 -6t-25 -20.5t-6.5 -44.5v-461q0 -31 6.5 -45t24.5 -19t58 -5q2 0 2 -6z" />
    <glyph glyph-name="Itilde" unicode="&#x128;" horiz-adv-x="330" 
d="M198.5 36q6.5 -14 24.5 -19t58 -5q2 0 2 -6t-2 -6q-30 0 -47 1l-70 1l-67 -1q-18 -1 -49 -1q-3 0 -3 6t3 6q39 0 57.5 5t25.5 19.5t7 44.5v463q0 30 -7 44t-25.5 19.5t-57.5 5.5q-3 0 -3 6t3 6l49 -1q42 -2 67 -2q28 0 70 2l47 1q2 0 2 -6t-2 -6q-39 0 -57.5 -6
t-25 -20.5t-6.5 -44.5v-461q0 -31 6.5 -45zM38 697q-3 0 -5.5 2.5t-0.5 4.5q16 22 38.5 40t45.5 18q17 0 52 -11q44 -14 74 -14q17 0 27.5 7t21.5 20h2q3 0 5 -2.5t0 -4.5q-26 -34 -43 -45.5t-35 -11.5q-15 0 -31 3.5t-32 8.5q-42 12 -69 12q-16 0 -24.5 -5.5t-15 -12
l-9.5 -9.5h-1z" />
    <glyph glyph-name="J" unicode="J" horiz-adv-x="318" 
d="M277 619q0 -6 -2 -6q-34 0 -50 -6t-21.5 -20.5t-5.5 -44.5v-576q0 -96 -43.5 -153t-127.5 -57q-33 0 -51.5 10.5t-18.5 27.5q0 13 7.5 21t21.5 8q15 0 23 -6t18 -18q8 -12 16 -18t22 -6q39 0 59 43.5t20 138.5v587q0 30 -7.5 44t-28.5 19.5t-66 5.5q-2 0 -2 6t2 6l57 -1
q46 -2 71 -2t63 2l42 1q2 0 2 -6z" />
    <glyph glyph-name="Jcircumflex" unicode="&#x134;" horiz-adv-x="318" 
d="M277 619q0 -6 -2 -6q-34 0 -50 -6t-21.5 -20.5t-5.5 -44.5v-576q0 -96 -43.5 -153t-127.5 -57q-33 0 -51.5 10.5t-18.5 27.5q0 13 7.5 21t21.5 8q15 0 23 -6t18 -18q8 -12 16 -18t22 -6q39 0 59 43.5t20 138.5v587q0 30 -7.5 44t-28.5 19.5t-66 5.5q-2 0 -2 6t2 6l57 -1
q46 -2 71 -2t63 2l42 1q2 0 2 -6zM149 794q5 5 12 5q6 0 11 -5l102 -93q1 0 1 -2t-2.5 -4t-3.5 -1l-108 62l-109 -62q-2 -1 -5 2.5t-1 4.5z" />
    <glyph glyph-name="K" unicode="K" horiz-adv-x="649" 
d="M638 6q0 -6 -3 -6h-112q-35 0 -42 4t-36.5 46t-71.5 95l-159 197l-35 -34v-227q0 -31 6.5 -45t24.5 -19t58 -5q2 0 2 -6t-2 -6q-30 0 -48 1l-68 1l-66 -1q-18 -1 -50 -1q-2 0 -2 6t2 6q39 0 57.5 5t25.5 19.5t7 44.5v463q0 30 -6.5 44t-25 19.5t-57.5 5.5q-2 0 -2 6t2 6
l49 -1q42 -2 66 -2q27 0 69 2l47 1q2 0 2 -6t-2 -6q-39 0 -57.5 -6t-25 -20.5t-6.5 -44.5v-211l220 219q34 34 34 47q0 9 -13.5 12.5t-44.5 3.5q-2 0 -2 6t2 6l42 -1q38 -2 71 -2q31 0 65 2l35 1q3 0 3 -6t-3 -6q-41 0 -84.5 -15.5t-81.5 -53.5l-170 -166l143 -180
q76 -95 116 -134t61 -45.5t63 -6.5q3 0 3 -6z" />
    <glyph glyph-name="uni1E30" unicode="&#x1e30;" horiz-adv-x="649" 
d="M638 6q0 -6 -3 -6h-112q-35 0 -42 4t-36.5 46t-71.5 95l-159 197l-35 -34v-227q0 -31 6.5 -45t24.5 -19t58 -5q2 0 2 -6t-2 -6q-30 0 -48 1l-68 1l-66 -1q-18 -1 -50 -1q-2 0 -2 6t2 6q39 0 57.5 5t25.5 19.5t7 44.5v463q0 30 -6.5 44t-25 19.5t-57.5 5.5q-2 0 -2 6t2 6
l49 -1q42 -2 66 -2q27 0 69 2l47 1q2 0 2 -6t-2 -6q-39 0 -57.5 -6t-25 -20.5t-6.5 -44.5v-211l220 219q34 34 34 47q0 9 -13.5 12.5t-44.5 3.5q-2 0 -2 6t2 6l42 -1q38 -2 71 -2q31 0 65 2l35 1q3 0 3 -6t-3 -6q-41 0 -84.5 -15.5t-81.5 -53.5l-170 -166l143 -180
q76 -95 116 -134t61 -45.5t63 -6.5q3 0 3 -6zM226 678q-4 0 -5 4.5t2 6.5q46 21 122 65l50 28q4 2 20.5 -4t29 -13.5t5.5 -8.5q-62 -15 -113.5 -33.5t-108.5 -43.5z" />
    <glyph glyph-name="uni01E8" unicode="&#x1e8;" horiz-adv-x="649" 
d="M638 6q0 -6 -3 -6h-112q-35 0 -42 4t-36.5 46t-71.5 95l-159 197l-35 -34v-227q0 -31 6.5 -45t24.5 -19t58 -5q2 0 2 -6t-2 -6q-30 0 -48 1l-68 1l-66 -1q-18 -1 -50 -1q-2 0 -2 6t2 6q39 0 57.5 5t25.5 19.5t7 44.5v463q0 30 -6.5 44t-25 19.5t-57.5 5.5q-2 0 -2 6t2 6
l49 -1q42 -2 66 -2q27 0 69 2l47 1q2 0 2 -6t-2 -6q-39 0 -57.5 -6t-25 -20.5t-6.5 -44.5v-211l220 219q34 34 34 47q0 9 -13.5 12.5t-44.5 3.5q-2 0 -2 6t2 6l42 -1q38 -2 71 -2q31 0 65 2l35 1q3 0 3 -6t-3 -6q-41 0 -84.5 -15.5t-81.5 -53.5l-170 -166l143 -180
q76 -95 116 -134t61 -45.5t63 -6.5q3 0 3 -6zM210 779l-1 2q0 2 3 4t4 1l109 -62l108 62l2 1q2 0 3.5 -3.5t-0.5 -4.5l-102 -92q-4 -4 -11 -4q-8 0 -12 4z" />
    <glyph glyph-name="Kcommaaccent" unicode="&#x136;" horiz-adv-x="649" 
d="M638 6q0 -6 -3 -6h-112q-35 0 -42 4t-36.5 46t-71.5 95l-159 197l-35 -34v-227q0 -31 6.5 -45t24.5 -19t58 -5q2 0 2 -6t-2 -6q-30 0 -48 1l-68 1l-66 -1q-18 -1 -50 -1q-2 0 -2 6t2 6q39 0 57.5 5t25.5 19.5t7 44.5v463q0 30 -6.5 44t-25 19.5t-57.5 5.5q-2 0 -2 6t2 6
l49 -1q42 -2 66 -2q27 0 69 2l47 1q2 0 2 -6t-2 -6q-39 0 -57.5 -6t-25 -20.5t-6.5 -44.5v-211l220 219q34 34 34 47q0 9 -13.5 12.5t-44.5 3.5q-2 0 -2 6t2 6l42 -1q38 -2 71 -2q31 0 65 2l35 1q3 0 3 -6t-3 -6q-41 0 -84.5 -15.5t-81.5 -53.5l-170 -166l143 -180
q76 -95 116 -134t61 -45.5t63 -6.5q3 0 3 -6zM375.5 -107q13.5 -18 13.5 -53q0 -32 -14.5 -59.5t-42.5 -55.5q-1 -1 -3 -1q-3 0 -5 3.5t0 4.5q43 40 43 95q0 18 -5 28q-6 -14 -28 -14q-17 0 -26.5 9.5t-9.5 25.5q0 35 38 35q26 0 39.5 -18z" />
    <glyph glyph-name="L" unicode="L" horiz-adv-x="530" 
d="M178 85q0 -29 6.5 -42.5t24 -18.5t55.5 -5h128q99 0 117 127q0 3 5.5 2.5t5.5 -3.5q-9 -79 -9 -130q0 -8 -3 -11.5t-12 -3.5h-460q-2 0 -2 6t2 6q39 0 57.5 5t25 19.5t6.5 44.5v463q0 30 -6.5 44t-25 19.5t-57.5 5.5q-2 0 -2 6t2 6l49 -1q42 -2 66 -2q27 0 69 2l47 1
q2 0 2 -6t-2 -6q-39 0 -57.5 -5.5t-25 -20t-6.5 -44.5v-458z" />
    <glyph glyph-name="Lacute" unicode="&#x139;" horiz-adv-x="530" 
d="M178 85q0 -29 6.5 -42.5t24 -18.5t55.5 -5h128q99 0 117 127q0 3 5.5 2.5t5.5 -3.5q-9 -79 -9 -130q0 -8 -3 -11.5t-12 -3.5h-460q-2 0 -2 6t2 6q39 0 57.5 5t25 19.5t6.5 44.5v463q0 30 -6.5 44t-25 19.5t-57.5 5.5q-2 0 -2 6t2 6l49 -1q42 -2 66 -2q27 0 69 2l47 1
q2 0 2 -6t-2 -6q-39 0 -57.5 -5.5t-25 -20t-6.5 -44.5v-458zM58 678q-4 0 -5 4.5t2 6.5q46 21 122 65l50 28q4 2 20.5 -4t29 -13.5t5.5 -8.5q-62 -15 -113.5 -33.5t-108.5 -43.5z" />
    <glyph glyph-name="Lcaron" unicode="&#x13d;" horiz-adv-x="530" 
d="M178 85q0 -29 6.5 -42.5t24 -18.5t55.5 -5h128q99 0 117 127q0 3 5.5 2.5t5.5 -3.5q-9 -79 -9 -130q0 -8 -3 -11.5t-12 -3.5h-460q-2 0 -2 6t2 6q39 0 57.5 5t25 19.5t6.5 44.5v463q0 30 -6.5 44t-25 19.5t-57.5 5.5q-2 0 -2 6t2 6l49 -1q42 -2 66 -2q27 0 69 2l47 1
q2 0 2 -6t-2 -6q-39 0 -57.5 -5.5t-25 -20t-6.5 -44.5v-458zM364 624.5q11 -5.5 22 -14.5t11 -13l-25 -245q0 -2 -5.5 -1.5t-5.5 2.5l-8 272q0 5 11 -0.5z" />
    <glyph glyph-name="Lcommaaccent" unicode="&#x13b;" horiz-adv-x="530" 
d="M178 85q0 -29 6.5 -42.5t24 -18.5t55.5 -5h128q99 0 117 127q0 3 5.5 2.5t5.5 -3.5q-9 -79 -9 -130q0 -8 -3 -11.5t-12 -3.5h-460q-2 0 -2 6t2 6q39 0 57.5 5t25 19.5t6.5 44.5v463q0 30 -6.5 44t-25 19.5t-57.5 5.5q-2 0 -2 6t2 6l49 -1q42 -2 66 -2q27 0 69 2l47 1
q2 0 2 -6t-2 -6q-39 0 -57.5 -5.5t-25 -20t-6.5 -44.5v-458zM330.5 -107q13.5 -18 13.5 -53q0 -32 -14.5 -59.5t-42.5 -55.5q-1 -1 -3 -1q-3 0 -5 3.5t0 4.5q43 40 43 95q0 18 -5 28q-6 -14 -28 -14q-17 0 -26.5 9.5t-9.5 25.5q0 35 38 35q26 0 39.5 -18z" />
    <glyph glyph-name="Ldot" unicode="&#x13f;" horiz-adv-x="530" 
d="M178 85q0 -29 6.5 -42.5t24 -18.5t55.5 -5h128q99 0 117 127q0 3 5.5 2.5t5.5 -3.5q-9 -79 -9 -130q0 -8 -3 -11.5t-12 -3.5h-460q-2 0 -2 6t2 6q39 0 57.5 5t25 19.5t6.5 44.5v463q0 30 -6.5 44t-25 19.5t-57.5 5.5q-2 0 -2 6t2 6l49 -1q42 -2 66 -2q27 0 69 2l47 1
q2 0 2 -6t-2 -6q-39 0 -57.5 -5.5t-25 -20t-6.5 -44.5v-458zM400 294.5q-11 10.5 -11 28.5q0 17 11 27t29 10q19 0 29 -10t10 -27q0 -18 -10 -28.5t-29 -10.5q-18 0 -29 10.5z" />
    <glyph glyph-name="uni1E36" unicode="&#x1e36;" horiz-adv-x="530" 
d="M178 85q0 -29 6.5 -42.5t24 -18.5t55.5 -5h128q99 0 117 127q0 3 5.5 2.5t5.5 -3.5q-9 -79 -9 -130q0 -8 -3 -11.5t-12 -3.5h-460q-2 0 -2 6t2 6q39 0 57.5 5t25 19.5t6.5 44.5v463q0 30 -6.5 44t-25 19.5t-57.5 5.5q-2 0 -2 6t2 6l49 -1q42 -2 66 -2q27 0 69 2l47 1
q2 0 2 -6t-2 -6q-39 0 -57.5 -5.5t-25 -20t-6.5 -44.5v-458zM269.5 -176q-10.5 10 -10.5 28t10.5 28t29.5 10q18 0 28 -10t10 -28t-10 -28t-28 -10q-19 0 -29.5 10z" />
    <glyph glyph-name="uni1E38" unicode="&#x1e38;" horiz-adv-x="530" 
d="M178 85q0 -29 6.5 -42.5t24 -18.5t55.5 -5h128q99 0 117 127q0 3 5.5 2.5t5.5 -3.5q-9 -79 -9 -130q0 -8 -3 -11.5t-12 -3.5h-460q-2 0 -2 6t2 6q39 0 57.5 5t25 19.5t6.5 44.5v463q0 30 -6.5 44t-25 19.5t-57.5 5.5q-2 0 -2 6t2 6l49 -1q42 -2 66 -2q27 0 69 2l47 1
q2 0 2 -6t-2 -6q-39 0 -57.5 -5.5t-25 -20t-6.5 -44.5v-458zM269.5 -176q-10.5 10 -10.5 28t10.5 28t29.5 10q18 0 28 -10t10 -28t-10 -28t-28 -10q-19 0 -29.5 10zM26 737q0 13 5 13h251q5 0 5 -13q0 -5 -1.5 -9t-3.5 -4h-251q-5 0 -5 13z" />
    <glyph glyph-name="uni1E3A" unicode="&#x1e3a;" horiz-adv-x="530" 
d="M178 85q0 -29 6.5 -42.5t24 -18.5t55.5 -5h128q99 0 117 127q0 3 5.5 2.5t5.5 -3.5q-9 -79 -9 -130q0 -8 -3 -11.5t-12 -3.5h-460q-2 0 -2 6t2 6q39 0 57.5 5t25 19.5t6.5 44.5v463q0 30 -6.5 44t-25 19.5t-57.5 5.5q-2 0 -2 6t2 6l49 -1q42 -2 66 -2q27 0 69 2l47 1
q2 0 2 -6t-2 -6q-39 0 -57.5 -5.5t-25 -20t-6.5 -44.5v-458zM167 -98q0 13 5 13h251q2 0 3.5 -4t1.5 -9q0 -13 -5 -13h-251q-5 0 -5 13z" />
    <glyph glyph-name="Lslash" unicode="&#x141;" horiz-adv-x="518" 
d="M514.5 148.5q5.5 -0.5 5.5 -3.5q-9 -79 -9 -130q0 -8 -3 -11.5t-12 -3.5h-460q-2 0 -2 6t2 6q39 0 57.5 5t25 19.5t6.5 44.5v188l-51 -29h-1q-4 0 -8 7.5t-1 8.5l61 35v253q0 30 -6.5 44t-25 19.5t-57.5 5.5q-2 0 -2 6t2 6l49 -1q42 -2 66 -2q27 0 69 2l47 1q2 0 2 -6
t-2 -6q-39 0 -57.5 -5.5t-25 -20t-6.5 -44.5v-221l105 60h1q4 0 8 -7.5t0 -8.5l-114 -66v-215q0 -29 6.5 -42.5t24 -18.5t55.5 -5h128q99 0 117 127q0 3 5.5 2.5z" />
    <glyph glyph-name="M" unicode="M" horiz-adv-x="830" 
d="M810 6q0 -6 -3 -6q-31 0 -49 1l-67 1l-62 -1q-15 -1 -42 -1q-2 0 -2 6t2 6q35 0 51.5 5.5t22 19.5t3.5 44l-17 465l-234 -539q-2 -4 -8 -4q-5 0 -9 4l-244 535l-1 2l-8 -440q-1 -52 17 -72t67 -20q2 0 2 -6t-2 -6q-28 0 -43 1l-54 1l-49 -1q-13 -1 -39 -1q-2 0 -2 6t2 6
q42 0 59.5 20.5t18.5 71.5l10 474q-31 35 -81 35q-2 0 -2 6t2 6l34 -1q10 -1 26 -1t27 1t17 1q14 0 22 -9.5t24 -42.5l225 -486l224 513q5 11 13.5 18t16.5 7q4 0 13 -1t25 -1l45 1q10 1 31 1q2 0 2 -6t-2 -6q-52 0 -73.5 -13.5t-20.5 -53.5l19 -465q1 -31 7.5 -45t25 -19
t57.5 -5q3 0 3 -6z" />
    <glyph glyph-name="uni1E40" unicode="&#x1e40;" horiz-adv-x="830" 
d="M810 6q0 -6 -3 -6q-31 0 -49 1l-67 1l-62 -1q-15 -1 -42 -1q-2 0 -2 6t2 6q35 0 51.5 5.5t22 19.5t3.5 44l-17 465l-234 -539q-2 -4 -8 -4q-5 0 -9 4l-244 535l-1 2l-8 -440q-1 -52 17 -72t67 -20q2 0 2 -6t-2 -6q-28 0 -43 1l-54 1l-49 -1q-13 -1 -39 -1q-2 0 -2 6t2 6
q42 0 59.5 20.5t18.5 71.5l10 474q-31 35 -81 35q-2 0 -2 6t2 6l34 -1q10 -1 26 -1t27 1t17 1q14 0 22 -9.5t24 -42.5l225 -486l224 513q5 11 13.5 18t16.5 7q4 0 13 -1t25 -1l45 1q10 1 31 1q2 0 2 -6t-2 -6q-52 0 -73.5 -13.5t-20.5 -53.5l19 -465q1 -31 7.5 -45t25 -19
t57.5 -5q3 0 3 -6zM385.5 723q-10.5 10 -10.5 29q0 17 10.5 27t29.5 10q18 0 28 -10t10 -27q0 -19 -10 -29t-28 -10q-19 0 -29.5 10z" />
    <glyph glyph-name="uni1E42" unicode="&#x1e42;" horiz-adv-x="830" 
d="M810 6q0 -6 -3 -6q-31 0 -49 1l-67 1l-62 -1q-15 -1 -42 -1q-2 0 -2 6t2 6q35 0 51.5 5.5t22 19.5t3.5 44l-17 465l-234 -539q-2 -4 -8 -4q-5 0 -9 4l-244 535l-1 2l-8 -440q-1 -52 17 -72t67 -20q2 0 2 -6t-2 -6q-28 0 -43 1l-54 1l-49 -1q-13 -1 -39 -1q-2 0 -2 6t2 6
q42 0 59.5 20.5t18.5 71.5l10 474q-31 35 -81 35q-2 0 -2 6t2 6l34 -1q10 -1 26 -1t27 1t17 1q14 0 22 -9.5t24 -42.5l225 -486l224 513q5 11 13.5 18t16.5 7q4 0 13 -1t25 -1l45 1q10 1 31 1q2 0 2 -6t-2 -6q-52 0 -73.5 -13.5t-20.5 -53.5l19 -465q1 -31 7.5 -45t25 -19
t57.5 -5q3 0 3 -6zM377.5 -176q-10.5 10 -10.5 28t10.5 28t29.5 10q18 0 28 -10t10 -28t-10 -28t-28 -10q-19 0 -29.5 10z" />
    <glyph glyph-name="N" unicode="N" horiz-adv-x="725" 
d="M702 619q0 -6 -3 -6q-43 0 -60.5 -21t-17.5 -72v-531q0 -2 -5 -3t-7 1l-452 556l-17 19v-458q0 -51 17 -71.5t59 -20.5q3 0 3 -6t-3 -6q-24 0 -37 1l-48 1l-49 -1q-13 -1 -39 -1q-2 0 -2 6t2 6q43 0 59 20t16 72v479q-35 30 -72 30q-3 0 -3 6t3 6l36 -1q11 -1 31 -1
q17 0 28 1t17 1q7 0 11.5 -3.5t10.5 -14.5q11 -18 24 -34l395 -491v438q0 51 -16 72t-58 21q-2 0 -2 6t2 6l38 -1q30 -2 48 -2q17 0 49 2l39 1q3 0 3 -6z" />
    <glyph glyph-name="Nacute" unicode="&#x143;" horiz-adv-x="725" 
d="M702 619q0 -6 -3 -6q-43 0 -60.5 -21t-17.5 -72v-531q0 -2 -5 -3t-7 1l-452 556l-17 19v-458q0 -51 17 -71.5t59 -20.5q3 0 3 -6t-3 -6q-24 0 -37 1l-48 1l-49 -1q-13 -1 -39 -1q-2 0 -2 6t2 6q43 0 59 20t16 72v479q-35 30 -72 30q-3 0 -3 6t3 6l36 -1q11 -1 31 -1
q17 0 28 1t17 1q7 0 11.5 -3.5t10.5 -14.5q11 -18 24 -34l395 -491v438q0 51 -16 72t-58 21q-2 0 -2 6t2 6l38 -1q30 -2 48 -2q17 0 49 2l39 1q3 0 3 -6zM275 678q-4 0 -5 4.5t2 6.5q46 21 122 65l50 28q4 2 20.5 -4t29 -13.5t5.5 -8.5q-62 -15 -113.5 -33.5t-108.5 -43.5z
" />
    <glyph glyph-name="Ncaron" unicode="&#x147;" horiz-adv-x="725" 
d="M702 619q0 -6 -3 -6q-43 0 -60.5 -21t-17.5 -72v-531q0 -2 -5 -3t-7 1l-452 556l-17 19v-458q0 -51 17 -71.5t59 -20.5q3 0 3 -6t-3 -6q-24 0 -37 1l-48 1l-49 -1q-13 -1 -39 -1q-2 0 -2 6t2 6q43 0 59 20t16 72v479q-35 30 -72 30q-3 0 -3 6t3 6l36 -1q11 -1 31 -1
q17 0 28 1t17 1q7 0 11.5 -3.5t10.5 -14.5q11 -18 24 -34l395 -491v438q0 51 -16 72t-58 21q-2 0 -2 6t2 6l38 -1q30 -2 48 -2q17 0 49 2l39 1q3 0 3 -6zM259 779l-1 2q0 2 3 4t4 1l109 -62l108 62l2 1q2 0 3.5 -3.5t-0.5 -4.5l-102 -92q-4 -4 -11 -4q-8 0 -12 4z" />
    <glyph glyph-name="Ncommaaccent" unicode="&#x145;" horiz-adv-x="725" 
d="M702 619q0 -6 -3 -6q-43 0 -60.5 -21t-17.5 -72v-531q0 -2 -5 -3t-7 1l-452 556l-17 19v-458q0 -51 17 -71.5t59 -20.5q3 0 3 -6t-3 -6q-24 0 -37 1l-48 1l-49 -1q-13 -1 -39 -1q-2 0 -2 6t2 6q43 0 59 20t16 72v479q-35 30 -72 30q-3 0 -3 6t3 6l36 -1q11 -1 31 -1
q17 0 28 1t17 1q7 0 11.5 -3.5t10.5 -14.5q11 -18 24 -34l395 -491v438q0 51 -16 72t-58 21q-2 0 -2 6t2 6l38 -1q30 -2 48 -2q17 0 49 2l39 1q3 0 3 -6zM406.5 -107q13.5 -18 13.5 -53q0 -32 -14.5 -59.5t-42.5 -55.5q-1 -1 -3 -1q-3 0 -5 3.5t0 4.5q43 40 43 95
q0 18 -5 28q-6 -14 -28 -14q-17 0 -26.5 9.5t-9.5 25.5q0 35 38 35q26 0 39.5 -18z" />
    <glyph glyph-name="uni1E44" unicode="&#x1e44;" horiz-adv-x="725" 
d="M702 619q0 -6 -3 -6q-43 0 -60.5 -21t-17.5 -72v-531q0 -2 -5 -3t-7 1l-452 556l-17 19v-458q0 -51 17 -71.5t59 -20.5q3 0 3 -6t-3 -6q-24 0 -37 1l-48 1l-49 -1q-13 -1 -39 -1q-2 0 -2 6t2 6q43 0 59 20t16 72v479q-35 30 -72 30q-3 0 -3 6t3 6l36 -1q11 -1 31 -1
q17 0 28 1t17 1q7 0 11.5 -3.5t10.5 -14.5q11 -18 24 -34l395 -491v438q0 51 -16 72t-58 21q-2 0 -2 6t2 6l38 -1q30 -2 48 -2q17 0 49 2l39 1q3 0 3 -6zM344.5 723q-10.5 10 -10.5 29q0 17 10.5 27t29.5 10q18 0 28 -10t10 -27q0 -19 -10 -29t-28 -10q-19 0 -29.5 10z" />
    <glyph glyph-name="uni1E46" unicode="&#x1e46;" horiz-adv-x="725" 
d="M702 619q0 -6 -3 -6q-43 0 -60.5 -21t-17.5 -72v-531q0 -2 -5 -3t-7 1l-452 556l-17 19v-458q0 -51 17 -71.5t59 -20.5q3 0 3 -6t-3 -6q-24 0 -37 1l-48 1l-49 -1q-13 -1 -39 -1q-2 0 -2 6t2 6q43 0 59 20t16 72v479q-35 30 -72 30q-3 0 -3 6t3 6l36 -1q11 -1 31 -1
q17 0 28 1t17 1q7 0 11.5 -3.5t10.5 -14.5q11 -18 24 -34l395 -491v438q0 51 -16 72t-58 21q-2 0 -2 6t2 6l38 -1q30 -2 48 -2q17 0 49 2l39 1q3 0 3 -6zM345.5 -176q-10.5 10 -10.5 28t10.5 28t29.5 10q18 0 28 -10t10 -28t-10 -28t-28 -10q-19 0 -29.5 10z" />
    <glyph glyph-name="Eng" unicode="&#x14a;" horiz-adv-x="725" 
d="M702 619q0 -6 -3 -6q-43 0 -60.5 -21t-17.5 -72v-531q0 -89 -32 -134.5t-94 -45.5q-33 0 -54.5 16t-21.5 39q0 15 7 23.5t20 8.5t19.5 -7.5t13.5 -24.5q7 -18 15 -27.5t26 -9.5q38 0 59.5 43.5t21.5 115.5v11l-444 546l-17 19v-458q0 -51 17 -71.5t59 -20.5q3 0 3 -6
t-3 -6q-24 0 -37 1l-48 1l-49 -1q-13 -1 -39 -1q-2 0 -2 6t2 6q43 0 60 20.5t17 71.5v478q-36 31 -74 31q-3 0 -3 6t3 6l36 -1q11 -1 31 -1q17 0 28 1t17 1q7 0 11.5 -3.5t10.5 -14.5q11 -18 24 -34l397 -493v440q0 51 -17 72t-59 21q-2 0 -2 6t2 6l38 -1q30 -2 48 -2
q17 0 49 2l39 1q3 0 3 -6z" />
    <glyph glyph-name="uni1E48" unicode="&#x1e48;" horiz-adv-x="725" 
d="M702 619q0 -6 -3 -6q-43 0 -60.5 -21t-17.5 -72v-531q0 -2 -5 -3t-7 1l-452 556l-17 19v-458q0 -51 17 -71.5t59 -20.5q3 0 3 -6t-3 -6q-24 0 -37 1l-48 1l-49 -1q-13 -1 -39 -1q-2 0 -2 6t2 6q43 0 59 20t16 72v479q-35 30 -72 30q-3 0 -3 6t3 6l36 -1q11 -1 31 -1
q17 0 28 1t17 1q7 0 11.5 -3.5t10.5 -14.5q11 -18 24 -34l395 -491v438q0 51 -16 72t-58 21q-2 0 -2 6t2 6l38 -1q30 -2 48 -2q17 0 49 2l39 1q3 0 3 -6zM243 -98q0 13 5 13h251q2 0 3.5 -4t1.5 -9q0 -13 -5 -13h-251q-5 0 -5 13z" />
    <glyph glyph-name="Ntilde" unicode="&#xd1;" horiz-adv-x="725" 
d="M702 619q0 -6 -3 -6q-43 0 -60.5 -21t-17.5 -72v-531q0 -2 -5 -3t-7 1l-452 556l-17 19v-458q0 -51 17 -71.5t59 -20.5q3 0 3 -6t-3 -6q-24 0 -37 1l-48 1l-49 -1q-13 -1 -39 -1q-2 0 -2 6t2 6q43 0 59 20t16 72v479q-35 30 -72 30q-3 0 -3 6t3 6l36 -1q11 -1 31 -1
q17 0 28 1t17 1q7 0 11.5 -3.5t10.5 -14.5q11 -18 24 -34l395 -491v438q0 51 -16 72t-58 21q-2 0 -2 6t2 6l38 -1q30 -2 48 -2q17 0 49 2l39 1q3 0 3 -6zM478.5 744q10.5 7 21.5 20h2q3 0 5 -2.5t0 -4.5q-26 -34 -43 -45.5t-35 -11.5q-15 0 -31 3.5t-32 8.5q-42 12 -69 12
q-16 0 -24.5 -5.5t-15 -12l-9.5 -9.5h-1q-3 0 -5.5 2.5t-0.5 4.5q16 22 38.5 40t45.5 18q17 0 52 -11q44 -14 74 -14q17 0 27.5 7z" />
    <glyph glyph-name="O" unicode="O" horiz-adv-x="766" 
d="M200.5 31.5q-72.5 43.5 -112 118t-39.5 162.5q0 103 52 176.5t133.5 110.5t166.5 37q95 0 167 -44.5t110.5 -117.5t38.5 -155q0 -91 -48 -167t-128.5 -120t-174.5 -44q-93 0 -165.5 43.5zM530 41q57 33 90 97t33 153q0 94 -36.5 167.5t-103 114.5t-154.5 41
q-116 0 -181 -72t-65 -196q0 -93 36.5 -170.5t102.5 -122.5t150 -45q71 0 128 33z" />
    <glyph glyph-name="Oacute" unicode="&#xd3;" horiz-adv-x="766" 
d="M200.5 31.5q-72.5 43.5 -112 118t-39.5 162.5q0 103 52 176.5t133.5 110.5t166.5 37q95 0 167 -44.5t110.5 -117.5t38.5 -155q0 -91 -48 -167t-128.5 -120t-174.5 -44q-93 0 -165.5 43.5zM530 41q57 33 90 97t33 153q0 94 -36.5 167.5t-103 114.5t-154.5 41
q-116 0 -181 -72t-65 -196q0 -93 36.5 -170.5t102.5 -122.5t150 -45q71 0 128 33zM285 678q-4 0 -5 4.5t2 6.5q46 21 122 65l50 28q4 2 20.5 -4t29 -13.5t5.5 -8.5q-62 -15 -113.5 -33.5t-108.5 -43.5z" />
    <glyph glyph-name="Obreve" unicode="&#x14e;" horiz-adv-x="766" 
d="M200.5 31.5q-72.5 43.5 -112 118t-39.5 162.5q0 103 52 176.5t133.5 110.5t166.5 37q95 0 167 -44.5t110.5 -117.5t38.5 -155q0 -91 -48 -167t-128.5 -120t-174.5 -44q-93 0 -165.5 43.5zM530 41q57 33 90 97t33 153q0 94 -36.5 167.5t-103 114.5t-154.5 41
q-116 0 -181 -72t-65 -196q0 -93 36.5 -170.5t102.5 -122.5t150 -45q71 0 128 33zM316.5 716.5q-26.5 26.5 -35.5 75.5q-1 4 4 4.5t7 -1.5q8 -30 35 -50.5t57 -20.5t56.5 21t34.5 50q0 2 4 2q3 0 5.5 -1.5t1.5 -3.5q-9 -49 -35 -75.5t-67 -26.5t-67.5 26.5z" />
    <glyph glyph-name="uni01D1" unicode="&#x1d1;" horiz-adv-x="766" 
d="M200.5 31.5q-72.5 43.5 -112 118t-39.5 162.5q0 103 52 176.5t133.5 110.5t166.5 37q95 0 167 -44.5t110.5 -117.5t38.5 -155q0 -91 -48 -167t-128.5 -120t-174.5 -44q-93 0 -165.5 43.5zM530 41q57 33 90 97t33 153q0 94 -36.5 167.5t-103 114.5t-154.5 41
q-116 0 -181 -72t-65 -196q0 -93 36.5 -170.5t102.5 -122.5t150 -45q71 0 128 33zM269 779l-1 2q0 2 3 4t4 1l109 -62l108 62l2 1q2 0 3.5 -3.5t-0.5 -4.5l-102 -92q-4 -4 -11 -4q-8 0 -12 4z" />
    <glyph glyph-name="Ocircumflex" unicode="&#xd4;" horiz-adv-x="766" 
d="M200.5 31.5q-72.5 43.5 -112 118t-39.5 162.5q0 103 52 176.5t133.5 110.5t166.5 37q95 0 167 -44.5t110.5 -117.5t38.5 -155q0 -91 -48 -167t-128.5 -120t-174.5 -44q-93 0 -165.5 43.5zM530 41q57 33 90 97t33 153q0 94 -36.5 167.5t-103 114.5t-154.5 41
q-116 0 -181 -72t-65 -196q0 -93 36.5 -170.5t102.5 -122.5t150 -45q71 0 128 33zM373 783q5 5 12 5q6 0 11 -5l102 -93q1 0 1 -2t-2.5 -4t-3.5 -1l-108 62l-109 -62q-2 -1 -5 2.5t-1 4.5z" />
    <glyph glyph-name="uni1ED0" unicode="&#x1ed0;" horiz-adv-x="766" 
d="M200.5 31.5q-72.5 43.5 -112 118t-39.5 162.5q0 103 52 176.5t133.5 110.5t166.5 37q95 0 167 -44.5t110.5 -117.5t38.5 -155q0 -91 -48 -167t-128.5 -120t-174.5 -44q-93 0 -165.5 43.5zM530 41q57 33 90 97t33 153q0 94 -36.5 167.5t-103 114.5t-154.5 41
q-116 0 -181 -72t-65 -196q0 -93 36.5 -170.5t102.5 -122.5t150 -45q71 0 128 33zM372 747q5 5 11 5q7 0 12 -5l102 -92q1 0 1 -2t-2.5 -4t-3.5 -1l-108 62l-109 -62q-2 -1 -5 2.5t-1 4.5zM447 717q-3 0 -4.5 3.5t0.5 5.5q39 39 81 95q3 3 19.5 -3t29.5 -14t6 -9
q-36 -15 -65.5 -33t-63.5 -44q-1 -1 -3 -1z" />
    <glyph glyph-name="uni1ED8" unicode="&#x1ed8;" horiz-adv-x="766" 
d="M200.5 31.5q-72.5 43.5 -112 118t-39.5 162.5q0 103 52 176.5t133.5 110.5t166.5 37q95 0 167 -44.5t110.5 -117.5t38.5 -155q0 -91 -48 -167t-128.5 -120t-174.5 -44q-93 0 -165.5 43.5zM530 41q57 33 90 97t33 153q0 94 -36.5 167.5t-103 114.5t-154.5 41
q-116 0 -181 -72t-65 -196q0 -93 36.5 -170.5t102.5 -122.5t150 -45q71 0 128 33zM366.5 -176q-10.5 10 -10.5 28t10.5 28t29.5 10q18 0 28 -10t10 -28t-10 -28t-28 -10q-19 0 -29.5 10zM372 747q5 5 11 5q7 0 12 -5l102 -92q1 0 1 -2t-2.5 -4t-3.5 -1l-108 62l-109 -62
q-2 -1 -5 2.5t-1 4.5z" />
    <glyph glyph-name="uni1ED2" unicode="&#x1ed2;" horiz-adv-x="766" 
d="M200.5 31.5q-72.5 43.5 -112 118t-39.5 162.5q0 103 52 176.5t133.5 110.5t166.5 37q95 0 167 -44.5t110.5 -117.5t38.5 -155q0 -91 -48 -167t-128.5 -120t-174.5 -44q-93 0 -165.5 43.5zM530 41q57 33 90 97t33 153q0 94 -36.5 167.5t-103 114.5t-154.5 41
q-116 0 -181 -72t-65 -196q0 -93 36.5 -170.5t102.5 -122.5t150 -45q71 0 128 33zM372 747q5 5 11 5q7 0 12 -5l102 -92q1 0 1 -2t-2.5 -4t-3.5 -1l-108 62l-109 -62q-2 -1 -5 2.5t-1 4.5zM491.5 739q-29.5 18 -65.5 33q-7 1 6 9t30 14t19 3q34 -46 81 -94l2 -4
q0 -3 -3 -4.5t-6 -0.5q-34 26 -63.5 44z" />
    <glyph glyph-name="uni1ED4" unicode="&#x1ed4;" horiz-adv-x="766" 
d="M200.5 31.5q-72.5 43.5 -112 118t-39.5 162.5q0 103 52 176.5t133.5 110.5t166.5 37q95 0 167 -44.5t110.5 -117.5t38.5 -155q0 -91 -48 -167t-128.5 -120t-174.5 -44q-93 0 -165.5 43.5zM530 41q57 33 90 97t33 153q0 94 -36.5 167.5t-103 114.5t-154.5 41
q-116 0 -181 -72t-65 -196q0 -93 36.5 -170.5t102.5 -122.5t150 -45q71 0 128 33zM372 747q5 5 11 5q7 0 12 -5l102 -92q1 0 1 -2t-2.5 -4t-3.5 -1l-108 62l-109 -62q-2 -1 -5 2.5t-1 4.5zM460 735q0 15 15 37q8 12 12 20.5t4 18.5q0 15 -11 23t-24 8q-14 0 -25 -6h-1
q-3 0 -6 3.5t0 4.5q15 9 31.5 14t28.5 5q21 0 33.5 -13t12.5 -29q0 -14 -8.5 -25.5t-23.5 -26.5t-21.5 -25t-3.5 -22q2 -2 -4 -2.5t-7 2.5q-2 5 -2 13z" />
    <glyph glyph-name="uni1ED6" unicode="&#x1ed6;" horiz-adv-x="766" 
d="M200.5 31.5q-72.5 43.5 -112 118t-39.5 162.5q0 103 52 176.5t133.5 110.5t166.5 37q95 0 167 -44.5t110.5 -117.5t38.5 -155q0 -91 -48 -167t-128.5 -120t-174.5 -44q-93 0 -165.5 43.5zM530 41q57 33 90 97t33 153q0 94 -36.5 167.5t-103 114.5t-154.5 41
q-116 0 -181 -72t-65 -196q0 -93 36.5 -170.5t102.5 -122.5t150 -45q71 0 128 33zM372 747q5 5 11 5q7 0 12 -5l102 -92q1 0 1 -2t-2.5 -4t-3.5 -1l-108 62l-109 -62q-2 -1 -5 2.5t-1 4.5zM493.5 807q10.5 7 21.5 20h1q3 0 5.5 -2.5t0.5 -4.5q-26 -34 -43 -46t-35 -12
q-15 0 -31 3.5t-32 8.5t-34 9t-35 4q-16 0 -24.5 -5.5t-15 -12l-9.5 -9.5h-2q-3 0 -5 2.5t0 4.5q16 22 38.5 39.5t45.5 17.5q14 0 31.5 -4.5t20.5 -5.5q44 -14 74 -14q17 0 27.5 7z" />
    <glyph glyph-name="Odieresis" unicode="&#xd6;" horiz-adv-x="766" 
d="M200.5 31.5q-72.5 43.5 -112 118t-39.5 162.5q0 103 52 176.5t133.5 110.5t166.5 37q95 0 167 -44.5t110.5 -117.5t38.5 -155q0 -91 -48 -167t-128.5 -120t-174.5 -44q-93 0 -165.5 43.5zM530 41q57 33 90 97t33 153q0 94 -36.5 167.5t-103 114.5t-154.5 41
q-116 0 -181 -72t-65 -196q0 -93 36.5 -170.5t102.5 -122.5t150 -45q71 0 128 33zM267.5 730q-10.5 10 -10.5 28t10.5 28t29.5 10q18 0 28 -10t10 -28t-10 -28t-28 -10q-19 0 -29.5 10zM443 730q-11 10 -11 28t11 28t29 10q19 0 29 -10t10 -28t-10 -28t-29 -10q-18 0 -29 10
z" />
    <glyph glyph-name="uni1ECC" unicode="&#x1ecc;" horiz-adv-x="766" 
d="M200.5 31.5q-72.5 43.5 -112 118t-39.5 162.5q0 103 52 176.5t133.5 110.5t166.5 37q95 0 167 -44.5t110.5 -117.5t38.5 -155q0 -91 -48 -167t-128.5 -120t-174.5 -44q-93 0 -165.5 43.5zM530 41q57 33 90 97t33 153q0 94 -36.5 167.5t-103 114.5t-154.5 41
q-116 0 -181 -72t-65 -196q0 -93 36.5 -170.5t102.5 -122.5t150 -45q71 0 128 33zM366.5 -176q-10.5 10 -10.5 28t10.5 28t29.5 10q18 0 28 -10t10 -28t-10 -28t-28 -10q-19 0 -29.5 10z" />
    <glyph glyph-name="Ograve" unicode="&#xd2;" horiz-adv-x="766" 
d="M200.5 31.5q-72.5 43.5 -112 118t-39.5 162.5q0 103 52 176.5t133.5 110.5t166.5 37q95 0 167 -44.5t110.5 -117.5t38.5 -155q0 -91 -48 -167t-128.5 -120t-174.5 -44q-93 0 -165.5 43.5zM530 41q57 33 90 97t33 153q0 94 -36.5 167.5t-103 114.5t-154.5 41
q-116 0 -181 -72t-65 -196q0 -93 36.5 -170.5t102.5 -122.5t150 -45q71 0 128 33zM260 756q-7 1 5.5 8.5t29 13.5t20.5 4q40 -23 84.5 -48t87.5 -45q2 -1 2 -4t-2 -5t-4 -1q-113 50 -223 77z" />
    <glyph glyph-name="uni1ECE" unicode="&#x1ece;" horiz-adv-x="766" 
d="M200.5 31.5q-72.5 43.5 -112 118t-39.5 162.5q0 103 52 176.5t133.5 110.5t166.5 37q95 0 167 -44.5t110.5 -117.5t38.5 -155q0 -91 -48 -167t-128.5 -120t-174.5 -44q-93 0 -165.5 43.5zM530 41q57 33 90 97t33 153q0 94 -36.5 167.5t-103 114.5t-154.5 41
q-116 0 -181 -72t-65 -196q0 -93 36.5 -170.5t102.5 -122.5t150 -45q71 0 128 33zM382.5 649q-5.5 0 -6.5 2q-3 12 -3 21q0 15 6 27t17 30q11 15 16 26t5 23q0 19 -13.5 30t-32.5 11q-12 0 -26 -6h-1q-3 0 -6 3.5t0 4.5q31 19 61 19q29 0 45.5 -15t16.5 -37q0 -18 -9 -31
t-30 -35q-18 -17 -27.5 -30.5t-9.5 -28.5q0 -4 2 -12q1 -2 -4.5 -2z" />
    <glyph glyph-name="Ohorn" unicode="&#x1a0;" horiz-adv-x="766" 
d="M628 543q43 -45 66 -103t23 -121q0 -91 -48 -167t-128.5 -120t-174.5 -44q-93 0 -165.5 43.5t-112 118t-39.5 162.5q0 103 52 176.5t133.5 110.5t166.5 37q65 0 120 -21.5t96 -60.5q58 29 58 64q0 12 -9 21q-5 6 -8 12t-3 16q0 16 11.5 25.5t26.5 9.5q18 0 27.5 -13
t9.5 -30q0 -67 -102 -116zM530 41q57 33 90 97t33 153q0 94 -36.5 167.5t-103 114.5t-154.5 41q-116 0 -181 -72t-65 -196q0 -93 36.5 -170.5t102.5 -122.5t150 -45q71 0 128 33z" />
    <glyph glyph-name="uni1EDA" unicode="&#x1eda;" horiz-adv-x="766" 
d="M628 543q43 -45 66 -103t23 -121q0 -91 -48 -167t-128.5 -120t-174.5 -44q-93 0 -165.5 43.5t-112 118t-39.5 162.5q0 103 52 176.5t133.5 110.5t166.5 37q65 0 120 -21.5t96 -60.5q58 29 58 64q0 12 -9 21q-5 6 -8 12t-3 16q0 16 11.5 25.5t26.5 9.5q18 0 27.5 -13
t9.5 -30q0 -67 -102 -116zM530 41q57 33 90 97t33 153q0 94 -36.5 167.5t-103 114.5t-154.5 41q-116 0 -181 -72t-65 -196q0 -93 36.5 -170.5t102.5 -122.5t150 -45q71 0 128 33zM286 678q-4 0 -5.5 4.5t1.5 6.5q40 18 114 60l58 32q4 2 20.5 -3.5t29 -13t5.5 -8.5
q-118 -30 -222 -78h-1z" />
    <glyph glyph-name="uni1EE2" unicode="&#x1ee2;" horiz-adv-x="766" 
d="M628 543q43 -45 66 -103t23 -121q0 -91 -48 -167t-128.5 -120t-174.5 -44q-93 0 -165.5 43.5t-112 118t-39.5 162.5q0 103 52 176.5t133.5 110.5t166.5 37q65 0 120 -21.5t96 -60.5q58 29 58 64q0 12 -9 21q-5 6 -8 12t-3 16q0 16 11.5 25.5t26.5 9.5q18 0 27.5 -13
t9.5 -30q0 -67 -102 -116zM530 41q57 33 90 97t33 153q0 94 -36.5 167.5t-103 114.5t-154.5 41q-116 0 -181 -72t-65 -196q0 -93 36.5 -170.5t102.5 -122.5t150 -45q71 0 128 33zM355.5 -176q-10.5 10 -10.5 28t10.5 28t29.5 10q18 0 28 -10t10 -28t-10 -28t-28 -10
q-19 0 -29.5 10z" />
    <glyph glyph-name="uni1EDC" unicode="&#x1edc;" horiz-adv-x="766" 
d="M628 543q43 -45 66 -103t23 -121q0 -91 -48 -167t-128.5 -120t-174.5 -44q-93 0 -165.5 43.5t-112 118t-39.5 162.5q0 103 52 176.5t133.5 110.5t166.5 37q65 0 120 -21.5t96 -60.5q58 29 58 64q0 12 -9 21q-5 6 -8 12t-3 16q0 16 11.5 25.5t26.5 9.5q18 0 27.5 -13
t9.5 -30q0 -67 -102 -116zM530 41q57 33 90 97t33 153q0 94 -36.5 167.5t-103 114.5t-154.5 41q-116 0 -181 -72t-65 -196q0 -93 36.5 -170.5t102.5 -122.5t150 -45q71 0 128 33zM260 756q-7 1 5.5 8.5t29 13.5t20.5 4q40 -23 84.5 -48t87.5 -45q2 -1 2 -4t-2 -5t-4 -1
q-113 50 -223 77z" />
    <glyph glyph-name="uni1EDE" unicode="&#x1ede;" horiz-adv-x="766" 
d="M628 543q43 -45 66 -103t23 -121q0 -91 -48 -167t-128.5 -120t-174.5 -44q-93 0 -165.5 43.5t-112 118t-39.5 162.5q0 103 52 176.5t133.5 110.5t166.5 37q65 0 120 -21.5t96 -60.5q58 29 58 64q0 12 -9 21q-5 6 -8 12t-3 16q0 16 11.5 25.5t26.5 9.5q18 0 27.5 -13
t9.5 -30q0 -67 -102 -116zM530 41q57 33 90 97t33 153q0 94 -36.5 167.5t-103 114.5t-154.5 41q-116 0 -181 -72t-65 -196q0 -93 36.5 -170.5t102.5 -122.5t150 -45q71 0 128 33zM372 658.5q-6 -0.5 -7 2.5q-3 11 -3 21q0 14 5.5 26t17.5 30q11 15 16 26t5 23q0 19 -13.5 30
t-32.5 11q-12 0 -26 -6h-1q-3 0 -6 3.5t0 4.5q31 19 61 19q29 0 45.5 -15t16.5 -37q0 -18 -9.5 -31.5t-29.5 -33.5q-18 -17 -27.5 -30.5t-9.5 -28.5q0 -4 2 -12q2 -2 -4 -2.5z" />
    <glyph glyph-name="uni1EE0" unicode="&#x1ee0;" horiz-adv-x="766" 
d="M628 543q43 -45 66 -103t23 -121q0 -91 -48 -167t-128.5 -120t-174.5 -44q-93 0 -165.5 43.5t-112 118t-39.5 162.5q0 103 52 176.5t133.5 110.5t166.5 37q65 0 120 -21.5t96 -60.5q58 29 58 64q0 12 -9 21q-5 6 -8 12t-3 16q0 16 11.5 25.5t26.5 9.5q18 0 27.5 -13
t9.5 -30q0 -67 -102 -116zM530 41q57 33 90 97t33 153q0 94 -36.5 167.5t-103 114.5t-154.5 41q-116 0 -181 -72t-65 -196q0 -93 36.5 -170.5t102.5 -122.5t150 -45q71 0 128 33zM488.5 768q10.5 7 21.5 20h1q3 0 5.5 -2.5t0.5 -4.5q-26 -34 -43 -46t-35 -12q-15 0 -31 3.5
t-32 8.5t-34 9t-35 4q-16 0 -24.5 -5.5t-15 -12l-9.5 -9.5h-2q-3 0 -5 2.5t0 4.5q16 22 38.5 39.5t45.5 17.5q14 0 31.5 -4.5t20.5 -5.5q44 -14 74 -14q17 0 27.5 7z" />
    <glyph glyph-name="Ohungarumlaut" unicode="&#x150;" horiz-adv-x="766" 
d="M200.5 31.5q-72.5 43.5 -112 118t-39.5 162.5q0 103 52 176.5t133.5 110.5t166.5 37q95 0 167 -44.5t110.5 -117.5t38.5 -155q0 -91 -48 -167t-128.5 -120t-174.5 -44q-93 0 -165.5 43.5zM530 41q57 33 90 97t33 153q0 94 -36.5 167.5t-103 114.5t-154.5 41
q-116 0 -181 -72t-65 -196q0 -93 36.5 -170.5t102.5 -122.5t150 -45q71 0 128 33zM279 678q-3 0 -4 4.5t1 6.5q41 37 90 87q3 3 20.5 -1t31 -10t6.5 -9q-67 -28 -143 -77zM396 678q-3 0 -4 4.5t1 6.5q41 37 90 87q3 3 19.5 -1t29 -10t6.5 -9q-37 -15 -68.5 -33t-71.5 -44z
" />
    <glyph glyph-name="Omacron" unicode="&#x14c;" horiz-adv-x="766" 
d="M200.5 31.5q-72.5 43.5 -112 118t-39.5 162.5q0 103 52 176.5t133.5 110.5t166.5 37q95 0 167 -44.5t110.5 -117.5t38.5 -155q0 -91 -48 -167t-128.5 -120t-174.5 -44q-93 0 -165.5 43.5zM530 41q57 33 90 97t33 153q0 94 -36.5 167.5t-103 114.5t-154.5 41
q-116 0 -181 -72t-65 -196q0 -93 36.5 -170.5t102.5 -122.5t150 -45q71 0 128 33zM254.5 728q-1.5 4 -1.5 9q0 13 5 13h251q5 0 5 -13t-5 -13h-251q-2 0 -3.5 4z" />
    <glyph glyph-name="uni01EA" unicode="&#x1ea;" horiz-adv-x="766" 
d="M381 -76q-18 -35 -18 -74q0 -46 23.5 -72t68.5 -26q24 0 39.5 6.5t31.5 19.5h2q3 0 5.5 -3t-0.5 -5q-51 -45 -107 -45q-54 0 -82.5 25.5t-28.5 70.5q0 84 101 170q-24 -3 -50 -3q-93 0 -165.5 43.5t-112 118t-39.5 162.5q0 103 52 176.5t133.5 110.5t166.5 37
q95 0 167 -44.5t110.5 -117.5t38.5 -155q0 -79 -36.5 -147.5t-100.5 -115t-142 -61.5q-39 -36 -57 -71zM149.5 175.5q36.5 -77.5 102.5 -122.5t150 -45q71 0 128 33t90 97t33 153q0 94 -36.5 167.5t-103 114.5t-154.5 41q-116 0 -181 -72t-65 -196q0 -93 36.5 -170.5z" />
    <glyph glyph-name="Oslash" unicode="&#xd8;" horiz-adv-x="766" 
d="M692.5 443q24.5 -60 24.5 -124q0 -91 -48 -167t-128.5 -120t-174.5 -44q-64 0 -118.5 21t-96.5 59l-74 -75q0 -1 -2 -1q-3 0 -8 6t-3 9l74 75q-43 44 -66 103.5t-23 126.5q0 103 52 176.5t133.5 110.5t166.5 37q62 0 115 -19.5t94 -55.5l67 68l2 1q5 0 10 -5t2 -7
l-68 -70q45 -45 69.5 -105zM130 226q17 -57 49 -102l394 399q-39 44 -93.5 67.5t-120.5 23.5q-116 0 -181 -72t-65 -196q0 -63 17 -120zM530 41q57 33 90 97t33 153q0 65 -18 120t-51 98l-393 -400q39 -48 93 -74.5t118 -26.5q71 0 128 33z" />
    <glyph glyph-name="Oslashacute" unicode="&#x1fe;" horiz-adv-x="766" 
d="M692.5 443q24.5 -60 24.5 -124q0 -91 -48 -167t-128.5 -120t-174.5 -44q-64 0 -118.5 21t-96.5 59l-74 -75q0 -1 -2 -1q-3 0 -8 6t-3 9l74 75q-43 44 -66 103.5t-23 126.5q0 103 52 176.5t133.5 110.5t166.5 37q62 0 115 -19.5t94 -55.5l67 68l2 1q5 0 10 -5t2 -7
l-68 -70q45 -45 69.5 -105zM130 226q17 -57 49 -102l394 399q-39 44 -93.5 67.5t-120.5 23.5q-116 0 -181 -72t-65 -196q0 -63 17 -120zM530 41q57 33 90 97t33 153q0 65 -18 120t-51 98l-393 -400q39 -48 93 -74.5t118 -26.5q71 0 128 33zM285 678q-4 0 -5 4.5t2 6.5
q46 21 122 65l50 28q4 2 20.5 -4t29 -13.5t5.5 -8.5q-62 -15 -113.5 -33.5t-108.5 -43.5z" />
    <glyph glyph-name="Otilde" unicode="&#xd5;" horiz-adv-x="766" 
d="M200.5 31.5q-72.5 43.5 -112 118t-39.5 162.5q0 103 52 176.5t133.5 110.5t166.5 37q95 0 167 -44.5t110.5 -117.5t38.5 -155q0 -91 -48 -167t-128.5 -120t-174.5 -44q-93 0 -165.5 43.5zM530 41q57 33 90 97t33 153q0 94 -36.5 167.5t-103 114.5t-154.5 41
q-116 0 -181 -72t-65 -196q0 -93 36.5 -170.5t102.5 -122.5t150 -45q71 0 128 33zM488.5 744q10.5 7 21.5 20h2q3 0 5 -2.5t0 -4.5q-26 -34 -43 -45.5t-35 -11.5q-15 0 -31 3.5t-32 8.5q-42 12 -69 12q-16 0 -24.5 -5.5t-15 -12l-9.5 -9.5h-1q-3 0 -5.5 2.5t-0.5 4.5
q16 22 38.5 40t45.5 18q17 0 52 -11q44 -14 74 -14q17 0 27.5 7z" />
    <glyph glyph-name="OE" unicode="&#x152;" horiz-adv-x="910" 
d="M852.5 148q5.5 0 5.5 -3q-9 -79 -9 -130q0 -8 -3 -11.5t-12 -3.5h-292q-22 0 -72 -2q-52 -2 -77 -2q-99 0 -177.5 40t-122.5 110t-44 155q0 97 46 171t124.5 114.5t171.5 40.5q41 0 65 -1l80 -1h280q10 0 10 -9l2 -121q0 -3 -6 -3t-6 3q0 50 -27 80.5t-71 30.5h-69
q-38 0 -56 -5t-24 -17.5t-6 -40.5v-208h132q46 0 64 15.5t18 53.5q0 2 5.5 2t5.5 -2l-1 -79q0 -29 1 -43l1 -47q0 -2 -5.5 -2t-5.5 2q0 45 -19 63t-68 18h-128v-231q0 -29 6 -42.5t24 -18.5t56 -5h93q39 0 68 35t37 91q0 3 5.5 3zM510 531q0 45 -22.5 64t-86.5 19
q-84 0 -149.5 -34t-102 -99.5t-36.5 -157.5q0 -88 34.5 -159.5t99 -113t148.5 -41.5q44 0 68 5.5t35.5 21t11.5 46.5v449z" />
    <glyph glyph-name="P" unicode="P" horiz-adv-x="540" 
d="M195 38.5q9 -14.5 34.5 -20.5t81.5 -6q3 0 3 -6t-3 -6q-41 0 -64 1l-87 1l-66 -1q-18 -1 -50 -1q-2 0 -2 6t2 6q39 0 57.5 5t25 19.5t6.5 44.5v463q0 30 -6.5 44t-25 19.5t-57.5 5.5q-2 0 -2 6t2 6l49 -1q42 -2 66 -2t55 3q78 3 85 3q88 0 143 -40.5t55 -123.5
q0 -67 -33 -112.5t-83.5 -67.5t-104.5 -22q-30 0 -49 5q-3 0 -3 5q0 3 1.5 6t3.5 2q16 -4 36 -4q71 0 120.5 43t49.5 125q0 53 -21 91.5t-57.5 59t-80.5 20.5q-41 0 -58 -4t-24.5 -18.5t-7.5 -50.5v-457q0 -32 9 -46.5z" />
    <glyph glyph-name="Thorn" unicode="&#xde;" horiz-adv-x="535" 
d="M385.5 190.5q49.5 43.5 49.5 125.5q0 80 -49.5 125.5t-129.5 45.5q-37 0 -70 -9v-393q0 -32 9 -46.5t34.5 -20.5t81.5 -6q3 0 3 -6t-3 -6q-41 0 -64 1l-87 1l-66 -1q-18 -1 -50 -1q-2 0 -2 6t2 6q39 0 57.5 5t25 19.5t6.5 44.5v463q0 30 -6.5 44t-25 19.5t-57.5 5.5
q-2 0 -2 6t2 6l50 -1q40 -2 66 -2q35 0 87 2l64 1q3 0 3 -6t-3 -6q-56 0 -81.5 -6t-34.5 -21t-9 -47v-48q43 8 95 8q98 0 157 -40t59 -130q0 -65 -33 -109t-84 -65.5t-104 -21.5q-24 0 -49 5q-3 0 -3 5q0 3 1.5 6t3.5 2q24 -4 36 -4q71 0 120.5 43.5z" />
    <glyph glyph-name="Q" unicode="Q" horiz-adv-x="766" 
d="M746 -156q2 0 3.5 -4.5t-0.5 -5.5q-53 -12 -86 -12q-68 0 -143 44t-129 123q-8 -1 -25 -1q-93 0 -165.5 43.5t-112 118t-39.5 162.5q0 103 52 176.5t133.5 110.5t166.5 37q95 0 167 -44.5t110.5 -117.5t38.5 -155q0 -75 -33.5 -141t-92 -112.5t-131.5 -65.5
q43 -70 114 -114.5t135 -44.5q23 0 36 3h1zM149.5 175.5q36.5 -77.5 102.5 -122.5t150 -45q71 0 128 33t90 97t33 153q0 94 -36.5 167.5t-103 114.5t-154.5 41q-116 0 -181 -72t-65 -196q0 -93 36.5 -170.5z" />
    <glyph glyph-name="R" unicode="R" horiz-adv-x="667" 
d="M679 6q0 -6 -3 -6h-116q-26 0 -97 86.5t-172 239.5q-30 -8 -61 -8q-17 0 -43 2v-239q0 -31 6.5 -45t24.5 -19t58 -5q3 0 3 -6t-3 -6q-30 0 -48 1l-68 1l-66 -1q-18 -1 -50 -1q-2 0 -2 6t2 6q40 0 58.5 5t25.5 19.5t7 44.5v463q0 30 -6.5 44t-25 19.5t-57.5 5.5q-3 0 -3 6
t3 6l48 -1q40 -2 66 -2q18 0 34 1t28 2q31 3 55 3q79 0 121 -33t42 -92q0 -48 -28 -90.5t-74 -67.5q87 -128 145 -199t103.5 -102.5t89.5 -31.5q3 0 3 -6zM247 340q73 0 105 30.5t32 98.5q0 76 -35.5 111t-94.5 35q-28 0 -41 -4t-19.5 -19t-6.5 -50v-198q38 -4 60 -4z" />
    <glyph glyph-name="Racute" unicode="&#x154;" horiz-adv-x="667" 
d="M679 6q0 -6 -3 -6h-116q-26 0 -97 86.5t-172 239.5q-30 -8 -61 -8q-17 0 -43 2v-239q0 -31 6.5 -45t24.5 -19t58 -5q3 0 3 -6t-3 -6q-30 0 -48 1l-68 1l-66 -1q-18 -1 -50 -1q-2 0 -2 6t2 6q40 0 58.5 5t25.5 19.5t7 44.5v463q0 30 -6.5 44t-25 19.5t-57.5 5.5q-3 0 -3 6
t3 6l48 -1q40 -2 66 -2q18 0 34 1t28 2q31 3 55 3q79 0 121 -33t42 -92q0 -48 -28 -90.5t-74 -67.5q87 -128 145 -199t103.5 -102.5t89.5 -31.5q3 0 3 -6zM247 340q73 0 105 30.5t32 98.5q0 76 -35.5 111t-94.5 35q-28 0 -41 -4t-19.5 -19t-6.5 -50v-198q38 -4 60 -4z
M158 678q-4 0 -5 4.5t2 6.5q46 21 122 65l50 28q4 2 20.5 -4t29 -13.5t5.5 -8.5q-62 -15 -113.5 -33.5t-108.5 -43.5z" />
    <glyph glyph-name="Rcaron" unicode="&#x158;" horiz-adv-x="667" 
d="M679 6q0 -6 -3 -6h-116q-26 0 -97 86.5t-172 239.5q-30 -8 -61 -8q-17 0 -43 2v-239q0 -31 6.5 -45t24.5 -19t58 -5q3 0 3 -6t-3 -6q-30 0 -48 1l-68 1l-66 -1q-18 -1 -50 -1q-2 0 -2 6t2 6q40 0 58.5 5t25.5 19.5t7 44.5v463q0 30 -6.5 44t-25 19.5t-57.5 5.5q-3 0 -3 6
t3 6l48 -1q40 -2 66 -2q18 0 34 1t28 2q31 3 55 3q79 0 121 -33t42 -92q0 -48 -28 -90.5t-74 -67.5q87 -128 145 -199t103.5 -102.5t89.5 -31.5q3 0 3 -6zM247 340q73 0 105 30.5t32 98.5q0 76 -35.5 111t-94.5 35q-28 0 -41 -4t-19.5 -19t-6.5 -50v-198q38 -4 60 -4z
M142 779l-1 2q0 2 3 4t4 1l109 -62l108 62l2 1q2 0 3.5 -3.5t-0.5 -4.5l-102 -92q-4 -4 -11 -4q-8 0 -12 4z" />
    <glyph glyph-name="Rcommaaccent" unicode="&#x156;" horiz-adv-x="667" 
d="M679 6q0 -6 -3 -6h-116q-26 0 -97 86.5t-172 239.5q-30 -8 -61 -8q-17 0 -43 2v-239q0 -31 6.5 -45t24.5 -19t58 -5q3 0 3 -6t-3 -6q-30 0 -48 1l-68 1l-66 -1q-18 -1 -50 -1q-2 0 -2 6t2 6q40 0 58.5 5t25.5 19.5t7 44.5v463q0 30 -6.5 44t-25 19.5t-57.5 5.5q-3 0 -3 6
t3 6l48 -1q40 -2 66 -2q18 0 34 1t28 2q31 3 55 3q79 0 121 -33t42 -92q0 -48 -28 -90.5t-74 -67.5q87 -128 145 -199t103.5 -102.5t89.5 -31.5q3 0 3 -6zM247 340q73 0 105 30.5t32 98.5q0 76 -35.5 111t-94.5 35q-28 0 -41 -4t-19.5 -19t-6.5 -50v-198q38 -4 60 -4z
M372.5 -107q13.5 -18 13.5 -53q0 -32 -14.5 -59.5t-42.5 -55.5q-1 -1 -3 -1q-3 0 -5 3.5t0 4.5q43 40 43 95q0 18 -5 28q-6 -14 -28 -14q-17 0 -26.5 9.5t-9.5 25.5q0 35 38 35q26 0 39.5 -18z" />
    <glyph glyph-name="uni1E5A" unicode="&#x1e5a;" horiz-adv-x="667" 
d="M679 6q0 -6 -3 -6h-116q-26 0 -97 86.5t-172 239.5q-30 -8 -61 -8q-17 0 -43 2v-239q0 -31 6.5 -45t24.5 -19t58 -5q3 0 3 -6t-3 -6q-30 0 -48 1l-68 1l-66 -1q-18 -1 -50 -1q-2 0 -2 6t2 6q40 0 58.5 5t25.5 19.5t7 44.5v463q0 30 -6.5 44t-25 19.5t-57.5 5.5q-3 0 -3 6
t3 6l48 -1q40 -2 66 -2q18 0 34 1t28 2q31 3 55 3q79 0 121 -33t42 -92q0 -48 -28 -90.5t-74 -67.5q87 -128 145 -199t103.5 -102.5t89.5 -31.5q3 0 3 -6zM247 340q73 0 105 30.5t32 98.5q0 76 -35.5 111t-94.5 35q-28 0 -41 -4t-19.5 -19t-6.5 -50v-198q38 -4 60 -4z
M311.5 -176q-10.5 10 -10.5 28t10.5 28t29.5 10q18 0 28 -10t10 -28t-10 -28t-28 -10q-19 0 -29.5 10z" />
    <glyph glyph-name="uni1E5C" unicode="&#x1e5c;" horiz-adv-x="667" 
d="M679 6q0 -6 -3 -6h-116q-26 0 -97 86.5t-172 239.5q-30 -8 -61 -8q-17 0 -43 2v-239q0 -31 6.5 -45t24.5 -19t58 -5q3 0 3 -6t-3 -6q-30 0 -48 1l-68 1l-66 -1q-18 -1 -50 -1q-2 0 -2 6t2 6q40 0 58.5 5t25.5 19.5t7 44.5v463q0 30 -6.5 44t-25 19.5t-57.5 5.5q-3 0 -3 6
t3 6l48 -1q40 -2 66 -2q18 0 34 1t28 2q31 3 55 3q79 0 121 -33t42 -92q0 -48 -28 -90.5t-74 -67.5q87 -128 145 -199t103.5 -102.5t89.5 -31.5q3 0 3 -6zM247 340q73 0 105 30.5t32 98.5q0 76 -35.5 111t-94.5 35q-28 0 -41 -4t-19.5 -19t-6.5 -50v-198q38 -4 60 -4z
M311.5 -176q-10.5 10 -10.5 28t10.5 28t29.5 10q18 0 28 -10t10 -28t-10 -28t-28 -10q-19 0 -29.5 10zM126 737q0 13 5 13h251q5 0 5 -13q0 -5 -1.5 -9t-3.5 -4h-251q-5 0 -5 13z" />
    <glyph glyph-name="uni1E5E" unicode="&#x1e5e;" horiz-adv-x="667" 
d="M679 6q0 -6 -3 -6h-116q-26 0 -97 86.5t-172 239.5q-30 -8 -61 -8q-17 0 -43 2v-239q0 -31 6.5 -45t24.5 -19t58 -5q3 0 3 -6t-3 -6q-30 0 -48 1l-68 1l-66 -1q-18 -1 -50 -1q-2 0 -2 6t2 6q40 0 58.5 5t25.5 19.5t7 44.5v463q0 30 -6.5 44t-25 19.5t-57.5 5.5q-3 0 -3 6
t3 6l48 -1q40 -2 66 -2q18 0 34 1t28 2q31 3 55 3q79 0 121 -33t42 -92q0 -48 -28 -90.5t-74 -67.5q87 -128 145 -199t103.5 -102.5t89.5 -31.5q3 0 3 -6zM247 340q73 0 105 30.5t32 98.5q0 76 -35.5 111t-94.5 35q-28 0 -41 -4t-19.5 -19t-6.5 -50v-198q38 -4 60 -4z
M209 -98q0 13 5 13h251q2 0 3.5 -4t1.5 -9q0 -13 -5 -13h-251q-5 0 -5 13z" />
    <glyph glyph-name="S" unicode="S" horiz-adv-x="485" 
d="M157 435q19 -29 46.5 -48.5t76.5 -48.5q52 -31 80.5 -51.5t49 -52.5t20.5 -77q0 -47 -23 -85.5t-68.5 -61t-111.5 -22.5q-35 0 -66.5 7.5t-69.5 26.5q-5 3 -6.5 7t-2.5 12l-15 130v1q0 4 5 4.5t6 -3.5q10 -69 53 -120t118 -51q53 0 89.5 29t36.5 91q0 45 -20 77.5
t-48.5 54t-77.5 50.5q-48 28 -75.5 49t-47 52.5t-19.5 75.5q0 50 25.5 85t66.5 52.5t88 17.5q55 0 114 -24q15 -6 15 -17l9 -106q0 -4 -5.5 -4t-6.5 4q-4 52 -39 93t-100 41q-60 0 -88 -35t-28 -84q0 -40 19 -69z" />
    <glyph glyph-name="Sacute" unicode="&#x15a;" horiz-adv-x="485" 
d="M157 435q19 -29 46.5 -48.5t76.5 -48.5q52 -31 80.5 -51.5t49 -52.5t20.5 -77q0 -47 -23 -85.5t-68.5 -61t-111.5 -22.5q-35 0 -66.5 7.5t-69.5 26.5q-5 3 -6.5 7t-2.5 12l-15 130v1q0 4 5 4.5t6 -3.5q10 -69 53 -120t118 -51q53 0 89.5 29t36.5 91q0 45 -20 77.5
t-48.5 54t-77.5 50.5q-48 28 -75.5 49t-47 52.5t-19.5 75.5q0 50 25.5 85t66.5 52.5t88 17.5q55 0 114 -24q15 -6 15 -17l9 -106q0 -4 -5.5 -4t-6.5 4q-4 52 -39 93t-100 41q-60 0 -88 -35t-28 -84q0 -40 19 -69zM152 678q-4 0 -5 4.5t2 6.5q46 21 122 65l50 28q4 2 20.5 -4
t29 -13.5t5.5 -8.5q-62 -15 -113.5 -33.5t-108.5 -43.5z" />
    <glyph glyph-name="Scaron" unicode="&#x160;" horiz-adv-x="485" 
d="M157 435q19 -29 46.5 -48.5t76.5 -48.5q52 -31 80.5 -51.5t49 -52.5t20.5 -77q0 -47 -23 -85.5t-68.5 -61t-111.5 -22.5q-35 0 -66.5 7.5t-69.5 26.5q-5 3 -6.5 7t-2.5 12l-15 130v1q0 4 5 4.5t6 -3.5q10 -69 53 -120t118 -51q53 0 89.5 29t36.5 91q0 45 -20 77.5
t-48.5 54t-77.5 50.5q-48 28 -75.5 49t-47 52.5t-19.5 75.5q0 50 25.5 85t66.5 52.5t88 17.5q55 0 114 -24q15 -6 15 -17l9 -106q0 -4 -5.5 -4t-6.5 4q-4 52 -39 93t-100 41q-60 0 -88 -35t-28 -84q0 -40 19 -69zM136 779l-1 2q0 2 3 4t4 1l109 -62l108 62l2 1q2 0 3.5 -3.5
t-0.5 -4.5l-102 -92q-4 -4 -11 -4q-8 0 -12 4z" />
    <glyph glyph-name="Scedilla" unicode="&#x15e;" horiz-adv-x="485" 
d="M385.5 43.5q-44.5 -46.5 -128.5 -54.5q-6 -18 -9.5 -31.5t-3.5 -20.5q0 -11 6.5 -17t19 -13t19.5 -11q25 -14 39.5 -32t14.5 -45q0 -36 -25.5 -65t-73.5 -29q-26 0 -44 9.5t-18 26.5q0 12 8 19.5t20 7.5q10 0 15.5 -5t10.5 -15q8 -12 15 -18t22 -6q37 0 37 41
q0 26 -18.5 46.5t-67.5 46.5q-8 4 -12 7t-4 7q0 5 6 17q15 36 30 79h-17q-35 0 -66.5 7.5t-69.5 26.5q-5 3 -6.5 7t-2.5 12l-15 130v1q0 4 5 4.5t6 -3.5q10 -69 53 -120t118 -51q53 0 89.5 29t36.5 91q0 45 -20 77.5t-48.5 54t-77.5 50.5q-48 28 -75.5 49t-47 52.5
t-19.5 75.5q0 50 25.5 85t66.5 52.5t88 17.5q55 0 114 -24q15 -6 15 -17l9 -106q0 -4 -5.5 -4t-6.5 4q-4 52 -39 93t-100 41q-60 0 -88 -35t-28 -84q0 -40 19 -69t46.5 -48.5t76.5 -48.5q52 -31 80.5 -51.5t49 -52.5t20.5 -77q0 -67 -44.5 -113.5z" />
    <glyph glyph-name="Scircumflex" unicode="&#x15c;" horiz-adv-x="485" 
d="M157 435q19 -29 46.5 -48.5t76.5 -48.5q52 -31 80.5 -51.5t49 -52.5t20.5 -77q0 -47 -23 -85.5t-68.5 -61t-111.5 -22.5q-35 0 -66.5 7.5t-69.5 26.5q-5 3 -6.5 7t-2.5 12l-15 130v1q0 4 5 4.5t6 -3.5q10 -69 53 -120t118 -51q53 0 89.5 29t36.5 91q0 45 -20 77.5
t-48.5 54t-77.5 50.5q-48 28 -75.5 49t-47 52.5t-19.5 75.5q0 50 25.5 85t66.5 52.5t88 17.5q55 0 114 -24q15 -6 15 -17l9 -106q0 -4 -5.5 -4t-6.5 4q-4 52 -39 93t-100 41q-60 0 -88 -35t-28 -84q0 -40 19 -69zM240 783q5 5 12 5q6 0 11 -5l102 -93q1 0 1 -2t-2.5 -4
t-3.5 -1l-108 62l-109 -62q-2 -1 -5 2.5t-1 4.5z" />
    <glyph glyph-name="Scommaaccent" unicode="&#x218;" horiz-adv-x="485" 
d="M157 435q19 -29 46.5 -48.5t76.5 -48.5q52 -31 80.5 -51.5t49 -52.5t20.5 -77q0 -47 -23 -85.5t-68.5 -61t-111.5 -22.5q-35 0 -66.5 7.5t-69.5 26.5q-5 3 -6.5 7t-2.5 12l-15 130v1q0 4 5 4.5t6 -3.5q10 -69 53 -120t118 -51q53 0 89.5 29t36.5 91q0 45 -20 77.5
t-48.5 54t-77.5 50.5q-48 28 -75.5 49t-47 52.5t-19.5 75.5q0 50 25.5 85t66.5 52.5t88 17.5q55 0 114 -24q15 -6 15 -17l9 -106q0 -4 -5.5 -4t-6.5 4q-4 52 -39 93t-100 41q-60 0 -88 -35t-28 -84q0 -40 19 -69zM295.5 -107q13.5 -18 13.5 -53q0 -32 -14.5 -59.5
t-42.5 -55.5q-1 -1 -3 -1q-3 0 -5 3.5t0 4.5q43 40 43 95q0 18 -5 28q-6 -14 -28 -14q-17 0 -26.5 9.5t-9.5 25.5q0 35 38 35q26 0 39.5 -18z" />
    <glyph glyph-name="uni1E60" unicode="&#x1e60;" horiz-adv-x="485" 
d="M157 435q19 -29 46.5 -48.5t76.5 -48.5q52 -31 80.5 -51.5t49 -52.5t20.5 -77q0 -47 -23 -85.5t-68.5 -61t-111.5 -22.5q-35 0 -66.5 7.5t-69.5 26.5q-5 3 -6.5 7t-2.5 12l-15 130v1q0 4 5 4.5t6 -3.5q10 -69 53 -120t118 -51q53 0 89.5 29t36.5 91q0 45 -20 77.5
t-48.5 54t-77.5 50.5q-48 28 -75.5 49t-47 52.5t-19.5 75.5q0 50 25.5 85t66.5 52.5t88 17.5q55 0 114 -24q15 -6 15 -17l9 -106q0 -4 -5.5 -4t-6.5 4q-4 52 -39 93t-100 41q-60 0 -88 -35t-28 -84q0 -40 19 -69zM221.5 723q-10.5 10 -10.5 29q0 17 10.5 27t29.5 10
q18 0 28 -10t10 -27q0 -19 -10 -29t-28 -10q-19 0 -29.5 10z" />
    <glyph glyph-name="uni1E62" unicode="&#x1e62;" horiz-adv-x="485" 
d="M157 435q19 -29 46.5 -48.5t76.5 -48.5q52 -31 80.5 -51.5t49 -52.5t20.5 -77q0 -47 -23 -85.5t-68.5 -61t-111.5 -22.5q-35 0 -66.5 7.5t-69.5 26.5q-5 3 -6.5 7t-2.5 12l-15 130v1q0 4 5 4.5t6 -3.5q10 -69 53 -120t118 -51q53 0 89.5 29t36.5 91q0 45 -20 77.5
t-48.5 54t-77.5 50.5q-48 28 -75.5 49t-47 52.5t-19.5 75.5q0 50 25.5 85t66.5 52.5t88 17.5q55 0 114 -24q15 -6 15 -17l9 -106q0 -4 -5.5 -4t-6.5 4q-4 52 -39 93t-100 41q-60 0 -88 -35t-28 -84q0 -40 19 -69zM234.5 -176q-10.5 10 -10.5 28t10.5 28t29.5 10q18 0 28 -10
t10 -28t-10 -28t-28 -10q-19 0 -29.5 10z" />
    <glyph glyph-name="uni1E9E" unicode="&#x1e9e;" horiz-adv-x="689" 
d="M557.5 39q35.5 31 35.5 85q0 53 -42.5 104t-139.5 118q-9 7 -4 15l115 179q-63 33 -121 49t-103 16q-68 0 -99.5 -44.5t-31.5 -156.5v-323q0 -31 6 -45t24.5 -19t59.5 -5q3 0 3 -6t-3 -6l-118 1l-113 -1q-3 0 -3 6t3 6q38 0 56 5.5t25.5 19.5t7.5 44v301q0 63 27.5 121.5
t80 95.5t122.5 37q69 0 171 -35q4 -1 15 -5t18 -4q8 0 13.5 5.5t13 16t11.5 15.5q3 4 7 4q3 0 4.5 -2.5t-0.5 -5.5l-155 -240q105 -67 148 -115.5t43 -103.5q0 -44 -24 -85t-68.5 -67t-101.5 -26q-31 0 -58 7.5t-57 26.5q-5 3 -6.5 7t-2.5 12l-15 95v1q0 4 5 4.5t6 -3.5
q5 -31 31 -61t62 -49.5t69 -19.5q48 0 83.5 31z" />
    <glyph glyph-name="uni018F" unicode="&#x18f;" horiz-adv-x="640" 
d="M462.5 591q66.5 -45 94.5 -115.5t28 -151.5q0 -104 -42 -180t-113.5 -116t-158.5 -40q-74 0 -123.5 28t-73 68.5t-23.5 78.5q0 7 3 9.5t9 2.5l448 2q12 50 12 111q0 95 -28.5 171.5t-81.5 121t-125 44.5q-67 0 -129.5 -36t-85.5 -102q-1 -4 -7 -3t-5 4l41 148q1 4 6 3.5
t4 -4.5q-1 -3 -1 -9q0 -21 17 -21q3 0 11 2q45 16 77 22.5t71 6.5q109 0 175.5 -45zM432.5 46q50.5 39 72.5 112l-392 -5q8 -66 61.5 -106t131.5 -40q76 0 126.5 39z" />
    <glyph glyph-name="T" unicode="T" horiz-adv-x="632" 
d="M88 578q-29 -30 -39 -107q0 -2 -6 -2t-6 2q4 27 9 86.5t5 89.5q0 5 6 5t6 -5q0 -22 53 -22q86 -3 201 -3q59 0 125 2l68 1q36 0 53 5t22 20q1 4 6 4t5 -4q-3 -28 -6 -85.5t-3 -93.5q0 -2 -6 -2t-6 2q0 53 -11 82t-37 42t-73 13q-52 0 -73 -3.5t-28.5 -16.5t-7.5 -46v-461
q0 -31 7 -45t28 -19t66 -5q2 0 2 -6t-2 -6q-33 0 -52 1l-77 1l-73 -1q-20 -1 -55 -1q-2 0 -2 6t2 6q45 0 66 5t28.5 19.5t7.5 44.5v463q0 33 -8 45.5t-28.5 15.5t-74.5 3q-63 0 -92 -30z" />
    <glyph glyph-name="Tbar" unicode="&#x166;" horiz-adv-x="632" 
d="M591 654q5 0 5 -4q-3 -28 -6 -85.5t-3 -93.5q0 -2 -6 -2t-6 2q0 53 -11 82t-37 42t-73 13q-52 0 -73 -3.5t-28.5 -16.5t-7.5 -46v-210h102q2 0 3.5 -3t1.5 -6q0 -4 -1.5 -7t-3.5 -3h-102v-232q0 -31 7 -45t28 -19t66 -5q2 0 2 -6t-2 -6q-33 0 -52 1l-77 1l-73 -1
q-20 -1 -55 -1q-2 0 -2 6t2 6q45 0 66 5t28.5 19.5t7.5 44.5v232h-102q-1 0 -2.5 3t-1.5 7q0 3 1.5 6t2.5 3h102v212q0 33 -8 45.5t-28.5 15.5t-74.5 3q-63 0 -92 -30t-39 -107q0 -2 -6 -2t-6 2q4 27 9 86.5t5 89.5q0 5 6 5t6 -5q0 -22 53 -22q86 -3 201 -3q59 0 125 2l68 1
q36 0 53 5t22 20q1 4 6 4z" />
    <glyph glyph-name="Tcaron" unicode="&#x164;" horiz-adv-x="632" 
d="M88 578q-29 -30 -39 -107q0 -2 -6 -2t-6 2q4 27 9 86.5t5 89.5q0 5 6 5t6 -5q0 -22 53 -22q86 -3 201 -3q59 0 125 2l68 1q36 0 53 5t22 20q1 4 6 4t5 -4q-3 -28 -6 -85.5t-3 -93.5q0 -2 -6 -2t-6 2q0 53 -11 82t-37 42t-73 13q-52 0 -73 -3.5t-28.5 -16.5t-7.5 -46v-461
q0 -31 7 -45t28 -19t66 -5q2 0 2 -6t-2 -6q-33 0 -52 1l-77 1l-73 -1q-20 -1 -55 -1q-2 0 -2 6t2 6q45 0 66 5t28.5 19.5t7.5 44.5v463q0 33 -8 45.5t-28.5 15.5t-74.5 3q-63 0 -92 -30zM201 779l-1 2q0 2 3 4t4 1l109 -62l108 62l2 1q2 0 3.5 -3.5t-0.5 -4.5l-102 -92
q-4 -4 -11 -4q-8 0 -12 4z" />
    <glyph glyph-name="uni0162" unicode="&#x162;" horiz-adv-x="632" 
d="M591 654q5 0 5 -4q-3 -28 -6 -85.5t-3 -93.5q0 -2 -6 -2t-6 2q0 53 -11 82t-37 42t-73 13q-52 0 -73 -3.5t-28.5 -16.5t-7.5 -46v-461q0 -31 7 -45t28 -19t66 -5q2 0 2 -6t-2 -6q-33 0 -51 1l-74 1q-15 -47 -15 -60q0 -15 9 -24t33 -22q25 -14 39.5 -32t14.5 -45
q0 -36 -25.5 -65t-73.5 -29q-26 0 -44 9.5t-18 26.5q0 12 8 19.5t20 7.5q10 0 15.5 -5t10.5 -15q8 -12 15 -18t22 -6q37 0 37 41q0 26 -18.5 46.5t-67.5 46.5q-8 4 -12 7t-4 7q0 5 6 17q11 29 35 93l-68 -1q-18 -1 -51 -1q-2 0 -2 6t2 6q45 0 66 5t28.5 19.5t7.5 44.5v463
q0 33 -8 45.5t-28.5 15.5t-74.5 3q-63 0 -92 -30t-39 -107q0 -2 -6 -2t-6 2q4 27 9 86.5t5 89.5q0 5 6 5t6 -5q0 -22 53 -22q86 -3 201 -3q59 0 125 2l68 1q36 0 53 5t22 20q1 4 6 4z" />
    <glyph glyph-name="uni021A" unicode="&#x21a;" horiz-adv-x="632" 
d="M88 578q-29 -30 -39 -107q0 -2 -6 -2t-6 2q4 27 9 86.5t5 89.5q0 5 6 5t6 -5q0 -22 53 -22q86 -3 201 -3q59 0 125 2l68 1q36 0 53 5t22 20q1 4 6 4t5 -4q-3 -28 -6 -85.5t-3 -93.5q0 -2 -6 -2t-6 2q0 53 -11 82t-37 42t-73 13q-52 0 -73 -3.5t-28.5 -16.5t-7.5 -46v-461
q0 -31 7 -45t28 -19t66 -5q2 0 2 -6t-2 -6q-33 0 -52 1l-77 1l-73 -1q-20 -1 -55 -1q-2 0 -2 6t2 6q45 0 66 5t28.5 19.5t7.5 44.5v463q0 33 -8 45.5t-28.5 15.5t-74.5 3q-63 0 -92 -30zM354.5 -107q13.5 -18 13.5 -53q0 -32 -14.5 -59.5t-42.5 -55.5q-1 -1 -3 -1
q-3 0 -5 3.5t0 4.5q43 40 43 95q0 18 -5 28q-6 -14 -28 -14q-17 0 -26.5 9.5t-9.5 25.5q0 35 38 35q26 0 39.5 -18z" />
    <glyph glyph-name="uni1E6C" unicode="&#x1e6c;" horiz-adv-x="632" 
d="M88 578q-29 -30 -39 -107q0 -2 -6 -2t-6 2q4 27 9 86.5t5 89.5q0 5 6 5t6 -5q0 -22 53 -22q86 -3 201 -3q59 0 125 2l68 1q36 0 53 5t22 20q1 4 6 4t5 -4q-3 -28 -6 -85.5t-3 -93.5q0 -2 -6 -2t-6 2q0 53 -11 82t-37 42t-73 13q-52 0 -73 -3.5t-28.5 -16.5t-7.5 -46v-461
q0 -31 7 -45t28 -19t66 -5q2 0 2 -6t-2 -6q-33 0 -52 1l-77 1l-73 -1q-20 -1 -55 -1q-2 0 -2 6t2 6q45 0 66 5t28.5 19.5t7.5 44.5v463q0 33 -8 45.5t-28.5 15.5t-74.5 3q-63 0 -92 -30zM293.5 -176q-10.5 10 -10.5 28t10.5 28t29.5 10q18 0 28 -10t10 -28t-10 -28t-28 -10
q-19 0 -29.5 10z" />
    <glyph glyph-name="uni1E6E" unicode="&#x1e6e;" horiz-adv-x="632" 
d="M88 578q-29 -30 -39 -107q0 -2 -6 -2t-6 2q4 27 9 86.5t5 89.5q0 5 6 5t6 -5q0 -22 53 -22q86 -3 201 -3q59 0 125 2l68 1q36 0 53 5t22 20q1 4 6 4t5 -4q-3 -28 -6 -85.5t-3 -93.5q0 -2 -6 -2t-6 2q0 53 -11 82t-37 42t-73 13q-52 0 -73 -3.5t-28.5 -16.5t-7.5 -46v-461
q0 -31 7 -45t28 -19t66 -5q2 0 2 -6t-2 -6q-33 0 -52 1l-77 1l-73 -1q-20 -1 -55 -1q-2 0 -2 6t2 6q45 0 66 5t28.5 19.5t7.5 44.5v463q0 33 -8 45.5t-28.5 15.5t-74.5 3q-63 0 -92 -30zM191 -98q0 13 5 13h251q2 0 3.5 -4t1.5 -9q0 -13 -5 -13h-251q-5 0 -5 13z" />
    <glyph glyph-name="U" unicode="U" horiz-adv-x="697" 
d="M551.5 590.5q-20.5 22.5 -64.5 22.5q-3 0 -3 6t3 6l42 -1q34 -2 55 -2q18 0 48 2l41 1q2 0 2 -6t-2 -6q-41 0 -60 -22.5t-19 -70.5v-286q0 -117 -63 -182t-170 -65q-74 0 -129 29.5t-85 83.5t-30 125v319q0 30 -6.5 44t-25 19.5t-57.5 5.5q-2 0 -2 6t2 6l48 -1
q42 -2 67 -2q27 0 69 2l46 1q3 0 3 -6t-3 -6q-39 0 -57 -6t-24.5 -20.5t-6.5 -44.5v-282q0 -117 55 -180.5t154 -63.5q91 0 142 57.5t51 159.5v287q0 48 -20.5 70.5z" />
    <glyph glyph-name="Uacute" unicode="&#xda;" horiz-adv-x="697" 
d="M551.5 590.5q-20.5 22.5 -64.5 22.5q-3 0 -3 6t3 6l42 -1q34 -2 55 -2q18 0 48 2l41 1q2 0 2 -6t-2 -6q-41 0 -60 -22.5t-19 -70.5v-286q0 -117 -63 -182t-170 -65q-74 0 -129 29.5t-85 83.5t-30 125v319q0 30 -6.5 44t-25 19.5t-57.5 5.5q-2 0 -2 6t2 6l48 -1
q42 -2 67 -2q27 0 69 2l46 1q3 0 3 -6t-3 -6q-39 0 -57 -6t-24.5 -20.5t-6.5 -44.5v-282q0 -117 55 -180.5t154 -63.5q91 0 142 57.5t51 159.5v287q0 48 -20.5 70.5zM275 678q-4 0 -5 4.5t2 6.5q46 21 122 65l50 28q4 2 20.5 -4t29 -13.5t5.5 -8.5q-62 -15 -113.5 -33.5
t-108.5 -43.5z" />
    <glyph glyph-name="Ubreve" unicode="&#x16c;" horiz-adv-x="697" 
d="M551.5 590.5q-20.5 22.5 -64.5 22.5q-3 0 -3 6t3 6l42 -1q34 -2 55 -2q18 0 48 2l41 1q2 0 2 -6t-2 -6q-41 0 -60 -22.5t-19 -70.5v-286q0 -117 -63 -182t-170 -65q-74 0 -129 29.5t-85 83.5t-30 125v319q0 30 -6.5 44t-25 19.5t-57.5 5.5q-2 0 -2 6t2 6l48 -1
q42 -2 67 -2q27 0 69 2l46 1q3 0 3 -6t-3 -6q-39 0 -57 -6t-24.5 -20.5t-6.5 -44.5v-282q0 -117 55 -180.5t154 -63.5q91 0 142 57.5t51 159.5v287q0 48 -20.5 70.5zM306.5 716.5q-26.5 26.5 -35.5 75.5q-1 4 4 4.5t7 -1.5q8 -30 35 -50.5t57 -20.5t56.5 21t34.5 50q0 2 4 2
q3 0 5.5 -1.5t1.5 -3.5q-9 -49 -35 -75.5t-67 -26.5t-67.5 26.5z" />
    <glyph glyph-name="uni01D3" unicode="&#x1d3;" horiz-adv-x="697" 
d="M551.5 590.5q-20.5 22.5 -64.5 22.5q-3 0 -3 6t3 6l42 -1q34 -2 55 -2q18 0 48 2l41 1q2 0 2 -6t-2 -6q-41 0 -60 -22.5t-19 -70.5v-286q0 -117 -63 -182t-170 -65q-74 0 -129 29.5t-85 83.5t-30 125v319q0 30 -6.5 44t-25 19.5t-57.5 5.5q-2 0 -2 6t2 6l48 -1
q42 -2 67 -2q27 0 69 2l46 1q3 0 3 -6t-3 -6q-39 0 -57 -6t-24.5 -20.5t-6.5 -44.5v-282q0 -117 55 -180.5t154 -63.5q91 0 142 57.5t51 159.5v287q0 48 -20.5 70.5zM259 779l-1 2q0 2 3 4t4 1l109 -62l108 62l2 1q2 0 3.5 -3.5t-0.5 -4.5l-102 -92q-4 -4 -11 -4q-8 0 -12 4
z" />
    <glyph glyph-name="Ucircumflex" unicode="&#xdb;" horiz-adv-x="697" 
d="M551.5 590.5q-20.5 22.5 -64.5 22.5q-3 0 -3 6t3 6l42 -1q34 -2 55 -2q18 0 48 2l41 1q2 0 2 -6t-2 -6q-41 0 -60 -22.5t-19 -70.5v-286q0 -117 -63 -182t-170 -65q-74 0 -129 29.5t-85 83.5t-30 125v319q0 30 -6.5 44t-25 19.5t-57.5 5.5q-2 0 -2 6t2 6l48 -1
q42 -2 67 -2q27 0 69 2l46 1q3 0 3 -6t-3 -6q-39 0 -57 -6t-24.5 -20.5t-6.5 -44.5v-282q0 -117 55 -180.5t154 -63.5q91 0 142 57.5t51 159.5v287q0 48 -20.5 70.5zM363 783q5 5 12 5q6 0 11 -5l102 -93q1 0 1 -2t-2.5 -4t-3.5 -1l-108 62l-109 -62q-2 -1 -5 2.5t-1 4.5z
" />
    <glyph glyph-name="Udieresis" unicode="&#xdc;" horiz-adv-x="697" 
d="M551.5 590.5q-20.5 22.5 -64.5 22.5q-3 0 -3 6t3 6l42 -1q34 -2 55 -2q18 0 48 2l41 1q2 0 2 -6t-2 -6q-41 0 -60 -22.5t-19 -70.5v-286q0 -117 -63 -182t-170 -65q-74 0 -129 29.5t-85 83.5t-30 125v319q0 30 -6.5 44t-25 19.5t-57.5 5.5q-2 0 -2 6t2 6l48 -1
q42 -2 67 -2q27 0 69 2l46 1q3 0 3 -6t-3 -6q-39 0 -57 -6t-24.5 -20.5t-6.5 -44.5v-282q0 -117 55 -180.5t154 -63.5q91 0 142 57.5t51 159.5v287q0 48 -20.5 70.5zM257.5 730q-10.5 10 -10.5 28t10.5 28t29.5 10q18 0 28 -10t10 -28t-10 -28t-28 -10q-19 0 -29.5 10z
M433 730q-11 10 -11 28t11 28t29 10q19 0 29 -10t10 -28t-10 -28t-29 -10q-18 0 -29 10z" />
    <glyph glyph-name="uni01D7" unicode="&#x1d7;" horiz-adv-x="697" 
d="M551.5 590.5q-20.5 22.5 -64.5 22.5q-3 0 -3 6t3 6l42 -1q34 -2 55 -2q18 0 48 2l41 1q2 0 2 -6t-2 -6q-41 0 -60 -22.5t-19 -70.5v-286q0 -117 -63 -182t-170 -65q-74 0 -129 29.5t-85 83.5t-30 125v319q0 30 -6.5 44t-25 19.5t-57.5 5.5q-2 0 -2 6t2 6l48 -1
q42 -2 67 -2q27 0 69 2l46 1q3 0 3 -6t-3 -6q-39 0 -57 -6t-24.5 -20.5t-6.5 -44.5v-282q0 -117 55 -180.5t154 -63.5q91 0 142 57.5t51 159.5v287q0 48 -20.5 70.5zM263 819q-4 0 -5.5 4.5t2.5 6.5q35 16 70.5 35.5t43.5 24.5q38 22 58 32q4 2 20.5 -3.5t29 -13t5.5 -9.5
q-118 -29 -223 -77h-1zM257.5 718q-10.5 10 -10.5 29q0 17 10.5 27t29.5 10q18 0 28 -10t10 -27q0 -19 -10 -29t-28 -10q-19 0 -29.5 10zM433 718.5q-11 10.5 -11 28.5q0 17 11 27t29 10q19 0 29 -10t10 -27q0 -19 -10 -29t-29 -10q-18 0 -29 10.5z" />
    <glyph glyph-name="uni01D9" unicode="&#x1d9;" horiz-adv-x="697" 
d="M551.5 590.5q-20.5 22.5 -64.5 22.5q-3 0 -3 6t3 6l42 -1q34 -2 55 -2q18 0 48 2l41 1q2 0 2 -6t-2 -6q-41 0 -60 -22.5t-19 -70.5v-286q0 -117 -63 -182t-170 -65q-74 0 -129 29.5t-85 83.5t-30 125v319q0 30 -6.5 44t-25 19.5t-57.5 5.5q-2 0 -2 6t2 6l48 -1
q42 -2 67 -2q27 0 69 2l46 1q3 0 3 -6t-3 -6q-39 0 -57 -6t-24.5 -20.5t-6.5 -44.5v-282q0 -117 55 -180.5t154 -63.5q91 0 142 57.5t51 159.5v287q0 48 -20.5 70.5zM262 908q-1 0 -1 0.5v0.5q0 2 2.5 4.5t4.5 1.5l109 -62l107 62h2q3 0 5 -3t-1 -4l-103 -92q-4 -4 -11 -4
t-11 4zM257.5 718q-10.5 10 -10.5 29q0 17 10.5 27t29.5 10q18 0 28 -10t10 -27q0 -19 -10 -29t-28 -10q-19 0 -29.5 10zM433 718.5q-11 10.5 -11 28.5q0 17 11 27t29 10q19 0 29 -10t10 -27q0 -19 -10 -29t-29 -10q-18 0 -29 10.5z" />
    <glyph glyph-name="uni01DB" unicode="&#x1db;" horiz-adv-x="697" 
d="M551.5 590.5q-20.5 22.5 -64.5 22.5q-3 0 -3 6t3 6l42 -1q34 -2 55 -2q18 0 48 2l41 1q2 0 2 -6t-2 -6q-41 0 -60 -22.5t-19 -70.5v-286q0 -117 -63 -182t-170 -65q-74 0 -129 29.5t-85 83.5t-30 125v319q0 30 -6.5 44t-25 19.5t-57.5 5.5q-2 0 -2 6t2 6l48 -1
q42 -2 67 -2q27 0 69 2l46 1q3 0 3 -6t-3 -6q-39 0 -57 -6t-24.5 -20.5t-6.5 -44.5v-282q0 -117 55 -180.5t154 -63.5q91 0 142 57.5t51 159.5v287q0 48 -20.5 70.5zM275 896q-7 2 5.5 9.5t29 13t20.5 3.5l58 -32q74 -42 114 -60q2 -1 2 -4t-2 -5.5t-5 -1.5q-106 48 -222 77
zM271 718q-10 10 -10 29q0 17 10 27t29 10q18 0 28.5 -10t10.5 -27q0 -19 -10.5 -29t-28.5 -10q-19 0 -29 10zM446 718q-10 10 -10 29q0 17 10 27t29 10t29.5 -10t10.5 -27q0 -19 -10.5 -29t-29.5 -10t-29 10z" />
    <glyph glyph-name="uni01D5" unicode="&#x1d5;" horiz-adv-x="697" 
d="M551.5 590.5q-20.5 22.5 -64.5 22.5q-3 0 -3 6t3 6l42 -1q34 -2 55 -2q18 0 48 2l41 1q2 0 2 -6t-2 -6q-41 0 -60 -22.5t-19 -70.5v-286q0 -117 -63 -182t-170 -65q-74 0 -129 29.5t-85 83.5t-30 125v319q0 30 -6.5 44t-25 19.5t-57.5 5.5q-2 0 -2 6t2 6l48 -1
q42 -2 67 -2q27 0 69 2l46 1q3 0 3 -6t-3 -6q-39 0 -57 -6t-24.5 -20.5t-6.5 -44.5v-282q0 -117 55 -180.5t154 -63.5q91 0 142 57.5t51 159.5v287q0 48 -20.5 70.5zM256.5 845q-1.5 4 -1.5 9q0 13 5 13h228q5 0 5 -13t-5 -13h-228q-2 0 -3.5 4zM257.5 718
q-10.5 10 -10.5 29q0 17 10.5 27t29.5 10q18 0 28 -10t10 -27q0 -19 -10 -29t-28 -10q-19 0 -29.5 10zM433 718.5q-11 10.5 -11 28.5q0 17 11 27t29 10q19 0 29 -10t10 -27q0 -19 -10 -29t-29 -10q-18 0 -29 10.5z" />
    <glyph glyph-name="uni1EE4" unicode="&#x1ee4;" horiz-adv-x="697" 
d="M551.5 590.5q-20.5 22.5 -64.5 22.5q-3 0 -3 6t3 6l42 -1q34 -2 55 -2q18 0 48 2l41 1q2 0 2 -6t-2 -6q-41 0 -60 -22.5t-19 -70.5v-286q0 -117 -63 -182t-170 -65q-74 0 -129 29.5t-85 83.5t-30 125v319q0 30 -6.5 44t-25 19.5t-57.5 5.5q-2 0 -2 6t2 6l48 -1
q42 -2 67 -2q27 0 69 2l46 1q3 0 3 -6t-3 -6q-39 0 -57 -6t-24.5 -20.5t-6.5 -44.5v-282q0 -117 55 -180.5t154 -63.5q91 0 142 57.5t51 159.5v287q0 48 -20.5 70.5zM320.5 -176q-10.5 10 -10.5 28t10.5 28t29.5 10q18 0 28 -10t10 -28t-10 -28t-28 -10q-19 0 -29.5 10z" />
    <glyph glyph-name="Ugrave" unicode="&#xd9;" horiz-adv-x="697" 
d="M551.5 590.5q-20.5 22.5 -64.5 22.5q-3 0 -3 6t3 6l42 -1q34 -2 55 -2q18 0 48 2l41 1q2 0 2 -6t-2 -6q-41 0 -60 -22.5t-19 -70.5v-286q0 -117 -63 -182t-170 -65q-74 0 -129 29.5t-85 83.5t-30 125v319q0 30 -6.5 44t-25 19.5t-57.5 5.5q-2 0 -2 6t2 6l48 -1
q42 -2 67 -2q27 0 69 2l46 1q3 0 3 -6t-3 -6q-39 0 -57 -6t-24.5 -20.5t-6.5 -44.5v-282q0 -117 55 -180.5t154 -63.5q91 0 142 57.5t51 159.5v287q0 48 -20.5 70.5zM250 756q-7 1 5.5 8.5t29 13.5t20.5 4q40 -23 84.5 -48t87.5 -45q2 -1 2 -4t-2 -5t-4 -1q-113 50 -223 77z
" />
    <glyph glyph-name="uni1EE6" unicode="&#x1ee6;" horiz-adv-x="697" 
d="M551.5 590.5q-20.5 22.5 -64.5 22.5q-3 0 -3 6t3 6l42 -1q34 -2 55 -2q18 0 48 2l41 1q2 0 2 -6t-2 -6q-41 0 -60 -22.5t-19 -70.5v-286q0 -117 -63 -182t-170 -65q-74 0 -129 29.5t-85 83.5t-30 125v319q0 30 -6.5 44t-25 19.5t-57.5 5.5q-2 0 -2 6t2 6l48 -1
q42 -2 67 -2q27 0 69 2l46 1q3 0 3 -6t-3 -6q-39 0 -57 -6t-24.5 -20.5t-6.5 -44.5v-282q0 -117 55 -180.5t154 -63.5q91 0 142 57.5t51 159.5v287q0 48 -20.5 70.5zM372.5 649q-5.5 0 -6.5 2q-3 12 -3 21q0 15 6 27t17 30q11 15 16 26t5 23q0 19 -13.5 30t-32.5 11
q-12 0 -26 -6h-1q-3 0 -6 3.5t0 4.5q31 19 61 19q29 0 45.5 -15t16.5 -37q0 -18 -9 -31t-30 -35q-18 -17 -27.5 -30.5t-9.5 -28.5q0 -4 2 -12q1 -2 -4.5 -2z" />
    <glyph glyph-name="Uhorn" unicode="&#x1af;" horiz-adv-x="697" 
d="M594 234q0 -117 -65 -182t-175 -65t-173.5 64t-63.5 174v319q0 30 -6.5 44t-25 19.5t-57.5 5.5q-2 0 -2 6t2 6l48 -1q42 -2 67 -2q27 0 69 2l46 1q3 0 3 -6t-3 -6q-39 0 -57 -6t-24.5 -20.5t-6.5 -44.5v-282q0 -119 54.5 -181.5t149.5 -62.5q92 0 145 58t53 159v287
q0 48 -20.5 70.5t-64.5 22.5q-3 0 -3 6t3 6l42 -1q34 -2 55 -2q46 0 66.5 10.5t20.5 36.5q0 15 -9 28q-8 10 -8 20q0 16 11.5 26t26.5 10q18 0 27.5 -13t9.5 -32q0 -31 -24 -54.5t-61 -38.5q-21 -8 -35.5 -27.5t-14.5 -67.5v-286z" />
    <glyph glyph-name="uni1EE8" unicode="&#x1ee8;" horiz-adv-x="697" 
d="M594 234q0 -117 -65 -182t-175 -65t-173.5 64t-63.5 174v319q0 30 -6.5 44t-25 19.5t-57.5 5.5q-2 0 -2 6t2 6l48 -1q42 -2 67 -2q27 0 69 2l46 1q3 0 3 -6t-3 -6q-39 0 -57 -6t-24.5 -20.5t-6.5 -44.5v-282q0 -119 54.5 -181.5t149.5 -62.5q92 0 145 58t53 159v287
q0 48 -20.5 70.5t-64.5 22.5q-3 0 -3 6t3 6l42 -1q34 -2 55 -2q46 0 66.5 10.5t20.5 36.5q0 15 -9 28q-8 10 -8 20q0 16 11.5 26t26.5 10q18 0 27.5 -13t9.5 -32q0 -31 -24 -54.5t-61 -38.5q-21 -8 -35.5 -27.5t-14.5 -67.5v-286zM274 678q-4 0 -5.5 4.5t1.5 6.5
q40 18 114 60l58 32q4 2 20.5 -3.5t29 -13t5.5 -8.5q-118 -30 -222 -78h-1z" />
    <glyph glyph-name="uni1EF0" unicode="&#x1ef0;" horiz-adv-x="697" 
d="M594 234q0 -117 -65 -182t-175 -65t-173.5 64t-63.5 174v319q0 30 -6.5 44t-25 19.5t-57.5 5.5q-2 0 -2 6t2 6l48 -1q42 -2 67 -2q27 0 69 2l46 1q3 0 3 -6t-3 -6q-39 0 -57 -6t-24.5 -20.5t-6.5 -44.5v-282q0 -119 54.5 -181.5t149.5 -62.5q92 0 145 58t53 159v287
q0 48 -20.5 70.5t-64.5 22.5q-3 0 -3 6t3 6l42 -1q34 -2 55 -2q46 0 66.5 10.5t20.5 36.5q0 15 -9 28q-8 10 -8 20q0 16 11.5 26t26.5 10q18 0 27.5 -13t9.5 -32q0 -31 -24 -54.5t-61 -38.5q-21 -8 -35.5 -27.5t-14.5 -67.5v-286zM341.5 -176q-10.5 10 -10.5 28t10.5 28
t29.5 10q18 0 28 -10t10 -28t-10 -28t-28 -10q-19 0 -29.5 10z" />
    <glyph glyph-name="uni1EEA" unicode="&#x1eea;" horiz-adv-x="697" 
d="M594 234q0 -117 -65 -182t-175 -65t-173.5 64t-63.5 174v319q0 30 -6.5 44t-25 19.5t-57.5 5.5q-2 0 -2 6t2 6l48 -1q42 -2 67 -2q27 0 69 2l46 1q3 0 3 -6t-3 -6q-39 0 -57 -6t-24.5 -20.5t-6.5 -44.5v-282q0 -119 54.5 -181.5t149.5 -62.5q92 0 145 58t53 159v287
q0 48 -20.5 70.5t-64.5 22.5q-3 0 -3 6t3 6l42 -1q34 -2 55 -2q46 0 66.5 10.5t20.5 36.5q0 15 -9 28q-8 10 -8 20q0 16 11.5 26t26.5 10q18 0 27.5 -13t9.5 -32q0 -31 -24 -54.5t-61 -38.5q-21 -8 -35.5 -27.5t-14.5 -67.5v-286zM248 756q-7 1 5.5 8.5t29 13.5t20.5 4
q40 -23 84.5 -48t87.5 -45q2 -1 2 -4t-2 -5t-4 -1q-113 50 -223 77z" />
    <glyph glyph-name="uni1EEC" unicode="&#x1eec;" horiz-adv-x="697" 
d="M594 234q0 -117 -65 -182t-175 -65t-173.5 64t-63.5 174v319q0 30 -6.5 44t-25 19.5t-57.5 5.5q-2 0 -2 6t2 6l48 -1q42 -2 67 -2q27 0 69 2l46 1q3 0 3 -6t-3 -6q-39 0 -57 -6t-24.5 -20.5t-6.5 -44.5v-282q0 -119 54.5 -181.5t149.5 -62.5q92 0 145 58t53 159v287
q0 48 -20.5 70.5t-64.5 22.5q-3 0 -3 6t3 6l42 -1q34 -2 55 -2q46 0 66.5 10.5t20.5 36.5q0 15 -9 28q-8 10 -8 20q0 16 11.5 26t26.5 10q18 0 27.5 -13t9.5 -32q0 -31 -24 -54.5t-61 -38.5q-21 -8 -35.5 -27.5t-14.5 -67.5v-286zM370.5 649q-5.5 0 -6.5 2q-3 12 -3 21
q0 15 6 27t17 30q11 15 16 26t5 23q0 19 -13.5 30t-32.5 11q-12 0 -26 -6h-1q-3 0 -6 3.5t0 4.5q31 19 61 19q29 0 45.5 -15t16.5 -37q0 -18 -9 -31t-30 -35q-18 -17 -27.5 -30.5t-9.5 -28.5q0 -4 2 -12q1 -2 -4.5 -2z" />
    <glyph glyph-name="uni1EEE" unicode="&#x1eee;" horiz-adv-x="697" 
d="M594 234q0 -117 -65 -182t-175 -65t-173.5 64t-63.5 174v319q0 30 -6.5 44t-25 19.5t-57.5 5.5q-2 0 -2 6t2 6l48 -1q42 -2 67 -2q27 0 69 2l46 1q3 0 3 -6t-3 -6q-39 0 -57 -6t-24.5 -20.5t-6.5 -44.5v-282q0 -119 54.5 -181.5t149.5 -62.5q92 0 145 58t53 159v287
q0 48 -20.5 70.5t-64.5 22.5q-3 0 -3 6t3 6l42 -1q34 -2 55 -2q46 0 66.5 10.5t20.5 36.5q0 15 -9 28q-8 10 -8 20q0 16 11.5 26t26.5 10q18 0 27.5 -13t9.5 -32q0 -31 -24 -54.5t-61 -38.5q-21 -8 -35.5 -27.5t-14.5 -67.5v-286zM476.5 768q10.5 7 21.5 20h1q3 0 5.5 -2.5
t0.5 -4.5q-26 -34 -43 -46t-35 -12q-15 0 -31 3.5t-32 8.5t-34 9t-35 4q-16 0 -24.5 -5.5t-15 -12l-9.5 -9.5h-2q-3 0 -5 2.5t0 4.5q16 22 38.5 39.5t45.5 17.5q14 0 31.5 -4.5t20.5 -5.5q44 -14 74 -14q17 0 27.5 7z" />
    <glyph glyph-name="Uhungarumlaut" unicode="&#x170;" horiz-adv-x="697" 
d="M551.5 590.5q-20.5 22.5 -64.5 22.5q-3 0 -3 6t3 6l42 -1q34 -2 55 -2q18 0 48 2l41 1q2 0 2 -6t-2 -6q-41 0 -60 -22.5t-19 -70.5v-286q0 -117 -63 -182t-170 -65q-74 0 -129 29.5t-85 83.5t-30 125v319q0 30 -6.5 44t-25 19.5t-57.5 5.5q-2 0 -2 6t2 6l48 -1
q42 -2 67 -2q27 0 69 2l46 1q3 0 3 -6t-3 -6q-39 0 -57 -6t-24.5 -20.5t-6.5 -44.5v-282q0 -117 55 -180.5t154 -63.5q91 0 142 57.5t51 159.5v287q0 48 -20.5 70.5zM269 678q-3 0 -4 4.5t1 6.5q41 37 90 87q3 3 20.5 -1t31 -10t6.5 -9q-67 -28 -143 -77zM386 678
q-3 0 -4 4.5t1 6.5q41 37 90 87q3 3 19.5 -1t29 -10t6.5 -9q-37 -15 -68.5 -33t-71.5 -44z" />
    <glyph glyph-name="Umacron" unicode="&#x16a;" horiz-adv-x="697" 
d="M551.5 590.5q-20.5 22.5 -64.5 22.5q-3 0 -3 6t3 6l42 -1q34 -2 55 -2q18 0 48 2l41 1q2 0 2 -6t-2 -6q-41 0 -60 -22.5t-19 -70.5v-286q0 -117 -63 -182t-170 -65q-74 0 -129 29.5t-85 83.5t-30 125v319q0 30 -6.5 44t-25 19.5t-57.5 5.5q-2 0 -2 6t2 6l48 -1
q42 -2 67 -2q27 0 69 2l46 1q3 0 3 -6t-3 -6q-39 0 -57 -6t-24.5 -20.5t-6.5 -44.5v-282q0 -117 55 -180.5t154 -63.5q91 0 142 57.5t51 159.5v287q0 48 -20.5 70.5zM244.5 728q-1.5 4 -1.5 9q0 13 5 13h251q5 0 5 -13t-5 -13h-251q-2 0 -3.5 4z" />
    <glyph glyph-name="Uogonek" unicode="&#x172;" horiz-adv-x="697" 
d="M675 619q0 -6 -2 -6q-41 0 -60 -22.5t-19 -70.5v-286q0 -97 -44 -159t-122 -80q-39 -36 -57 -71t-18 -74q0 -46 23.5 -72t68.5 -26q23 0 39 6.5t32 19.5h2q3 0 5.5 -3t-0.5 -5q-51 -45 -107 -45q-54 0 -82.5 25.5t-28.5 70.5q0 83 100 169q-21 -3 -44 -3q-74 0 -129 29.5
t-85 83.5t-30 125v319q0 30 -6.5 44t-25 19.5t-57.5 5.5q-2 0 -2 6t2 6l48 -1q42 -2 67 -2q27 0 69 2l46 1q3 0 3 -6t-3 -6q-39 0 -57 -6t-24.5 -20.5t-6.5 -44.5v-282q0 -117 55 -180.5t154 -63.5q91 0 142 57.5t51 159.5v287q0 48 -20.5 70.5t-64.5 22.5q-3 0 -3 6t3 6
l42 -1q34 -2 55 -2q18 0 48 2l41 1q2 0 2 -6z" />
    <glyph glyph-name="Uring" unicode="&#x16e;" horiz-adv-x="697" 
d="M551.5 590.5q-20.5 22.5 -64.5 22.5q-3 0 -3 6t3 6l42 -1q34 -2 55 -2q18 0 48 2l41 1q2 0 2 -6t-2 -6q-41 0 -60 -22.5t-19 -70.5v-286q0 -117 -63 -182t-170 -65q-74 0 -129 29.5t-85 83.5t-30 125v319q0 30 -6.5 44t-25 19.5t-57.5 5.5q-2 0 -2 6t2 6l48 -1
q42 -2 67 -2q27 0 69 2l46 1q3 0 3 -6t-3 -6q-39 0 -57 -6t-24.5 -20.5t-6.5 -44.5v-282q0 -117 55 -180.5t154 -63.5q91 0 142 57.5t51 159.5v287q0 48 -20.5 70.5zM305 730.5q-23 23.5 -23 55.5q0 36 29 57t64 21q34 0 58.5 -23.5t24.5 -56.5q0 -35 -28.5 -56t-64.5 -21
q-37 0 -60 23.5zM410 728q9 12 9 38q0 36 -18.5 62t-45.5 26q-19 0 -27 -11.5t-8 -36.5q0 -34 16.5 -62t44.5 -28q20 0 29 12z" />
    <glyph glyph-name="Utilde" unicode="&#x168;" horiz-adv-x="697" 
d="M551.5 590.5q-20.5 22.5 -64.5 22.5q-3 0 -3 6t3 6l42 -1q34 -2 55 -2q18 0 48 2l41 1q2 0 2 -6t-2 -6q-41 0 -60 -22.5t-19 -70.5v-286q0 -117 -63 -182t-170 -65q-74 0 -129 29.5t-85 83.5t-30 125v319q0 30 -6.5 44t-25 19.5t-57.5 5.5q-2 0 -2 6t2 6l48 -1
q42 -2 67 -2q27 0 69 2l46 1q3 0 3 -6t-3 -6q-39 0 -57 -6t-24.5 -20.5t-6.5 -44.5v-282q0 -117 55 -180.5t154 -63.5q91 0 142 57.5t51 159.5v287q0 48 -20.5 70.5zM478.5 768q10.5 7 21.5 20h1q3 0 5.5 -2.5t0.5 -4.5q-26 -34 -43 -46t-35 -12q-15 0 -31 3.5t-32 8.5
t-34 9t-35 4q-16 0 -24.5 -5.5t-15 -12l-9.5 -9.5h-2q-3 0 -5 2.5t0 4.5q16 22 38.5 39.5t45.5 17.5q14 0 31.5 -4.5t20.5 -5.5q44 -14 74 -14q17 0 27.5 7z" />
    <glyph glyph-name="V" unicode="V" horiz-adv-x="667" 
d="M673 619q0 -6 -3 -6q-34 0 -56.5 -14.5t-39.5 -54.5l-220 -543q-1 -4 -11 -4q-8 0 -11 4l-247 541q-17 39 -36.5 55t-50.5 16q-3 0 -3 6t3 6l43 -1q28 -2 42 -2q29 0 69 2l43 1q3 0 3 -6t-3 -6q-31 0 -46.5 -7t-15.5 -24q0 -12 9 -30l218 -481l193 479q7 17 7 29
q0 18 -18.5 26t-60.5 8q-3 0 -3 6t3 6l40 -1q34 -2 60 -2q21 0 47 2l42 1q3 0 3 -6z" />
    <glyph glyph-name="W" unicode="W" horiz-adv-x="936" 
d="M942 619q0 -6 -3 -6q-34 0 -56.5 -14.5t-39.5 -54.5l-220 -543q-1 -4 -11 -4q-8 0 -11 4l-131 287l-116 -287q-1 -4 -11 -4q-8 0 -11 4l-247 541q-17 39 -36.5 55t-50.5 16q-3 0 -3 6t3 6l43 -1q28 -2 42 -2q29 0 69 2l43 1q3 0 3 -6t-3 -6q-31 0 -47 -7t-16 -25
q0 -10 8 -29l221 -477l97 239l-104 228q-17 39 -36.5 55t-50.5 16q-3 0 -3 6t3 6l43 -1q28 -2 42 -2q21 0 49 2l28 1q3 0 3 -6t-3 -6q-20 0 -28 -3t-8 -12t16 -46l80 -172l69 170q9 21 9 35q0 15 -11.5 21.5t-36.5 6.5q-2 0 -2 6t2 6l28 -1q20 -2 38 -2q20 0 46 2l43 1
q2 0 2 -6t-2 -6q-34 0 -57 -14.5t-39 -54.5l-77 -190l129 -279l193 475q7 15 7 29q0 18 -18.5 26t-61.5 8q-3 0 -3 6t3 6l40 -1q34 -2 60 -2q21 0 47 2l42 1q3 0 3 -6z" />
    <glyph glyph-name="Wacute" unicode="&#x1e82;" horiz-adv-x="936" 
d="M942 619q0 -6 -3 -6q-34 0 -56.5 -14.5t-39.5 -54.5l-220 -543q-1 -4 -11 -4q-8 0 -11 4l-131 287l-116 -287q-1 -4 -11 -4q-8 0 -11 4l-247 541q-17 39 -36.5 55t-50.5 16q-3 0 -3 6t3 6l43 -1q28 -2 42 -2q29 0 69 2l43 1q3 0 3 -6t-3 -6q-31 0 -47 -7t-16 -25
q0 -10 8 -29l221 -477l97 239l-104 228q-17 39 -36.5 55t-50.5 16q-3 0 -3 6t3 6l43 -1q28 -2 42 -2q21 0 49 2l28 1q3 0 3 -6t-3 -6q-20 0 -28 -3t-8 -12t16 -46l80 -172l69 170q9 21 9 35q0 15 -11.5 21.5t-36.5 6.5q-2 0 -2 6t2 6l28 -1q20 -2 38 -2q20 0 46 2l43 1
q2 0 2 -6t-2 -6q-34 0 -57 -14.5t-39 -54.5l-77 -190l129 -279l193 475q7 15 7 29q0 18 -18.5 26t-61.5 8q-3 0 -3 6t3 6l40 -1q34 -2 60 -2q21 0 47 2l42 1q3 0 3 -6zM369 678q-4 0 -5 4.5t2 6.5q46 21 122 65l50 28q4 2 20.5 -4t29 -13.5t5.5 -8.5q-62 -15 -113.5 -33.5
t-108.5 -43.5z" />
    <glyph glyph-name="Wcircumflex" unicode="&#x174;" horiz-adv-x="936" 
d="M942 619q0 -6 -3 -6q-34 0 -56.5 -14.5t-39.5 -54.5l-220 -543q-1 -4 -11 -4q-8 0 -11 4l-131 287l-116 -287q-1 -4 -11 -4q-8 0 -11 4l-247 541q-17 39 -36.5 55t-50.5 16q-3 0 -3 6t3 6l43 -1q28 -2 42 -2q29 0 69 2l43 1q3 0 3 -6t-3 -6q-31 0 -47 -7t-16 -25
q0 -10 8 -29l221 -477l97 239l-104 228q-17 39 -36.5 55t-50.5 16q-3 0 -3 6t3 6l43 -1q28 -2 42 -2q21 0 49 2l28 1q3 0 3 -6t-3 -6q-20 0 -28 -3t-8 -12t16 -46l80 -172l69 170q9 21 9 35q0 15 -11.5 21.5t-36.5 6.5q-2 0 -2 6t2 6l28 -1q20 -2 38 -2q20 0 46 2l43 1
q2 0 2 -6t-2 -6q-34 0 -57 -14.5t-39 -54.5l-77 -190l129 -279l193 475q7 15 7 29q0 18 -18.5 26t-61.5 8q-3 0 -3 6t3 6l40 -1q34 -2 60 -2q21 0 47 2l42 1q3 0 3 -6zM457 783q5 5 12 5q6 0 11 -5l102 -93q1 0 1 -2t-2.5 -4t-3.5 -1l-108 62l-109 -62q-2 -1 -5 2.5t-1 4.5z
" />
    <glyph glyph-name="Wdieresis" unicode="&#x1e84;" horiz-adv-x="936" 
d="M942 619q0 -6 -3 -6q-34 0 -56.5 -14.5t-39.5 -54.5l-220 -543q-1 -4 -11 -4q-8 0 -11 4l-131 287l-116 -287q-1 -4 -11 -4q-8 0 -11 4l-247 541q-17 39 -36.5 55t-50.5 16q-3 0 -3 6t3 6l43 -1q28 -2 42 -2q29 0 69 2l43 1q3 0 3 -6t-3 -6q-31 0 -47 -7t-16 -25
q0 -10 8 -29l221 -477l97 239l-104 228q-17 39 -36.5 55t-50.5 16q-3 0 -3 6t3 6l43 -1q28 -2 42 -2q21 0 49 2l28 1q3 0 3 -6t-3 -6q-20 0 -28 -3t-8 -12t16 -46l80 -172l69 170q9 21 9 35q0 15 -11.5 21.5t-36.5 6.5q-2 0 -2 6t2 6l28 -1q20 -2 38 -2q20 0 46 2l43 1
q2 0 2 -6t-2 -6q-34 0 -57 -14.5t-39 -54.5l-77 -190l129 -279l193 475q7 15 7 29q0 18 -18.5 26t-61.5 8q-3 0 -3 6t3 6l40 -1q34 -2 60 -2q21 0 47 2l42 1q3 0 3 -6zM351.5 730q-10.5 10 -10.5 28t10.5 28t29.5 10q18 0 28 -10t10 -28t-10 -28t-28 -10q-19 0 -29.5 10z
M527 730q-11 10 -11 28t11 28t29 10q19 0 29 -10t10 -28t-10 -28t-29 -10q-18 0 -29 10z" />
    <glyph glyph-name="Wgrave" unicode="&#x1e80;" horiz-adv-x="936" 
d="M942 619q0 -6 -3 -6q-34 0 -56.5 -14.5t-39.5 -54.5l-220 -543q-1 -4 -11 -4q-8 0 -11 4l-131 287l-116 -287q-1 -4 -11 -4q-8 0 -11 4l-247 541q-17 39 -36.5 55t-50.5 16q-3 0 -3 6t3 6l43 -1q28 -2 42 -2q29 0 69 2l43 1q3 0 3 -6t-3 -6q-31 0 -47 -7t-16 -25
q0 -10 8 -29l221 -477l97 239l-104 228q-17 39 -36.5 55t-50.5 16q-3 0 -3 6t3 6l43 -1q28 -2 42 -2q21 0 49 2l28 1q3 0 3 -6t-3 -6q-20 0 -28 -3t-8 -12t16 -46l80 -172l69 170q9 21 9 35q0 15 -11.5 21.5t-36.5 6.5q-2 0 -2 6t2 6l28 -1q20 -2 38 -2q20 0 46 2l43 1
q2 0 2 -6t-2 -6q-34 0 -57 -14.5t-39 -54.5l-77 -190l129 -279l193 475q7 15 7 29q0 18 -18.5 26t-61.5 8q-3 0 -3 6t3 6l40 -1q34 -2 60 -2q21 0 47 2l42 1q3 0 3 -6zM344 756q-7 1 5.5 8.5t29 13.5t20.5 4q40 -23 84.5 -48t87.5 -45q2 -1 2 -4t-2 -5t-4 -1
q-113 50 -223 77z" />
    <glyph glyph-name="X" unicode="X" horiz-adv-x="653" 
d="M635 6q0 -6 -2 -6q-26 0 -41 1l-53 1l-75 -1q-18 -1 -49 -1q-2 0 -2 6t2 6q30 0 43 4t13 14q0 8 -9 21l-155 235l-139 -194q-20 -29 -20 -47q0 -33 61 -33q3 0 3 -6t-3 -6q-30 0 -45 1l-67 1l-41 -1q-11 -1 -36 -1q-3 0 -3 6t3 6q34 0 66 20.5t61 59.5l151 207l-161 243
q-26 39 -52 55t-62 16q-2 0 -2 6t2 6q12 0 38 -2l36 -1q32 0 80 2l52 1q3 0 3 -6t-3 -6q-30 0 -43 -4.5t-13 -14.5q0 -7 9 -21l152 -228l127 179q24 35 24 55q0 34 -58 34q-3 0 -3 6t3 6l45 -1q38 -2 67 -2q17 0 41 2l36 1q3 0 3 -6t-3 -6q-68 0 -134 -90l-140 -191
l166 -249q26 -40 53.5 -55.5t71.5 -15.5q2 0 2 -6z" />
    <glyph glyph-name="Y" unicode="Y" horiz-adv-x="607" 
d="M613 619q0 -6 -2 -6q-37 0 -72 -23.5t-63 -66.5l-141 -214v-228q0 -31 6 -45t24 -19t58 -5q3 0 3 -6t-3 -6q-30 0 -47 1l-68 1l-68 -1q-18 -1 -48 -1q-3 0 -3 6t3 6q39 0 57.5 5t25.5 19.5t7 44.5v213l-171 248q-26 39 -51 55t-62 16q-3 0 -3 6t3 6l37 -1q24 -2 36 -2
q33 0 81 2l52 1q2 0 2 -6t-2 -6q-30 0 -43.5 -4.5t-13.5 -14.5q0 -6 10 -21l168 -241l128 194q22 36 22 55q0 32 -54 32q-2 0 -2 6t2 6l45 -1q38 -2 67 -2q17 0 41 2l37 1q2 0 2 -6z" />
    <glyph glyph-name="Yacute" unicode="&#xdd;" horiz-adv-x="607" 
d="M613 619q0 -6 -2 -6q-37 0 -72 -23.5t-63 -66.5l-141 -214v-228q0 -31 6 -45t24 -19t58 -5q3 0 3 -6t-3 -6q-30 0 -47 1l-68 1l-68 -1q-18 -1 -48 -1q-3 0 -3 6t3 6q39 0 57.5 5t25.5 19.5t7 44.5v213l-171 248q-26 39 -51 55t-62 16q-3 0 -3 6t3 6l37 -1q24 -2 36 -2
q33 0 81 2l52 1q2 0 2 -6t-2 -6q-30 0 -43.5 -4.5t-13.5 -14.5q0 -6 10 -21l168 -241l128 194q22 36 22 55q0 32 -54 32q-2 0 -2 6t2 6l45 -1q38 -2 67 -2q17 0 41 2l37 1q2 0 2 -6zM217 678q-4 0 -5 4.5t2 6.5q46 21 122 65l50 28q4 2 20.5 -4t29 -13.5t5.5 -8.5
q-62 -15 -113.5 -33.5t-108.5 -43.5z" />
    <glyph glyph-name="Ycircumflex" unicode="&#x176;" horiz-adv-x="607" 
d="M613 619q0 -6 -2 -6q-37 0 -72 -23.5t-63 -66.5l-141 -214v-228q0 -31 6 -45t24 -19t58 -5q3 0 3 -6t-3 -6q-30 0 -47 1l-68 1l-68 -1q-18 -1 -48 -1q-3 0 -3 6t3 6q39 0 57.5 5t25.5 19.5t7 44.5v213l-171 248q-26 39 -51 55t-62 16q-3 0 -3 6t3 6l37 -1q24 -2 36 -2
q33 0 81 2l52 1q2 0 2 -6t-2 -6q-30 0 -43.5 -4.5t-13.5 -14.5q0 -6 10 -21l168 -241l128 194q22 36 22 55q0 32 -54 32q-2 0 -2 6t2 6l45 -1q38 -2 67 -2q17 0 41 2l37 1q2 0 2 -6zM305 783q5 5 12 5q6 0 11 -5l102 -93q1 0 1 -2t-2.5 -4t-3.5 -1l-108 62l-109 -62
q-2 -1 -5 2.5t-1 4.5z" />
    <glyph glyph-name="Ydieresis" unicode="&#x178;" horiz-adv-x="607" 
d="M613 619q0 -6 -2 -6q-37 0 -72 -23.5t-63 -66.5l-141 -214v-228q0 -31 6 -45t24 -19t58 -5q3 0 3 -6t-3 -6q-30 0 -47 1l-68 1l-68 -1q-18 -1 -48 -1q-3 0 -3 6t3 6q39 0 57.5 5t25.5 19.5t7 44.5v213l-171 248q-26 39 -51 55t-62 16q-3 0 -3 6t3 6l37 -1q24 -2 36 -2
q33 0 81 2l52 1q2 0 2 -6t-2 -6q-30 0 -43.5 -4.5t-13.5 -14.5q0 -6 10 -21l168 -241l128 194q22 36 22 55q0 32 -54 32q-2 0 -2 6t2 6l45 -1q38 -2 67 -2q17 0 41 2l37 1q2 0 2 -6zM199.5 730q-10.5 10 -10.5 28t10.5 28t29.5 10q18 0 28 -10t10 -28t-10 -28t-28 -10
q-19 0 -29.5 10zM375 730q-11 10 -11 28t11 28t29 10q19 0 29 -10t10 -28t-10 -28t-29 -10q-18 0 -29 10z" />
    <glyph glyph-name="uni1E8E" unicode="&#x1e8e;" horiz-adv-x="607" 
d="M613 619q0 -6 -2 -6q-37 0 -72 -23.5t-63 -66.5l-141 -214v-228q0 -31 6 -45t24 -19t58 -5q3 0 3 -6t-3 -6q-30 0 -47 1l-68 1l-68 -1q-18 -1 -48 -1q-3 0 -3 6t3 6q39 0 57.5 5t25.5 19.5t7 44.5v213l-171 248q-26 39 -51 55t-62 16q-3 0 -3 6t3 6l37 -1q24 -2 36 -2
q33 0 81 2l52 1q2 0 2 -6t-2 -6q-30 0 -43.5 -4.5t-13.5 -14.5q0 -6 10 -21l168 -241l128 194q22 36 22 55q0 32 -54 32q-2 0 -2 6t2 6l45 -1q38 -2 67 -2q17 0 41 2l37 1q2 0 2 -6zM286.5 723q-10.5 10 -10.5 29q0 17 10.5 27t29.5 10q18 0 28 -10t10 -27q0 -19 -10 -29
t-28 -10q-19 0 -29.5 10z" />
    <glyph glyph-name="uni1EF4" unicode="&#x1ef4;" horiz-adv-x="607" 
d="M613 619q0 -6 -2 -6q-37 0 -72 -23.5t-63 -66.5l-141 -214v-228q0 -31 6 -45t24 -19t58 -5q3 0 3 -6t-3 -6q-30 0 -47 1l-68 1l-68 -1q-18 -1 -48 -1q-3 0 -3 6t3 6q39 0 57.5 5t25.5 19.5t7 44.5v213l-171 248q-26 39 -51 55t-62 16q-3 0 -3 6t3 6l37 -1q24 -2 36 -2
q33 0 81 2l52 1q2 0 2 -6t-2 -6q-30 0 -43.5 -4.5t-13.5 -14.5q0 -6 10 -21l168 -241l128 194q22 36 22 55q0 32 -54 32q-2 0 -2 6t2 6l45 -1q38 -2 67 -2q17 0 41 2l37 1q2 0 2 -6zM275.5 -176q-10.5 10 -10.5 28t10.5 28t29.5 10q18 0 28 -10t10 -28t-10 -28t-28 -10
q-19 0 -29.5 10z" />
    <glyph glyph-name="Ygrave" unicode="&#x1ef2;" horiz-adv-x="607" 
d="M613 619q0 -6 -2 -6q-37 0 -72 -23.5t-63 -66.5l-141 -214v-228q0 -31 6 -45t24 -19t58 -5q3 0 3 -6t-3 -6q-30 0 -47 1l-68 1l-68 -1q-18 -1 -48 -1q-3 0 -3 6t3 6q39 0 57.5 5t25.5 19.5t7 44.5v213l-171 248q-26 39 -51 55t-62 16q-3 0 -3 6t3 6l37 -1q24 -2 36 -2
q33 0 81 2l52 1q2 0 2 -6t-2 -6q-30 0 -43.5 -4.5t-13.5 -14.5q0 -6 10 -21l168 -241l128 194q22 36 22 55q0 32 -54 32q-2 0 -2 6t2 6l45 -1q38 -2 67 -2q17 0 41 2l37 1q2 0 2 -6zM192 756q-7 1 5.5 8.5t29 13.5t20.5 4q40 -23 84.5 -48t87.5 -45q2 -1 2 -4t-2 -5t-4 -1
q-113 50 -223 77z" />
    <glyph glyph-name="uni1EF6" unicode="&#x1ef6;" horiz-adv-x="607" 
d="M613 619q0 -6 -2 -6q-37 0 -72 -23.5t-63 -66.5l-141 -214v-228q0 -31 6 -45t24 -19t58 -5q3 0 3 -6t-3 -6q-30 0 -47 1l-68 1l-68 -1q-18 -1 -48 -1q-3 0 -3 6t3 6q39 0 57.5 5t25.5 19.5t7 44.5v213l-171 248q-26 39 -51 55t-62 16q-3 0 -3 6t3 6l37 -1q24 -2 36 -2
q33 0 81 2l52 1q2 0 2 -6t-2 -6q-30 0 -43.5 -4.5t-13.5 -14.5q0 -6 10 -21l168 -241l128 194q22 36 22 55q0 32 -54 32q-2 0 -2 6t2 6l45 -1q38 -2 67 -2q17 0 41 2l37 1q2 0 2 -6zM314.5 649q-5.5 0 -6.5 2q-3 12 -3 21q0 15 6 27t17 30q11 15 16 26t5 23q0 19 -13.5 30
t-32.5 11q-12 0 -26 -6h-1q-3 0 -6 3.5t0 4.5q31 19 61 19q29 0 45.5 -15t16.5 -37q0 -18 -9 -31t-30 -35q-18 -17 -27.5 -30.5t-9.5 -28.5q0 -4 2 -12q1 -2 -4.5 -2z" />
    <glyph glyph-name="uni0232" unicode="&#x232;" horiz-adv-x="607" 
d="M613 619q0 -6 -2 -6q-37 0 -72 -23.5t-63 -66.5l-141 -214v-228q0 -31 6 -45t24 -19t58 -5q3 0 3 -6t-3 -6q-30 0 -47 1l-68 1l-68 -1q-18 -1 -48 -1q-3 0 -3 6t3 6q39 0 57.5 5t25.5 19.5t7 44.5v213l-171 248q-26 39 -51 55t-62 16q-3 0 -3 6t3 6l37 -1q24 -2 36 -2
q33 0 81 2l52 1q2 0 2 -6t-2 -6q-30 0 -43.5 -4.5t-13.5 -14.5q0 -6 10 -21l168 -241l128 194q22 36 22 55q0 32 -54 32q-2 0 -2 6t2 6l45 -1q38 -2 67 -2q17 0 41 2l37 1q2 0 2 -6zM186.5 728q-1.5 4 -1.5 9q0 13 5 13h251q5 0 5 -13t-5 -13h-251q-2 0 -3.5 4z" />
    <glyph glyph-name="uni1EF8" unicode="&#x1ef8;" horiz-adv-x="607" 
d="M613 619q0 -6 -2 -6q-37 0 -72 -23.5t-63 -66.5l-141 -214v-228q0 -31 6 -45t24 -19t58 -5q3 0 3 -6t-3 -6q-30 0 -47 1l-68 1l-68 -1q-18 -1 -48 -1q-3 0 -3 6t3 6q39 0 57.5 5t25.5 19.5t7 44.5v213l-171 248q-26 39 -51 55t-62 16q-3 0 -3 6t3 6l37 -1q24 -2 36 -2
q33 0 81 2l52 1q2 0 2 -6t-2 -6q-30 0 -43.5 -4.5t-13.5 -14.5q0 -6 10 -21l168 -241l128 194q22 36 22 55q0 32 -54 32q-2 0 -2 6t2 6l45 -1q38 -2 67 -2q17 0 41 2l37 1q2 0 2 -6zM420.5 744q10.5 7 21.5 20h2q3 0 5 -2.5t0 -4.5q-26 -34 -43 -45.5t-35 -11.5
q-15 0 -31 3.5t-32 8.5q-42 12 -69 12q-16 0 -24.5 -5.5t-15 -12l-9.5 -9.5h-1q-3 0 -5.5 2.5t-0.5 4.5q16 22 38.5 40t45.5 18q17 0 52 -11q44 -14 74 -14q17 0 27.5 7z" />
    <glyph glyph-name="Z" unicode="Z" horiz-adv-x="593" 
d="M460 600q3 5 2.5 6.5t-7.5 1.5q-196 0 -262 -5t-88.5 -24t-41.5 -77q0 -2 -4 -2q-3 0 -6 1.5t-2 2.5l40 151q0 1 4 1q10 0 8 -3q-1 -3 -1 -8q0 -12 11.5 -16t46.5 -4h365q5 0 7.5 -5t-0.5 -8l-401 -585l-3 -6q0 -2 8 -2h268q70 0 103 25t43 86q1 2 6 2t5 -2l-14 -122
q0 -3 -2.5 -6.5t-6.5 -3.5q-149 2 -478 2q-5 0 -7 4.5t1 8.5z" />
    <glyph glyph-name="Zacute" unicode="&#x179;" horiz-adv-x="593" 
d="M460 600q3 5 2.5 6.5t-7.5 1.5q-196 0 -262 -5t-88.5 -24t-41.5 -77q0 -2 -4 -2q-3 0 -6 1.5t-2 2.5l40 151q0 1 4 1q10 0 8 -3q-1 -3 -1 -8q0 -12 11.5 -16t46.5 -4h365q5 0 7.5 -5t-0.5 -8l-401 -585l-3 -6q0 -2 8 -2h268q70 0 103 25t43 86q1 2 6 2t5 -2l-14 -122
q0 -3 -2.5 -6.5t-6.5 -3.5q-149 2 -478 2q-5 0 -7 4.5t1 8.5zM212 678q-4 0 -5 4.5t2 6.5q46 21 122 65l50 28q4 2 20.5 -4t29 -13.5t5.5 -8.5q-62 -15 -113.5 -33.5t-108.5 -43.5z" />
    <glyph glyph-name="Zcaron" unicode="&#x17d;" horiz-adv-x="593" 
d="M460 600q3 5 2.5 6.5t-7.5 1.5q-196 0 -262 -5t-88.5 -24t-41.5 -77q0 -2 -4 -2q-3 0 -6 1.5t-2 2.5l40 151q0 1 4 1q10 0 8 -3q-1 -3 -1 -8q0 -12 11.5 -16t46.5 -4h365q5 0 7.5 -5t-0.5 -8l-401 -585l-3 -6q0 -2 8 -2h268q70 0 103 25t43 86q1 2 6 2t5 -2l-14 -122
q0 -3 -2.5 -6.5t-6.5 -3.5q-149 2 -478 2q-5 0 -7 4.5t1 8.5zM196 779l-1 2q0 2 3 4t4 1l109 -62l108 62l2 1q2 0 3.5 -3.5t-0.5 -4.5l-102 -92q-4 -4 -11 -4q-8 0 -12 4z" />
    <glyph glyph-name="Zdotaccent" unicode="&#x17b;" horiz-adv-x="593" 
d="M460 600q3 5 2.5 6.5t-7.5 1.5q-196 0 -262 -5t-88.5 -24t-41.5 -77q0 -2 -4 -2q-3 0 -6 1.5t-2 2.5l40 151q0 1 4 1q10 0 8 -3q-1 -3 -1 -8q0 -12 11.5 -16t46.5 -4h365q5 0 7.5 -5t-0.5 -8l-401 -585l-3 -6q0 -2 8 -2h268q70 0 103 25t43 86q1 2 6 2t5 -2l-14 -122
q0 -3 -2.5 -6.5t-6.5 -3.5q-149 2 -478 2q-5 0 -7 4.5t1 8.5zM281.5 723q-10.5 10 -10.5 29q0 17 10.5 27t29.5 10q18 0 28 -10t10 -27q0 -19 -10 -29t-28 -10q-19 0 -29.5 10z" />
    <glyph glyph-name="uni1E92" unicode="&#x1e92;" horiz-adv-x="593" 
d="M460 600q3 5 2.5 6.5t-7.5 1.5q-196 0 -262 -5t-88.5 -24t-41.5 -77q0 -2 -4 -2q-3 0 -6 1.5t-2 2.5l40 151q0 1 4 1q10 0 8 -3q-1 -3 -1 -8q0 -12 11.5 -16t46.5 -4h365q5 0 7.5 -5t-0.5 -8l-401 -585l-3 -6q0 -2 8 -2h268q70 0 103 25t43 86q1 2 6 2t5 -2l-14 -122
q0 -3 -2.5 -6.5t-6.5 -3.5q-149 2 -478 2q-5 0 -7 4.5t1 8.5zM268.5 -176q-10.5 10 -10.5 28t10.5 28t29.5 10q18 0 28 -10t10 -28t-10 -28t-28 -10q-19 0 -29.5 10z" />
    <glyph glyph-name="J.acute" horiz-adv-x="316" 
d="M183 -55q-12 -46 -40 -74.5t-80 -51.5l-1 -1q-2 0 -4.5 5t-0.5 6q47 25 66 76.5t19 134.5v504q0 30 -7 44t-26 19.5t-58 5.5q-2 0 -2 6t2 6l52 -1q40 -2 64 -2q25 0 63 2l43 1q2 0 2 -6t-2 -6q-34 0 -50.5 -6t-22 -20.5t-5.5 -44.5v-475q0 -76 -12 -122zM63 678
q-4 0 -5.5 4.5t1.5 6.5q40 18 114 60l58 32q4 2 20.5 -3.5t29 -13t5.5 -8.5q-118 -30 -222 -78h-1z" />
    <glyph glyph-name="J.acute.c2sc" horiz-adv-x="267" 
d="M115 387q0 30 -6 44t-22 19.5t-51 5.5q-2 0 -2 6t2 6l44 -1q38 -2 59 -2q25 0 63 2l41 1q3 0 3 -6t-3 -6q-33 0 -49 -6t-22 -20.5t-6 -44.5v-316q0 -75 -12 -121t-40 -75.5t-79 -53.5q-2 -1 -4.5 4t-0.5 6q41 21 63 71t22 122v365zM43 521q-4 0 -5 4.5t2 6.5
q46 21 122 65l50 28q4 2 20.5 -4t29 -13.5t5.5 -8.5q-62 -15 -113.5 -33.5t-108.5 -43.5z" />
    <glyph glyph-name="J.case.c2sc" horiz-adv-x="267" 
d="M115 387q0 30 -6 44t-22 19.5t-51 5.5q-2 0 -2 6t2 6l44 -1q38 -2 59 -2q25 0 63 2l41 1q3 0 3 -6t-3 -6q-33 0 -49 -6t-22 -20.5t-6 -44.5v-316q0 -75 -12 -121t-40 -75.5t-79 -53.5q-2 -1 -4.5 4t-0.5 6q41 21 63 71t22 122v365z" />
    <glyph glyph-name="Jcircumflex.case.c2sc" horiz-adv-x="267" 
d="M115 387q0 30 -6 44t-22 19.5t-51 5.5q-2 0 -2 6t2 6l44 -1q38 -2 59 -2q25 0 63 2l41 1q3 0 3 -6t-3 -6q-33 0 -49 -6t-22 -20.5t-6 -44.5v-316q0 -75 -12 -121t-40 -75.5t-79 -53.5q-2 -1 -4.5 4t-0.5 6q41 21 63 71t22 122v365zM131 626q5 5 12 5q6 0 11 -5l102 -93
q1 0 1 -2t-2.5 -4t-3.5 -1l-108 62l-109 -62q-2 -1 -5 2.5t-1 4.5z" />
    <glyph glyph-name="I.loclNLD.c2sc" horiz-adv-x="291" 
d="M177.5 36q5.5 -14 21 -19t50.5 -5q3 0 3 -6t-3 -6q-27 0 -42 1l-62 1l-59 -1q-16 -1 -44 -1q-2 0 -2 6t2 6q35 0 51 5t21.5 19.5t5.5 44.5v306q0 30 -5.5 44t-22 19.5t-50.5 5.5q-2 0 -2 6t2 6l44 -1q38 -2 59 -2q25 0 63 2l41 1q3 0 3 -6t-3 -6q-33 0 -49 -6t-22 -20.5
t-6 -44.5v-304q0 -31 5.5 -45z" />
    <glyph glyph-name="J.loclNLD.c2sc" horiz-adv-x="267" 
d="M115 387q0 30 -6 44t-22 19.5t-51 5.5q-2 0 -2 6t2 6l44 -1q38 -2 59 -2q25 0 63 2l41 1q3 0 3 -6t-3 -6q-33 0 -49 -6t-22 -20.5t-6 -44.5v-316q0 -75 -12 -121t-40 -75.5t-79 -53.5q-2 -1 -4.5 4t-0.5 6q41 21 63 71t22 122v365z" />
    <glyph glyph-name="Q.long.c2sc" horiz-adv-x="579" 
d="M1127 -210q2 -5 -1 -6q-56 -13 -121 -13q-158 0 -323.5 64t-310.5 170q-46 -17 -96 -17q-70 0 -124.5 33t-84 88.5t-29.5 120.5q0 78 41 135t103.5 86t127.5 29q70 0 123 -34t81.5 -89t28.5 -115q0 -64 -32 -119.5t-87 -90.5q90 -65 181 -116.5t210 -89.5t250 -38
q22 0 35 2t24 4q2 1 4 -4zM119.5 130q24.5 -56 71.5 -89t111 -33q83 0 132.5 55t49.5 153q0 67 -24 122.5t-71 88.5t-113 33q-86 0 -133.5 -55t-47.5 -151q0 -68 24.5 -124z" />
    <glyph glyph-name="R.short.c2sc" horiz-adv-x="530" 
d="M539 6q0 -6 -2 -6h-105q-18 0 -66 60t-115 166q-26 -4 -42 -4q-14 0 -44 2v-143q0 -31 5.5 -45t21 -19t50.5 -5q3 0 3 -6t-3 -6q-27 0 -42 1l-61 1l-58 -1q-16 -1 -45 -1q-2 0 -2 6t2 6q35 0 51 5t22 19.5t6 44.5v306q0 30 -6 44t-22 19.5t-50 5.5q-2 0 -2 6t2 6l45 -1
q36 -2 57 -2q19 0 34 1t25 2q31 3 58 3q61 0 93.5 -25t32.5 -72q0 -41 -22.5 -75t-60.5 -55q57 -92 95.5 -141t71.5 -70t71 -21q2 0 2 -6zM216 239q63 0 88 27.5t25 80.5q0 111 -100 111q-40 0 -52 -17t-12 -56v-142q19 -4 51 -4z" />
    <glyph glyph-name="Racute.short.c2sc" horiz-adv-x="530" 
d="M539 6q0 -6 -2 -6h-105q-18 0 -66 60t-115 166q-26 -4 -42 -4q-14 0 -44 2v-143q0 -31 5.5 -45t21 -19t50.5 -5q3 0 3 -6t-3 -6q-27 0 -42 1l-61 1l-58 -1q-16 -1 -45 -1q-2 0 -2 6t2 6q35 0 51 5t22 19.5t6 44.5v306q0 30 -6 44t-22 19.5t-50 5.5q-2 0 -2 6t2 6l45 -1
q36 -2 57 -2q19 0 34 1t25 2q31 3 58 3q61 0 93.5 -25t32.5 -72q0 -41 -22.5 -75t-60.5 -55q57 -92 95.5 -141t71.5 -70t71 -21q2 0 2 -6zM216 239q63 0 88 27.5t25 80.5q0 111 -100 111q-40 0 -52 -17t-12 -56v-142q19 -4 51 -4zM129 521q-4 0 -5 4.5t2 6.5q46 21 122 65
l50 28q4 2 20.5 -4t29 -13.5t5.5 -8.5q-62 -15 -113.5 -33.5t-108.5 -43.5z" />
    <glyph glyph-name="Rcaron.short.c2sc" horiz-adv-x="530" 
d="M539 6q0 -6 -2 -6h-105q-18 0 -66 60t-115 166q-26 -4 -42 -4q-14 0 -44 2v-143q0 -31 5.5 -45t21 -19t50.5 -5q3 0 3 -6t-3 -6q-27 0 -42 1l-61 1l-58 -1q-16 -1 -45 -1q-2 0 -2 6t2 6q35 0 51 5t22 19.5t6 44.5v306q0 30 -6 44t-22 19.5t-50 5.5q-2 0 -2 6t2 6l45 -1
q36 -2 57 -2q19 0 34 1t25 2q31 3 58 3q61 0 93.5 -25t32.5 -72q0 -41 -22.5 -75t-60.5 -55q57 -92 95.5 -141t71.5 -70t71 -21q2 0 2 -6zM216 239q63 0 88 27.5t25 80.5q0 111 -100 111q-40 0 -52 -17t-12 -56v-142q19 -4 51 -4zM113 622l-1 2q0 2 3 4t4 1l109 -62l108 62
l2 1q2 0 3.5 -3.5t-0.5 -4.5l-102 -92q-4 -4 -11 -4q-8 0 -12 4z" />
    <glyph glyph-name="Rcommaaccent.short.c2sc" horiz-adv-x="530" 
d="M539 6q0 -6 -2 -6h-105q-18 0 -66 60t-115 166q-26 -4 -42 -4q-14 0 -44 2v-143q0 -31 5.5 -45t21 -19t50.5 -5q3 0 3 -6t-3 -6q-27 0 -42 1l-61 1l-58 -1q-16 -1 -45 -1q-2 0 -2 6t2 6q35 0 51 5t22 19.5t6 44.5v306q0 30 -6 44t-22 19.5t-50 5.5q-2 0 -2 6t2 6l45 -1
q36 -2 57 -2q19 0 34 1t25 2q31 3 58 3q61 0 93.5 -25t32.5 -72q0 -41 -22.5 -75t-60.5 -55q57 -92 95.5 -141t71.5 -70t71 -21q2 0 2 -6zM216 239q63 0 88 27.5t25 80.5q0 111 -100 111q-40 0 -52 -17t-12 -56v-142q19 -4 51 -4zM315.5 -107q13.5 -18 13.5 -53
q0 -32 -14.5 -59.5t-42.5 -55.5q-1 -1 -3 -1q-3 0 -5 3.5t0 4.5q43 40 43 95q0 18 -5 28q-6 -14 -28 -14q-17 0 -26.5 9.5t-9.5 25.5q0 35 38 35q26 0 39.5 -18z" />
    <glyph glyph-name="uni1E5A.short.c2sc" horiz-adv-x="530" 
d="M539 6q0 -6 -2 -6h-105q-18 0 -66 60t-115 166q-26 -4 -42 -4q-14 0 -44 2v-143q0 -31 5.5 -45t21 -19t50.5 -5q3 0 3 -6t-3 -6q-27 0 -42 1l-61 1l-58 -1q-16 -1 -45 -1q-2 0 -2 6t2 6q35 0 51 5t22 19.5t6 44.5v306q0 30 -6 44t-22 19.5t-50 5.5q-2 0 -2 6t2 6l45 -1
q36 -2 57 -2q19 0 34 1t25 2q31 3 58 3q61 0 93.5 -25t32.5 -72q0 -41 -22.5 -75t-60.5 -55q57 -92 95.5 -141t71.5 -70t71 -21q2 0 2 -6zM216 239q63 0 88 27.5t25 80.5q0 111 -100 111q-40 0 -52 -17t-12 -56v-142q19 -4 51 -4zM254.5 -176q-10.5 10 -10.5 28t10.5 28
t29.5 10q18 0 28 -10t10 -28t-10 -28t-28 -10q-19 0 -29.5 10z" />
    <glyph glyph-name="uni1E5C.short.c2sc" horiz-adv-x="530" 
d="M539 6q0 -6 -2 -6h-105q-18 0 -66 60t-115 166q-26 -4 -42 -4q-14 0 -44 2v-143q0 -31 5.5 -45t21 -19t50.5 -5q3 0 3 -6t-3 -6q-27 0 -42 1l-61 1l-58 -1q-16 -1 -45 -1q-2 0 -2 6t2 6q35 0 51 5t22 19.5t6 44.5v306q0 30 -6 44t-22 19.5t-50 5.5q-2 0 -2 6t2 6l45 -1
q36 -2 57 -2q19 0 34 1t25 2q31 3 58 3q61 0 93.5 -25t32.5 -72q0 -41 -22.5 -75t-60.5 -55q57 -92 95.5 -141t71.5 -70t71 -21q2 0 2 -6zM216 239q63 0 88 27.5t25 80.5q0 111 -100 111q-40 0 -52 -17t-12 -56v-142q19 -4 51 -4zM254.5 -176q-10.5 10 -10.5 28t10.5 28
t29.5 10q18 0 28 -10t10 -28t-10 -28t-28 -10q-19 0 -29.5 10zM97 580q0 13 5 13h251q5 0 5 -13q0 -5 -1.5 -9t-3.5 -4h-251q-5 0 -5 13z" />
    <glyph glyph-name="uni1E5E.short.c2sc" horiz-adv-x="530" 
d="M539 6q0 -6 -2 -6h-105q-18 0 -66 60t-115 166q-26 -4 -42 -4q-14 0 -44 2v-143q0 -31 5.5 -45t21 -19t50.5 -5q3 0 3 -6t-3 -6q-27 0 -42 1l-61 1l-58 -1q-16 -1 -45 -1q-2 0 -2 6t2 6q35 0 51 5t22 19.5t6 44.5v306q0 30 -6 44t-22 19.5t-50 5.5q-2 0 -2 6t2 6l45 -1
q36 -2 57 -2q19 0 34 1t25 2q31 3 58 3q61 0 93.5 -25t32.5 -72q0 -41 -22.5 -75t-60.5 -55q57 -92 95.5 -141t71.5 -70t71 -21q2 0 2 -6zM216 239q63 0 88 27.5t25 80.5q0 111 -100 111q-40 0 -52 -17t-12 -56v-142q19 -4 51 -4zM152 -98q0 13 5 13h251q2 0 3.5 -4t1.5 -9
q0 -13 -5 -13h-251q-5 0 -5 13z" />
    <glyph glyph-name="J.case" horiz-adv-x="316" 
d="M183 -55q-12 -46 -40 -74.5t-80 -51.5l-1 -1q-2 0 -4.5 5t-0.5 6q47 25 66 76.5t19 134.5v504q0 30 -7 44t-26 19.5t-58 5.5q-2 0 -2 6t2 6l52 -1q40 -2 64 -2q25 0 63 2l43 1q2 0 2 -6t-2 -6q-34 0 -50.5 -6t-22 -20.5t-5.5 -44.5v-475q0 -76 -12 -122z" />
    <glyph glyph-name="Jcircumflex.case" horiz-adv-x="316" 
d="M183 -55q-12 -46 -40 -74.5t-80 -51.5l-1 -1q-2 0 -4.5 5t-0.5 6q47 25 66 76.5t19 134.5v504q0 30 -7 44t-26 19.5t-58 5.5q-2 0 -2 6t2 6l52 -1q40 -2 64 -2q25 0 63 2l43 1q2 0 2 -6t-2 -6q-34 0 -50.5 -6t-22 -20.5t-5.5 -44.5v-475q0 -76 -12 -122zM150 783
q5 5 12 5q6 0 11 -5l102 -93q1 0 1 -2t-2.5 -4t-3.5 -1l-108 62l-109 -62q-2 -1 -5 2.5t-1 4.5z" />
    <glyph glyph-name="Q.cv01" horiz-adv-x="766" 
d="M1232.5 -210q1.5 -5 -0.5 -6q-58 -13 -122 -13q-163 0 -334.5 62.5t-322.5 164.5q-47 -10 -87 -10q-93 0 -165.5 43.5t-112 118t-39.5 162.5q0 103 52 176.5t133.5 110.5t166.5 37q95 0 167 -44.5t110.5 -117.5t38.5 -155q0 -97 -53.5 -176t-141.5 -121
q125 -83 294 -158.5t354 -75.5q29 0 42.5 3t15.5 3q3 1 4.5 -4zM149.5 175.5q36.5 -77.5 102.5 -122.5t150 -45q71 0 128 33t90 97t33 153q0 94 -36.5 167.5t-103 114.5t-154.5 41q-116 0 -181 -72t-65 -196q0 -93 36.5 -170.5z" />
    <glyph glyph-name="Q.cv02" horiz-adv-x="766" 
d="M1451 -198.5q2 -5.5 -1 -6.5q-48 -15 -108 -26t-158 -11q-391 0 -843 231q-87 6 -153.5 50.5t-102.5 116.5t-36 156q0 103 52 176.5t133.5 110.5t166.5 37q95 0 167 -44.5t110.5 -117.5t38.5 -155q0 -77 -35 -144.5t-96 -114t-137 -63.5q93 -58 228 -107.5t281 -79
t270 -29.5q138 0 219 25q2 1 4 -4.5zM149.5 175.5q36.5 -77.5 102.5 -122.5t150 -45q71 0 128 33t90 97t33 153q0 94 -36.5 167.5t-103 114.5t-154.5 41q-116 0 -181 -72t-65 -196q0 -93 36.5 -170.5z" />
    <glyph glyph-name="Aacute.loclHUN" horiz-adv-x="698" 
d="M698 6q0 -6 -4 -6q-18 0 -58 2q-38 2 -56 2q-21 0 -55 -2q-32 -2 -48 -2q-4 0 -4 6t4 6q41 0 59 7.5t18 25.5q0 14 -11 39l-119 255h-191l-90 -216q-14 -34 -14 -56q0 -29 24 -42t75 -13q5 0 5 -6t-5 -6q-18 0 -52 2q-38 2 -66 2q-25 0 -59 -2q-30 -2 -49 -2q-5 0 -5 6
t5 6q28 0 47.5 10t37 36t37.5 74l209 503q2 3 6.5 3t5.5 -3l232 -498q23 -51 41 -77.5t35.5 -37t40.5 -10.5q4 0 4 -6zM416 358l-93 198l-82 -198h175zM286 678q-4 0 -5 4.5t2 6.5q18 17 50 55q8 9 18 20.5t22 23.5q4 2 23.5 -2.5t35 -10.5t8.5 -7q-37 -15 -73 -37t-79 -52z
" />
    <glyph glyph-name="Eacute.loclHUN" horiz-adv-x="533" 
d="M476 148.5q6 -0.5 6 -3.5q-9 -63 -9 -130q0 -8 -3.5 -11.5t-12.5 -3.5h-413q-2 0 -2 6t2 6q39 0 57.5 5t25 19.5t6.5 44.5v463q0 30 -6.5 44t-25 19.5t-57.5 5.5q-2 0 -2 6t2 6h396q9 0 9 -9l2 -121q0 -3 -5.5 -3t-5.5 3q0 51 -27 81t-71 30h-69q-38 0 -56 -5t-24.5 -19
t-6.5 -44v-203h132q46 0 64 15.5t18 53.5q0 2 6 2t6 -2l-1 -79q0 -29 1 -43l1 -47q0 -2 -6 -2t-6 2q0 45 -19 63t-67 18h-129v-231q0 -29 6.5 -42.5t24 -18.5t56.5 -5h92q40 0 68.5 35t36.5 92q0 3 6 2.5zM238 678q-4 0 -5 4.5t2 6.5q18 17 50 55q8 9 18 20.5t22 23.5
q4 2 23.5 -2.5t35 -10.5t8.5 -7q-37 -15 -73 -37t-79 -52z" />
    <glyph glyph-name="Iacute.loclHUN" horiz-adv-x="330" 
d="M198.5 36q6.5 -14 24.5 -19t58 -5q2 0 2 -6t-2 -6q-30 0 -47 1l-70 1l-67 -1q-18 -1 -49 -1q-3 0 -3 6t3 6q39 0 57.5 5t25.5 19.5t7 44.5v463q0 30 -7 44t-25.5 19.5t-57.5 5.5q-3 0 -3 6t3 6l49 -1q42 -2 67 -2q28 0 70 2l47 1q2 0 2 -6t-2 -6q-39 0 -57.5 -6
t-25 -20.5t-6.5 -44.5v-461q0 -31 6.5 -45zM113 678q-4 0 -5 4.5t2 6.5q18 17 50 55q8 9 18 20.5t22 23.5q4 2 23.5 -2.5t35 -10.5t8.5 -7q-37 -15 -73 -37t-79 -52z" />
    <glyph glyph-name="Oacute.loclHUN" horiz-adv-x="766" 
d="M200.5 31.5q-72.5 43.5 -112 118t-39.5 162.5q0 103 52 176.5t133.5 110.5t166.5 37q95 0 167 -44.5t110.5 -117.5t38.5 -155q0 -91 -48 -167t-128.5 -120t-174.5 -44q-93 0 -165.5 43.5zM530 41q57 33 90 97t33 153q0 94 -36.5 167.5t-103 114.5t-154.5 41
q-116 0 -181 -72t-65 -196q0 -93 36.5 -170.5t102.5 -122.5t150 -45q71 0 128 33zM332 678q-4 0 -5 4.5t2 6.5q18 17 50 55q8 9 18 20.5t22 23.5q4 2 23.5 -2.5t35 -10.5t8.5 -7q-37 -15 -73 -37t-79 -52z" />
    <glyph glyph-name="Uacute.loclHUN" horiz-adv-x="697" 
d="M551.5 590.5q-20.5 22.5 -64.5 22.5q-3 0 -3 6t3 6l42 -1q34 -2 55 -2q18 0 48 2l41 1q2 0 2 -6t-2 -6q-41 0 -60 -22.5t-19 -70.5v-286q0 -117 -63 -182t-170 -65q-74 0 -129 29.5t-85 83.5t-30 125v319q0 30 -6.5 44t-25 19.5t-57.5 5.5q-2 0 -2 6t2 6l48 -1
q42 -2 67 -2q27 0 69 2l46 1q3 0 3 -6t-3 -6q-39 0 -57 -6t-24.5 -20.5t-6.5 -44.5v-282q0 -117 55 -180.5t154 -63.5q91 0 142 57.5t51 159.5v287q0 48 -20.5 70.5zM322 678q-4 0 -5 4.5t2 6.5q18 17 50 55q8 9 18 20.5t22 23.5q4 2 23.5 -2.5t35 -10.5t8.5 -7
q-37 -15 -73 -37t-79 -52z" />
    <glyph glyph-name="I.loclNLD" horiz-adv-x="330" 
d="M198.5 36q6.5 -14 24.5 -19t58 -5q2 0 2 -6t-2 -6q-30 0 -47 1l-70 1l-67 -1q-18 -1 -49 -1q-3 0 -3 6t3 6q39 0 57.5 5t25.5 19.5t7 44.5v463q0 30 -7 44t-25.5 19.5t-57.5 5.5q-3 0 -3 6t3 6l49 -1q42 -2 67 -2q28 0 70 2l47 1q2 0 2 -6t-2 -6q-39 0 -57.5 -6
t-25 -20.5t-6.5 -44.5v-461q0 -31 6.5 -45z" />
    <glyph glyph-name="J.loclNLD" horiz-adv-x="316" 
d="M183 -55q-12 -46 -40 -74.5t-80 -51.5l-1 -1q-2 0 -4.5 5t-0.5 6q47 25 66 76.5t19 134.5v504q0 30 -7 44t-26 19.5t-58 5.5q-2 0 -2 6t2 6l52 -1q40 -2 64 -2q25 0 63 2l43 1q2 0 2 -6t-2 -6q-34 0 -50.5 -6t-22 -20.5t-5.5 -44.5v-475q0 -76 -12 -122z" />
    <glyph glyph-name="Cacute.loclPLK" horiz-adv-x="669" 
d="M511.5 626q49.5 -10 79.5 -27q8 -5 10.5 -9.5t3.5 -14.5l11 -105q0 -3 -5 -3.5t-6 2.5q-36 146 -231 146q-78 0 -137.5 -33.5t-92.5 -94.5t-33 -141q0 -94 41 -173.5t109 -126t147 -46.5q74 0 127.5 39t78.5 119q0 3 4 3q3 0 5.5 -1t2.5 -3l-14 -107q-2 -12 -4.5 -15.5
t-11.5 -7.5q-89 -39 -191 -39q-120 0 -200 48.5t-118 124t-38 158.5q0 91 51 163.5t135 113t178 40.5q49 0 98.5 -10zM375.5 676q-4.5 1 -4.5 4l9 123q1 4 18.5 8.5t32.5 4.5q8 0 12.5 -2.5t1.5 -6.5l-64 -129q-1 -3 -5.5 -2z" />
    <glyph glyph-name="Nacute.loclPLK" horiz-adv-x="725" 
d="M702 619q0 -6 -3 -6q-43 0 -60.5 -21t-17.5 -72v-531q0 -2 -5 -3t-7 1l-452 556l-17 19v-458q0 -51 17 -71.5t59 -20.5q3 0 3 -6t-3 -6q-24 0 -37 1l-48 1l-49 -1q-13 -1 -39 -1q-2 0 -2 6t2 6q43 0 59 20t16 72v479q-35 30 -72 30q-3 0 -3 6t3 6l36 -1q11 -1 31 -1
q17 0 28 1t17 1q7 0 11.5 -3.5t10.5 -14.5q11 -18 24 -34l395 -491v438q0 51 -16 72t-58 21q-2 0 -2 6t2 6l38 -1q30 -2 48 -2q17 0 49 2l39 1q3 0 3 -6zM370.5 676q-4.5 1 -4.5 4l9 123q1 4 18.5 8.5t32.5 4.5q8 0 12.5 -2.5t1.5 -6.5l-64 -129q-1 -3 -5.5 -2z" />
    <glyph glyph-name="Oacute.loclPLK" horiz-adv-x="766" 
d="M200.5 31.5q-72.5 43.5 -112 118t-39.5 162.5q0 103 52 176.5t133.5 110.5t166.5 37q95 0 167 -44.5t110.5 -117.5t38.5 -155q0 -91 -48 -167t-128.5 -120t-174.5 -44q-93 0 -165.5 43.5zM530 41q57 33 90 97t33 153q0 94 -36.5 167.5t-103 114.5t-154.5 41
q-116 0 -181 -72t-65 -196q0 -93 36.5 -170.5t102.5 -122.5t150 -45q71 0 128 33zM380.5 676q-4.5 1 -4.5 4l9 123q1 4 18.5 8.5t32.5 4.5q8 0 12.5 -2.5t1.5 -6.5l-64 -129q-1 -3 -5.5 -2z" />
    <glyph glyph-name="Sacute.loclPLK" horiz-adv-x="485" 
d="M157 435q19 -29 46.5 -48.5t76.5 -48.5q52 -31 80.5 -51.5t49 -52.5t20.5 -77q0 -47 -23 -85.5t-68.5 -61t-111.5 -22.5q-35 0 -66.5 7.5t-69.5 26.5q-5 3 -6.5 7t-2.5 12l-15 130v1q0 4 5 4.5t6 -3.5q10 -69 53 -120t118 -51q53 0 89.5 29t36.5 91q0 45 -20 77.5
t-48.5 54t-77.5 50.5q-48 28 -75.5 49t-47 52.5t-19.5 75.5q0 50 25.5 85t66.5 52.5t88 17.5q55 0 114 -24q15 -6 15 -17l9 -106q0 -4 -5.5 -4t-6.5 4q-4 52 -39 93t-100 41q-60 0 -88 -35t-28 -84q0 -40 19 -69zM247.5 676q-4.5 1 -4.5 4l9 123q1 4 18.5 8.5t32.5 4.5
q8 0 12.5 -2.5t1.5 -6.5l-64 -129q-1 -3 -5.5 -2z" />
    <glyph glyph-name="Zacute.loclPLK" horiz-adv-x="593" 
d="M460 600q3 5 2.5 6.5t-7.5 1.5q-196 0 -262 -5t-88.5 -24t-41.5 -77q0 -2 -4 -2q-3 0 -6 1.5t-2 2.5l40 151q0 1 4 1q10 0 8 -3q-1 -3 -1 -8q0 -12 11.5 -16t46.5 -4h365q5 0 7.5 -5t-0.5 -8l-401 -585l-3 -6q0 -2 8 -2h268q70 0 103 25t43 86q1 2 6 2t5 -2l-14 -122
q0 -3 -2.5 -6.5t-6.5 -3.5q-149 2 -478 2q-5 0 -7 4.5t1 8.5zM307.5 676q-4.5 1 -4.5 4l9 123q1 4 18.5 8.5t32.5 4.5q8 0 12.5 -2.5t1.5 -6.5l-64 -129q-1 -3 -5.5 -2z" />
    <glyph glyph-name="Q.long" horiz-adv-x="766" 
d="M1232.5 -210q1.5 -5 -0.5 -6q-58 -13 -122 -13q-163 0 -334.5 62.5t-322.5 164.5q-47 -10 -87 -10q-93 0 -165.5 43.5t-112 118t-39.5 162.5q0 103 52 176.5t133.5 110.5t166.5 37q95 0 167 -44.5t110.5 -117.5t38.5 -155q0 -97 -53.5 -176t-141.5 -121
q125 -83 294 -158.5t354 -75.5q29 0 42.5 3t15.5 3q3 1 4.5 -4zM149.5 175.5q36.5 -77.5 102.5 -122.5t150 -45q71 0 128 33t90 97t33 153q0 94 -36.5 167.5t-103 114.5t-154.5 41q-116 0 -181 -72t-65 -196q0 -93 36.5 -170.5z" />
    <glyph glyph-name="F.short" horiz-adv-x="506" 
d="M451 495q0 -3 -5.5 -3t-5.5 3q0 51 -27 81t-71 30h-69q-37 0 -55 -5t-25 -18t-7 -40v-220h109q51 0 72 15.5t21 53.5q0 2 6 2t6 -2l-1 -79q0 -29 1 -43l1 -47q0 -2 -6 -2t-6 2q0 45 -21.5 63t-76.5 18h-105v-219q0 -32 9 -46.5t34.5 -20.5t81.5 -6q3 0 3 -6t-3 -6
q-41 0 -64 1l-87 1l-66 -1q-18 -1 -50 -1q-2 0 -2 6t2 6q39 0 57.5 5t25 19.5t6.5 44.5v463q0 30 -6.5 44t-25 19.5t-57.5 5.5q-2 0 -2 6t2 6h396q9 0 9 -9z" />
    <glyph glyph-name="R.short" horiz-adv-x="608" 
d="M597 6q0 -6 -3 -6h-116q-18 0 -67.5 89t-114.5 239q-30 -10 -66 -10q-17 0 -43 2v-239q0 -31 6.5 -45t24.5 -19t58 -5q3 0 3 -6t-3 -6q-30 0 -48 1l-68 1l-66 -1q-18 -1 -50 -1q-2 0 -2 6t2 6q40 0 58.5 5t25.5 19.5t7 44.5v463q0 30 -6.5 44t-25 19.5t-57.5 5.5
q-3 0 -3 6t3 6l48 -1q40 -2 66 -2q18 0 34 1t28 2q31 3 55 3q79 0 121 -33t42 -92q0 -47 -26.5 -88.5t-71.5 -66.5q61 -132 100.5 -202t75 -102t76.5 -32q3 0 3 -6zM247 340q73 0 105 30.5t32 98.5q0 76 -35.5 111t-94.5 35q-28 0 -41 -4t-19.5 -19t-6.5 -50v-198
q38 -4 60 -4z" />
    <glyph glyph-name="Racute.short" horiz-adv-x="608" 
d="M597 6q0 -6 -3 -6h-116q-18 0 -67.5 89t-114.5 239q-30 -10 -66 -10q-17 0 -43 2v-239q0 -31 6.5 -45t24.5 -19t58 -5q3 0 3 -6t-3 -6q-30 0 -48 1l-68 1l-66 -1q-18 -1 -50 -1q-2 0 -2 6t2 6q40 0 58.5 5t25.5 19.5t7 44.5v463q0 30 -6.5 44t-25 19.5t-57.5 5.5
q-3 0 -3 6t3 6l48 -1q40 -2 66 -2q18 0 34 1t28 2q31 3 55 3q79 0 121 -33t42 -92q0 -47 -26.5 -88.5t-71.5 -66.5q61 -132 100.5 -202t75 -102t76.5 -32q3 0 3 -6zM247 340q73 0 105 30.5t32 98.5q0 76 -35.5 111t-94.5 35q-28 0 -41 -4t-19.5 -19t-6.5 -50v-198
q38 -4 60 -4zM163 678q-4 0 -5 4.5t2 6.5q46 21 122 65l50 28q4 2 20.5 -4t29 -13.5t5.5 -8.5q-62 -15 -113.5 -33.5t-108.5 -43.5z" />
    <glyph glyph-name="Rcaron.short" horiz-adv-x="608" 
d="M597 6q0 -6 -3 -6h-116q-18 0 -67.5 89t-114.5 239q-30 -10 -66 -10q-17 0 -43 2v-239q0 -31 6.5 -45t24.5 -19t58 -5q3 0 3 -6t-3 -6q-30 0 -48 1l-68 1l-66 -1q-18 -1 -50 -1q-2 0 -2 6t2 6q40 0 58.5 5t25.5 19.5t7 44.5v463q0 30 -6.5 44t-25 19.5t-57.5 5.5
q-3 0 -3 6t3 6l48 -1q40 -2 66 -2q18 0 34 1t28 2q31 3 55 3q79 0 121 -33t42 -92q0 -47 -26.5 -88.5t-71.5 -66.5q61 -132 100.5 -202t75 -102t76.5 -32q3 0 3 -6zM247 340q73 0 105 30.5t32 98.5q0 76 -35.5 111t-94.5 35q-28 0 -41 -4t-19.5 -19t-6.5 -50v-198
q38 -4 60 -4zM147 779l-1 2q0 2 3 4t4 1l109 -62l108 62l2 1q2 0 3.5 -3.5t-0.5 -4.5l-102 -92q-4 -4 -11 -4q-8 0 -12 4z" />
    <glyph glyph-name="Rcommaaccent.short" horiz-adv-x="608" 
d="M597 6q0 -6 -3 -6h-116q-18 0 -67.5 89t-114.5 239q-30 -10 -66 -10q-17 0 -43 2v-239q0 -31 6.5 -45t24.5 -19t58 -5q3 0 3 -6t-3 -6q-30 0 -48 1l-68 1l-66 -1q-18 -1 -50 -1q-2 0 -2 6t2 6q40 0 58.5 5t25.5 19.5t7 44.5v463q0 30 -6.5 44t-25 19.5t-57.5 5.5
q-3 0 -3 6t3 6l48 -1q40 -2 66 -2q18 0 34 1t28 2q31 3 55 3q79 0 121 -33t42 -92q0 -47 -26.5 -88.5t-71.5 -66.5q61 -132 100.5 -202t75 -102t76.5 -32q3 0 3 -6zM247 340q73 0 105 30.5t32 98.5q0 76 -35.5 111t-94.5 35q-28 0 -41 -4t-19.5 -19t-6.5 -50v-198
q38 -4 60 -4zM359.5 -107q13.5 -18 13.5 -53q0 -32 -14.5 -59.5t-42.5 -55.5q-1 -1 -3 -1q-3 0 -5 3.5t0 4.5q43 40 43 95q0 18 -5 28q-6 -14 -28 -14q-17 0 -26.5 9.5t-9.5 25.5q0 35 38 35q26 0 39.5 -18z" />
    <glyph glyph-name="uni1E5A.short" horiz-adv-x="608" 
d="M597 6q0 -6 -3 -6h-116q-18 0 -67.5 89t-114.5 239q-30 -10 -66 -10q-17 0 -43 2v-239q0 -31 6.5 -45t24.5 -19t58 -5q3 0 3 -6t-3 -6q-30 0 -48 1l-68 1l-66 -1q-18 -1 -50 -1q-2 0 -2 6t2 6q40 0 58.5 5t25.5 19.5t7 44.5v463q0 30 -6.5 44t-25 19.5t-57.5 5.5
q-3 0 -3 6t3 6l48 -1q40 -2 66 -2q18 0 34 1t28 2q31 3 55 3q79 0 121 -33t42 -92q0 -47 -26.5 -88.5t-71.5 -66.5q61 -132 100.5 -202t75 -102t76.5 -32q3 0 3 -6zM247 340q73 0 105 30.5t32 98.5q0 76 -35.5 111t-94.5 35q-28 0 -41 -4t-19.5 -19t-6.5 -50v-198
q38 -4 60 -4zM298.5 -176q-10.5 10 -10.5 28t10.5 28t29.5 10q18 0 28 -10t10 -28t-10 -28t-28 -10q-19 0 -29.5 10z" />
    <glyph glyph-name="uni1E5C.short" horiz-adv-x="608" 
d="M597 6q0 -6 -3 -6h-116q-18 0 -67.5 89t-114.5 239q-30 -10 -66 -10q-17 0 -43 2v-239q0 -31 6.5 -45t24.5 -19t58 -5q3 0 3 -6t-3 -6q-30 0 -48 1l-68 1l-66 -1q-18 -1 -50 -1q-2 0 -2 6t2 6q40 0 58.5 5t25.5 19.5t7 44.5v463q0 30 -6.5 44t-25 19.5t-57.5 5.5
q-3 0 -3 6t3 6l48 -1q40 -2 66 -2q18 0 34 1t28 2q31 3 55 3q79 0 121 -33t42 -92q0 -47 -26.5 -88.5t-71.5 -66.5q61 -132 100.5 -202t75 -102t76.5 -32q3 0 3 -6zM247 340q73 0 105 30.5t32 98.5q0 76 -35.5 111t-94.5 35q-28 0 -41 -4t-19.5 -19t-6.5 -50v-198
q38 -4 60 -4zM298.5 -176q-10.5 10 -10.5 28t10.5 28t29.5 10q18 0 28 -10t10 -28t-10 -28t-28 -10q-19 0 -29.5 10zM131 737q0 13 5 13h251q5 0 5 -13q0 -5 -1.5 -9t-3.5 -4h-251q-5 0 -5 13z" />
    <glyph glyph-name="uni1E5E.short" horiz-adv-x="608" 
d="M597 6q0 -6 -3 -6h-116q-18 0 -67.5 89t-114.5 239q-30 -10 -66 -10q-17 0 -43 2v-239q0 -31 6.5 -45t24.5 -19t58 -5q3 0 3 -6t-3 -6q-30 0 -48 1l-68 1l-66 -1q-18 -1 -50 -1q-2 0 -2 6t2 6q40 0 58.5 5t25.5 19.5t7 44.5v463q0 30 -6.5 44t-25 19.5t-57.5 5.5
q-3 0 -3 6t3 6l48 -1q40 -2 66 -2q18 0 34 1t28 2q31 3 55 3q79 0 121 -33t42 -92q0 -47 -26.5 -88.5t-71.5 -66.5q61 -132 100.5 -202t75 -102t76.5 -32q3 0 3 -6zM247 340q73 0 105 30.5t32 98.5q0 76 -35.5 111t-94.5 35q-28 0 -41 -4t-19.5 -19t-6.5 -50v-198
q38 -4 60 -4zM196 -98q0 13 5 13h251q2 0 3.5 -4t1.5 -9q0 -13 -5 -13h-251q-5 0 -5 13z" />
    <glyph glyph-name="A.ss01" horiz-adv-x="663" 
d="M663 3.5q0 -5.5 -5 -5.5l-56 1q-40 2 -57 2q-21 0 -55 -2l-48 -1q-4 0 -4 5.5t4 5.5q41 0 59 7.5t18 26.5q0 14 -11 39l-116 257h-155l-95 -219q-17 -40 -17 -62q0 -27 24.5 -38t78.5 -11q5 0 5 -5.5t-5 -5.5l-52 1q-38 2 -66 2q-25 0 -59 -2l-49 -1q-5 0 -5 5.5t5 5.5
q34 0 63 29.5t57 91.5l180 406q-12 23 -27 43q-2 2 6.5 18t15.5 36t7 49q0 2 4 3t5 -2q9 -40 24 -79.5t43 -101.5l162 -367q32 -74 57 -100t59 -26q5 0 5 -5.5zM383 358l-63 139l-7 17l-68 -156h138z" />
    <glyph glyph-name="Adieresis.ss01" horiz-adv-x="663" 
d="M663 3.5q0 -5.5 -5 -5.5l-56 1q-40 2 -57 2q-21 0 -55 -2l-48 -1q-4 0 -4 5.5t4 5.5q41 0 59 7.5t18 26.5q0 14 -11 39l-116 257h-155l-95 -219q-17 -40 -17 -62q0 -27 24.5 -38t78.5 -11q5 0 5 -5.5t-5 -5.5l-52 1q-38 2 -66 2q-25 0 -59 -2l-49 -1q-5 0 -5 5.5t5 5.5
q34 0 63 29.5t57 91.5l180 406q-12 23 -27 43q-2 2 6.5 18t15.5 36t7 49q0 2 4 3t5 -2q9 -40 24 -79.5t43 -101.5l162 -367q32 -74 57 -100t59 -26q5 0 5 -5.5zM383 358l-63 139l-7 17l-68 -156h138zM203.5 730q-10.5 10 -10.5 28t10.5 28t29.5 10q18 0 28 -10t10 -28
t-10 -28t-28 -10q-19 0 -29.5 10zM379 730q-11 10 -11 28t11 28t29 10q19 0 29 -10t10 -28t-10 -28t-29 -10q-18 0 -29 10z" />
    <glyph glyph-name="uni1EA0.ss01" horiz-adv-x="663" 
d="M663 3.5q0 -5.5 -5 -5.5l-56 1q-40 2 -57 2q-21 0 -55 -2l-48 -1q-4 0 -4 5.5t4 5.5q41 0 59 7.5t18 26.5q0 14 -11 39l-116 257h-155l-95 -219q-17 -40 -17 -62q0 -27 24.5 -38t78.5 -11q5 0 5 -5.5t-5 -5.5l-52 1q-38 2 -66 2q-25 0 -59 -2l-49 -1q-5 0 -5 5.5t5 5.5
q34 0 63 29.5t57 91.5l180 406q-12 23 -27 43q-2 2 6.5 18t15.5 36t7 49q0 2 4 3t5 -2q9 -40 24 -79.5t43 -101.5l162 -367q32 -74 57 -100t59 -26q5 0 5 -5.5zM383 358l-63 139l-7 17l-68 -156h138zM303.5 -176q-10.5 10 -10.5 28t10.5 28t29.5 10q18 0 28 -10t10 -28
t-10 -28t-28 -10q-19 0 -29.5 10z" />
    <glyph glyph-name="Aogonek.ss01" horiz-adv-x="665" 
d="M666 3.5q0 -5.5 -5 -5.5q-22 0 -52 2l-39 1q-36 0 -67 -17t-50 -47.5t-19 -68.5q0 -47 28.5 -81.5t87.5 -34.5q34 0 58 14h2q3 0 5.5 -3t-0.5 -5q-45 -33 -104 -33q-58 0 -91.5 29t-33.5 80q0 43 20 73t57 65q27 24 40.5 42t13.5 39q0 15 -7 29l-115 257h-157l-96 -219
q-17 -40 -17 -62q0 -27 24.5 -38t78.5 -11q5 0 5 -5.5t-5 -5.5l-52 1q-38 2 -66 2q-25 0 -59 -2l-49 -1q-5 0 -5 5.5t5 5.5q34 0 62.5 29.5t57.5 91.5l183 409q-6 10 -25 40q-2 2 6.5 18t15.5 36t7 49q0 2 4 3t5 -2q9 -39 23 -76t44 -105l159 -367q31 -74 56.5 -100
t60.5 -26q5 0 5 -5.5zM387 358l-62 139l-9 20l-70 -159h141z" />
    <glyph glyph-name="B.ss01" horiz-adv-x="549" 
d="M458.5 294q40.5 -45 40.5 -109q0 -54 -25 -97t-69 -67.5t-97 -24.5q-34 0 -72 3q-14 1 -33 2t-43 1l-66 -1q-18 -1 -50 -1q-2 0 -2 6t2 6q40 0 58.5 5t25.5 19.5t7 44.5v463q0 30 -6.5 44t-25 19.5t-57.5 5.5q-3 0 -3 6t3 6l48 -1q40 -2 66 -2q18 0 34 1t28 2q31 3 55 3
q157 0 157 -122q0 -83 -78 -157q62 -10 102.5 -55zM213 611q-13 -4 -19.5 -19t-6.5 -50v-191h139h12q21 25 31 54.5t10 67.5q0 70 -32.5 106t-92.5 36q-28 0 -41 -4zM404.5 50.5q36.5 38.5 36.5 109.5q0 78 -43.5 125t-124.5 47h-86v-251q0 -27 8.5 -41.5t31.5 -21t67 -6.5
q74 0 110.5 38.5z" />
    <glyph glyph-name="J.ss01" horiz-adv-x="312" 
d="M179 -100q-13 -63 -43.5 -103t-87.5 -72h-1q-3 0 -5 4.5t0 6.5q54 36 75 109.5t21 194.5v504q0 30 -7 44t-25.5 19.5t-57.5 5.5q-3 0 -3 6t3 6l52 -1q40 -2 64 -2q25 0 63 2l42 1q3 0 3 -6t-3 -6q-34 0 -50 -6t-21.5 -20.5t-5.5 -44.5v-475q0 -104 -13 -167z" />
    <glyph glyph-name="K.ss01" horiz-adv-x="643" 
d="M647.5 30.5q1.5 -5.5 -0.5 -7.5q-50 -9 -87 -25q-21 -7 -27 -7q-12 0 -27 8.5t-51 41.5t-105 104l-171 175v-239q0 -31 6.5 -45t24.5 -19t58 -5q2 0 2 -6t-2 -6q-30 0 -48 1l-68 1l-66 -1q-18 -1 -50 -1q-2 0 -2 6t2 6q39 0 57.5 5t25.5 19.5t7 44.5v463q0 30 -6.5 44
t-25 19.5t-57.5 5.5q-2 0 -2 6t2 6l49 -1q42 -2 66 -2q27 0 69 2l47 1q2 0 2 -6t-2 -6q-39 0 -57.5 -6t-25 -20.5t-6.5 -44.5v-212l232 220q34 32 34 46q0 17 -58 17q-2 0 -2 6t2 6l42 -1q38 -2 70 -2t66 2l35 1q3 0 3 -6t-3 -6q-92 0 -166 -69l-211 -195l149 -151
q96 -98 145.5 -134t84.5 -36q8 0 41 7q3 1 4.5 -4.5z" />
    <glyph glyph-name="uni1E30.ss01" horiz-adv-x="643" 
d="M647.5 30.5q1.5 -5.5 -0.5 -7.5q-50 -9 -87 -25q-21 -7 -27 -7q-12 0 -27 8.5t-51 41.5t-105 104l-171 175v-239q0 -31 6.5 -45t24.5 -19t58 -5q2 0 2 -6t-2 -6q-30 0 -48 1l-68 1l-66 -1q-18 -1 -50 -1q-2 0 -2 6t2 6q39 0 57.5 5t25.5 19.5t7 44.5v463q0 30 -6.5 44
t-25 19.5t-57.5 5.5q-2 0 -2 6t2 6l49 -1q42 -2 66 -2q27 0 69 2l47 1q2 0 2 -6t-2 -6q-39 0 -57.5 -6t-25 -20.5t-6.5 -44.5v-212l232 220q34 32 34 46q0 17 -58 17q-2 0 -2 6t2 6l42 -1q38 -2 70 -2t66 2l35 1q3 0 3 -6t-3 -6q-92 0 -166 -69l-211 -195l149 -151
q96 -98 145.5 -134t84.5 -36q8 0 41 7q3 1 4.5 -4.5zM232 678q-4 0 -5 4.5t2 6.5q46 21 122 65l50 28q4 2 20.5 -4t29 -13.5t5.5 -8.5q-62 -15 -113.5 -33.5t-108.5 -43.5z" />
    <glyph glyph-name="uni01E8.ss01" horiz-adv-x="643" 
d="M647.5 30.5q1.5 -5.5 -0.5 -7.5q-50 -9 -87 -25q-21 -7 -27 -7q-12 0 -27 8.5t-51 41.5t-105 104l-171 175v-239q0 -31 6.5 -45t24.5 -19t58 -5q2 0 2 -6t-2 -6q-30 0 -48 1l-68 1l-66 -1q-18 -1 -50 -1q-2 0 -2 6t2 6q39 0 57.5 5t25.5 19.5t7 44.5v463q0 30 -6.5 44
t-25 19.5t-57.5 5.5q-2 0 -2 6t2 6l49 -1q42 -2 66 -2q27 0 69 2l47 1q2 0 2 -6t-2 -6q-39 0 -57.5 -6t-25 -20.5t-6.5 -44.5v-212l232 220q34 32 34 46q0 17 -58 17q-2 0 -2 6t2 6l42 -1q38 -2 70 -2t66 2l35 1q3 0 3 -6t-3 -6q-92 0 -166 -69l-211 -195l149 -151
q96 -98 145.5 -134t84.5 -36q8 0 41 7q3 1 4.5 -4.5zM216 779l-1 2q0 2 3 4t4 1l109 -62l108 62l2 1q2 0 3.5 -3.5t-0.5 -4.5l-102 -92q-4 -4 -11 -4q-8 0 -12 4z" />
    <glyph glyph-name="Kcommaaccent.ss01" horiz-adv-x="643" 
d="M647.5 30.5q1.5 -5.5 -0.5 -7.5q-50 -9 -87 -25q-21 -7 -27 -7q-12 0 -27 8.5t-51 41.5t-105 104l-171 175v-239q0 -31 6.5 -45t24.5 -19t58 -5q2 0 2 -6t-2 -6q-30 0 -48 1l-68 1l-66 -1q-18 -1 -50 -1q-2 0 -2 6t2 6q39 0 57.5 5t25.5 19.5t7 44.5v463q0 30 -6.5 44
t-25 19.5t-57.5 5.5q-2 0 -2 6t2 6l49 -1q42 -2 66 -2q27 0 69 2l47 1q2 0 2 -6t-2 -6q-39 0 -57.5 -6t-25 -20.5t-6.5 -44.5v-212l232 220q34 32 34 46q0 17 -58 17q-2 0 -2 6t2 6l42 -1q38 -2 70 -2t66 2l35 1q3 0 3 -6t-3 -6q-92 0 -166 -69l-211 -195l149 -151
q96 -98 145.5 -134t84.5 -36q8 0 41 7q3 1 4.5 -4.5zM377.5 -107q13.5 -18 13.5 -53q0 -32 -14.5 -59.5t-42.5 -55.5q-1 -1 -3 -1q-3 0 -5 3.5t0 4.5q43 40 43 95q0 18 -5 28q-6 -14 -28 -14q-17 0 -26.5 9.5t-9.5 25.5q0 35 38 35q26 0 39.5 -18z" />
    <glyph glyph-name="Q.ss01" horiz-adv-x="766" 
d="M762 -150q2 -6 -1 -7q-50 -9 -87 -25q-19 -7 -26 -7q-11 0 -26 10.5t-53.5 50t-116.5 126.5q-40 -10 -86 -10q-93 0 -165.5 43.5t-112 118t-39.5 162.5q0 103 52 176.5t133.5 110.5t166.5 37q95 0 167 -44.5t110.5 -117.5t38.5 -155q0 -101 -58.5 -183t-152.5 -120
q93 -98 136.5 -133t74.5 -35q17 0 41 7q2 1 4 -5zM149.5 175.5q36.5 -77.5 102.5 -122.5t150 -45q71 0 128 33t90 97t33 153q0 94 -36.5 167.5t-103 114.5t-154.5 41q-116 0 -181 -72t-65 -196q0 -93 36.5 -170.5z" />
    <glyph glyph-name="R.ss01" horiz-adv-x="660" 
d="M671 30q2 -6 -1 -7q-31 -6 -78 -21q-3 -1 -18.5 -6t-28.5 -5q-16 0 -39 23t-71.5 93t-144.5 219q-30 -8 -60 -8q-17 0 -43 2v-239q0 -31 6.5 -45t24.5 -19t58 -5q3 0 3 -6t-3 -6q-30 0 -48 1l-68 1l-66 -1q-18 -1 -50 -1q-2 0 -2 6t2 6q40 0 58.5 5t25.5 19.5t7 44.5v463
q0 30 -6.5 44t-25 19.5t-57.5 5.5q-3 0 -3 6t3 6l48 -1q40 -2 66 -2q18 0 34 1t28 2q31 3 55 3q79 0 121 -33t42 -92q0 -48 -28 -90.5t-74 -67.5q97 -152 147 -218.5t76 -82.5t61 -16q14 0 27.5 3t17.5 4q2 1 4 -5zM247 340q73 0 105 30.5t32 98.5q0 76 -35.5 111t-94.5 35
q-28 0 -41 -4t-19.5 -19t-6.5 -50v-198q38 -4 60 -4z" />
    </font>
</defs>
</svg>
